ISO-10303-21;
HEADER;
/* Generated by software containing ST-Developer
 * from STEP Tools, Inc. (www.steptools.com) 
 */

FILE_DESCRIPTION(
/* description */ (''),
/* implementation_level */ '2;1');

FILE_NAME(
/* name */ 'card-turret-platform.step',
/* time_stamp */ '2026-09-12T01:07:41-07:00',
/* author */ (''),
/* organization */ (''),
/* preprocessor_version */ 'ST-DEVELOPER v20.2',
/* originating_system */ 'Autodesk Translation Framework v15.15.0.0',
/* authorisation */ '');

FILE_SCHEMA (('AUTOMOTIVE_DESIGN { 1 0 10303 214 3 1 1 }'));
ENDSEC;

DATA;
#10=MECHANICAL_DESIGN_GEOMETRIC_PRESENTATION_REPRESENTATION('',(#17),#1039);
#11=ITEM_DEFINED_TRANSFORMATION($,$,#651,#695);
#12=(
REPRESENTATION_RELATIONSHIP($,$,#1050,#1049)
REPRESENTATION_RELATIONSHIP_WITH_TRANSFORMATION(#11)
SHAPE_REPRESENTATION_RELATIONSHIP()
);
#13=CONTEXT_DEPENDENT_SHAPE_REPRESENTATION(#12,#1048);
#14=NEXT_ASSEMBLY_USAGE_OCCURRENCE('Component1:1','Component1:1',
'Component1:1',#1052,#1053,'Component1:1');
#15=SHAPE_REPRESENTATION_RELATIONSHIP('SRR','None',#1050,#16);
#16=ADVANCED_BREP_SHAPE_REPRESENTATION('',(#18),#1038);
#17=STYLED_ITEM('',(#1063),#18);
#18=MANIFOLD_SOLID_BREP('Body1',#637);
#19=CIRCLE('',#668,1.5);
#20=CIRCLE('',#669,1.5);
#21=CIRCLE('',#671,1.5);
#22=CIRCLE('',#672,1.5);
#23=CIRCLE('',#680,1.5);
#24=CIRCLE('',#681,1.5);
#25=CIRCLE('',#683,1.5);
#26=CIRCLE('',#684,1.5);
#27=CIRCLE('',#686,1.5);
#28=CIRCLE('',#687,1.5);
#29=CIRCLE('',#689,1.5);
#30=CIRCLE('',#690,1.5);
#31=CYLINDRICAL_SURFACE('',#667,1.5);
#32=CYLINDRICAL_SURFACE('',#670,1.5);
#33=CYLINDRICAL_SURFACE('',#679,1.5);
#34=CYLINDRICAL_SURFACE('',#682,1.5);
#35=CYLINDRICAL_SURFACE('',#685,1.5);
#36=CYLINDRICAL_SURFACE('',#688,1.5);
#37=FACE_BOUND('',#97,.T.);
#38=FACE_BOUND('',#113,.T.);
#39=FACE_BOUND('',#114,.T.);
#40=FACE_BOUND('',#115,.T.);
#41=FACE_BOUND('',#116,.T.);
#42=FACE_BOUND('',#117,.T.);
#43=FACE_BOUND('',#118,.T.);
#44=FACE_BOUND('',#119,.T.);
#45=FACE_BOUND('',#122,.T.);
#46=FACE_BOUND('',#123,.T.);
#47=FACE_BOUND('',#124,.T.);
#48=FACE_BOUND('',#125,.T.);
#49=FACE_BOUND('',#126,.T.);
#50=FACE_BOUND('',#127,.T.);
#51=FACE_BOUND('',#128,.T.);
#52=FACE_OUTER_BOUND('',#83,.T.);
#53=FACE_OUTER_BOUND('',#84,.T.);
#54=FACE_OUTER_BOUND('',#85,.T.);
#55=FACE_OUTER_BOUND('',#86,.T.);
#56=FACE_OUTER_BOUND('',#87,.T.);
#57=FACE_OUTER_BOUND('',#88,.T.);
#58=FACE_OUTER_BOUND('',#89,.T.);
#59=FACE_OUTER_BOUND('',#90,.T.);
#60=FACE_OUTER_BOUND('',#91,.T.);
#61=FACE_OUTER_BOUND('',#92,.T.);
#62=FACE_OUTER_BOUND('',#93,.T.);
#63=FACE_OUTER_BOUND('',#94,.T.);
#64=FACE_OUTER_BOUND('',#95,.T.);
#65=FACE_OUTER_BOUND('',#96,.T.);
#66=FACE_OUTER_BOUND('',#98,.T.);
#67=FACE_OUTER_BOUND('',#99,.T.);
#68=FACE_OUTER_BOUND('',#100,.T.);
#69=FACE_OUTER_BOUND('',#101,.T.);
#70=FACE_OUTER_BOUND('',#102,.T.);
#71=FACE_OUTER_BOUND('',#103,.T.);
#72=FACE_OUTER_BOUND('',#104,.T.);
#73=FACE_OUTER_BOUND('',#105,.T.);
#74=FACE_OUTER_BOUND('',#106,.T.);
#75=FACE_OUTER_BOUND('',#107,.T.);
#76=FACE_OUTER_BOUND('',#108,.T.);
#77=FACE_OUTER_BOUND('',#109,.T.);
#78=FACE_OUTER_BOUND('',#110,.T.);
#79=FACE_OUTER_BOUND('',#111,.T.);
#80=FACE_OUTER_BOUND('',#112,.T.);
#81=FACE_OUTER_BOUND('',#120,.T.);
#82=FACE_OUTER_BOUND('',#121,.T.);
#83=EDGE_LOOP('',(#413,#414,#415,#416));
#84=EDGE_LOOP('',(#417,#418,#419,#420));
#85=EDGE_LOOP('',(#421,#422,#423,#424,#425,#426,#427,#428,#429,#430,#431,
#432));
#86=EDGE_LOOP('',(#433,#434,#435,#436));
#87=EDGE_LOOP('',(#437,#438,#439,#440,#441,#442,#443,#444,#445,#446,#447,
#448));
#88=EDGE_LOOP('',(#449,#450,#451,#452));
#89=EDGE_LOOP('',(#453,#454,#455,#456));
#90=EDGE_LOOP('',(#457,#458,#459,#460));
#91=EDGE_LOOP('',(#461,#462,#463,#464));
#92=EDGE_LOOP('',(#465,#466,#467,#468));
#93=EDGE_LOOP('',(#469,#470,#471,#472));
#94=EDGE_LOOP('',(#473,#474,#475,#476));
#95=EDGE_LOOP('',(#477,#478,#479,#480));
#96=EDGE_LOOP('',(#481,#482,#483,#484));
#97=EDGE_LOOP('',(#485,#486,#487,#488));
#98=EDGE_LOOP('',(#489,#490,#491,#492));
#99=EDGE_LOOP('',(#493,#494,#495,#496));
#100=EDGE_LOOP('',(#497,#498,#499,#500));
#101=EDGE_LOOP('',(#501,#502,#503,#504));
#102=EDGE_LOOP('',(#505,#506,#507,#508));
#103=EDGE_LOOP('',(#509,#510,#511,#512));
#104=EDGE_LOOP('',(#513,#514,#515,#516));
#105=EDGE_LOOP('',(#517,#518,#519,#520));
#106=EDGE_LOOP('',(#521,#522,#523,#524));
#107=EDGE_LOOP('',(#525,#526,#527,#528));
#108=EDGE_LOOP('',(#529,#530,#531,#532));
#109=EDGE_LOOP('',(#533,#534,#535,#536));
#110=EDGE_LOOP('',(#537,#538,#539,#540));
#111=EDGE_LOOP('',(#541,#542,#543,#544));
#112=EDGE_LOOP('',(#545,#546,#547,#548));
#113=EDGE_LOOP('',(#549));
#114=EDGE_LOOP('',(#550));
#115=EDGE_LOOP('',(#551));
#116=EDGE_LOOP('',(#552));
#117=EDGE_LOOP('',(#553,#554,#555,#556,#557,#558));
#118=EDGE_LOOP('',(#559));
#119=EDGE_LOOP('',(#560));
#120=EDGE_LOOP('',(#561,#562,#563,#564));
#121=EDGE_LOOP('',(#565,#566,#567,#568));
#122=EDGE_LOOP('',(#569));
#123=EDGE_LOOP('',(#570));
#124=EDGE_LOOP('',(#571));
#125=EDGE_LOOP('',(#572));
#126=EDGE_LOOP('',(#573,#574,#575,#576,#577,#578));
#127=EDGE_LOOP('',(#579));
#128=EDGE_LOOP('',(#580));
#129=LINE('',#865,#201);
#130=LINE('',#867,#202);
#131=LINE('',#869,#203);
#132=LINE('',#870,#204);
#133=LINE('',#873,#205);
#134=LINE('',#875,#206);
#135=LINE('',#876,#207);
#136=LINE('',#879,#208);
#137=LINE('',#881,#209);
#138=LINE('',#883,#210);
#139=LINE('',#885,#211);
#140=LINE('',#887,#212);
#141=LINE('',#889,#213);
#142=LINE('',#891,#214);
#143=LINE('',#893,#215);
#144=LINE('',#895,#216);
#145=LINE('',#896,#217);
#146=LINE('',#899,#218);
#147=LINE('',#901,#219);
#148=LINE('',#902,#220);
#149=LINE('',#905,#221);
#150=LINE('',#907,#222);
#151=LINE('',#909,#223);
#152=LINE('',#911,#224);
#153=LINE('',#913,#225);
#154=LINE('',#914,#226);
#155=LINE('',#916,#227);
#156=LINE('',#918,#228);
#157=LINE('',#919,#229);
#158=LINE('',#921,#230);
#159=LINE('',#923,#231);
#160=LINE('',#924,#232);
#161=LINE('',#926,#233);
#162=LINE('',#927,#234);
#163=LINE('',#929,#235);
#164=LINE('',#933,#236);
#165=LINE('',#935,#237);
#166=LINE('',#937,#238);
#167=LINE('',#938,#239);
#168=LINE('',#941,#240);
#169=LINE('',#943,#241);
#170=LINE('',#944,#242);
#171=LINE('',#947,#243);
#172=LINE('',#949,#244);
#173=LINE('',#950,#245);
#174=LINE('',#952,#246);
#175=LINE('',#953,#247);
#176=LINE('',#960,#248);
#177=LINE('',#966,#249);
#178=LINE('',#971,#250);
#179=LINE('',#973,#251);
#180=LINE('',#975,#252);
#181=LINE('',#976,#253);
#182=LINE('',#979,#254);
#183=LINE('',#981,#255);
#184=LINE('',#982,#256);
#185=LINE('',#985,#257);
#186=LINE('',#987,#258);
#187=LINE('',#988,#259);
#188=LINE('',#991,#260);
#189=LINE('',#993,#261);
#190=LINE('',#994,#262);
#191=LINE('',#997,#263);
#192=LINE('',#999,#264);
#193=LINE('',#1000,#265);
#194=LINE('',#1002,#266);
#195=LINE('',#1003,#267);
#196=LINE('',#1008,#268);
#197=LINE('',#1014,#269);
#198=LINE('',#1020,#270);
#199=LINE('',#1026,#271);
#200=LINE('',#1029,#272);
#201=VECTOR('',#702,10.);
#202=VECTOR('',#703,10.);
#203=VECTOR('',#704,10.);
#204=VECTOR('',#705,10.);
#205=VECTOR('',#708,10.);
#206=VECTOR('',#709,10.);
#207=VECTOR('',#710,10.);
#208=VECTOR('',#713,10.);
#209=VECTOR('',#714,10.);
#210=VECTOR('',#715,10.);
#211=VECTOR('',#716,10.);
#212=VECTOR('',#717,10.);
#213=VECTOR('',#718,10.);
#214=VECTOR('',#719,10.);
#215=VECTOR('',#720,10.);
#216=VECTOR('',#721,10.);
#217=VECTOR('',#722,10.);
#218=VECTOR('',#725,10.);
#219=VECTOR('',#726,10.);
#220=VECTOR('',#727,10.);
#221=VECTOR('',#730,10.);
#222=VECTOR('',#731,10.);
#223=VECTOR('',#732,10.);
#224=VECTOR('',#733,10.);
#225=VECTOR('',#734,10.);
#226=VECTOR('',#735,10.);
#227=VECTOR('',#736,10.);
#228=VECTOR('',#737,10.);
#229=VECTOR('',#738,10.);
#230=VECTOR('',#741,10.);
#231=VECTOR('',#744,10.);
#232=VECTOR('',#745,10.);
#233=VECTOR('',#748,10.);
#234=VECTOR('',#749,10.);
#235=VECTOR('',#752,10.);
#236=VECTOR('',#755,10.);
#237=VECTOR('',#756,10.);
#238=VECTOR('',#757,10.);
#239=VECTOR('',#758,10.);
#240=VECTOR('',#761,10.);
#241=VECTOR('',#762,10.);
#242=VECTOR('',#763,10.);
#243=VECTOR('',#766,10.);
#244=VECTOR('',#767,10.);
#245=VECTOR('',#768,10.);
#246=VECTOR('',#771,10.);
#247=VECTOR('',#772,10.);
#248=VECTOR('',#781,1.5);
#249=VECTOR('',#788,1.5);
#250=VECTOR('',#793,10.);
#251=VECTOR('',#794,10.);
#252=VECTOR('',#795,10.);
#253=VECTOR('',#796,10.);
#254=VECTOR('',#799,10.);
#255=VECTOR('',#800,10.);
#256=VECTOR('',#801,10.);
#257=VECTOR('',#804,10.);
#258=VECTOR('',#805,10.);
#259=VECTOR('',#806,10.);
#260=VECTOR('',#809,10.);
#261=VECTOR('',#810,10.);
#262=VECTOR('',#811,10.);
#263=VECTOR('',#814,10.);
#264=VECTOR('',#815,10.);
#265=VECTOR('',#816,10.);
#266=VECTOR('',#819,10.);
#267=VECTOR('',#820,10.);
#268=VECTOR('',#825,1.5);
#269=VECTOR('',#832,1.5);
#270=VECTOR('',#839,1.5);
#271=VECTOR('',#846,1.5);
#272=VECTOR('',#851,10.);
#273=VERTEX_POINT('',#863);
#274=VERTEX_POINT('',#864);
#275=VERTEX_POINT('',#866);
#276=VERTEX_POINT('',#868);
#277=VERTEX_POINT('',#872);
#278=VERTEX_POINT('',#874);
#279=VERTEX_POINT('',#878);
#280=VERTEX_POINT('',#880);
#281=VERTEX_POINT('',#882);
#282=VERTEX_POINT('',#884);
#283=VERTEX_POINT('',#886);
#284=VERTEX_POINT('',#888);
#285=VERTEX_POINT('',#890);
#286=VERTEX_POINT('',#892);
#287=VERTEX_POINT('',#894);
#288=VERTEX_POINT('',#898);
#289=VERTEX_POINT('',#900);
#290=VERTEX_POINT('',#904);
#291=VERTEX_POINT('',#906);
#292=VERTEX_POINT('',#908);
#293=VERTEX_POINT('',#910);
#294=VERTEX_POINT('',#912);
#295=VERTEX_POINT('',#915);
#296=VERTEX_POINT('',#917);
#297=VERTEX_POINT('',#931);
#298=VERTEX_POINT('',#932);
#299=VERTEX_POINT('',#934);
#300=VERTEX_POINT('',#936);
#301=VERTEX_POINT('',#940);
#302=VERTEX_POINT('',#942);
#303=VERTEX_POINT('',#946);
#304=VERTEX_POINT('',#948);
#305=VERTEX_POINT('',#957);
#306=VERTEX_POINT('',#959);
#307=VERTEX_POINT('',#963);
#308=VERTEX_POINT('',#965);
#309=VERTEX_POINT('',#969);
#310=VERTEX_POINT('',#970);
#311=VERTEX_POINT('',#972);
#312=VERTEX_POINT('',#974);
#313=VERTEX_POINT('',#978);
#314=VERTEX_POINT('',#980);
#315=VERTEX_POINT('',#984);
#316=VERTEX_POINT('',#986);
#317=VERTEX_POINT('',#990);
#318=VERTEX_POINT('',#992);
#319=VERTEX_POINT('',#996);
#320=VERTEX_POINT('',#998);
#321=VERTEX_POINT('',#1005);
#322=VERTEX_POINT('',#1007);
#323=VERTEX_POINT('',#1011);
#324=VERTEX_POINT('',#1013);
#325=VERTEX_POINT('',#1017);
#326=VERTEX_POINT('',#1019);
#327=VERTEX_POINT('',#1023);
#328=VERTEX_POINT('',#1025);
#329=EDGE_CURVE('',#273,#274,#129,.T.);
#330=EDGE_CURVE('',#275,#273,#130,.T.);
#331=EDGE_CURVE('',#276,#275,#131,.T.);
#332=EDGE_CURVE('',#274,#276,#132,.T.);
#333=EDGE_CURVE('',#275,#277,#133,.T.);
#334=EDGE_CURVE('',#278,#277,#134,.T.);
#335=EDGE_CURVE('',#276,#278,#135,.T.);
#336=EDGE_CURVE('',#273,#279,#136,.T.);
#337=EDGE_CURVE('',#280,#279,#137,.T.);
#338=EDGE_CURVE('',#281,#280,#138,.T.);
#339=EDGE_CURVE('',#281,#282,#139,.T.);
#340=EDGE_CURVE('',#282,#283,#140,.T.);
#341=EDGE_CURVE('',#283,#284,#141,.T.);
#342=EDGE_CURVE('',#284,#285,#142,.T.);
#343=EDGE_CURVE('',#286,#285,#143,.T.);
#344=EDGE_CURVE('',#287,#286,#144,.T.);
#345=EDGE_CURVE('',#277,#287,#145,.T.);
#346=EDGE_CURVE('',#288,#281,#146,.T.);
#347=EDGE_CURVE('',#289,#288,#147,.T.);
#348=EDGE_CURVE('',#282,#289,#148,.T.);
#349=EDGE_CURVE('',#290,#278,#149,.T.);
#350=EDGE_CURVE('',#290,#291,#150,.T.);
#351=EDGE_CURVE('',#292,#291,#151,.T.);
#352=EDGE_CURVE('',#293,#292,#152,.T.);
#353=EDGE_CURVE('',#293,#294,#153,.T.);
#354=EDGE_CURVE('',#289,#294,#154,.T.);
#355=EDGE_CURVE('',#288,#295,#155,.T.);
#356=EDGE_CURVE('',#296,#295,#156,.T.);
#357=EDGE_CURVE('',#274,#296,#157,.T.);
#358=EDGE_CURVE('',#295,#280,#158,.T.);
#359=EDGE_CURVE('',#284,#293,#159,.T.);
#360=EDGE_CURVE('',#283,#294,#160,.T.);
#361=EDGE_CURVE('',#287,#290,#161,.T.);
#362=EDGE_CURVE('',#291,#286,#162,.T.);
#363=EDGE_CURVE('',#285,#292,#163,.T.);
#364=EDGE_CURVE('',#297,#298,#164,.T.);
#365=EDGE_CURVE('',#298,#299,#165,.T.);
#366=EDGE_CURVE('',#300,#299,#166,.T.);
#367=EDGE_CURVE('',#297,#300,#167,.T.);
#368=EDGE_CURVE('',#301,#297,#168,.T.);
#369=EDGE_CURVE('',#302,#300,#169,.T.);
#370=EDGE_CURVE('',#301,#302,#170,.T.);
#371=EDGE_CURVE('',#303,#301,#171,.T.);
#372=EDGE_CURVE('',#304,#302,#172,.T.);
#373=EDGE_CURVE('',#303,#304,#173,.T.);
#374=EDGE_CURVE('',#298,#303,#174,.T.);
#375=EDGE_CURVE('',#299,#304,#175,.T.);
#376=EDGE_CURVE('',#305,#305,#19,.T.);
#377=EDGE_CURVE('',#305,#306,#176,.T.);
#378=EDGE_CURVE('',#306,#306,#20,.T.);
#379=EDGE_CURVE('',#307,#307,#21,.T.);
#380=EDGE_CURVE('',#307,#308,#177,.T.);
#381=EDGE_CURVE('',#308,#308,#22,.T.);
#382=EDGE_CURVE('',#309,#310,#178,.T.);
#383=EDGE_CURVE('',#310,#311,#179,.T.);
#384=EDGE_CURVE('',#312,#311,#180,.T.);
#385=EDGE_CURVE('',#309,#312,#181,.T.);
#386=EDGE_CURVE('',#313,#309,#182,.T.);
#387=EDGE_CURVE('',#314,#312,#183,.T.);
#388=EDGE_CURVE('',#313,#314,#184,.T.);
#389=EDGE_CURVE('',#315,#313,#185,.T.);
#390=EDGE_CURVE('',#316,#314,#186,.T.);
#391=EDGE_CURVE('',#315,#316,#187,.T.);
#392=EDGE_CURVE('',#317,#315,#188,.T.);
#393=EDGE_CURVE('',#318,#316,#189,.T.);
#394=EDGE_CURVE('',#317,#318,#190,.T.);
#395=EDGE_CURVE('',#319,#317,#191,.T.);
#396=EDGE_CURVE('',#320,#318,#192,.T.);
#397=EDGE_CURVE('',#319,#320,#193,.T.);
#398=EDGE_CURVE('',#310,#319,#194,.T.);
#399=EDGE_CURVE('',#311,#320,#195,.T.);
#400=EDGE_CURVE('',#321,#321,#23,.T.);
#401=EDGE_CURVE('',#321,#322,#196,.T.);
#402=EDGE_CURVE('',#322,#322,#24,.T.);
#403=EDGE_CURVE('',#323,#323,#25,.T.);
#404=EDGE_CURVE('',#323,#324,#197,.T.);
#405=EDGE_CURVE('',#324,#324,#26,.T.);
#406=EDGE_CURVE('',#325,#325,#27,.T.);
#407=EDGE_CURVE('',#325,#326,#198,.T.);
#408=EDGE_CURVE('',#326,#326,#28,.T.);
#409=EDGE_CURVE('',#327,#327,#29,.T.);
#410=EDGE_CURVE('',#327,#328,#199,.T.);
#411=EDGE_CURVE('',#328,#328,#30,.T.);
#412=EDGE_CURVE('',#279,#296,#200,.T.);
#413=ORIENTED_EDGE('',*,*,#329,.F.);
#414=ORIENTED_EDGE('',*,*,#330,.F.);
#415=ORIENTED_EDGE('',*,*,#331,.F.);
#416=ORIENTED_EDGE('',*,*,#332,.F.);
#417=ORIENTED_EDGE('',*,*,#331,.T.);
#418=ORIENTED_EDGE('',*,*,#333,.T.);
#419=ORIENTED_EDGE('',*,*,#334,.F.);
#420=ORIENTED_EDGE('',*,*,#335,.F.);
#421=ORIENTED_EDGE('',*,*,#330,.T.);
#422=ORIENTED_EDGE('',*,*,#336,.T.);
#423=ORIENTED_EDGE('',*,*,#337,.F.);
#424=ORIENTED_EDGE('',*,*,#338,.F.);
#425=ORIENTED_EDGE('',*,*,#339,.T.);
#426=ORIENTED_EDGE('',*,*,#340,.T.);
#427=ORIENTED_EDGE('',*,*,#341,.T.);
#428=ORIENTED_EDGE('',*,*,#342,.T.);
#429=ORIENTED_EDGE('',*,*,#343,.F.);
#430=ORIENTED_EDGE('',*,*,#344,.F.);
#431=ORIENTED_EDGE('',*,*,#345,.F.);
#432=ORIENTED_EDGE('',*,*,#333,.F.);
#433=ORIENTED_EDGE('',*,*,#339,.F.);
#434=ORIENTED_EDGE('',*,*,#346,.F.);
#435=ORIENTED_EDGE('',*,*,#347,.F.);
#436=ORIENTED_EDGE('',*,*,#348,.F.);
#437=ORIENTED_EDGE('',*,*,#332,.T.);
#438=ORIENTED_EDGE('',*,*,#335,.T.);
#439=ORIENTED_EDGE('',*,*,#349,.F.);
#440=ORIENTED_EDGE('',*,*,#350,.T.);
#441=ORIENTED_EDGE('',*,*,#351,.F.);
#442=ORIENTED_EDGE('',*,*,#352,.F.);
#443=ORIENTED_EDGE('',*,*,#353,.T.);
#444=ORIENTED_EDGE('',*,*,#354,.F.);
#445=ORIENTED_EDGE('',*,*,#347,.T.);
#446=ORIENTED_EDGE('',*,*,#355,.T.);
#447=ORIENTED_EDGE('',*,*,#356,.F.);
#448=ORIENTED_EDGE('',*,*,#357,.F.);
#449=ORIENTED_EDGE('',*,*,#346,.T.);
#450=ORIENTED_EDGE('',*,*,#338,.T.);
#451=ORIENTED_EDGE('',*,*,#358,.F.);
#452=ORIENTED_EDGE('',*,*,#355,.F.);
#453=ORIENTED_EDGE('',*,*,#359,.F.);
#454=ORIENTED_EDGE('',*,*,#341,.F.);
#455=ORIENTED_EDGE('',*,*,#360,.T.);
#456=ORIENTED_EDGE('',*,*,#353,.F.);
#457=ORIENTED_EDGE('',*,*,#361,.F.);
#458=ORIENTED_EDGE('',*,*,#344,.T.);
#459=ORIENTED_EDGE('',*,*,#362,.F.);
#460=ORIENTED_EDGE('',*,*,#350,.F.);
#461=ORIENTED_EDGE('',*,*,#359,.T.);
#462=ORIENTED_EDGE('',*,*,#352,.T.);
#463=ORIENTED_EDGE('',*,*,#363,.F.);
#464=ORIENTED_EDGE('',*,*,#342,.F.);
#465=ORIENTED_EDGE('',*,*,#364,.T.);
#466=ORIENTED_EDGE('',*,*,#365,.T.);
#467=ORIENTED_EDGE('',*,*,#366,.F.);
#468=ORIENTED_EDGE('',*,*,#367,.F.);
#469=ORIENTED_EDGE('',*,*,#368,.T.);
#470=ORIENTED_EDGE('',*,*,#367,.T.);
#471=ORIENTED_EDGE('',*,*,#369,.F.);
#472=ORIENTED_EDGE('',*,*,#370,.F.);
#473=ORIENTED_EDGE('',*,*,#371,.T.);
#474=ORIENTED_EDGE('',*,*,#370,.T.);
#475=ORIENTED_EDGE('',*,*,#372,.F.);
#476=ORIENTED_EDGE('',*,*,#373,.F.);
#477=ORIENTED_EDGE('',*,*,#374,.T.);
#478=ORIENTED_EDGE('',*,*,#373,.T.);
#479=ORIENTED_EDGE('',*,*,#375,.F.);
#480=ORIENTED_EDGE('',*,*,#365,.F.);
#481=ORIENTED_EDGE('',*,*,#375,.T.);
#482=ORIENTED_EDGE('',*,*,#372,.T.);
#483=ORIENTED_EDGE('',*,*,#369,.T.);
#484=ORIENTED_EDGE('',*,*,#366,.T.);
#485=ORIENTED_EDGE('',*,*,#343,.T.);
#486=ORIENTED_EDGE('',*,*,#363,.T.);
#487=ORIENTED_EDGE('',*,*,#351,.T.);
#488=ORIENTED_EDGE('',*,*,#362,.T.);
#489=ORIENTED_EDGE('',*,*,#345,.T.);
#490=ORIENTED_EDGE('',*,*,#361,.T.);
#491=ORIENTED_EDGE('',*,*,#349,.T.);
#492=ORIENTED_EDGE('',*,*,#334,.T.);
#493=ORIENTED_EDGE('',*,*,#376,.F.);
#494=ORIENTED_EDGE('',*,*,#377,.T.);
#495=ORIENTED_EDGE('',*,*,#378,.T.);
#496=ORIENTED_EDGE('',*,*,#377,.F.);
#497=ORIENTED_EDGE('',*,*,#379,.F.);
#498=ORIENTED_EDGE('',*,*,#380,.T.);
#499=ORIENTED_EDGE('',*,*,#381,.T.);
#500=ORIENTED_EDGE('',*,*,#380,.F.);
#501=ORIENTED_EDGE('',*,*,#382,.T.);
#502=ORIENTED_EDGE('',*,*,#383,.T.);
#503=ORIENTED_EDGE('',*,*,#384,.F.);
#504=ORIENTED_EDGE('',*,*,#385,.F.);
#505=ORIENTED_EDGE('',*,*,#386,.T.);
#506=ORIENTED_EDGE('',*,*,#385,.T.);
#507=ORIENTED_EDGE('',*,*,#387,.F.);
#508=ORIENTED_EDGE('',*,*,#388,.F.);
#509=ORIENTED_EDGE('',*,*,#389,.T.);
#510=ORIENTED_EDGE('',*,*,#388,.T.);
#511=ORIENTED_EDGE('',*,*,#390,.F.);
#512=ORIENTED_EDGE('',*,*,#391,.F.);
#513=ORIENTED_EDGE('',*,*,#392,.T.);
#514=ORIENTED_EDGE('',*,*,#391,.T.);
#515=ORIENTED_EDGE('',*,*,#393,.F.);
#516=ORIENTED_EDGE('',*,*,#394,.F.);
#517=ORIENTED_EDGE('',*,*,#395,.T.);
#518=ORIENTED_EDGE('',*,*,#394,.T.);
#519=ORIENTED_EDGE('',*,*,#396,.F.);
#520=ORIENTED_EDGE('',*,*,#397,.F.);
#521=ORIENTED_EDGE('',*,*,#398,.T.);
#522=ORIENTED_EDGE('',*,*,#397,.T.);
#523=ORIENTED_EDGE('',*,*,#399,.F.);
#524=ORIENTED_EDGE('',*,*,#383,.F.);
#525=ORIENTED_EDGE('',*,*,#400,.F.);
#526=ORIENTED_EDGE('',*,*,#401,.T.);
#527=ORIENTED_EDGE('',*,*,#402,.T.);
#528=ORIENTED_EDGE('',*,*,#401,.F.);
#529=ORIENTED_EDGE('',*,*,#403,.F.);
#530=ORIENTED_EDGE('',*,*,#404,.T.);
#531=ORIENTED_EDGE('',*,*,#405,.T.);
#532=ORIENTED_EDGE('',*,*,#404,.F.);
#533=ORIENTED_EDGE('',*,*,#406,.F.);
#534=ORIENTED_EDGE('',*,*,#407,.T.);
#535=ORIENTED_EDGE('',*,*,#408,.T.);
#536=ORIENTED_EDGE('',*,*,#407,.F.);
#537=ORIENTED_EDGE('',*,*,#409,.F.);
#538=ORIENTED_EDGE('',*,*,#410,.T.);
#539=ORIENTED_EDGE('',*,*,#411,.T.);
#540=ORIENTED_EDGE('',*,*,#410,.F.);
#541=ORIENTED_EDGE('',*,*,#329,.T.);
#542=ORIENTED_EDGE('',*,*,#357,.T.);
#543=ORIENTED_EDGE('',*,*,#412,.F.);
#544=ORIENTED_EDGE('',*,*,#336,.F.);
#545=ORIENTED_EDGE('',*,*,#358,.T.);
#546=ORIENTED_EDGE('',*,*,#337,.T.);
#547=ORIENTED_EDGE('',*,*,#412,.T.);
#548=ORIENTED_EDGE('',*,*,#356,.T.);
#549=ORIENTED_EDGE('',*,*,#409,.T.);
#550=ORIENTED_EDGE('',*,*,#406,.T.);
#551=ORIENTED_EDGE('',*,*,#403,.T.);
#552=ORIENTED_EDGE('',*,*,#400,.T.);
#553=ORIENTED_EDGE('',*,*,#399,.T.);
#554=ORIENTED_EDGE('',*,*,#396,.T.);
#555=ORIENTED_EDGE('',*,*,#393,.T.);
#556=ORIENTED_EDGE('',*,*,#390,.T.);
#557=ORIENTED_EDGE('',*,*,#387,.T.);
#558=ORIENTED_EDGE('',*,*,#384,.T.);
#559=ORIENTED_EDGE('',*,*,#379,.T.);
#560=ORIENTED_EDGE('',*,*,#376,.T.);
#561=ORIENTED_EDGE('',*,*,#348,.T.);
#562=ORIENTED_EDGE('',*,*,#354,.T.);
#563=ORIENTED_EDGE('',*,*,#360,.F.);
#564=ORIENTED_EDGE('',*,*,#340,.F.);
#565=ORIENTED_EDGE('',*,*,#374,.F.);
#566=ORIENTED_EDGE('',*,*,#364,.F.);
#567=ORIENTED_EDGE('',*,*,#368,.F.);
#568=ORIENTED_EDGE('',*,*,#371,.F.);
#569=ORIENTED_EDGE('',*,*,#411,.F.);
#570=ORIENTED_EDGE('',*,*,#408,.F.);
#571=ORIENTED_EDGE('',*,*,#405,.F.);
#572=ORIENTED_EDGE('',*,*,#402,.F.);
#573=ORIENTED_EDGE('',*,*,#398,.F.);
#574=ORIENTED_EDGE('',*,*,#382,.F.);
#575=ORIENTED_EDGE('',*,*,#386,.F.);
#576=ORIENTED_EDGE('',*,*,#389,.F.);
#577=ORIENTED_EDGE('',*,*,#392,.F.);
#578=ORIENTED_EDGE('',*,*,#395,.F.);
#579=ORIENTED_EDGE('',*,*,#381,.F.);
#580=ORIENTED_EDGE('',*,*,#378,.F.);
#581=PLANE('',#652);
#582=PLANE('',#653);
#583=PLANE('',#654);
#584=PLANE('',#655);
#585=PLANE('',#656);
#586=PLANE('',#657);
#587=PLANE('',#658);
#588=PLANE('',#659);
#589=PLANE('',#660);
#590=PLANE('',#661);
#591=PLANE('',#662);
#592=PLANE('',#663);
#593=PLANE('',#664);
#594=PLANE('',#665);
#595=PLANE('',#666);
#596=PLANE('',#673);
#597=PLANE('',#674);
#598=PLANE('',#675);
#599=PLANE('',#676);
#600=PLANE('',#677);
#601=PLANE('',#678);
#602=PLANE('',#691);
#603=PLANE('',#692);
#604=PLANE('',#693);
#605=PLANE('',#694);
#606=ADVANCED_FACE('',(#52),#581,.T.);
#607=ADVANCED_FACE('',(#53),#582,.T.);
#608=ADVANCED_FACE('',(#54),#583,.T.);
#609=ADVANCED_FACE('',(#55),#584,.T.);
#610=ADVANCED_FACE('',(#56),#585,.T.);
#611=ADVANCED_FACE('',(#57),#586,.T.);
#612=ADVANCED_FACE('',(#58),#587,.T.);
#613=ADVANCED_FACE('',(#59),#588,.T.);
#614=ADVANCED_FACE('',(#60),#589,.T.);
#615=ADVANCED_FACE('',(#61),#590,.T.);
#616=ADVANCED_FACE('',(#62),#591,.T.);
#617=ADVANCED_FACE('',(#63),#592,.T.);
#618=ADVANCED_FACE('',(#64),#593,.T.);
#619=ADVANCED_FACE('',(#65,#37),#594,.T.);
#620=ADVANCED_FACE('',(#66),#595,.T.);
#621=ADVANCED_FACE('',(#67),#31,.F.);
#622=ADVANCED_FACE('',(#68),#32,.F.);
#623=ADVANCED_FACE('',(#69),#596,.T.);
#624=ADVANCED_FACE('',(#70),#597,.T.);
#625=ADVANCED_FACE('',(#71),#598,.T.);
#626=ADVANCED_FACE('',(#72),#599,.T.);
#627=ADVANCED_FACE('',(#73),#600,.T.);
#628=ADVANCED_FACE('',(#74),#601,.T.);
#629=ADVANCED_FACE('',(#75),#33,.F.);
#630=ADVANCED_FACE('',(#76),#34,.F.);
#631=ADVANCED_FACE('',(#77),#35,.F.);
#632=ADVANCED_FACE('',(#78),#36,.F.);
#633=ADVANCED_FACE('',(#79),#602,.T.);
#634=ADVANCED_FACE('',(#80,#38,#39,#40,#41,#42,#43,#44),#603,.T.);
#635=ADVANCED_FACE('',(#81),#604,.T.);
#636=ADVANCED_FACE('',(#82,#45,#46,#47,#48,#49,#50,#51),#605,.F.);
#637=CLOSED_SHELL('',(#606,#607,#608,#609,#610,#611,#612,#613,#614,#615,
#616,#617,#618,#619,#620,#621,#622,#623,#624,#625,#626,#627,#628,#629,#630,
#631,#632,#633,#634,#635,#636));
#638=DERIVED_UNIT_ELEMENT(#640,1.);
#639=DERIVED_UNIT_ELEMENT(#1041,-3.);
#640=(
MASS_UNIT()
NAMED_UNIT(*)
SI_UNIT(.KILO.,.GRAM.)
);
#641=DERIVED_UNIT((#638,#639));
#642=MEASURE_REPRESENTATION_ITEM('density measure',
POSITIVE_RATIO_MEASURE(7850.),#641);
#643=PROPERTY_DEFINITION_REPRESENTATION(#648,#645);
#644=PROPERTY_DEFINITION_REPRESENTATION(#649,#646);
#645=REPRESENTATION('material name',(#647),#1038);
#646=REPRESENTATION('density',(#642),#1038);
#647=DESCRIPTIVE_REPRESENTATION_ITEM('Steel','Steel');
#648=PROPERTY_DEFINITION('material property','material name',#1053);
#649=PROPERTY_DEFINITION('material property','density of part',#1053);
#650=AXIS2_PLACEMENT_3D('',#860,#696,#697);
#651=AXIS2_PLACEMENT_3D('',#861,#698,#699);
#652=AXIS2_PLACEMENT_3D('',#862,#700,#701);
#653=AXIS2_PLACEMENT_3D('',#871,#706,#707);
#654=AXIS2_PLACEMENT_3D('',#877,#711,#712);
#655=AXIS2_PLACEMENT_3D('',#897,#723,#724);
#656=AXIS2_PLACEMENT_3D('',#903,#728,#729);
#657=AXIS2_PLACEMENT_3D('',#920,#739,#740);
#658=AXIS2_PLACEMENT_3D('',#922,#742,#743);
#659=AXIS2_PLACEMENT_3D('',#925,#746,#747);
#660=AXIS2_PLACEMENT_3D('',#928,#750,#751);
#661=AXIS2_PLACEMENT_3D('',#930,#753,#754);
#662=AXIS2_PLACEMENT_3D('',#939,#759,#760);
#663=AXIS2_PLACEMENT_3D('',#945,#764,#765);
#664=AXIS2_PLACEMENT_3D('',#951,#769,#770);
#665=AXIS2_PLACEMENT_3D('',#954,#773,#774);
#666=AXIS2_PLACEMENT_3D('',#955,#775,#776);
#667=AXIS2_PLACEMENT_3D('',#956,#777,#778);
#668=AXIS2_PLACEMENT_3D('',#958,#779,#780);
#669=AXIS2_PLACEMENT_3D('',#961,#782,#783);
#670=AXIS2_PLACEMENT_3D('',#962,#784,#785);
#671=AXIS2_PLACEMENT_3D('',#964,#786,#787);
#672=AXIS2_PLACEMENT_3D('',#967,#789,#790);
#673=AXIS2_PLACEMENT_3D('',#968,#791,#792);
#674=AXIS2_PLACEMENT_3D('',#977,#797,#798);
#675=AXIS2_PLACEMENT_3D('',#983,#802,#803);
#676=AXIS2_PLACEMENT_3D('',#989,#807,#808);
#677=AXIS2_PLACEMENT_3D('',#995,#812,#813);
#678=AXIS2_PLACEMENT_3D('',#1001,#817,#818);
#679=AXIS2_PLACEMENT_3D('',#1004,#821,#822);
#680=AXIS2_PLACEMENT_3D('',#1006,#823,#824);
#681=AXIS2_PLACEMENT_3D('',#1009,#826,#827);
#682=AXIS2_PLACEMENT_3D('',#1010,#828,#829);
#683=AXIS2_PLACEMENT_3D('',#1012,#830,#831);
#684=AXIS2_PLACEMENT_3D('',#1015,#833,#834);
#685=AXIS2_PLACEMENT_3D('',#1016,#835,#836);
#686=AXIS2_PLACEMENT_3D('',#1018,#837,#838);
#687=AXIS2_PLACEMENT_3D('',#1021,#840,#841);
#688=AXIS2_PLACEMENT_3D('',#1022,#842,#843);
#689=AXIS2_PLACEMENT_3D('',#1024,#844,#845);
#690=AXIS2_PLACEMENT_3D('',#1027,#847,#848);
#691=AXIS2_PLACEMENT_3D('',#1028,#849,#850);
#692=AXIS2_PLACEMENT_3D('',#1030,#852,#853);
#693=AXIS2_PLACEMENT_3D('',#1031,#854,#855);
#694=AXIS2_PLACEMENT_3D('',#1032,#856,#857);
#695=AXIS2_PLACEMENT_3D('',#1033,#858,#859);
#696=DIRECTION('axis',(0.,0.,1.));
#697=DIRECTION('refdir',(1.,0.,0.));
#698=DIRECTION('axis',(0.,0.,1.));
#699=DIRECTION('refdir',(1.,0.,0.));
#700=DIRECTION('center_axis',(0.,0.,1.));
#701=DIRECTION('ref_axis',(1.,0.,0.));
#702=DIRECTION('',(0.,1.,0.));
#703=DIRECTION('',(-1.,4.03717463500057E-16,0.));
#704=DIRECTION('',(0.,-1.,0.));
#705=DIRECTION('',(1.,3.22973970800046E-16,0.));
#706=DIRECTION('center_axis',(-1.,0.,0.));
#707=DIRECTION('ref_axis',(0.,-1.,0.));
#708=DIRECTION('',(0.,0.,1.));
#709=DIRECTION('',(0.,-1.,0.));
#710=DIRECTION('',(0.,0.,1.));
#711=DIRECTION('center_axis',(4.03717463500057E-16,1.,0.));
#712=DIRECTION('ref_axis',(-1.,4.03717463500057E-16,0.));
#713=DIRECTION('',(0.,0.,1.));
#714=DIRECTION('',(1.,-3.86164530304402E-16,0.));
#715=DIRECTION('',(0.,0.,1.));
#716=DIRECTION('',(-1.,4.03717463500057E-16,0.));
#717=DIRECTION('',(0.,0.,1.));
#718=DIRECTION('',(-1.,4.03717463500057E-16,0.));
#719=DIRECTION('',(0.,0.,1.));
#720=DIRECTION('',(-1.,4.03717463500057E-16,0.));
#721=DIRECTION('',(0.,0.,1.));
#722=DIRECTION('',(1.,-4.03717463500057E-16,0.));
#723=DIRECTION('center_axis',(0.,0.,1.));
#724=DIRECTION('ref_axis',(1.,0.,0.));
#725=DIRECTION('',(0.,-1.,0.));
#726=DIRECTION('',(1.,3.22973970800046E-16,0.));
#727=DIRECTION('',(0.,1.,0.));
#728=DIRECTION('center_axis',(3.22973970800046E-16,-1.,0.));
#729=DIRECTION('ref_axis',(1.,3.22973970800046E-16,0.));
#730=DIRECTION('',(-1.,-3.22973970800046E-16,0.));
#731=DIRECTION('',(0.,0.,1.));
#732=DIRECTION('',(1.,3.22973970800046E-16,0.));
#733=DIRECTION('',(0.,0.,1.));
#734=DIRECTION('',(1.,3.22973970800046E-16,0.));
#735=DIRECTION('',(0.,0.,1.));
#736=DIRECTION('',(0.,0.,1.));
#737=DIRECTION('',(-1.,0.,0.));
#738=DIRECTION('',(0.,0.,1.));
#739=DIRECTION('center_axis',(-1.,0.,0.));
#740=DIRECTION('ref_axis',(0.,-1.,0.));
#741=DIRECTION('',(0.,-1.,0.));
#742=DIRECTION('center_axis',(0.,0.,1.));
#743=DIRECTION('ref_axis',(1.,0.,0.));
#744=DIRECTION('',(8.07434927000114E-16,1.,0.));
#745=DIRECTION('',(0.,1.,0.));
#746=DIRECTION('center_axis',(-1.,0.,0.));
#747=DIRECTION('ref_axis',(0.,-1.,0.));
#748=DIRECTION('',(0.,1.,0.));
#749=DIRECTION('',(0.,-1.,0.));
#750=DIRECTION('center_axis',(1.,-8.07434927000114E-16,0.));
#751=DIRECTION('ref_axis',(8.07434927000114E-16,1.,0.));
#752=DIRECTION('',(8.07434927000114E-16,1.,0.));
#753=DIRECTION('center_axis',(-1.48029736616688E-16,-1.,0.));
#754=DIRECTION('ref_axis',(1.,-1.48029736616688E-16,0.));
#755=DIRECTION('',(1.,-1.48029736616688E-16,0.));
#756=DIRECTION('',(0.,0.,1.));
#757=DIRECTION('',(1.,-1.48029736616688E-16,0.));
#758=DIRECTION('',(0.,0.,1.));
#759=DIRECTION('center_axis',(-1.,0.,0.));
#760=DIRECTION('ref_axis',(0.,-1.,0.));
#761=DIRECTION('',(0.,-1.,0.));
#762=DIRECTION('',(0.,-1.,0.));
#763=DIRECTION('',(0.,0.,1.));
#764=DIRECTION('center_axis',(0.,1.,0.));
#765=DIRECTION('ref_axis',(-1.,0.,0.));
#766=DIRECTION('',(-1.,0.,0.));
#767=DIRECTION('',(-1.,0.,0.));
#768=DIRECTION('',(0.,0.,1.));
#769=DIRECTION('center_axis',(1.,-7.40148683083438E-17,0.));
#770=DIRECTION('ref_axis',(7.40148683083438E-17,1.,0.));
#771=DIRECTION('',(7.40148683083438E-17,1.,0.));
#772=DIRECTION('',(7.40148683083438E-17,1.,0.));
#773=DIRECTION('center_axis',(0.,0.,1.));
#774=DIRECTION('ref_axis',(1.,0.,0.));
#775=DIRECTION('center_axis',(0.,0.,1.));
#776=DIRECTION('ref_axis',(1.,0.,0.));
#777=DIRECTION('center_axis',(0.,0.,1.));
#778=DIRECTION('ref_axis',(1.,0.,0.));
#779=DIRECTION('center_axis',(0.,0.,-1.));
#780=DIRECTION('ref_axis',(1.,0.,0.));
#781=DIRECTION('',(0.,0.,-1.));
#782=DIRECTION('center_axis',(0.,0.,-1.));
#783=DIRECTION('ref_axis',(1.,0.,0.));
#784=DIRECTION('center_axis',(0.,0.,1.));
#785=DIRECTION('ref_axis',(1.,0.,0.));
#786=DIRECTION('center_axis',(0.,0.,-1.));
#787=DIRECTION('ref_axis',(1.,0.,0.));
#788=DIRECTION('',(0.,0.,-1.));
#789=DIRECTION('center_axis',(0.,0.,-1.));
#790=DIRECTION('ref_axis',(1.,0.,0.));
#791=DIRECTION('center_axis',(0.866025403784439,-0.5,0.));
#792=DIRECTION('ref_axis',(0.5,0.866025403784438,0.));
#793=DIRECTION('',(0.5,0.866025403784438,0.));
#794=DIRECTION('',(0.,0.,1.));
#795=DIRECTION('',(0.5,0.866025403784438,0.));
#796=DIRECTION('',(0.,0.,1.));
#797=DIRECTION('center_axis',(0.866025403784439,0.5,0.));
#798=DIRECTION('ref_axis',(-0.5,0.866025403784439,0.));
#799=DIRECTION('',(-0.5,0.866025403784439,0.));
#800=DIRECTION('',(-0.5,0.866025403784439,0.));
#801=DIRECTION('',(0.,0.,1.));
#802=DIRECTION('center_axis',(5.76888797318756E-16,1.,0.));
#803=DIRECTION('ref_axis',(-1.,5.76888797318756E-16,0.));
#804=DIRECTION('',(-1.,5.76888797318756E-16,0.));
#805=DIRECTION('',(-1.,5.76888797318756E-16,0.));
#806=DIRECTION('',(0.,0.,1.));
#807=DIRECTION('center_axis',(-0.866025403784438,0.5,0.));
#808=DIRECTION('ref_axis',(-0.5,-0.866025403784438,0.));
#809=DIRECTION('',(-0.5,-0.866025403784438,0.));
#810=DIRECTION('',(-0.5,-0.866025403784438,0.));
#811=DIRECTION('',(0.,0.,1.));
#812=DIRECTION('center_axis',(-0.866025403784439,-0.5,0.));
#813=DIRECTION('ref_axis',(0.499999999999999,-0.866025403784439,0.));
#814=DIRECTION('',(0.499999999999999,-0.866025403784439,0.));
#815=DIRECTION('',(0.499999999999999,-0.866025403784439,0.));
#816=DIRECTION('',(0.,0.,1.));
#817=DIRECTION('center_axis',(-5.76888797318756E-16,-1.,0.));
#818=DIRECTION('ref_axis',(1.,-5.76888797318756E-16,0.));
#819=DIRECTION('',(1.,-5.76888797318756E-16,0.));
#820=DIRECTION('',(1.,-5.76888797318756E-16,0.));
#821=DIRECTION('center_axis',(0.,0.,1.));
#822=DIRECTION('ref_axis',(1.,0.,0.));
#823=DIRECTION('center_axis',(0.,0.,-1.));
#824=DIRECTION('ref_axis',(1.,0.,0.));
#825=DIRECTION('',(0.,0.,-1.));
#826=DIRECTION('center_axis',(0.,0.,-1.));
#827=DIRECTION('ref_axis',(1.,0.,0.));
#828=DIRECTION('center_axis',(0.,0.,1.));
#829=DIRECTION('ref_axis',(1.,0.,0.));
#830=DIRECTION('center_axis',(0.,0.,-1.));
#831=DIRECTION('ref_axis',(1.,0.,0.));
#832=DIRECTION('',(0.,0.,-1.));
#833=DIRECTION('center_axis',(0.,0.,-1.));
#834=DIRECTION('ref_axis',(1.,0.,0.));
#835=DIRECTION('center_axis',(0.,0.,1.));
#836=DIRECTION('ref_axis',(1.,0.,0.));
#837=DIRECTION('center_axis',(0.,0.,-1.));
#838=DIRECTION('ref_axis',(1.,0.,0.));
#839=DIRECTION('',(0.,0.,-1.));
#840=DIRECTION('center_axis',(0.,0.,-1.));
#841=DIRECTION('ref_axis',(1.,0.,0.));
#842=DIRECTION('center_axis',(0.,0.,1.));
#843=DIRECTION('ref_axis',(1.,0.,0.));
#844=DIRECTION('center_axis',(0.,0.,-1.));
#845=DIRECTION('ref_axis',(1.,0.,0.));
#846=DIRECTION('',(0.,0.,-1.));
#847=DIRECTION('center_axis',(0.,0.,-1.));
#848=DIRECTION('ref_axis',(1.,0.,0.));
#849=DIRECTION('center_axis',(1.,0.,0.));
#850=DIRECTION('ref_axis',(0.,1.,0.));
#851=DIRECTION('',(0.,1.,0.));
#852=DIRECTION('center_axis',(0.,0.,1.));
#853=DIRECTION('ref_axis',(1.,0.,0.));
#854=DIRECTION('center_axis',(1.,0.,0.));
#855=DIRECTION('ref_axis',(0.,1.,0.));
#856=DIRECTION('center_axis',(0.,0.,1.));
#857=DIRECTION('ref_axis',(1.,0.,0.));
#858=DIRECTION('',(0.,0.,1.));
#859=DIRECTION('',(1.,0.,0.));
#860=CARTESIAN_POINT('',(0.,0.,0.));
#861=CARTESIAN_POINT('',(0.,0.,0.));
#862=CARTESIAN_POINT('Origin',(31.5,-2.66453525910038E-14,2.));
#863=CARTESIAN_POINT('',(28.5,-55.0000000000001,2.));
#864=CARTESIAN_POINT('',(28.5,55.,2.));
#865=CARTESIAN_POINT('',(28.5,-27.5,2.));
#866=CARTESIAN_POINT('',(34.5,-55.0000000000001,2.));
#867=CARTESIAN_POINT('',(43.25,-55.0000000000001,2.));
#868=CARTESIAN_POINT('',(34.5,55.,2.));
#869=CARTESIAN_POINT('',(34.5,27.5,2.));
#870=CARTESIAN_POINT('',(-11.75,55.,2.));
#871=CARTESIAN_POINT('Origin',(34.5,55.,0.));
#872=CARTESIAN_POINT('',(34.5,-55.0000000000001,3.));
#873=CARTESIAN_POINT('',(34.5,-55.0000000000001,0.));
#874=CARTESIAN_POINT('',(34.5,55.,3.));
#875=CARTESIAN_POINT('',(34.5,-55.0000000000001,3.));
#876=CARTESIAN_POINT('',(34.5,55.,0.));
#877=CARTESIAN_POINT('Origin',(55.,-55.0000000000001,0.));
#878=CARTESIAN_POINT('',(28.5,-55.0000000000001,3.));
#879=CARTESIAN_POINT('',(28.5,-55.0000000000001,0.));
#880=CARTESIAN_POINT('',(-40.5,-55.,3.));
#881=CARTESIAN_POINT('',(-40.5,-55.,3.));
#882=CARTESIAN_POINT('',(-40.5,-55.,2.));
#883=CARTESIAN_POINT('',(-40.5,-55.,0.));
#884=CARTESIAN_POINT('',(-46.5,-55.,2.));
#885=CARTESIAN_POINT('',(5.74999999999999,-55.,2.));
#886=CARTESIAN_POINT('',(-46.5,-55.,15.));
#887=CARTESIAN_POINT('',(-46.5,-55.,0.));
#888=CARTESIAN_POINT('',(-55.,-55.,15.));
#889=CARTESIAN_POINT('',(2.12499999999999,-55.,15.));
#890=CARTESIAN_POINT('',(-55.,-55.,20.));
#891=CARTESIAN_POINT('',(-55.,-55.,0.));
#892=CARTESIAN_POINT('',(55.,-55.0000000000001,20.));
#893=CARTESIAN_POINT('',(-55.,-55.,20.));
#894=CARTESIAN_POINT('',(55.,-55.0000000000001,3.));
#895=CARTESIAN_POINT('',(55.,-55.0000000000001,0.));
#896=CARTESIAN_POINT('',(-55.,-55.,3.));
#897=CARTESIAN_POINT('Origin',(-43.5,-1.77635683940025E-14,2.));
#898=CARTESIAN_POINT('',(-40.5,55.,2.));
#899=CARTESIAN_POINT('',(-40.5,27.5,2.));
#900=CARTESIAN_POINT('',(-46.5,55.,2.));
#901=CARTESIAN_POINT('',(-49.25,55.,2.));
#902=CARTESIAN_POINT('',(-46.5,-27.5,2.));
#903=CARTESIAN_POINT('Origin',(-54.9999999999999,55.,0.));
#904=CARTESIAN_POINT('',(55.,55.,3.));
#905=CARTESIAN_POINT('',(55.,55.,3.));
#906=CARTESIAN_POINT('',(55.,55.,20.));
#907=CARTESIAN_POINT('',(55.,55.,0.));
#908=CARTESIAN_POINT('',(-54.9999999999999,55.,20.));
#909=CARTESIAN_POINT('',(55.,55.,20.));
#910=CARTESIAN_POINT('',(-54.9999999999999,55.,15.));
#911=CARTESIAN_POINT('',(-54.9999999999999,55.,0.));
#912=CARTESIAN_POINT('',(-46.5,55.,15.));
#913=CARTESIAN_POINT('',(-52.875,55.,15.));
#914=CARTESIAN_POINT('',(-46.5,55.,0.));
#915=CARTESIAN_POINT('',(-40.5,55.,3.));
#916=CARTESIAN_POINT('',(-40.5,55.,0.));
#917=CARTESIAN_POINT('',(28.5,55.,3.));
#918=CARTESIAN_POINT('',(46.5,55.,3.));
#919=CARTESIAN_POINT('',(28.5,55.,0.));
#920=CARTESIAN_POINT('Origin',(-40.5,55.,0.));
#921=CARTESIAN_POINT('',(-40.5,55.,3.));
#922=CARTESIAN_POINT('Origin',(-50.75,-8.88178419700125E-15,15.));
#923=CARTESIAN_POINT('',(-55.,-27.5,15.));
#924=CARTESIAN_POINT('',(-46.5,55.,15.));
#925=CARTESIAN_POINT('Origin',(55.,55.,0.));
#926=CARTESIAN_POINT('',(55.,-55.0000000000001,3.));
#927=CARTESIAN_POINT('',(55.,-55.0000000000001,20.));
#928=CARTESIAN_POINT('Origin',(-55.,-55.,0.));
#929=CARTESIAN_POINT('',(-54.9999999999999,55.,20.));
#930=CARTESIAN_POINT('Origin',(-60.,-60.,0.));
#931=CARTESIAN_POINT('',(-60.,-60.,0.));
#932=CARTESIAN_POINT('',(60.,-60.,0.));
#933=CARTESIAN_POINT('',(-60.,-60.,0.));
#934=CARTESIAN_POINT('',(60.,-60.,20.));
#935=CARTESIAN_POINT('',(60.,-60.,0.));
#936=CARTESIAN_POINT('',(-60.,-60.,20.));
#937=CARTESIAN_POINT('',(-60.,-60.,20.));
#938=CARTESIAN_POINT('',(-60.,-60.,0.));
#939=CARTESIAN_POINT('Origin',(-60.,60.,0.));
#940=CARTESIAN_POINT('',(-60.,60.,0.));
#941=CARTESIAN_POINT('',(-60.,60.,0.));
#942=CARTESIAN_POINT('',(-60.,60.,20.));
#943=CARTESIAN_POINT('',(-60.,60.,20.));
#944=CARTESIAN_POINT('',(-60.,60.,0.));
#945=CARTESIAN_POINT('Origin',(60.,60.,0.));
#946=CARTESIAN_POINT('',(60.,60.,0.));
#947=CARTESIAN_POINT('',(60.,60.,0.));
#948=CARTESIAN_POINT('',(60.,60.,20.));
#949=CARTESIAN_POINT('',(60.,60.,20.));
#950=CARTESIAN_POINT('',(60.,60.,0.));
#951=CARTESIAN_POINT('Origin',(60.,-60.,0.));
#952=CARTESIAN_POINT('',(60.,-60.,0.));
#953=CARTESIAN_POINT('',(60.,-60.,20.));
#954=CARTESIAN_POINT('Origin',(8.88178419700125E-15,0.,20.));
#955=CARTESIAN_POINT('Origin',(44.75,-2.66453525910038E-14,3.));
#956=CARTESIAN_POINT('Origin',(4.00000005960465,6.92820333351378,0.));
#957=CARTESIAN_POINT('',(2.50000005960465,6.92820333351378,3.));
#958=CARTESIAN_POINT('Origin',(4.00000005960465,6.92820333351378,3.));
#959=CARTESIAN_POINT('',(2.50000005960465,6.92820333351378,0.));
#960=CARTESIAN_POINT('',(2.50000005960465,6.92820333351378,0.));
#961=CARTESIAN_POINT('Origin',(4.00000005960465,6.92820333351378,0.));
#962=CARTESIAN_POINT('Origin',(8.00000011920929,0.,0.));
#963=CARTESIAN_POINT('',(6.50000011920929,0.,3.));
#964=CARTESIAN_POINT('Origin',(8.00000011920929,0.,3.));
#965=CARTESIAN_POINT('',(6.50000011920929,-1.83697019872103E-16,0.));
#966=CARTESIAN_POINT('',(6.50000011920929,-1.83697019872103E-16,0.));
#967=CARTESIAN_POINT('Origin',(8.00000011920929,0.,0.));
#968=CARTESIAN_POINT('Origin',(-2.88675138896408,1.11022302462516E-15,0.));
#969=CARTESIAN_POINT('',(-2.88675138896408,1.11022302462516E-15,0.));
#970=CARTESIAN_POINT('',(-1.44337569448204,2.5000000372529,0.));
#971=CARTESIAN_POINT('',(-1.44337569448204,2.5000000372529,0.));
#972=CARTESIAN_POINT('',(-1.44337569448204,2.5000000372529,3.));
#973=CARTESIAN_POINT('',(-1.44337569448204,2.5000000372529,0.));
#974=CARTESIAN_POINT('',(-2.88675138896408,1.11022302462516E-15,3.));
#975=CARTESIAN_POINT('',(-1.44337569448204,2.5000000372529,3.));
#976=CARTESIAN_POINT('',(-2.88675138896408,1.11022302462516E-15,0.));
#977=CARTESIAN_POINT('Origin',(-1.44337569448204,-2.5000000372529,0.));
#978=CARTESIAN_POINT('',(-1.44337569448204,-2.5000000372529,0.));
#979=CARTESIAN_POINT('',(-2.88675138896408,1.11022302462516E-15,0.));
#980=CARTESIAN_POINT('',(-1.44337569448204,-2.5000000372529,3.));
#981=CARTESIAN_POINT('',(-2.88675138896408,1.11022302462516E-15,3.));
#982=CARTESIAN_POINT('',(-1.44337569448204,-2.5000000372529,0.));
#983=CARTESIAN_POINT('Origin',(1.44337569448204,-2.5000000372529,0.));
#984=CARTESIAN_POINT('',(1.44337569448204,-2.5000000372529,0.));
#985=CARTESIAN_POINT('',(-1.44337569448204,-2.5000000372529,0.));
#986=CARTESIAN_POINT('',(1.44337569448204,-2.5000000372529,3.));
#987=CARTESIAN_POINT('',(-1.44337569448204,-2.5000000372529,3.));
#988=CARTESIAN_POINT('',(1.44337569448204,-2.5000000372529,0.));
#989=CARTESIAN_POINT('Origin',(2.88675138896408,-1.66533453693773E-15,0.));
#990=CARTESIAN_POINT('',(2.88675138896408,-1.94289029309402E-15,0.));
#991=CARTESIAN_POINT('',(1.44337569448204,-2.5000000372529,0.));
#992=CARTESIAN_POINT('',(2.88675138896408,-2.22044604925031E-15,3.));
#993=CARTESIAN_POINT('',(1.44337569448204,-2.5000000372529,3.));
#994=CARTESIAN_POINT('',(2.88675138896408,-1.94289029309402E-15,0.));
#995=CARTESIAN_POINT('Origin',(1.44337569448204,2.5000000372529,0.));
#996=CARTESIAN_POINT('',(1.44337569448204,2.5000000372529,0.));
#997=CARTESIAN_POINT('',(2.88675138896408,-1.94289029309402E-15,0.));
#998=CARTESIAN_POINT('',(1.44337569448204,2.5000000372529,3.));
#999=CARTESIAN_POINT('',(2.88675138896408,-1.94289029309402E-15,3.));
#1000=CARTESIAN_POINT('',(1.44337569448204,2.5000000372529,0.));
#1001=CARTESIAN_POINT('Origin',(-1.44337569448204,2.5000000372529,0.));
#1002=CARTESIAN_POINT('',(1.44337569448204,2.5000000372529,0.));
#1003=CARTESIAN_POINT('',(1.44337569448204,2.5000000372529,3.));
#1004=CARTESIAN_POINT('Origin',(4.00000005960464,-6.92820333351379,0.));
#1005=CARTESIAN_POINT('',(2.50000005960464,-6.92820333351379,3.));
#1006=CARTESIAN_POINT('Origin',(4.00000005960464,-6.92820333351379,3.));
#1007=CARTESIAN_POINT('',(2.50000005960464,-6.92820333351379,0.));
#1008=CARTESIAN_POINT('',(2.50000005960464,-6.92820333351379,0.));
#1009=CARTESIAN_POINT('Origin',(4.00000005960464,-6.92820333351379,0.));
#1010=CARTESIAN_POINT('Origin',(-4.00000005960465,-6.92820333351378,0.));
#1011=CARTESIAN_POINT('',(-5.50000005960465,-6.92820333351378,3.));
#1012=CARTESIAN_POINT('Origin',(-4.00000005960465,-6.92820333351378,3.));
#1013=CARTESIAN_POINT('',(-5.50000005960465,-6.92820333351378,0.));
#1014=CARTESIAN_POINT('',(-5.50000005960465,-6.92820333351378,0.));
#1015=CARTESIAN_POINT('Origin',(-4.00000005960465,-6.92820333351378,0.));
#1016=CARTESIAN_POINT('Origin',(-8.00000011920929,2.77555756156289E-15,
0.));
#1017=CARTESIAN_POINT('',(-9.50000011920929,2.22044604925031E-15,3.));
#1018=CARTESIAN_POINT('Origin',(-8.00000011920929,2.77555756156289E-15,
3.));
#1019=CARTESIAN_POINT('',(-9.50000011920929,2.59186054169079E-15,0.));
#1020=CARTESIAN_POINT('',(-9.50000011920929,2.59186054169079E-15,0.));
#1021=CARTESIAN_POINT('Origin',(-8.00000011920929,2.77555756156289E-15,
0.));
#1022=CARTESIAN_POINT('Origin',(-4.00000005960464,6.92820333351378,0.));
#1023=CARTESIAN_POINT('',(-5.50000005960464,6.92820333351378,3.));
#1024=CARTESIAN_POINT('Origin',(-4.00000005960464,6.92820333351378,3.));
#1025=CARTESIAN_POINT('',(-5.50000005960464,6.92820333351378,0.));
#1026=CARTESIAN_POINT('',(-5.50000005960464,6.92820333351378,0.));
#1027=CARTESIAN_POINT('Origin',(-4.00000005960464,6.92820333351378,0.));
#1028=CARTESIAN_POINT('Origin',(28.5,-55.0000000000001,0.));
#1029=CARTESIAN_POINT('',(28.5,55.,3.));
#1030=CARTESIAN_POINT('Origin',(-6.00000000000001,-2.66453525910038E-14,
3.));
#1031=CARTESIAN_POINT('Origin',(-46.5,-55.,0.));
#1032=CARTESIAN_POINT('Origin',(-50.75,-1.77635683940025E-14,0.));
#1033=CARTESIAN_POINT('',(0.,0.,0.));
#1034=UNCERTAINTY_MEASURE_WITH_UNIT(LENGTH_MEASURE(0.01),#1040,
'DISTANCE_ACCURACY_VALUE',
'Maximum model space distance between geometric entities at asserted c
onnectivities');
#1035=UNCERTAINTY_MEASURE_WITH_UNIT(LENGTH_MEASURE(0.01),#1040,
'DISTANCE_ACCURACY_VALUE',
'Maximum model space distance between geometric entities at asserted c
onnectivities');
#1036=UNCERTAINTY_MEASURE_WITH_UNIT(LENGTH_MEASURE(0.01),#1040,
'DISTANCE_ACCURACY_VALUE',
'Maximum model space distance between geometric entities at asserted c
onnectivities');
#1037=(
GEOMETRIC_REPRESENTATION_CONTEXT(3)
GLOBAL_UNCERTAINTY_ASSIGNED_CONTEXT((#1034))
GLOBAL_UNIT_ASSIGNED_CONTEXT((#1040,#1042,#1043))
REPRESENTATION_CONTEXT('','3D')
);
#1038=(
GEOMETRIC_REPRESENTATION_CONTEXT(3)
GLOBAL_UNCERTAINTY_ASSIGNED_CONTEXT((#1035))
GLOBAL_UNIT_ASSIGNED_CONTEXT((#1040,#1042,#1043))
REPRESENTATION_CONTEXT('','3D')
);
#1039=(
GEOMETRIC_REPRESENTATION_CONTEXT(3)
GLOBAL_UNCERTAINTY_ASSIGNED_CONTEXT((#1036))
GLOBAL_UNIT_ASSIGNED_CONTEXT((#1040,#1042,#1043))
REPRESENTATION_CONTEXT('','3D')
);
#1040=(
LENGTH_UNIT()
NAMED_UNIT(*)
SI_UNIT(.MILLI.,.METRE.)
);
#1041=(
LENGTH_UNIT()
NAMED_UNIT(*)
SI_UNIT($,.METRE.)
);
#1042=(
NAMED_UNIT(*)
PLANE_ANGLE_UNIT()
SI_UNIT($,.RADIAN.)
);
#1043=(
NAMED_UNIT(*)
SI_UNIT($,.STERADIAN.)
SOLID_ANGLE_UNIT()
);
#1044=SHAPE_DEFINITION_REPRESENTATION(#1046,#1049);
#1045=SHAPE_DEFINITION_REPRESENTATION(#1047,#1050);
#1046=PRODUCT_DEFINITION_SHAPE('',$,#1052);
#1047=PRODUCT_DEFINITION_SHAPE('',$,#1053);
#1048=PRODUCT_DEFINITION_SHAPE($,$,#14);
#1049=SHAPE_REPRESENTATION('',(#650,#695),#1037);
#1050=SHAPE_REPRESENTATION('',(#651),#1038);
#1051=PRODUCT_DEFINITION_CONTEXT('part definition',#1059,'design');
#1052=PRODUCT_DEFINITION('2026-08-27-01-58-15-934',
'card-turret-platform',#1054,#1051);
#1053=PRODUCT_DEFINITION('2026-09-05-12-44-02-889','Component1',#1055,#1051);
#1054=PRODUCT_DEFINITION_FORMATION('',$,#1061);
#1055=PRODUCT_DEFINITION_FORMATION('',$,#1062);
#1056=PRODUCT_RELATED_PRODUCT_CATEGORY('card-turret-platform',
'card-turret-platform',(#1061));
#1057=PRODUCT_RELATED_PRODUCT_CATEGORY('Component1','Component1',(#1062));
#1058=APPLICATION_PROTOCOL_DEFINITION('international standard',
'automotive_design',2009,#1059);
#1059=APPLICATION_CONTEXT(
'Core Data for Automotive Mechanical Design Process');
#1060=PRODUCT_CONTEXT('part definition',#1059,'mechanical');
#1061=PRODUCT('2026-08-27-01-58-15-934','card-turret-platform',$,(#1060));
#1062=PRODUCT('2026-09-05-12-44-02-889','Component1',$,(#1060));
#1063=PRESENTATION_STYLE_ASSIGNMENT((#1064));
#1064=SURFACE_STYLE_USAGE(.BOTH.,#1065);
#1065=SURFACE_SIDE_STYLE('',(#1066));
#1066=SURFACE_STYLE_FILL_AREA(#1067);
#1067=FILL_AREA_STYLE('Steel - Satin',(#1068));
#1068=FILL_AREA_STYLE_COLOUR('Steel - Satin',#1069);
#1069=COLOUR_RGB('Steel - Satin',0.627450980392157,0.627450980392157,0.627450980392157);
ENDSEC;
END-ISO-10303-21;
