ISO-10303-21;
HEADER;
/* Generated by software containing ST-Developer
 * from STEP Tools, Inc. (www.steptools.com) 
 */

FILE_DESCRIPTION(
/* description */ (''),
/* implementation_level */ '2;1');

FILE_NAME(
/* name */ 'card-dispenser-chassis.step',
/* time_stamp */ '2026-09-12T01:16:49-07:00',
/* author */ (''),
/* organization */ (''),
/* preprocessor_version */ 'ST-DEVELOPER v20.2',
/* originating_system */ 'Autodesk Translation Framework v15.15.0.0',
/* authorisation */ '');

FILE_SCHEMA (('AUTOMOTIVE_DESIGN { 1 0 10303 214 3 1 1 }'));
ENDSEC;

DATA;
#10=MECHANICAL_DESIGN_GEOMETRIC_PRESENTATION_REPRESENTATION('',(#13),#2015);
#11=SHAPE_REPRESENTATION_RELATIONSHIP('SRR','None',#2021,#12);
#12=ADVANCED_BREP_SHAPE_REPRESENTATION('',(#14),#2014);
#13=STYLED_ITEM('',(#2030),#14);
#14=MANIFOLD_SOLID_BREP('Body1',#1238);
#15=ELLIPSE('',#1273,2.82842712474618,2.);
#16=ELLIPSE('',#1280,2.82842707206262,2.);
#17=ELLIPSE('',#1286,2.82842632395664,2.);
#18=CIRCLE('',#1252,7.);
#19=CIRCLE('',#1253,7.);
#20=CIRCLE('',#1257,7.075);
#21=CIRCLE('',#1265,7.075);
#22=CIRCLE('',#1269,2.);
#23=CIRCLE('',#1270,7.075);
#24=CIRCLE('',#1272,2.);
#25=CIRCLE('',#1275,2.);
#26=CIRCLE('',#1279,2.);
#27=CIRCLE('',#1282,2.);
#28=CIRCLE('',#1285,2.);
#29=CIRCLE('',#1290,2.);
#30=CIRCLE('',#1291,2.);
#31=CIRCLE('',#1294,2.);
#32=CIRCLE('',#1295,2.);
#33=CIRCLE('',#1297,1.9);
#34=CIRCLE('',#1298,1.9);
#35=CIRCLE('',#1300,2.);
#36=CIRCLE('',#1301,2.);
#37=CIRCLE('',#1303,2.);
#38=CIRCLE('',#1304,2.);
#39=CIRCLE('',#1307,7.075);
#40=CIRCLE('',#1311,1.9);
#41=CIRCLE('',#1312,1.9);
#42=CIRCLE('',#1314,1.9);
#43=CIRCLE('',#1316,1.9);
#44=CIRCLE('',#1317,1.9);
#45=CIRCLE('',#1319,1.9);
#46=CYLINDRICAL_SURFACE('',#1251,7.);
#47=CYLINDRICAL_SURFACE('',#1271,2.);
#48=CYLINDRICAL_SURFACE('',#1274,2.);
#49=CYLINDRICAL_SURFACE('',#1278,2.);
#50=CYLINDRICAL_SURFACE('',#1281,2.);
#51=CYLINDRICAL_SURFACE('',#1284,2.);
#52=CYLINDRICAL_SURFACE('',#1287,2.);
#53=CYLINDRICAL_SURFACE('',#1289,2.);
#54=CYLINDRICAL_SURFACE('',#1293,2.);
#55=CYLINDRICAL_SURFACE('',#1299,2.);
#56=CYLINDRICAL_SURFACE('',#1302,2.);
#57=CYLINDRICAL_SURFACE('',#1310,1.9);
#58=CYLINDRICAL_SURFACE('',#1313,1.9);
#59=CYLINDRICAL_SURFACE('',#1315,1.9);
#60=CYLINDRICAL_SURFACE('',#1318,1.9);
#61=CYLINDRICAL_SURFACE('',#1320,7.075);
#62=CYLINDRICAL_SURFACE('',#1321,7.075);
#63=FACE_BOUND('',#154,.T.);
#64=FACE_BOUND('',#155,.T.);
#65=FACE_BOUND('',#160,.T.);
#66=FACE_BOUND('',#161,.T.);
#67=FACE_BOUND('',#169,.T.);
#68=FACE_BOUND('',#173,.T.);
#69=FACE_BOUND('',#174,.T.);
#70=FACE_BOUND('',#187,.T.);
#71=FACE_BOUND('',#190,.T.);
#72=FACE_BOUND('',#191,.T.);
#73=FACE_BOUND('',#196,.T.);
#74=FACE_BOUND('',#211,.T.);
#75=FACE_BOUND('',#212,.T.);
#76=FACE_BOUND('',#215,.T.);
#77=FACE_BOUND('',#216,.T.);
#78=FACE_BOUND('',#219,.T.);
#79=FACE_BOUND('',#220,.T.);
#80=FACE_OUTER_BOUND('',#143,.T.);
#81=FACE_OUTER_BOUND('',#144,.T.);
#82=FACE_OUTER_BOUND('',#145,.T.);
#83=FACE_OUTER_BOUND('',#146,.T.);
#84=FACE_OUTER_BOUND('',#147,.T.);
#85=FACE_OUTER_BOUND('',#148,.T.);
#86=FACE_OUTER_BOUND('',#149,.T.);
#87=FACE_OUTER_BOUND('',#150,.T.);
#88=FACE_OUTER_BOUND('',#151,.T.);
#89=FACE_OUTER_BOUND('',#152,.T.);
#90=FACE_OUTER_BOUND('',#153,.T.);
#91=FACE_OUTER_BOUND('',#156,.T.);
#92=FACE_OUTER_BOUND('',#157,.T.);
#93=FACE_OUTER_BOUND('',#158,.T.);
#94=FACE_OUTER_BOUND('',#159,.T.);
#95=FACE_OUTER_BOUND('',#162,.T.);
#96=FACE_OUTER_BOUND('',#163,.T.);
#97=FACE_OUTER_BOUND('',#164,.T.);
#98=FACE_OUTER_BOUND('',#165,.T.);
#99=FACE_OUTER_BOUND('',#166,.T.);
#100=FACE_OUTER_BOUND('',#167,.T.);
#101=FACE_OUTER_BOUND('',#168,.T.);
#102=FACE_OUTER_BOUND('',#170,.T.);
#103=FACE_OUTER_BOUND('',#171,.T.);
#104=FACE_OUTER_BOUND('',#172,.T.);
#105=FACE_OUTER_BOUND('',#175,.T.);
#106=FACE_OUTER_BOUND('',#176,.T.);
#107=FACE_OUTER_BOUND('',#177,.T.);
#108=FACE_OUTER_BOUND('',#178,.T.);
#109=FACE_OUTER_BOUND('',#179,.T.);
#110=FACE_OUTER_BOUND('',#180,.T.);
#111=FACE_OUTER_BOUND('',#181,.T.);
#112=FACE_OUTER_BOUND('',#182,.T.);
#113=FACE_OUTER_BOUND('',#183,.T.);
#114=FACE_OUTER_BOUND('',#184,.T.);
#115=FACE_OUTER_BOUND('',#185,.T.);
#116=FACE_OUTER_BOUND('',#186,.T.);
#117=FACE_OUTER_BOUND('',#188,.T.);
#118=FACE_OUTER_BOUND('',#189,.T.);
#119=FACE_OUTER_BOUND('',#192,.T.);
#120=FACE_OUTER_BOUND('',#193,.T.);
#121=FACE_OUTER_BOUND('',#194,.T.);
#122=FACE_OUTER_BOUND('',#195,.T.);
#123=FACE_OUTER_BOUND('',#197,.T.);
#124=FACE_OUTER_BOUND('',#198,.T.);
#125=FACE_OUTER_BOUND('',#199,.T.);
#126=FACE_OUTER_BOUND('',#200,.T.);
#127=FACE_OUTER_BOUND('',#201,.T.);
#128=FACE_OUTER_BOUND('',#202,.T.);
#129=FACE_OUTER_BOUND('',#203,.T.);
#130=FACE_OUTER_BOUND('',#204,.T.);
#131=FACE_OUTER_BOUND('',#205,.T.);
#132=FACE_OUTER_BOUND('',#206,.T.);
#133=FACE_OUTER_BOUND('',#207,.T.);
#134=FACE_OUTER_BOUND('',#208,.T.);
#135=FACE_OUTER_BOUND('',#209,.T.);
#136=FACE_OUTER_BOUND('',#210,.T.);
#137=FACE_OUTER_BOUND('',#213,.T.);
#138=FACE_OUTER_BOUND('',#214,.T.);
#139=FACE_OUTER_BOUND('',#217,.T.);
#140=FACE_OUTER_BOUND('',#218,.T.);
#141=FACE_OUTER_BOUND('',#221,.T.);
#142=FACE_OUTER_BOUND('',#222,.T.);
#143=EDGE_LOOP('',(#787,#788,#789,#790));
#144=EDGE_LOOP('',(#791,#792,#793,#794));
#145=EDGE_LOOP('',(#795,#796,#797,#798));
#146=EDGE_LOOP('',(#799,#800,#801,#802));
#147=EDGE_LOOP('',(#803,#804,#805,#806));
#148=EDGE_LOOP('',(#807,#808,#809,#810));
#149=EDGE_LOOP('',(#811,#812,#813,#814));
#150=EDGE_LOOP('',(#815,#816,#817,#818));
#151=EDGE_LOOP('',(#819,#820,#821,#822));
#152=EDGE_LOOP('',(#823,#824,#825,#826));
#153=EDGE_LOOP('',(#827,#828,#829,#830,#831,#832,#833,#834));
#154=EDGE_LOOP('',(#835,#836,#837,#838));
#155=EDGE_LOOP('',(#839,#840,#841,#842));
#156=EDGE_LOOP('',(#843,#844,#845,#846));
#157=EDGE_LOOP('',(#847,#848,#849,#850));
#158=EDGE_LOOP('',(#851,#852,#853,#854));
#159=EDGE_LOOP('',(#855,#856,#857,#858,#859,#860,#861,#862,#863,#864,#865,
#866));
#160=EDGE_LOOP('',(#867));
#161=EDGE_LOOP('',(#868));
#162=EDGE_LOOP('',(#869,#870,#871,#872));
#163=EDGE_LOOP('',(#873,#874,#875,#876));
#164=EDGE_LOOP('',(#877,#878,#879,#880));
#165=EDGE_LOOP('',(#881,#882,#883,#884));
#166=EDGE_LOOP('',(#885,#886,#887,#888));
#167=EDGE_LOOP('',(#889,#890,#891,#892));
#168=EDGE_LOOP('',(#893,#894,#895,#896,#897,#898,#899,#900,#901,#902,#903,
#904));
#169=EDGE_LOOP('',(#905));
#170=EDGE_LOOP('',(#906,#907,#908,#909));
#171=EDGE_LOOP('',(#910,#911,#912,#913));
#172=EDGE_LOOP('',(#914,#915,#916,#917,#918,#919,#920,#921,#922,#923,#924));
#173=EDGE_LOOP('',(#925));
#174=EDGE_LOOP('',(#926));
#175=EDGE_LOOP('',(#927,#928,#929,#930));
#176=EDGE_LOOP('',(#931,#932,#933,#934));
#177=EDGE_LOOP('',(#935,#936,#937,#938));
#178=EDGE_LOOP('',(#939,#940,#941,#942));
#179=EDGE_LOOP('',(#943,#944,#945,#946));
#180=EDGE_LOOP('',(#947,#948,#949,#950));
#181=EDGE_LOOP('',(#951,#952,#953,#954));
#182=EDGE_LOOP('',(#955,#956,#957,#958));
#183=EDGE_LOOP('',(#959,#960,#961,#962));
#184=EDGE_LOOP('',(#963,#964,#965,#966));
#185=EDGE_LOOP('',(#967,#968,#969,#970));
#186=EDGE_LOOP('',(#971,#972,#973,#974,#975,#976,#977,#978,#979,#980,#981,
#982,#983,#984));
#187=EDGE_LOOP('',(#985,#986,#987,#988));
#188=EDGE_LOOP('',(#989,#990,#991,#992));
#189=EDGE_LOOP('',(#993,#994,#995,#996));
#190=EDGE_LOOP('',(#997));
#191=EDGE_LOOP('',(#998));
#192=EDGE_LOOP('',(#999,#1000,#1001,#1002));
#193=EDGE_LOOP('',(#1003,#1004,#1005,#1006));
#194=EDGE_LOOP('',(#1007,#1008,#1009,#1010,#1011,#1012,#1013,#1014,#1015,
#1016,#1017,#1018,#1019));
#195=EDGE_LOOP('',(#1020,#1021,#1022,#1023,#1024,#1025,#1026,#1027,#1028,
#1029,#1030,#1031,#1032,#1033));
#196=EDGE_LOOP('',(#1034));
#197=EDGE_LOOP('',(#1035,#1036,#1037,#1038,#1039,#1040));
#198=EDGE_LOOP('',(#1041,#1042,#1043,#1044,#1045,#1046));
#199=EDGE_LOOP('',(#1047,#1048,#1049,#1050));
#200=EDGE_LOOP('',(#1051,#1052,#1053,#1054));
#201=EDGE_LOOP('',(#1055,#1056,#1057,#1058));
#202=EDGE_LOOP('',(#1059,#1060,#1061,#1062));
#203=EDGE_LOOP('',(#1063,#1064,#1065,#1066));
#204=EDGE_LOOP('',(#1067,#1068,#1069,#1070));
#205=EDGE_LOOP('',(#1071,#1072,#1073,#1074));
#206=EDGE_LOOP('',(#1075,#1076,#1077,#1078));
#207=EDGE_LOOP('',(#1079,#1080,#1081,#1082));
#208=EDGE_LOOP('',(#1083,#1084,#1085,#1086));
#209=EDGE_LOOP('',(#1087,#1088,#1089,#1090));
#210=EDGE_LOOP('',(#1091,#1092,#1093,#1094));
#211=EDGE_LOOP('',(#1095));
#212=EDGE_LOOP('',(#1096));
#213=EDGE_LOOP('',(#1097,#1098,#1099,#1100,#1101,#1102));
#214=EDGE_LOOP('',(#1103,#1104,#1105,#1106));
#215=EDGE_LOOP('',(#1107));
#216=EDGE_LOOP('',(#1108));
#217=EDGE_LOOP('',(#1109,#1110,#1111,#1112));
#218=EDGE_LOOP('',(#1113,#1114,#1115,#1116));
#219=EDGE_LOOP('',(#1117));
#220=EDGE_LOOP('',(#1118));
#221=EDGE_LOOP('',(#1119,#1120,#1121,#1122,#1123,#1124));
#222=EDGE_LOOP('',(#1125,#1126,#1127,#1128));
#223=LINE('',#1668,#363);
#224=LINE('',#1670,#364);
#225=LINE('',#1672,#365);
#226=LINE('',#1673,#366);
#227=LINE('',#1676,#367);
#228=LINE('',#1678,#368);
#229=LINE('',#1679,#369);
#230=LINE('',#1682,#370);
#231=LINE('',#1684,#371);
#232=LINE('',#1685,#372);
#233=LINE('',#1687,#373);
#234=LINE('',#1688,#374);
#235=LINE('',#1693,#375);
#236=LINE('',#1695,#376);
#237=LINE('',#1697,#377);
#238=LINE('',#1698,#378);
#239=LINE('',#1701,#379);
#240=LINE('',#1703,#380);
#241=LINE('',#1704,#381);
#242=LINE('',#1707,#382);
#243=LINE('',#1709,#383);
#244=LINE('',#1710,#384);
#245=LINE('',#1712,#385);
#246=LINE('',#1713,#386);
#247=LINE('',#1718,#387);
#248=LINE('',#1720,#388);
#249=LINE('',#1722,#389);
#250=LINE('',#1724,#390);
#251=LINE('',#1726,#391);
#252=LINE('',#1728,#392);
#253=LINE('',#1730,#393);
#254=LINE('',#1731,#394);
#255=LINE('',#1736,#395);
#256=LINE('',#1741,#396);
#257=LINE('',#1743,#397);
#258=LINE('',#1745,#398);
#259=LINE('',#1746,#399);
#260=LINE('',#1748,#400);
#261=LINE('',#1749,#401);
#262=LINE('',#1752,#402);
#263=LINE('',#1754,#403);
#264=LINE('',#1756,#404);
#265=LINE('',#1758,#405);
#266=LINE('',#1760,#406);
#267=LINE('',#1762,#407);
#268=LINE('',#1764,#408);
#269=LINE('',#1766,#409);
#270=LINE('',#1767,#410);
#271=LINE('',#1773,#411);
#272=LINE('',#1775,#412);
#273=LINE('',#1777,#413);
#274=LINE('',#1778,#414);
#275=LINE('',#1781,#415);
#276=LINE('',#1783,#416);
#277=LINE('',#1784,#417);
#278=LINE('',#1786,#418);
#279=LINE('',#1787,#419);
#280=LINE('',#1790,#420);
#281=LINE('',#1792,#421);
#282=LINE('',#1793,#422);
#283=LINE('',#1796,#423);
#284=LINE('',#1797,#424);
#285=LINE('',#1799,#425);
#286=LINE('',#1802,#426);
#287=LINE('',#1804,#427);
#288=LINE('',#1806,#428);
#289=LINE('',#1808,#429);
#290=LINE('',#1810,#430);
#291=LINE('',#1811,#431);
#292=LINE('',#1816,#432);
#293=LINE('',#1817,#433);
#294=LINE('',#1820,#434);
#295=LINE('',#1821,#435);
#296=LINE('',#1824,#436);
#297=LINE('',#1826,#437);
#298=LINE('',#1828,#438);
#299=LINE('',#1832,#439);
#300=LINE('',#1833,#440);
#301=LINE('',#1839,#441);
#302=LINE('',#1843,#442);
#303=LINE('',#1847,#443);
#304=LINE('',#1850,#444);
#305=LINE('',#1853,#445);
#306=LINE('',#1855,#446);
#307=LINE('',#1856,#447);
#308=LINE('',#1859,#448);
#309=LINE('',#1860,#449);
#310=LINE('',#1863,#450);
#311=LINE('',#1867,#451);
#312=LINE('',#1871,#452);
#313=LINE('',#1875,#453);
#314=LINE('',#1876,#454);
#315=LINE('',#1881,#455);
#316=LINE('',#1884,#456);
#317=LINE('',#1885,#457);
#318=LINE('',#1887,#458);
#319=LINE('',#1893,#459);
#320=LINE('',#1896,#460);
#321=LINE('',#1898,#461);
#322=LINE('',#1900,#462);
#323=LINE('',#1902,#463);
#324=LINE('',#1903,#464);
#325=LINE('',#1904,#465);
#326=LINE('',#1905,#466);
#327=LINE('',#1908,#467);
#328=LINE('',#1910,#468);
#329=LINE('',#1912,#469);
#330=LINE('',#1913,#470);
#331=LINE('',#1918,#471);
#332=LINE('',#1922,#472);
#333=LINE('',#1924,#473);
#334=LINE('',#1925,#474);
#335=LINE('',#1935,#475);
#336=LINE('',#1941,#476);
#337=LINE('',#1944,#477);
#338=LINE('',#1946,#478);
#339=LINE('',#1947,#479);
#340=LINE('',#1948,#480);
#341=LINE('',#1950,#481);
#342=LINE('',#1952,#482);
#343=LINE('',#1953,#483);
#344=LINE('',#1959,#484);
#345=LINE('',#1961,#485);
#346=LINE('',#1962,#486);
#347=LINE('',#1967,#487);
#348=LINE('',#1971,#488);
#349=LINE('',#1977,#489);
#350=LINE('',#1981,#490);
#351=LINE('',#1984,#491);
#352=LINE('',#1986,#492);
#353=LINE('',#1988,#493);
#354=LINE('',#1990,#494);
#355=LINE('',#1996,#495);
#356=LINE('',#1997,#496);
#357=LINE('',#2000,#497);
#358=LINE('',#2001,#498);
#359=LINE('',#2003,#499);
#360=LINE('',#2007,#500);
#361=LINE('',#2008,#501);
#362=LINE('',#2010,#502);
#363=VECTOR('',#1338,10.);
#364=VECTOR('',#1339,10.);
#365=VECTOR('',#1340,10.);
#366=VECTOR('',#1341,10.);
#367=VECTOR('',#1344,10.);
#368=VECTOR('',#1345,10.);
#369=VECTOR('',#1346,10.);
#370=VECTOR('',#1349,10.);
#371=VECTOR('',#1350,10.);
#372=VECTOR('',#1351,10.);
#373=VECTOR('',#1354,10.);
#374=VECTOR('',#1355,10.);
#375=VECTOR('',#1360,10.);
#376=VECTOR('',#1361,10.);
#377=VECTOR('',#1362,10.);
#378=VECTOR('',#1363,10.);
#379=VECTOR('',#1366,10.);
#380=VECTOR('',#1367,10.);
#381=VECTOR('',#1368,10.);
#382=VECTOR('',#1371,10.);
#383=VECTOR('',#1372,10.);
#384=VECTOR('',#1373,10.);
#385=VECTOR('',#1376,10.);
#386=VECTOR('',#1377,10.);
#387=VECTOR('',#1382,10.);
#388=VECTOR('',#1383,10.);
#389=VECTOR('',#1384,10.);
#390=VECTOR('',#1385,10.);
#391=VECTOR('',#1386,10.);
#392=VECTOR('',#1387,10.);
#393=VECTOR('',#1388,10.);
#394=VECTOR('',#1389,10.);
#395=VECTOR('',#1394,7.);
#396=VECTOR('',#1399,10.);
#397=VECTOR('',#1400,10.);
#398=VECTOR('',#1401,10.);
#399=VECTOR('',#1402,10.);
#400=VECTOR('',#1405,10.);
#401=VECTOR('',#1406,10.);
#402=VECTOR('',#1409,10.);
#403=VECTOR('',#1410,10.);
#404=VECTOR('',#1411,10.);
#405=VECTOR('',#1412,10.);
#406=VECTOR('',#1413,10.);
#407=VECTOR('',#1414,10.);
#408=VECTOR('',#1415,10.);
#409=VECTOR('',#1416,10.);
#410=VECTOR('',#1417,10.);
#411=VECTOR('',#1422,10.);
#412=VECTOR('',#1423,10.);
#413=VECTOR('',#1424,10.);
#414=VECTOR('',#1425,10.);
#415=VECTOR('',#1428,10.);
#416=VECTOR('',#1429,10.);
#417=VECTOR('',#1430,10.);
#418=VECTOR('',#1433,10.);
#419=VECTOR('',#1434,10.);
#420=VECTOR('',#1437,10.);
#421=VECTOR('',#1438,10.);
#422=VECTOR('',#1439,10.);
#423=VECTOR('',#1442,10.);
#424=VECTOR('',#1443,10.);
#425=VECTOR('',#1446,10.);
#426=VECTOR('',#1449,10.);
#427=VECTOR('',#1450,10.);
#428=VECTOR('',#1451,10.);
#429=VECTOR('',#1452,10.);
#430=VECTOR('',#1453,10.);
#431=VECTOR('',#1454,10.);
#432=VECTOR('',#1459,10.);
#433=VECTOR('',#1460,10.);
#434=VECTOR('',#1463,10.);
#435=VECTOR('',#1464,10.);
#436=VECTOR('',#1467,10.);
#437=VECTOR('',#1468,10.);
#438=VECTOR('',#1469,10.);
#439=VECTOR('',#1472,10.);
#440=VECTOR('',#1473,10.);
#441=VECTOR('',#1478,10.);
#442=VECTOR('',#1481,10.);
#443=VECTOR('',#1486,10.);
#444=VECTOR('',#1489,10.);
#445=VECTOR('',#1492,10.);
#446=VECTOR('',#1493,10.);
#447=VECTOR('',#1494,10.);
#448=VECTOR('',#1497,10.);
#449=VECTOR('',#1498,10.);
#450=VECTOR('',#1501,10.);
#451=VECTOR('',#1504,10.);
#452=VECTOR('',#1509,10.);
#453=VECTOR('',#1514,10.);
#454=VECTOR('',#1515,10.);
#455=VECTOR('',#1520,10.);
#456=VECTOR('',#1525,10.);
#457=VECTOR('',#1526,10.);
#458=VECTOR('',#1529,10.);
#459=VECTOR('',#1534,10.);
#460=VECTOR('',#1537,10.);
#461=VECTOR('',#1540,10.);
#462=VECTOR('',#1541,10.);
#463=VECTOR('',#1542,10.);
#464=VECTOR('',#1543,10.);
#465=VECTOR('',#1544,10.);
#466=VECTOR('',#1545,10.);
#467=VECTOR('',#1546,10.);
#468=VECTOR('',#1547,10.);
#469=VECTOR('',#1548,10.);
#470=VECTOR('',#1549,10.);
#471=VECTOR('',#1554,10.);
#472=VECTOR('',#1559,10.);
#473=VECTOR('',#1560,10.);
#474=VECTOR('',#1561,10.);
#475=VECTOR('',#1572,10.);
#476=VECTOR('',#1579,10.);
#477=VECTOR('',#1582,10.);
#478=VECTOR('',#1583,10.);
#479=VECTOR('',#1584,10.);
#480=VECTOR('',#1585,10.);
#481=VECTOR('',#1588,10.);
#482=VECTOR('',#1589,10.);
#483=VECTOR('',#1590,10.);
#484=VECTOR('',#1597,10.);
#485=VECTOR('',#1598,10.);
#486=VECTOR('',#1599,10.);
#487=VECTOR('',#1604,1.9);
#488=VECTOR('',#1609,1.9);
#489=VECTOR('',#1616,1.9);
#490=VECTOR('',#1621,1.9);
#491=VECTOR('',#1626,7.075);
#492=VECTOR('',#1629,7.075);
#493=VECTOR('',#1632,10.);
#494=VECTOR('',#1635,10.);
#495=VECTOR('',#1644,10.);
#496=VECTOR('',#1645,10.);
#497=VECTOR('',#1648,10.);
#498=VECTOR('',#1649,10.);
#499=VECTOR('',#1652,10.);
#500=VECTOR('',#1657,10.);
#501=VECTOR('',#1658,10.);
#502=VECTOR('',#1661,10.);
#503=VERTEX_POINT('',#1666);
#504=VERTEX_POINT('',#1667);
#505=VERTEX_POINT('',#1669);
#506=VERTEX_POINT('',#1671);
#507=VERTEX_POINT('',#1675);
#508=VERTEX_POINT('',#1677);
#509=VERTEX_POINT('',#1681);
#510=VERTEX_POINT('',#1683);
#511=VERTEX_POINT('',#1691);
#512=VERTEX_POINT('',#1692);
#513=VERTEX_POINT('',#1694);
#514=VERTEX_POINT('',#1696);
#515=VERTEX_POINT('',#1700);
#516=VERTEX_POINT('',#1702);
#517=VERTEX_POINT('',#1706);
#518=VERTEX_POINT('',#1708);
#519=VERTEX_POINT('',#1716);
#520=VERTEX_POINT('',#1717);
#521=VERTEX_POINT('',#1719);
#522=VERTEX_POINT('',#1721);
#523=VERTEX_POINT('',#1723);
#524=VERTEX_POINT('',#1725);
#525=VERTEX_POINT('',#1727);
#526=VERTEX_POINT('',#1729);
#527=VERTEX_POINT('',#1733);
#528=VERTEX_POINT('',#1735);
#529=VERTEX_POINT('',#1739);
#530=VERTEX_POINT('',#1740);
#531=VERTEX_POINT('',#1742);
#532=VERTEX_POINT('',#1744);
#533=VERTEX_POINT('',#1751);
#534=VERTEX_POINT('',#1753);
#535=VERTEX_POINT('',#1755);
#536=VERTEX_POINT('',#1757);
#537=VERTEX_POINT('',#1759);
#538=VERTEX_POINT('',#1761);
#539=VERTEX_POINT('',#1763);
#540=VERTEX_POINT('',#1765);
#541=VERTEX_POINT('',#1768);
#542=VERTEX_POINT('',#1771);
#543=VERTEX_POINT('',#1772);
#544=VERTEX_POINT('',#1774);
#545=VERTEX_POINT('',#1776);
#546=VERTEX_POINT('',#1780);
#547=VERTEX_POINT('',#1782);
#548=VERTEX_POINT('',#1789);
#549=VERTEX_POINT('',#1791);
#550=VERTEX_POINT('',#1795);
#551=VERTEX_POINT('',#1801);
#552=VERTEX_POINT('',#1803);
#553=VERTEX_POINT('',#1805);
#554=VERTEX_POINT('',#1807);
#555=VERTEX_POINT('',#1809);
#556=VERTEX_POINT('',#1812);
#557=VERTEX_POINT('',#1815);
#558=VERTEX_POINT('',#1819);
#559=VERTEX_POINT('',#1823);
#560=VERTEX_POINT('',#1825);
#561=VERTEX_POINT('',#1827);
#562=VERTEX_POINT('',#1829);
#563=VERTEX_POINT('',#1831);
#564=VERTEX_POINT('',#1834);
#565=VERTEX_POINT('',#1837);
#566=VERTEX_POINT('',#1838);
#567=VERTEX_POINT('',#1840);
#568=VERTEX_POINT('',#1842);
#569=VERTEX_POINT('',#1846);
#570=VERTEX_POINT('',#1848);
#571=VERTEX_POINT('',#1852);
#572=VERTEX_POINT('',#1854);
#573=VERTEX_POINT('',#1858);
#574=VERTEX_POINT('',#1862);
#575=VERTEX_POINT('',#1864);
#576=VERTEX_POINT('',#1866);
#577=VERTEX_POINT('',#1870);
#578=VERTEX_POINT('',#1874);
#579=VERTEX_POINT('',#1878);
#580=VERTEX_POINT('',#1880);
#581=VERTEX_POINT('',#1889);
#582=VERTEX_POINT('',#1890);
#583=VERTEX_POINT('',#1892);
#584=VERTEX_POINT('',#1894);
#585=VERTEX_POINT('',#1899);
#586=VERTEX_POINT('',#1901);
#587=VERTEX_POINT('',#1906);
#588=VERTEX_POINT('',#1907);
#589=VERTEX_POINT('',#1909);
#590=VERTEX_POINT('',#1911);
#591=VERTEX_POINT('',#1915);
#592=VERTEX_POINT('',#1917);
#593=VERTEX_POINT('',#1921);
#594=VERTEX_POINT('',#1923);
#595=VERTEX_POINT('',#1926);
#596=VERTEX_POINT('',#1928);
#597=VERTEX_POINT('',#1931);
#598=VERTEX_POINT('',#1933);
#599=VERTEX_POINT('',#1937);
#600=VERTEX_POINT('',#1939);
#601=VERTEX_POINT('',#1943);
#602=VERTEX_POINT('',#1945);
#603=VERTEX_POINT('',#1951);
#604=VERTEX_POINT('',#1954);
#605=VERTEX_POINT('',#1958);
#606=VERTEX_POINT('',#1960);
#607=VERTEX_POINT('',#1964);
#608=VERTEX_POINT('',#1966);
#609=VERTEX_POINT('',#1970);
#610=VERTEX_POINT('',#1974);
#611=VERTEX_POINT('',#1976);
#612=VERTEX_POINT('',#1980);
#613=VERTEX_POINT('',#1995);
#614=VERTEX_POINT('',#1999);
#615=VERTEX_POINT('',#2006);
#616=EDGE_CURVE('',#503,#504,#223,.T.);
#617=EDGE_CURVE('',#503,#505,#224,.T.);
#618=EDGE_CURVE('',#505,#506,#225,.T.);
#619=EDGE_CURVE('',#504,#506,#226,.T.);
#620=EDGE_CURVE('',#507,#503,#227,.T.);
#621=EDGE_CURVE('',#507,#508,#228,.T.);
#622=EDGE_CURVE('',#508,#505,#229,.T.);
#623=EDGE_CURVE('',#509,#507,#230,.T.);
#624=EDGE_CURVE('',#509,#510,#231,.T.);
#625=EDGE_CURVE('',#510,#508,#232,.T.);
#626=EDGE_CURVE('',#504,#509,#233,.T.);
#627=EDGE_CURVE('',#506,#510,#234,.T.);
#628=EDGE_CURVE('',#511,#512,#235,.T.);
#629=EDGE_CURVE('',#511,#513,#236,.T.);
#630=EDGE_CURVE('',#513,#514,#237,.T.);
#631=EDGE_CURVE('',#512,#514,#238,.T.);
#632=EDGE_CURVE('',#515,#511,#239,.T.);
#633=EDGE_CURVE('',#515,#516,#240,.T.);
#634=EDGE_CURVE('',#516,#513,#241,.T.);
#635=EDGE_CURVE('',#517,#515,#242,.T.);
#636=EDGE_CURVE('',#517,#518,#243,.T.);
#637=EDGE_CURVE('',#518,#516,#244,.T.);
#638=EDGE_CURVE('',#512,#517,#245,.T.);
#639=EDGE_CURVE('',#514,#518,#246,.T.);
#640=EDGE_CURVE('',#519,#520,#247,.T.);
#641=EDGE_CURVE('',#520,#521,#248,.T.);
#642=EDGE_CURVE('',#521,#522,#249,.T.);
#643=EDGE_CURVE('',#522,#523,#250,.T.);
#644=EDGE_CURVE('',#523,#524,#251,.T.);
#645=EDGE_CURVE('',#524,#525,#252,.T.);
#646=EDGE_CURVE('',#525,#526,#253,.T.);
#647=EDGE_CURVE('',#526,#519,#254,.T.);
#648=EDGE_CURVE('',#527,#527,#18,.T.);
#649=EDGE_CURVE('',#527,#528,#255,.T.);
#650=EDGE_CURVE('',#528,#528,#19,.T.);
#651=EDGE_CURVE('',#529,#530,#256,.T.);
#652=EDGE_CURVE('',#531,#529,#257,.T.);
#653=EDGE_CURVE('',#532,#531,#258,.T.);
#654=EDGE_CURVE('',#530,#532,#259,.T.);
#655=EDGE_CURVE('',#532,#522,#260,.T.);
#656=EDGE_CURVE('',#530,#521,#261,.T.);
#657=EDGE_CURVE('',#531,#533,#262,.T.);
#658=EDGE_CURVE('',#534,#533,#263,.T.);
#659=EDGE_CURVE('',#535,#534,#264,.T.);
#660=EDGE_CURVE('',#535,#536,#265,.T.);
#661=EDGE_CURVE('',#537,#536,#266,.T.);
#662=EDGE_CURVE('',#538,#537,#267,.T.);
#663=EDGE_CURVE('',#538,#539,#268,.T.);
#664=EDGE_CURVE('',#539,#540,#269,.T.);
#665=EDGE_CURVE('',#540,#523,#270,.T.);
#666=EDGE_CURVE('',#541,#541,#20,.T.);
#667=EDGE_CURVE('',#542,#543,#271,.T.);
#668=EDGE_CURVE('',#544,#542,#272,.T.);
#669=EDGE_CURVE('',#544,#545,#273,.T.);
#670=EDGE_CURVE('',#543,#545,#274,.T.);
#671=EDGE_CURVE('',#546,#519,#275,.T.);
#672=EDGE_CURVE('',#546,#547,#276,.T.);
#673=EDGE_CURVE('',#520,#547,#277,.T.);
#674=EDGE_CURVE('',#545,#546,#278,.T.);
#675=EDGE_CURVE('',#547,#544,#279,.T.);
#676=EDGE_CURVE('',#548,#538,#280,.T.);
#677=EDGE_CURVE('',#549,#548,#281,.T.);
#678=EDGE_CURVE('',#549,#539,#282,.T.);
#679=EDGE_CURVE('',#540,#550,#283,.T.);
#680=EDGE_CURVE('',#524,#550,#284,.T.);
#681=EDGE_CURVE('',#550,#549,#285,.T.);
#682=EDGE_CURVE('',#551,#542,#286,.T.);
#683=EDGE_CURVE('',#552,#551,#287,.T.);
#684=EDGE_CURVE('',#553,#552,#288,.T.);
#685=EDGE_CURVE('',#554,#553,#289,.T.);
#686=EDGE_CURVE('',#555,#554,#290,.T.);
#687=EDGE_CURVE('',#555,#529,#291,.T.);
#688=EDGE_CURVE('',#556,#556,#21,.T.);
#689=EDGE_CURVE('',#557,#537,#292,.T.);
#690=EDGE_CURVE('',#548,#557,#293,.T.);
#691=EDGE_CURVE('',#543,#558,#294,.T.);
#692=EDGE_CURVE('',#551,#558,#295,.T.);
#693=EDGE_CURVE('',#559,#557,#296,.T.);
#694=EDGE_CURVE('',#560,#559,#297,.T.);
#695=EDGE_CURVE('',#560,#561,#298,.T.);
#696=EDGE_CURVE('',#562,#561,#22,.T.);
#697=EDGE_CURVE('',#562,#563,#299,.T.);
#698=EDGE_CURVE('',#563,#525,#300,.T.);
#699=EDGE_CURVE('',#564,#564,#23,.T.);
#700=EDGE_CURVE('',#565,#566,#301,.T.);
#701=EDGE_CURVE('',#566,#567,#24,.T.);
#702=EDGE_CURVE('',#567,#568,#302,.T.);
#703=EDGE_CURVE('',#568,#565,#15,.T.);
#704=EDGE_CURVE('',#568,#569,#303,.T.);
#705=EDGE_CURVE('',#569,#570,#25,.T.);
#706=EDGE_CURVE('',#570,#565,#304,.T.);
#707=EDGE_CURVE('',#565,#571,#305,.T.);
#708=EDGE_CURVE('',#572,#571,#306,.T.);
#709=EDGE_CURVE('',#566,#572,#307,.T.);
#710=EDGE_CURVE('',#573,#570,#308,.T.);
#711=EDGE_CURVE('',#571,#573,#309,.T.);
#712=EDGE_CURVE('',#554,#574,#310,.T.);
#713=EDGE_CURVE('',#574,#575,#26,.T.);
#714=EDGE_CURVE('',#575,#576,#311,.T.);
#715=EDGE_CURVE('',#576,#554,#16,.T.);
#716=EDGE_CURVE('',#576,#577,#312,.T.);
#717=EDGE_CURVE('',#577,#555,#27,.T.);
#718=EDGE_CURVE('',#578,#553,#313,.T.);
#719=EDGE_CURVE('',#574,#578,#314,.T.);
#720=EDGE_CURVE('',#533,#579,#28,.T.);
#721=EDGE_CURVE('',#579,#580,#315,.T.);
#722=EDGE_CURVE('',#580,#534,#17,.T.);
#723=EDGE_CURVE('',#580,#562,#316,.T.);
#724=EDGE_CURVE('',#561,#534,#317,.T.);
#725=EDGE_CURVE('',#535,#560,#318,.T.);
#726=EDGE_CURVE('',#581,#582,#29,.T.);
#727=EDGE_CURVE('',#582,#583,#319,.T.);
#728=EDGE_CURVE('',#583,#584,#30,.T.);
#729=EDGE_CURVE('',#584,#581,#320,.T.);
#730=EDGE_CURVE('',#583,#567,#321,.T.);
#731=EDGE_CURVE('',#585,#582,#322,.T.);
#732=EDGE_CURVE('',#586,#585,#323,.T.);
#733=EDGE_CURVE('',#563,#586,#324,.T.);
#734=EDGE_CURVE('',#577,#579,#325,.T.);
#735=EDGE_CURVE('',#569,#575,#326,.T.);
#736=EDGE_CURVE('',#587,#588,#327,.T.);
#737=EDGE_CURVE('',#589,#587,#328,.T.);
#738=EDGE_CURVE('',#590,#589,#329,.T.);
#739=EDGE_CURVE('',#588,#590,#330,.T.);
#740=EDGE_CURVE('',#585,#591,#31,.T.);
#741=EDGE_CURVE('',#591,#592,#331,.T.);
#742=EDGE_CURVE('',#592,#586,#32,.T.);
#743=EDGE_CURVE('',#593,#591,#332,.T.);
#744=EDGE_CURVE('',#593,#594,#333,.T.);
#745=EDGE_CURVE('',#592,#594,#334,.T.);
#746=EDGE_CURVE('',#595,#595,#33,.T.);
#747=EDGE_CURVE('',#596,#596,#34,.T.);
#748=EDGE_CURVE('',#597,#589,#35,.T.);
#749=EDGE_CURVE('',#587,#598,#36,.T.);
#750=EDGE_CURVE('',#598,#597,#335,.T.);
#751=EDGE_CURVE('',#599,#588,#37,.T.);
#752=EDGE_CURVE('',#590,#600,#38,.T.);
#753=EDGE_CURVE('',#600,#599,#336,.T.);
#754=EDGE_CURVE('',#601,#584,#337,.T.);
#755=EDGE_CURVE('',#602,#572,#338,.T.);
#756=EDGE_CURVE('',#526,#602,#339,.T.);
#757=EDGE_CURVE('',#594,#601,#340,.T.);
#758=EDGE_CURVE('',#573,#602,#341,.T.);
#759=EDGE_CURVE('',#578,#603,#342,.T.);
#760=EDGE_CURVE('',#558,#603,#343,.T.);
#761=EDGE_CURVE('',#604,#604,#39,.T.);
#762=EDGE_CURVE('',#605,#597,#344,.T.);
#763=EDGE_CURVE('',#605,#606,#345,.T.);
#764=EDGE_CURVE('',#606,#600,#346,.T.);
#765=EDGE_CURVE('',#607,#607,#40,.T.);
#766=EDGE_CURVE('',#607,#608,#347,.T.);
#767=EDGE_CURVE('',#608,#608,#41,.T.);
#768=EDGE_CURVE('',#596,#609,#348,.T.);
#769=EDGE_CURVE('',#609,#609,#42,.T.);
#770=EDGE_CURVE('',#610,#610,#43,.T.);
#771=EDGE_CURVE('',#610,#611,#349,.T.);
#772=EDGE_CURVE('',#611,#611,#44,.T.);
#773=EDGE_CURVE('',#595,#612,#350,.T.);
#774=EDGE_CURVE('',#612,#612,#45,.T.);
#775=EDGE_CURVE('',#556,#604,#351,.T.);
#776=EDGE_CURVE('',#564,#541,#352,.T.);
#777=EDGE_CURVE('',#536,#559,#353,.T.);
#778=EDGE_CURVE('',#603,#552,#354,.T.);
#779=EDGE_CURVE('',#613,#606,#355,.T.);
#780=EDGE_CURVE('',#613,#599,#356,.T.);
#781=EDGE_CURVE('',#614,#613,#357,.T.);
#782=EDGE_CURVE('',#614,#598,#358,.T.);
#783=EDGE_CURVE('',#614,#605,#359,.T.);
#784=EDGE_CURVE('',#615,#601,#360,.T.);
#785=EDGE_CURVE('',#615,#581,#361,.T.);
#786=EDGE_CURVE('',#593,#615,#362,.T.);
#787=ORIENTED_EDGE('',*,*,#616,.F.);
#788=ORIENTED_EDGE('',*,*,#617,.T.);
#789=ORIENTED_EDGE('',*,*,#618,.T.);
#790=ORIENTED_EDGE('',*,*,#619,.F.);
#791=ORIENTED_EDGE('',*,*,#620,.F.);
#792=ORIENTED_EDGE('',*,*,#621,.T.);
#793=ORIENTED_EDGE('',*,*,#622,.T.);
#794=ORIENTED_EDGE('',*,*,#617,.F.);
#795=ORIENTED_EDGE('',*,*,#623,.F.);
#796=ORIENTED_EDGE('',*,*,#624,.T.);
#797=ORIENTED_EDGE('',*,*,#625,.T.);
#798=ORIENTED_EDGE('',*,*,#621,.F.);
#799=ORIENTED_EDGE('',*,*,#626,.F.);
#800=ORIENTED_EDGE('',*,*,#619,.T.);
#801=ORIENTED_EDGE('',*,*,#627,.T.);
#802=ORIENTED_EDGE('',*,*,#624,.F.);
#803=ORIENTED_EDGE('',*,*,#627,.F.);
#804=ORIENTED_EDGE('',*,*,#618,.F.);
#805=ORIENTED_EDGE('',*,*,#622,.F.);
#806=ORIENTED_EDGE('',*,*,#625,.F.);
#807=ORIENTED_EDGE('',*,*,#628,.F.);
#808=ORIENTED_EDGE('',*,*,#629,.T.);
#809=ORIENTED_EDGE('',*,*,#630,.T.);
#810=ORIENTED_EDGE('',*,*,#631,.F.);
#811=ORIENTED_EDGE('',*,*,#632,.F.);
#812=ORIENTED_EDGE('',*,*,#633,.T.);
#813=ORIENTED_EDGE('',*,*,#634,.T.);
#814=ORIENTED_EDGE('',*,*,#629,.F.);
#815=ORIENTED_EDGE('',*,*,#635,.F.);
#816=ORIENTED_EDGE('',*,*,#636,.T.);
#817=ORIENTED_EDGE('',*,*,#637,.T.);
#818=ORIENTED_EDGE('',*,*,#633,.F.);
#819=ORIENTED_EDGE('',*,*,#638,.F.);
#820=ORIENTED_EDGE('',*,*,#631,.T.);
#821=ORIENTED_EDGE('',*,*,#639,.T.);
#822=ORIENTED_EDGE('',*,*,#636,.F.);
#823=ORIENTED_EDGE('',*,*,#639,.F.);
#824=ORIENTED_EDGE('',*,*,#630,.F.);
#825=ORIENTED_EDGE('',*,*,#634,.F.);
#826=ORIENTED_EDGE('',*,*,#637,.F.);
#827=ORIENTED_EDGE('',*,*,#640,.T.);
#828=ORIENTED_EDGE('',*,*,#641,.T.);
#829=ORIENTED_EDGE('',*,*,#642,.T.);
#830=ORIENTED_EDGE('',*,*,#643,.T.);
#831=ORIENTED_EDGE('',*,*,#644,.T.);
#832=ORIENTED_EDGE('',*,*,#645,.T.);
#833=ORIENTED_EDGE('',*,*,#646,.T.);
#834=ORIENTED_EDGE('',*,*,#647,.T.);
#835=ORIENTED_EDGE('',*,*,#616,.T.);
#836=ORIENTED_EDGE('',*,*,#626,.T.);
#837=ORIENTED_EDGE('',*,*,#623,.T.);
#838=ORIENTED_EDGE('',*,*,#620,.T.);
#839=ORIENTED_EDGE('',*,*,#628,.T.);
#840=ORIENTED_EDGE('',*,*,#638,.T.);
#841=ORIENTED_EDGE('',*,*,#635,.T.);
#842=ORIENTED_EDGE('',*,*,#632,.T.);
#843=ORIENTED_EDGE('',*,*,#648,.F.);
#844=ORIENTED_EDGE('',*,*,#649,.T.);
#845=ORIENTED_EDGE('',*,*,#650,.F.);
#846=ORIENTED_EDGE('',*,*,#649,.F.);
#847=ORIENTED_EDGE('',*,*,#651,.F.);
#848=ORIENTED_EDGE('',*,*,#652,.F.);
#849=ORIENTED_EDGE('',*,*,#653,.F.);
#850=ORIENTED_EDGE('',*,*,#654,.F.);
#851=ORIENTED_EDGE('',*,*,#654,.T.);
#852=ORIENTED_EDGE('',*,*,#655,.T.);
#853=ORIENTED_EDGE('',*,*,#642,.F.);
#854=ORIENTED_EDGE('',*,*,#656,.F.);
#855=ORIENTED_EDGE('',*,*,#653,.T.);
#856=ORIENTED_EDGE('',*,*,#657,.T.);
#857=ORIENTED_EDGE('',*,*,#658,.F.);
#858=ORIENTED_EDGE('',*,*,#659,.F.);
#859=ORIENTED_EDGE('',*,*,#660,.T.);
#860=ORIENTED_EDGE('',*,*,#661,.F.);
#861=ORIENTED_EDGE('',*,*,#662,.F.);
#862=ORIENTED_EDGE('',*,*,#663,.T.);
#863=ORIENTED_EDGE('',*,*,#664,.T.);
#864=ORIENTED_EDGE('',*,*,#665,.T.);
#865=ORIENTED_EDGE('',*,*,#643,.F.);
#866=ORIENTED_EDGE('',*,*,#655,.F.);
#867=ORIENTED_EDGE('',*,*,#650,.T.);
#868=ORIENTED_EDGE('',*,*,#666,.T.);
#869=ORIENTED_EDGE('',*,*,#667,.F.);
#870=ORIENTED_EDGE('',*,*,#668,.F.);
#871=ORIENTED_EDGE('',*,*,#669,.T.);
#872=ORIENTED_EDGE('',*,*,#670,.F.);
#873=ORIENTED_EDGE('',*,*,#671,.F.);
#874=ORIENTED_EDGE('',*,*,#672,.T.);
#875=ORIENTED_EDGE('',*,*,#673,.F.);
#876=ORIENTED_EDGE('',*,*,#640,.F.);
#877=ORIENTED_EDGE('',*,*,#672,.F.);
#878=ORIENTED_EDGE('',*,*,#674,.F.);
#879=ORIENTED_EDGE('',*,*,#669,.F.);
#880=ORIENTED_EDGE('',*,*,#675,.F.);
#881=ORIENTED_EDGE('',*,*,#676,.F.);
#882=ORIENTED_EDGE('',*,*,#677,.F.);
#883=ORIENTED_EDGE('',*,*,#678,.T.);
#884=ORIENTED_EDGE('',*,*,#663,.F.);
#885=ORIENTED_EDGE('',*,*,#665,.F.);
#886=ORIENTED_EDGE('',*,*,#679,.T.);
#887=ORIENTED_EDGE('',*,*,#680,.F.);
#888=ORIENTED_EDGE('',*,*,#644,.F.);
#889=ORIENTED_EDGE('',*,*,#679,.F.);
#890=ORIENTED_EDGE('',*,*,#664,.F.);
#891=ORIENTED_EDGE('',*,*,#678,.F.);
#892=ORIENTED_EDGE('',*,*,#681,.F.);
#893=ORIENTED_EDGE('',*,*,#651,.T.);
#894=ORIENTED_EDGE('',*,*,#656,.T.);
#895=ORIENTED_EDGE('',*,*,#641,.F.);
#896=ORIENTED_EDGE('',*,*,#673,.T.);
#897=ORIENTED_EDGE('',*,*,#675,.T.);
#898=ORIENTED_EDGE('',*,*,#668,.T.);
#899=ORIENTED_EDGE('',*,*,#682,.F.);
#900=ORIENTED_EDGE('',*,*,#683,.F.);
#901=ORIENTED_EDGE('',*,*,#684,.F.);
#902=ORIENTED_EDGE('',*,*,#685,.F.);
#903=ORIENTED_EDGE('',*,*,#686,.F.);
#904=ORIENTED_EDGE('',*,*,#687,.T.);
#905=ORIENTED_EDGE('',*,*,#688,.T.);
#906=ORIENTED_EDGE('',*,*,#676,.T.);
#907=ORIENTED_EDGE('',*,*,#662,.T.);
#908=ORIENTED_EDGE('',*,*,#689,.F.);
#909=ORIENTED_EDGE('',*,*,#690,.F.);
#910=ORIENTED_EDGE('',*,*,#667,.T.);
#911=ORIENTED_EDGE('',*,*,#691,.T.);
#912=ORIENTED_EDGE('',*,*,#692,.F.);
#913=ORIENTED_EDGE('',*,*,#682,.T.);
#914=ORIENTED_EDGE('',*,*,#680,.T.);
#915=ORIENTED_EDGE('',*,*,#681,.T.);
#916=ORIENTED_EDGE('',*,*,#677,.T.);
#917=ORIENTED_EDGE('',*,*,#690,.T.);
#918=ORIENTED_EDGE('',*,*,#693,.F.);
#919=ORIENTED_EDGE('',*,*,#694,.F.);
#920=ORIENTED_EDGE('',*,*,#695,.T.);
#921=ORIENTED_EDGE('',*,*,#696,.F.);
#922=ORIENTED_EDGE('',*,*,#697,.T.);
#923=ORIENTED_EDGE('',*,*,#698,.T.);
#924=ORIENTED_EDGE('',*,*,#645,.F.);
#925=ORIENTED_EDGE('',*,*,#648,.T.);
#926=ORIENTED_EDGE('',*,*,#699,.T.);
#927=ORIENTED_EDGE('',*,*,#700,.T.);
#928=ORIENTED_EDGE('',*,*,#701,.T.);
#929=ORIENTED_EDGE('',*,*,#702,.T.);
#930=ORIENTED_EDGE('',*,*,#703,.T.);
#931=ORIENTED_EDGE('',*,*,#704,.T.);
#932=ORIENTED_EDGE('',*,*,#705,.T.);
#933=ORIENTED_EDGE('',*,*,#706,.T.);
#934=ORIENTED_EDGE('',*,*,#703,.F.);
#935=ORIENTED_EDGE('',*,*,#700,.F.);
#936=ORIENTED_EDGE('',*,*,#707,.T.);
#937=ORIENTED_EDGE('',*,*,#708,.F.);
#938=ORIENTED_EDGE('',*,*,#709,.F.);
#939=ORIENTED_EDGE('',*,*,#706,.F.);
#940=ORIENTED_EDGE('',*,*,#710,.F.);
#941=ORIENTED_EDGE('',*,*,#711,.F.);
#942=ORIENTED_EDGE('',*,*,#707,.F.);
#943=ORIENTED_EDGE('',*,*,#712,.T.);
#944=ORIENTED_EDGE('',*,*,#713,.T.);
#945=ORIENTED_EDGE('',*,*,#714,.T.);
#946=ORIENTED_EDGE('',*,*,#715,.T.);
#947=ORIENTED_EDGE('',*,*,#716,.T.);
#948=ORIENTED_EDGE('',*,*,#717,.T.);
#949=ORIENTED_EDGE('',*,*,#686,.T.);
#950=ORIENTED_EDGE('',*,*,#715,.F.);
#951=ORIENTED_EDGE('',*,*,#712,.F.);
#952=ORIENTED_EDGE('',*,*,#685,.T.);
#953=ORIENTED_EDGE('',*,*,#718,.F.);
#954=ORIENTED_EDGE('',*,*,#719,.F.);
#955=ORIENTED_EDGE('',*,*,#658,.T.);
#956=ORIENTED_EDGE('',*,*,#720,.T.);
#957=ORIENTED_EDGE('',*,*,#721,.T.);
#958=ORIENTED_EDGE('',*,*,#722,.T.);
#959=ORIENTED_EDGE('',*,*,#723,.T.);
#960=ORIENTED_EDGE('',*,*,#696,.T.);
#961=ORIENTED_EDGE('',*,*,#724,.T.);
#962=ORIENTED_EDGE('',*,*,#722,.F.);
#963=ORIENTED_EDGE('',*,*,#724,.F.);
#964=ORIENTED_EDGE('',*,*,#695,.F.);
#965=ORIENTED_EDGE('',*,*,#725,.F.);
#966=ORIENTED_EDGE('',*,*,#659,.T.);
#967=ORIENTED_EDGE('',*,*,#726,.T.);
#968=ORIENTED_EDGE('',*,*,#727,.T.);
#969=ORIENTED_EDGE('',*,*,#728,.T.);
#970=ORIENTED_EDGE('',*,*,#729,.T.);
#971=ORIENTED_EDGE('',*,*,#702,.F.);
#972=ORIENTED_EDGE('',*,*,#730,.F.);
#973=ORIENTED_EDGE('',*,*,#727,.F.);
#974=ORIENTED_EDGE('',*,*,#731,.F.);
#975=ORIENTED_EDGE('',*,*,#732,.F.);
#976=ORIENTED_EDGE('',*,*,#733,.F.);
#977=ORIENTED_EDGE('',*,*,#697,.F.);
#978=ORIENTED_EDGE('',*,*,#723,.F.);
#979=ORIENTED_EDGE('',*,*,#721,.F.);
#980=ORIENTED_EDGE('',*,*,#734,.F.);
#981=ORIENTED_EDGE('',*,*,#716,.F.);
#982=ORIENTED_EDGE('',*,*,#714,.F.);
#983=ORIENTED_EDGE('',*,*,#735,.F.);
#984=ORIENTED_EDGE('',*,*,#704,.F.);
#985=ORIENTED_EDGE('',*,*,#736,.F.);
#986=ORIENTED_EDGE('',*,*,#737,.F.);
#987=ORIENTED_EDGE('',*,*,#738,.F.);
#988=ORIENTED_EDGE('',*,*,#739,.F.);
#989=ORIENTED_EDGE('',*,*,#740,.T.);
#990=ORIENTED_EDGE('',*,*,#741,.T.);
#991=ORIENTED_EDGE('',*,*,#742,.T.);
#992=ORIENTED_EDGE('',*,*,#732,.T.);
#993=ORIENTED_EDGE('',*,*,#741,.F.);
#994=ORIENTED_EDGE('',*,*,#743,.F.);
#995=ORIENTED_EDGE('',*,*,#744,.T.);
#996=ORIENTED_EDGE('',*,*,#745,.F.);
#997=ORIENTED_EDGE('',*,*,#746,.T.);
#998=ORIENTED_EDGE('',*,*,#747,.T.);
#999=ORIENTED_EDGE('',*,*,#748,.T.);
#1000=ORIENTED_EDGE('',*,*,#737,.T.);
#1001=ORIENTED_EDGE('',*,*,#749,.T.);
#1002=ORIENTED_EDGE('',*,*,#750,.T.);
#1003=ORIENTED_EDGE('',*,*,#751,.T.);
#1004=ORIENTED_EDGE('',*,*,#739,.T.);
#1005=ORIENTED_EDGE('',*,*,#752,.T.);
#1006=ORIENTED_EDGE('',*,*,#753,.T.);
#1007=ORIENTED_EDGE('',*,*,#754,.T.);
#1008=ORIENTED_EDGE('',*,*,#728,.F.);
#1009=ORIENTED_EDGE('',*,*,#730,.T.);
#1010=ORIENTED_EDGE('',*,*,#701,.F.);
#1011=ORIENTED_EDGE('',*,*,#709,.T.);
#1012=ORIENTED_EDGE('',*,*,#755,.F.);
#1013=ORIENTED_EDGE('',*,*,#756,.F.);
#1014=ORIENTED_EDGE('',*,*,#646,.F.);
#1015=ORIENTED_EDGE('',*,*,#698,.F.);
#1016=ORIENTED_EDGE('',*,*,#733,.T.);
#1017=ORIENTED_EDGE('',*,*,#742,.F.);
#1018=ORIENTED_EDGE('',*,*,#745,.T.);
#1019=ORIENTED_EDGE('',*,*,#757,.T.);
#1020=ORIENTED_EDGE('',*,*,#671,.T.);
#1021=ORIENTED_EDGE('',*,*,#647,.F.);
#1022=ORIENTED_EDGE('',*,*,#756,.T.);
#1023=ORIENTED_EDGE('',*,*,#758,.F.);
#1024=ORIENTED_EDGE('',*,*,#710,.T.);
#1025=ORIENTED_EDGE('',*,*,#705,.F.);
#1026=ORIENTED_EDGE('',*,*,#735,.T.);
#1027=ORIENTED_EDGE('',*,*,#713,.F.);
#1028=ORIENTED_EDGE('',*,*,#719,.T.);
#1029=ORIENTED_EDGE('',*,*,#759,.T.);
#1030=ORIENTED_EDGE('',*,*,#760,.F.);
#1031=ORIENTED_EDGE('',*,*,#691,.F.);
#1032=ORIENTED_EDGE('',*,*,#670,.T.);
#1033=ORIENTED_EDGE('',*,*,#674,.T.);
#1034=ORIENTED_EDGE('',*,*,#761,.T.);
#1035=ORIENTED_EDGE('',*,*,#734,.T.);
#1036=ORIENTED_EDGE('',*,*,#720,.F.);
#1037=ORIENTED_EDGE('',*,*,#657,.F.);
#1038=ORIENTED_EDGE('',*,*,#652,.T.);
#1039=ORIENTED_EDGE('',*,*,#687,.F.);
#1040=ORIENTED_EDGE('',*,*,#717,.F.);
#1041=ORIENTED_EDGE('',*,*,#762,.F.);
#1042=ORIENTED_EDGE('',*,*,#763,.T.);
#1043=ORIENTED_EDGE('',*,*,#764,.T.);
#1044=ORIENTED_EDGE('',*,*,#752,.F.);
#1045=ORIENTED_EDGE('',*,*,#738,.T.);
#1046=ORIENTED_EDGE('',*,*,#748,.F.);
#1047=ORIENTED_EDGE('',*,*,#765,.F.);
#1048=ORIENTED_EDGE('',*,*,#766,.T.);
#1049=ORIENTED_EDGE('',*,*,#767,.F.);
#1050=ORIENTED_EDGE('',*,*,#766,.F.);
#1051=ORIENTED_EDGE('',*,*,#747,.F.);
#1052=ORIENTED_EDGE('',*,*,#768,.T.);
#1053=ORIENTED_EDGE('',*,*,#769,.F.);
#1054=ORIENTED_EDGE('',*,*,#768,.F.);
#1055=ORIENTED_EDGE('',*,*,#770,.F.);
#1056=ORIENTED_EDGE('',*,*,#771,.T.);
#1057=ORIENTED_EDGE('',*,*,#772,.F.);
#1058=ORIENTED_EDGE('',*,*,#771,.F.);
#1059=ORIENTED_EDGE('',*,*,#746,.F.);
#1060=ORIENTED_EDGE('',*,*,#773,.T.);
#1061=ORIENTED_EDGE('',*,*,#774,.F.);
#1062=ORIENTED_EDGE('',*,*,#773,.F.);
#1063=ORIENTED_EDGE('',*,*,#688,.F.);
#1064=ORIENTED_EDGE('',*,*,#775,.T.);
#1065=ORIENTED_EDGE('',*,*,#761,.F.);
#1066=ORIENTED_EDGE('',*,*,#775,.F.);
#1067=ORIENTED_EDGE('',*,*,#699,.F.);
#1068=ORIENTED_EDGE('',*,*,#776,.T.);
#1069=ORIENTED_EDGE('',*,*,#666,.F.);
#1070=ORIENTED_EDGE('',*,*,#776,.F.);
#1071=ORIENTED_EDGE('',*,*,#661,.T.);
#1072=ORIENTED_EDGE('',*,*,#777,.T.);
#1073=ORIENTED_EDGE('',*,*,#693,.T.);
#1074=ORIENTED_EDGE('',*,*,#689,.T.);
#1075=ORIENTED_EDGE('',*,*,#683,.T.);
#1076=ORIENTED_EDGE('',*,*,#692,.T.);
#1077=ORIENTED_EDGE('',*,*,#760,.T.);
#1078=ORIENTED_EDGE('',*,*,#778,.T.);
#1079=ORIENTED_EDGE('',*,*,#660,.F.);
#1080=ORIENTED_EDGE('',*,*,#725,.T.);
#1081=ORIENTED_EDGE('',*,*,#694,.T.);
#1082=ORIENTED_EDGE('',*,*,#777,.F.);
#1083=ORIENTED_EDGE('',*,*,#711,.T.);
#1084=ORIENTED_EDGE('',*,*,#758,.T.);
#1085=ORIENTED_EDGE('',*,*,#755,.T.);
#1086=ORIENTED_EDGE('',*,*,#708,.T.);
#1087=ORIENTED_EDGE('',*,*,#684,.T.);
#1088=ORIENTED_EDGE('',*,*,#778,.F.);
#1089=ORIENTED_EDGE('',*,*,#759,.F.);
#1090=ORIENTED_EDGE('',*,*,#718,.T.);
#1091=ORIENTED_EDGE('',*,*,#753,.F.);
#1092=ORIENTED_EDGE('',*,*,#764,.F.);
#1093=ORIENTED_EDGE('',*,*,#779,.F.);
#1094=ORIENTED_EDGE('',*,*,#780,.T.);
#1095=ORIENTED_EDGE('',*,*,#765,.T.);
#1096=ORIENTED_EDGE('',*,*,#770,.T.);
#1097=ORIENTED_EDGE('',*,*,#780,.F.);
#1098=ORIENTED_EDGE('',*,*,#781,.F.);
#1099=ORIENTED_EDGE('',*,*,#782,.T.);
#1100=ORIENTED_EDGE('',*,*,#749,.F.);
#1101=ORIENTED_EDGE('',*,*,#736,.T.);
#1102=ORIENTED_EDGE('',*,*,#751,.F.);
#1103=ORIENTED_EDGE('',*,*,#750,.F.);
#1104=ORIENTED_EDGE('',*,*,#782,.F.);
#1105=ORIENTED_EDGE('',*,*,#783,.T.);
#1106=ORIENTED_EDGE('',*,*,#762,.T.);
#1107=ORIENTED_EDGE('',*,*,#767,.T.);
#1108=ORIENTED_EDGE('',*,*,#772,.T.);
#1109=ORIENTED_EDGE('',*,*,#783,.F.);
#1110=ORIENTED_EDGE('',*,*,#781,.T.);
#1111=ORIENTED_EDGE('',*,*,#779,.T.);
#1112=ORIENTED_EDGE('',*,*,#763,.F.);
#1113=ORIENTED_EDGE('',*,*,#729,.F.);
#1114=ORIENTED_EDGE('',*,*,#754,.F.);
#1115=ORIENTED_EDGE('',*,*,#784,.F.);
#1116=ORIENTED_EDGE('',*,*,#785,.T.);
#1117=ORIENTED_EDGE('',*,*,#769,.T.);
#1118=ORIENTED_EDGE('',*,*,#774,.T.);
#1119=ORIENTED_EDGE('',*,*,#785,.F.);
#1120=ORIENTED_EDGE('',*,*,#786,.F.);
#1121=ORIENTED_EDGE('',*,*,#743,.T.);
#1122=ORIENTED_EDGE('',*,*,#740,.F.);
#1123=ORIENTED_EDGE('',*,*,#731,.T.);
#1124=ORIENTED_EDGE('',*,*,#726,.F.);
#1125=ORIENTED_EDGE('',*,*,#744,.F.);
#1126=ORIENTED_EDGE('',*,*,#786,.T.);
#1127=ORIENTED_EDGE('',*,*,#784,.T.);
#1128=ORIENTED_EDGE('',*,*,#757,.F.);
#1129=PLANE('',#1240);
#1130=PLANE('',#1241);
#1131=PLANE('',#1242);
#1132=PLANE('',#1243);
#1133=PLANE('',#1244);
#1134=PLANE('',#1245);
#1135=PLANE('',#1246);
#1136=PLANE('',#1247);
#1137=PLANE('',#1248);
#1138=PLANE('',#1249);
#1139=PLANE('',#1250);
#1140=PLANE('',#1254);
#1141=PLANE('',#1255);
#1142=PLANE('',#1256);
#1143=PLANE('',#1258);
#1144=PLANE('',#1259);
#1145=PLANE('',#1260);
#1146=PLANE('',#1261);
#1147=PLANE('',#1262);
#1148=PLANE('',#1263);
#1149=PLANE('',#1264);
#1150=PLANE('',#1266);
#1151=PLANE('',#1267);
#1152=PLANE('',#1268);
#1153=PLANE('',#1276);
#1154=PLANE('',#1277);
#1155=PLANE('',#1283);
#1156=PLANE('',#1288);
#1157=PLANE('',#1292);
#1158=PLANE('',#1296);
#1159=PLANE('',#1305);
#1160=PLANE('',#1306);
#1161=PLANE('',#1308);
#1162=PLANE('',#1309);
#1163=PLANE('',#1322);
#1164=PLANE('',#1323);
#1165=PLANE('',#1324);
#1166=PLANE('',#1325);
#1167=PLANE('',#1326);
#1168=PLANE('',#1327);
#1169=PLANE('',#1328);
#1170=PLANE('',#1329);
#1171=PLANE('',#1330);
#1172=PLANE('',#1331);
#1173=PLANE('',#1332);
#1174=PLANE('',#1333);
#1175=ADVANCED_FACE('',(#80),#1129,.F.);
#1176=ADVANCED_FACE('',(#81),#1130,.F.);
#1177=ADVANCED_FACE('',(#82),#1131,.F.);
#1178=ADVANCED_FACE('',(#83),#1132,.F.);
#1179=ADVANCED_FACE('',(#84),#1133,.F.);
#1180=ADVANCED_FACE('',(#85),#1134,.F.);
#1181=ADVANCED_FACE('',(#86),#1135,.F.);
#1182=ADVANCED_FACE('',(#87),#1136,.F.);
#1183=ADVANCED_FACE('',(#88),#1137,.F.);
#1184=ADVANCED_FACE('',(#89),#1138,.F.);
#1185=ADVANCED_FACE('',(#90,#63,#64),#1139,.T.);
#1186=ADVANCED_FACE('',(#91),#46,.F.);
#1187=ADVANCED_FACE('',(#92),#1140,.T.);
#1188=ADVANCED_FACE('',(#93),#1141,.T.);
#1189=ADVANCED_FACE('',(#94,#65,#66),#1142,.T.);
#1190=ADVANCED_FACE('',(#95),#1143,.F.);
#1191=ADVANCED_FACE('',(#96),#1144,.F.);
#1192=ADVANCED_FACE('',(#97),#1145,.F.);
#1193=ADVANCED_FACE('',(#98),#1146,.F.);
#1194=ADVANCED_FACE('',(#99),#1147,.F.);
#1195=ADVANCED_FACE('',(#100),#1148,.F.);
#1196=ADVANCED_FACE('',(#101,#67),#1149,.T.);
#1197=ADVANCED_FACE('',(#102),#1150,.T.);
#1198=ADVANCED_FACE('',(#103),#1151,.T.);
#1199=ADVANCED_FACE('',(#104,#68,#69),#1152,.T.);
#1200=ADVANCED_FACE('',(#105),#47,.F.);
#1201=ADVANCED_FACE('',(#106),#48,.F.);
#1202=ADVANCED_FACE('',(#107),#1153,.T.);
#1203=ADVANCED_FACE('',(#108),#1154,.T.);
#1204=ADVANCED_FACE('',(#109),#49,.F.);
#1205=ADVANCED_FACE('',(#110),#50,.F.);
#1206=ADVANCED_FACE('',(#111),#1155,.T.);
#1207=ADVANCED_FACE('',(#112),#51,.F.);
#1208=ADVANCED_FACE('',(#113),#52,.F.);
#1209=ADVANCED_FACE('',(#114),#1156,.T.);
#1210=ADVANCED_FACE('',(#115),#53,.F.);
#1211=ADVANCED_FACE('',(#116,#70),#1157,.F.);
#1212=ADVANCED_FACE('',(#117),#54,.F.);
#1213=ADVANCED_FACE('',(#118,#71,#72),#1158,.T.);
#1214=ADVANCED_FACE('',(#119),#55,.F.);
#1215=ADVANCED_FACE('',(#120),#56,.F.);
#1216=ADVANCED_FACE('',(#121),#1159,.T.);
#1217=ADVANCED_FACE('',(#122,#73),#1160,.T.);
#1218=ADVANCED_FACE('',(#123),#1161,.T.);
#1219=ADVANCED_FACE('',(#124),#1162,.T.);
#1220=ADVANCED_FACE('',(#125),#57,.F.);
#1221=ADVANCED_FACE('',(#126),#58,.F.);
#1222=ADVANCED_FACE('',(#127),#59,.F.);
#1223=ADVANCED_FACE('',(#128),#60,.F.);
#1224=ADVANCED_FACE('',(#129),#61,.F.);
#1225=ADVANCED_FACE('',(#130),#62,.F.);
#1226=ADVANCED_FACE('',(#131),#1163,.T.);
#1227=ADVANCED_FACE('',(#132),#1164,.T.);
#1228=ADVANCED_FACE('',(#133),#1165,.T.);
#1229=ADVANCED_FACE('',(#134),#1166,.T.);
#1230=ADVANCED_FACE('',(#135),#1167,.T.);
#1231=ADVANCED_FACE('',(#136,#74,#75),#1168,.T.);
#1232=ADVANCED_FACE('',(#137),#1169,.T.);
#1233=ADVANCED_FACE('',(#138,#76,#77),#1170,.T.);
#1234=ADVANCED_FACE('',(#139),#1171,.T.);
#1235=ADVANCED_FACE('',(#140,#78,#79),#1172,.T.);
#1236=ADVANCED_FACE('',(#141),#1173,.T.);
#1237=ADVANCED_FACE('',(#142),#1174,.T.);
#1238=CLOSED_SHELL('',(#1175,#1176,#1177,#1178,#1179,#1180,#1181,#1182,
#1183,#1184,#1185,#1186,#1187,#1188,#1189,#1190,#1191,#1192,#1193,#1194,
#1195,#1196,#1197,#1198,#1199,#1200,#1201,#1202,#1203,#1204,#1205,#1206,
#1207,#1208,#1209,#1210,#1211,#1212,#1213,#1214,#1215,#1216,#1217,#1218,
#1219,#1220,#1221,#1222,#1223,#1224,#1225,#1226,#1227,#1228,#1229,#1230,
#1231,#1232,#1233,#1234,#1235,#1236,#1237));
#1239=AXIS2_PLACEMENT_3D('',#1664,#1334,#1335);
#1240=AXIS2_PLACEMENT_3D('',#1665,#1336,#1337);
#1241=AXIS2_PLACEMENT_3D('',#1674,#1342,#1343);
#1242=AXIS2_PLACEMENT_3D('',#1680,#1347,#1348);
#1243=AXIS2_PLACEMENT_3D('',#1686,#1352,#1353);
#1244=AXIS2_PLACEMENT_3D('',#1689,#1356,#1357);
#1245=AXIS2_PLACEMENT_3D('',#1690,#1358,#1359);
#1246=AXIS2_PLACEMENT_3D('',#1699,#1364,#1365);
#1247=AXIS2_PLACEMENT_3D('',#1705,#1369,#1370);
#1248=AXIS2_PLACEMENT_3D('',#1711,#1374,#1375);
#1249=AXIS2_PLACEMENT_3D('',#1714,#1378,#1379);
#1250=AXIS2_PLACEMENT_3D('',#1715,#1380,#1381);
#1251=AXIS2_PLACEMENT_3D('',#1732,#1390,#1391);
#1252=AXIS2_PLACEMENT_3D('',#1734,#1392,#1393);
#1253=AXIS2_PLACEMENT_3D('',#1737,#1395,#1396);
#1254=AXIS2_PLACEMENT_3D('',#1738,#1397,#1398);
#1255=AXIS2_PLACEMENT_3D('',#1747,#1403,#1404);
#1256=AXIS2_PLACEMENT_3D('',#1750,#1407,#1408);
#1257=AXIS2_PLACEMENT_3D('',#1769,#1418,#1419);
#1258=AXIS2_PLACEMENT_3D('',#1770,#1420,#1421);
#1259=AXIS2_PLACEMENT_3D('',#1779,#1426,#1427);
#1260=AXIS2_PLACEMENT_3D('',#1785,#1431,#1432);
#1261=AXIS2_PLACEMENT_3D('',#1788,#1435,#1436);
#1262=AXIS2_PLACEMENT_3D('',#1794,#1440,#1441);
#1263=AXIS2_PLACEMENT_3D('',#1798,#1444,#1445);
#1264=AXIS2_PLACEMENT_3D('',#1800,#1447,#1448);
#1265=AXIS2_PLACEMENT_3D('',#1813,#1455,#1456);
#1266=AXIS2_PLACEMENT_3D('',#1814,#1457,#1458);
#1267=AXIS2_PLACEMENT_3D('',#1818,#1461,#1462);
#1268=AXIS2_PLACEMENT_3D('',#1822,#1465,#1466);
#1269=AXIS2_PLACEMENT_3D('',#1830,#1470,#1471);
#1270=AXIS2_PLACEMENT_3D('',#1835,#1474,#1475);
#1271=AXIS2_PLACEMENT_3D('',#1836,#1476,#1477);
#1272=AXIS2_PLACEMENT_3D('',#1841,#1479,#1480);
#1273=AXIS2_PLACEMENT_3D('',#1844,#1482,#1483);
#1274=AXIS2_PLACEMENT_3D('',#1845,#1484,#1485);
#1275=AXIS2_PLACEMENT_3D('',#1849,#1487,#1488);
#1276=AXIS2_PLACEMENT_3D('',#1851,#1490,#1491);
#1277=AXIS2_PLACEMENT_3D('',#1857,#1495,#1496);
#1278=AXIS2_PLACEMENT_3D('',#1861,#1499,#1500);
#1279=AXIS2_PLACEMENT_3D('',#1865,#1502,#1503);
#1280=AXIS2_PLACEMENT_3D('',#1868,#1505,#1506);
#1281=AXIS2_PLACEMENT_3D('',#1869,#1507,#1508);
#1282=AXIS2_PLACEMENT_3D('',#1872,#1510,#1511);
#1283=AXIS2_PLACEMENT_3D('',#1873,#1512,#1513);
#1284=AXIS2_PLACEMENT_3D('',#1877,#1516,#1517);
#1285=AXIS2_PLACEMENT_3D('',#1879,#1518,#1519);
#1286=AXIS2_PLACEMENT_3D('',#1882,#1521,#1522);
#1287=AXIS2_PLACEMENT_3D('',#1883,#1523,#1524);
#1288=AXIS2_PLACEMENT_3D('',#1886,#1527,#1528);
#1289=AXIS2_PLACEMENT_3D('',#1888,#1530,#1531);
#1290=AXIS2_PLACEMENT_3D('',#1891,#1532,#1533);
#1291=AXIS2_PLACEMENT_3D('',#1895,#1535,#1536);
#1292=AXIS2_PLACEMENT_3D('',#1897,#1538,#1539);
#1293=AXIS2_PLACEMENT_3D('',#1914,#1550,#1551);
#1294=AXIS2_PLACEMENT_3D('',#1916,#1552,#1553);
#1295=AXIS2_PLACEMENT_3D('',#1919,#1555,#1556);
#1296=AXIS2_PLACEMENT_3D('',#1920,#1557,#1558);
#1297=AXIS2_PLACEMENT_3D('',#1927,#1562,#1563);
#1298=AXIS2_PLACEMENT_3D('',#1929,#1564,#1565);
#1299=AXIS2_PLACEMENT_3D('',#1930,#1566,#1567);
#1300=AXIS2_PLACEMENT_3D('',#1932,#1568,#1569);
#1301=AXIS2_PLACEMENT_3D('',#1934,#1570,#1571);
#1302=AXIS2_PLACEMENT_3D('',#1936,#1573,#1574);
#1303=AXIS2_PLACEMENT_3D('',#1938,#1575,#1576);
#1304=AXIS2_PLACEMENT_3D('',#1940,#1577,#1578);
#1305=AXIS2_PLACEMENT_3D('',#1942,#1580,#1581);
#1306=AXIS2_PLACEMENT_3D('',#1949,#1586,#1587);
#1307=AXIS2_PLACEMENT_3D('',#1955,#1591,#1592);
#1308=AXIS2_PLACEMENT_3D('',#1956,#1593,#1594);
#1309=AXIS2_PLACEMENT_3D('',#1957,#1595,#1596);
#1310=AXIS2_PLACEMENT_3D('',#1963,#1600,#1601);
#1311=AXIS2_PLACEMENT_3D('',#1965,#1602,#1603);
#1312=AXIS2_PLACEMENT_3D('',#1968,#1605,#1606);
#1313=AXIS2_PLACEMENT_3D('',#1969,#1607,#1608);
#1314=AXIS2_PLACEMENT_3D('',#1972,#1610,#1611);
#1315=AXIS2_PLACEMENT_3D('',#1973,#1612,#1613);
#1316=AXIS2_PLACEMENT_3D('',#1975,#1614,#1615);
#1317=AXIS2_PLACEMENT_3D('',#1978,#1617,#1618);
#1318=AXIS2_PLACEMENT_3D('',#1979,#1619,#1620);
#1319=AXIS2_PLACEMENT_3D('',#1982,#1622,#1623);
#1320=AXIS2_PLACEMENT_3D('',#1983,#1624,#1625);
#1321=AXIS2_PLACEMENT_3D('',#1985,#1627,#1628);
#1322=AXIS2_PLACEMENT_3D('',#1987,#1630,#1631);
#1323=AXIS2_PLACEMENT_3D('',#1989,#1633,#1634);
#1324=AXIS2_PLACEMENT_3D('',#1991,#1636,#1637);
#1325=AXIS2_PLACEMENT_3D('',#1992,#1638,#1639);
#1326=AXIS2_PLACEMENT_3D('',#1993,#1640,#1641);
#1327=AXIS2_PLACEMENT_3D('',#1994,#1642,#1643);
#1328=AXIS2_PLACEMENT_3D('',#1998,#1646,#1647);
#1329=AXIS2_PLACEMENT_3D('',#2002,#1650,#1651);
#1330=AXIS2_PLACEMENT_3D('',#2004,#1653,#1654);
#1331=AXIS2_PLACEMENT_3D('',#2005,#1655,#1656);
#1332=AXIS2_PLACEMENT_3D('',#2009,#1659,#1660);
#1333=AXIS2_PLACEMENT_3D('',#2011,#1662,#1663);
#1334=DIRECTION('axis',(0.,0.,1.));
#1335=DIRECTION('refdir',(1.,0.,0.));
#1336=DIRECTION('center_axis',(0.,1.,0.));
#1337=DIRECTION('ref_axis',(1.,0.,0.));
#1338=DIRECTION('',(1.,0.,0.));
#1339=DIRECTION('',(0.,0.,-1.));
#1340=DIRECTION('',(1.,0.,0.));
#1341=DIRECTION('',(0.,0.,-1.));
#1342=DIRECTION('center_axis',(-1.,0.,0.));
#1343=DIRECTION('ref_axis',(0.,1.,0.));
#1344=DIRECTION('',(0.,1.,0.));
#1345=DIRECTION('',(0.,0.,-1.));
#1346=DIRECTION('',(0.,1.,0.));
#1347=DIRECTION('center_axis',(0.,-1.,0.));
#1348=DIRECTION('ref_axis',(-1.,0.,0.));
#1349=DIRECTION('',(-1.,0.,0.));
#1350=DIRECTION('',(0.,0.,-1.));
#1351=DIRECTION('',(-1.,0.,0.));
#1352=DIRECTION('center_axis',(1.,0.,0.));
#1353=DIRECTION('ref_axis',(0.,-1.,0.));
#1354=DIRECTION('',(0.,-1.,0.));
#1355=DIRECTION('',(0.,-1.,0.));
#1356=DIRECTION('center_axis',(0.,0.,-1.));
#1357=DIRECTION('ref_axis',(-1.,0.,0.));
#1358=DIRECTION('center_axis',(0.,1.,0.));
#1359=DIRECTION('ref_axis',(1.,0.,0.));
#1360=DIRECTION('',(1.,0.,0.));
#1361=DIRECTION('',(0.,0.,-1.));
#1362=DIRECTION('',(1.,0.,0.));
#1363=DIRECTION('',(0.,0.,-1.));
#1364=DIRECTION('center_axis',(-1.,0.,0.));
#1365=DIRECTION('ref_axis',(0.,1.,0.));
#1366=DIRECTION('',(0.,1.,0.));
#1367=DIRECTION('',(0.,0.,-1.));
#1368=DIRECTION('',(0.,1.,0.));
#1369=DIRECTION('center_axis',(0.,-1.,0.));
#1370=DIRECTION('ref_axis',(-1.,0.,0.));
#1371=DIRECTION('',(-1.,0.,0.));
#1372=DIRECTION('',(0.,0.,-1.));
#1373=DIRECTION('',(-1.,0.,0.));
#1374=DIRECTION('center_axis',(1.,0.,0.));
#1375=DIRECTION('ref_axis',(0.,-1.,0.));
#1376=DIRECTION('',(0.,-1.,0.));
#1377=DIRECTION('',(0.,-1.,0.));
#1378=DIRECTION('center_axis',(0.,0.,-1.));
#1379=DIRECTION('ref_axis',(-1.,0.,0.));
#1380=DIRECTION('center_axis',(0.,0.,1.));
#1381=DIRECTION('ref_axis',(1.,0.,0.));
#1382=DIRECTION('',(1.,0.,0.));
#1383=DIRECTION('',(0.,1.,0.));
#1384=DIRECTION('',(1.,0.,0.));
#1385=DIRECTION('',(0.,-1.,0.));
#1386=DIRECTION('',(1.,0.,0.));
#1387=DIRECTION('',(0.,1.,0.));
#1388=DIRECTION('',(-1.,0.,0.));
#1389=DIRECTION('',(0.,-1.,0.));
#1390=DIRECTION('center_axis',(-1.,0.,0.));
#1391=DIRECTION('ref_axis',(0.,1.,0.));
#1392=DIRECTION('center_axis',(-1.,0.,0.));
#1393=DIRECTION('ref_axis',(0.,1.,0.));
#1394=DIRECTION('',(-1.,0.,0.));
#1395=DIRECTION('center_axis',(1.,0.,0.));
#1396=DIRECTION('ref_axis',(0.,1.,0.));
#1397=DIRECTION('center_axis',(0.,-0.0660320413064431,0.997817503114124));
#1398=DIRECTION('ref_axis',(0.,-0.997817503114124,-0.0660320413064431));
#1399=DIRECTION('',(0.,0.997817503114124,0.0660320413064431));
#1400=DIRECTION('',(-1.,0.,0.));
#1401=DIRECTION('',(0.,-0.997817503114124,-0.0660320413064431));
#1402=DIRECTION('',(1.,0.,0.));
#1403=DIRECTION('center_axis',(0.,-1.,0.));
#1404=DIRECTION('ref_axis',(1.,0.,0.));
#1405=DIRECTION('',(0.,0.,1.));
#1406=DIRECTION('',(0.,0.,1.));
#1407=DIRECTION('center_axis',(-1.,0.,0.));
#1408=DIRECTION('ref_axis',(0.,-1.,0.));
#1409=DIRECTION('',(0.,0.,-1.));
#1410=DIRECTION('',(0.,-1.,0.));
#1411=DIRECTION('',(0.,0.,1.));
#1412=DIRECTION('',(0.,-1.,0.));
#1413=DIRECTION('',(0.,0.,-1.));
#1414=DIRECTION('',(0.,-1.,0.));
#1415=DIRECTION('',(0.,0.,-1.));
#1416=DIRECTION('',(0.,1.,0.));
#1417=DIRECTION('',(0.,0.,1.));
#1418=DIRECTION('center_axis',(1.,0.,0.));
#1419=DIRECTION('ref_axis',(0.,1.,0.));
#1420=DIRECTION('center_axis',(0.,-1.,0.));
#1421=DIRECTION('ref_axis',(-1.,0.,0.));
#1422=DIRECTION('',(-1.,0.,0.));
#1423=DIRECTION('',(0.,0.,1.));
#1424=DIRECTION('',(-1.,0.,0.));
#1425=DIRECTION('',(0.,0.,-1.));
#1426=DIRECTION('center_axis',(0.,1.,0.));
#1427=DIRECTION('ref_axis',(1.,0.,0.));
#1428=DIRECTION('',(0.,0.,1.));
#1429=DIRECTION('',(1.,0.,0.));
#1430=DIRECTION('',(0.,0.,-1.));
#1431=DIRECTION('center_axis',(0.,0.,-1.));
#1432=DIRECTION('ref_axis',(-1.,0.,0.));
#1433=DIRECTION('',(0.,1.,0.));
#1434=DIRECTION('',(0.,-1.,0.));
#1435=DIRECTION('center_axis',(0.,-1.,0.));
#1436=DIRECTION('ref_axis',(-1.,0.,0.));
#1437=DIRECTION('',(-1.,0.,0.));
#1438=DIRECTION('',(0.,0.,1.));
#1439=DIRECTION('',(-1.,0.,0.));
#1440=DIRECTION('center_axis',(0.,1.,0.));
#1441=DIRECTION('ref_axis',(1.,0.,0.));
#1442=DIRECTION('',(1.,0.,0.));
#1443=DIRECTION('',(0.,0.,-1.));
#1444=DIRECTION('center_axis',(0.,0.,-1.));
#1445=DIRECTION('ref_axis',(-1.,0.,0.));
#1446=DIRECTION('',(0.,-1.,0.));
#1447=DIRECTION('center_axis',(1.,0.,0.));
#1448=DIRECTION('ref_axis',(0.,1.,0.));
#1449=DIRECTION('',(0.,1.,0.));
#1450=DIRECTION('',(0.,0.,1.));
#1451=DIRECTION('',(0.,-1.,0.));
#1452=DIRECTION('',(0.,0.,-1.));
#1453=DIRECTION('',(0.,1.,0.));
#1454=DIRECTION('',(0.,0.,1.));
#1455=DIRECTION('center_axis',(-1.,0.,0.));
#1456=DIRECTION('ref_axis',(0.,1.,0.));
#1457=DIRECTION('center_axis',(0.,0.,1.));
#1458=DIRECTION('ref_axis',(1.,0.,0.));
#1459=DIRECTION('',(-1.,0.,0.));
#1460=DIRECTION('',(0.,-1.,0.));
#1461=DIRECTION('center_axis',(0.,0.,1.));
#1462=DIRECTION('ref_axis',(1.,0.,0.));
#1463=DIRECTION('',(0.,-1.,0.));
#1464=DIRECTION('',(-1.,0.,0.));
#1465=DIRECTION('center_axis',(1.,0.,0.));
#1466=DIRECTION('ref_axis',(0.,1.,0.));
#1467=DIRECTION('',(0.,0.,1.));
#1468=DIRECTION('',(0.,-1.,0.));
#1469=DIRECTION('',(0.,0.,1.));
#1470=DIRECTION('center_axis',(1.,0.,0.));
#1471=DIRECTION('ref_axis',(0.,-0.707106781186549,0.707106781186546));
#1472=DIRECTION('',(0.,1.,0.));
#1473=DIRECTION('',(0.,0.,1.));
#1474=DIRECTION('center_axis',(-1.,0.,0.));
#1475=DIRECTION('ref_axis',(0.,1.,0.));
#1476=DIRECTION('center_axis',(0.,-1.,0.));
#1477=DIRECTION('ref_axis',(-0.707106781186549,0.,0.707106781186546));
#1478=DIRECTION('',(0.,1.,0.));
#1479=DIRECTION('center_axis',(0.,1.,0.));
#1480=DIRECTION('ref_axis',(-0.707106781186549,0.,0.707106781186546));
#1481=DIRECTION('',(0.,-1.,0.));
#1482=DIRECTION('center_axis',(-0.707106781186546,-0.707106781186549,0.));
#1483=DIRECTION('ref_axis',(-0.707106781186549,0.707106781186546,0.));
#1484=DIRECTION('center_axis',(-1.,0.,0.));
#1485=DIRECTION('ref_axis',(0.,0.707106781186546,0.707106781186549));
#1486=DIRECTION('',(-1.,0.,0.));
#1487=DIRECTION('center_axis',(-1.,0.,0.));
#1488=DIRECTION('ref_axis',(0.,0.707106781186546,0.707106781186549));
#1489=DIRECTION('',(1.,0.,0.));
#1490=DIRECTION('center_axis',(1.,0.,0.));
#1491=DIRECTION('ref_axis',(0.,-1.,0.));
#1492=DIRECTION('',(0.,0.,-1.));
#1493=DIRECTION('',(0.,-1.,0.));
#1494=DIRECTION('',(0.,0.,-1.));
#1495=DIRECTION('center_axis',(0.,-1.,0.));
#1496=DIRECTION('ref_axis',(-1.,0.,0.));
#1497=DIRECTION('',(0.,0.,1.));
#1498=DIRECTION('',(-1.,0.,0.));
#1499=DIRECTION('center_axis',(1.,0.,0.));
#1500=DIRECTION('ref_axis',(0.,-0.707106781186549,0.707106781186546));
#1501=DIRECTION('',(-1.,0.,0.));
#1502=DIRECTION('center_axis',(-1.,0.,0.));
#1503=DIRECTION('ref_axis',(0.,-0.707106781186549,0.707106781186546));
#1504=DIRECTION('',(1.,0.,0.));
#1505=DIRECTION('center_axis',(0.707106794357439,-0.707106768015655,0.));
#1506=DIRECTION('ref_axis',(-0.707106768015655,-0.707106794357439,0.));
#1507=DIRECTION('center_axis',(0.,-1.,0.));
#1508=DIRECTION('ref_axis',(-0.707106781186548,0.,0.707106781186547));
#1509=DIRECTION('',(0.,-1.,0.));
#1510=DIRECTION('center_axis',(0.,-1.,0.));
#1511=DIRECTION('ref_axis',(-0.707106781186548,0.,0.707106781186547));
#1512=DIRECTION('center_axis',(0.,1.,0.));
#1513=DIRECTION('ref_axis',(1.,0.,0.));
#1514=DIRECTION('',(1.,0.,0.));
#1515=DIRECTION('',(0.,0.,-1.));
#1516=DIRECTION('center_axis',(0.,1.,0.));
#1517=DIRECTION('ref_axis',(0.707106781186549,0.,0.707106781186546));
#1518=DIRECTION('center_axis',(0.,-1.,0.));
#1519=DIRECTION('ref_axis',(0.707106781186549,0.,0.707106781186546));
#1520=DIRECTION('',(0.,1.,0.));
#1521=DIRECTION('center_axis',(0.707106580989046,0.707106981383992,0.));
#1522=DIRECTION('ref_axis',(0.707106981383992,-0.707106580989046,0.));
#1523=DIRECTION('center_axis',(1.,0.,0.));
#1524=DIRECTION('ref_axis',(0.,-0.707106781186549,0.707106781186546));
#1525=DIRECTION('',(1.,0.,0.));
#1526=DIRECTION('',(-1.,0.,0.));
#1527=DIRECTION('center_axis',(0.,1.,0.));
#1528=DIRECTION('ref_axis',(1.,0.,0.));
#1529=DIRECTION('',(1.,0.,0.));
#1530=DIRECTION('center_axis',(0.,1.,0.));
#1531=DIRECTION('ref_axis',(0.707106781186546,0.,0.707106781186549));
#1532=DIRECTION('center_axis',(0.,-1.,0.));
#1533=DIRECTION('ref_axis',(0.707106781186546,0.,0.707106781186549));
#1534=DIRECTION('',(0.,1.,0.));
#1535=DIRECTION('center_axis',(0.,1.,0.));
#1536=DIRECTION('ref_axis',(0.707106781186546,0.,0.707106781186549));
#1537=DIRECTION('',(0.,-1.,0.));
#1538=DIRECTION('center_axis',(0.,0.,1.));
#1539=DIRECTION('ref_axis',(1.,0.,0.));
#1540=DIRECTION('',(-1.,0.,0.));
#1541=DIRECTION('',(-1.,0.,0.));
#1542=DIRECTION('',(0.,-1.,0.));
#1543=DIRECTION('',(-1.,0.,0.));
#1544=DIRECTION('',(1.,0.,0.));
#1545=DIRECTION('',(0.,-1.,0.));
#1546=DIRECTION('',(1.,0.,0.));
#1547=DIRECTION('',(0.,1.,0.));
#1548=DIRECTION('',(-1.,0.,0.));
#1549=DIRECTION('',(0.,-1.,0.));
#1550=DIRECTION('center_axis',(0.,-1.,0.));
#1551=DIRECTION('ref_axis',(-0.707106781186546,0.,0.707106781186549));
#1552=DIRECTION('center_axis',(0.,-1.,0.));
#1553=DIRECTION('ref_axis',(-0.707106781186546,0.,0.707106781186549));
#1554=DIRECTION('',(0.,1.,0.));
#1555=DIRECTION('center_axis',(0.,1.,0.));
#1556=DIRECTION('ref_axis',(-0.707106781186546,0.,0.707106781186549));
#1557=DIRECTION('center_axis',(1.,0.,0.));
#1558=DIRECTION('ref_axis',(0.,-1.,0.));
#1559=DIRECTION('',(0.,0.,1.));
#1560=DIRECTION('',(0.,1.,0.));
#1561=DIRECTION('',(0.,0.,-1.));
#1562=DIRECTION('center_axis',(-1.,0.,0.));
#1563=DIRECTION('ref_axis',(0.,1.,0.));
#1564=DIRECTION('center_axis',(-1.,0.,0.));
#1565=DIRECTION('ref_axis',(0.,1.,0.));
#1566=DIRECTION('center_axis',(0.,1.,0.));
#1567=DIRECTION('ref_axis',(0.707106781186549,0.,0.707106781186546));
#1568=DIRECTION('center_axis',(0.,-1.,0.));
#1569=DIRECTION('ref_axis',(0.707106781186549,0.,0.707106781186546));
#1570=DIRECTION('center_axis',(0.,1.,0.));
#1571=DIRECTION('ref_axis',(0.707106781186549,0.,0.707106781186546));
#1572=DIRECTION('',(0.,-1.,0.));
#1573=DIRECTION('center_axis',(0.,-1.,0.));
#1574=DIRECTION('ref_axis',(-0.707106781186546,0.,0.707106781186549));
#1575=DIRECTION('center_axis',(0.,1.,0.));
#1576=DIRECTION('ref_axis',(-0.707106781186546,0.,0.707106781186549));
#1577=DIRECTION('center_axis',(0.,-1.,0.));
#1578=DIRECTION('ref_axis',(-0.707106781186546,0.,0.707106781186549));
#1579=DIRECTION('',(0.,1.,0.));
#1580=DIRECTION('center_axis',(0.,1.,0.));
#1581=DIRECTION('ref_axis',(-1.,0.,0.));
#1582=DIRECTION('',(0.,0.,1.));
#1583=DIRECTION('',(1.,0.,0.));
#1584=DIRECTION('',(0.,0.,-1.));
#1585=DIRECTION('',(-1.,0.,0.));
#1586=DIRECTION('center_axis',(-1.,0.,0.));
#1587=DIRECTION('ref_axis',(0.,-1.,0.));
#1588=DIRECTION('',(0.,1.,0.));
#1589=DIRECTION('',(0.,-1.,0.));
#1590=DIRECTION('',(0.,0.,-1.));
#1591=DIRECTION('center_axis',(1.,0.,0.));
#1592=DIRECTION('ref_axis',(0.,1.,0.));
#1593=DIRECTION('center_axis',(0.,-1.,0.));
#1594=DIRECTION('ref_axis',(0.,0.,-1.));
#1595=DIRECTION('center_axis',(0.,-1.,0.));
#1596=DIRECTION('ref_axis',(0.,0.,-1.));
#1597=DIRECTION('',(0.,0.,1.));
#1598=DIRECTION('',(1.,0.,0.));
#1599=DIRECTION('',(0.,0.,1.));
#1600=DIRECTION('center_axis',(-1.,0.,0.));
#1601=DIRECTION('ref_axis',(0.,1.,0.));
#1602=DIRECTION('center_axis',(-1.,0.,0.));
#1603=DIRECTION('ref_axis',(0.,1.,0.));
#1604=DIRECTION('',(-1.,0.,0.));
#1605=DIRECTION('center_axis',(1.,0.,0.));
#1606=DIRECTION('ref_axis',(0.,1.,0.));
#1607=DIRECTION('center_axis',(-1.,0.,0.));
#1608=DIRECTION('ref_axis',(0.,1.,0.));
#1609=DIRECTION('',(-1.,0.,0.));
#1610=DIRECTION('center_axis',(1.,0.,0.));
#1611=DIRECTION('ref_axis',(0.,1.,0.));
#1612=DIRECTION('center_axis',(-1.,0.,0.));
#1613=DIRECTION('ref_axis',(0.,1.,0.));
#1614=DIRECTION('center_axis',(-1.,0.,0.));
#1615=DIRECTION('ref_axis',(0.,1.,0.));
#1616=DIRECTION('',(-1.,0.,0.));
#1617=DIRECTION('center_axis',(1.,0.,0.));
#1618=DIRECTION('ref_axis',(0.,1.,0.));
#1619=DIRECTION('center_axis',(-1.,0.,0.));
#1620=DIRECTION('ref_axis',(0.,1.,0.));
#1621=DIRECTION('',(-1.,0.,0.));
#1622=DIRECTION('center_axis',(1.,0.,0.));
#1623=DIRECTION('ref_axis',(0.,1.,0.));
#1624=DIRECTION('center_axis',(-1.,0.,0.));
#1625=DIRECTION('ref_axis',(0.,1.,0.));
#1626=DIRECTION('',(-1.,0.,0.));
#1627=DIRECTION('center_axis',(-1.,0.,0.));
#1628=DIRECTION('ref_axis',(0.,1.,0.));
#1629=DIRECTION('',(-1.,0.,0.));
#1630=DIRECTION('center_axis',(0.,-1.,0.));
#1631=DIRECTION('ref_axis',(0.,0.,-1.));
#1632=DIRECTION('',(1.,0.,0.));
#1633=DIRECTION('center_axis',(0.,-1.,0.));
#1634=DIRECTION('ref_axis',(0.,0.,-1.));
#1635=DIRECTION('',(1.,0.,0.));
#1636=DIRECTION('center_axis',(0.,0.,-1.));
#1637=DIRECTION('ref_axis',(-1.,0.,0.));
#1638=DIRECTION('center_axis',(0.,0.,-1.));
#1639=DIRECTION('ref_axis',(-1.,0.,0.));
#1640=DIRECTION('center_axis',(0.,0.,-1.));
#1641=DIRECTION('ref_axis',(-1.,0.,0.));
#1642=DIRECTION('center_axis',(1.,0.,0.));
#1643=DIRECTION('ref_axis',(0.,-1.,0.));
#1644=DIRECTION('',(0.,-1.,0.));
#1645=DIRECTION('',(0.,0.,1.));
#1646=DIRECTION('center_axis',(0.,1.,0.));
#1647=DIRECTION('ref_axis',(1.,0.,0.));
#1648=DIRECTION('',(1.,0.,0.));
#1649=DIRECTION('',(0.,0.,1.));
#1650=DIRECTION('center_axis',(-1.,0.,0.));
#1651=DIRECTION('ref_axis',(0.,1.,0.));
#1652=DIRECTION('',(0.,-1.,0.));
#1653=DIRECTION('center_axis',(0.,0.,-1.));
#1654=DIRECTION('ref_axis',(-1.,0.,0.));
#1655=DIRECTION('center_axis',(-1.,0.,0.));
#1656=DIRECTION('ref_axis',(0.,1.,0.));
#1657=DIRECTION('',(0.,1.,0.));
#1658=DIRECTION('',(0.,0.,1.));
#1659=DIRECTION('center_axis',(0.,-1.,0.));
#1660=DIRECTION('ref_axis',(-1.,0.,0.));
#1661=DIRECTION('',(-1.,0.,0.));
#1662=DIRECTION('center_axis',(0.,0.,-1.));
#1663=DIRECTION('ref_axis',(-1.,0.,0.));
#1664=CARTESIAN_POINT('',(0.,0.,0.));
#1665=CARTESIAN_POINT('Origin',(1.00000001490116,64.0000009536743,26.));
#1666=CARTESIAN_POINT('',(1.00000001490116,64.0000009536743,26.));
#1667=CARTESIAN_POINT('',(4.00000005960464,64.0000009536743,26.));
#1668=CARTESIAN_POINT('',(20.7500000074506,64.0000009536743,26.));
#1669=CARTESIAN_POINT('',(1.00000001490116,64.0000009536743,23.));
#1670=CARTESIAN_POINT('',(1.00000001490116,64.0000009536743,26.));
#1671=CARTESIAN_POINT('',(4.00000005960464,64.0000009536743,23.));
#1672=CARTESIAN_POINT('',(4.00000005960464,64.0000009536743,23.));
#1673=CARTESIAN_POINT('',(4.00000005960464,64.0000009536743,26.));
#1674=CARTESIAN_POINT('Origin',(1.00000001490116,39.0000005811453,26.));
#1675=CARTESIAN_POINT('',(1.00000001490116,39.0000005811453,26.));
#1676=CARTESIAN_POINT('',(1.00000001490116,45.2500002905726,26.));
#1677=CARTESIAN_POINT('',(1.00000001490116,39.0000005811453,23.));
#1678=CARTESIAN_POINT('',(1.00000001490116,39.0000005811453,26.));
#1679=CARTESIAN_POINT('',(1.00000001490116,64.0000009536743,23.));
#1680=CARTESIAN_POINT('Origin',(4.00000005960464,39.0000005811453,26.));
#1681=CARTESIAN_POINT('',(4.00000005960464,39.0000005811453,26.));
#1682=CARTESIAN_POINT('',(22.2500000298023,39.0000005811453,26.));
#1683=CARTESIAN_POINT('',(4.00000005960464,39.0000005811453,23.));
#1684=CARTESIAN_POINT('',(4.00000005960464,39.0000005811453,26.));
#1685=CARTESIAN_POINT('',(1.00000001490116,39.0000005811453,23.));
#1686=CARTESIAN_POINT('Origin',(4.00000005960464,64.0000009536743,26.));
#1687=CARTESIAN_POINT('',(4.00000005960464,57.7500004768372,26.));
#1688=CARTESIAN_POINT('',(4.00000005960464,39.0000005811453,23.));
#1689=CARTESIAN_POINT('Origin',(2.5000000372529,51.5000007674098,23.));
#1690=CARTESIAN_POINT('Origin',(77.0000011473894,64.0000009536743,26.));
#1691=CARTESIAN_POINT('',(77.0000011473894,64.0000009536743,26.));
#1692=CARTESIAN_POINT('',(80.0000011920929,64.0000009536743,26.));
#1693=CARTESIAN_POINT('',(58.7500005736947,64.0000009536743,26.));
#1694=CARTESIAN_POINT('',(77.0000011473894,64.0000009536743,23.));
#1695=CARTESIAN_POINT('',(77.0000011473894,64.0000009536743,26.));
#1696=CARTESIAN_POINT('',(80.0000011920929,64.0000009536743,23.));
#1697=CARTESIAN_POINT('',(80.0000011920929,64.0000009536743,23.));
#1698=CARTESIAN_POINT('',(80.0000011920929,64.0000009536743,26.));
#1699=CARTESIAN_POINT('Origin',(77.0000011473894,39.0000005811453,26.));
#1700=CARTESIAN_POINT('',(77.0000011473894,39.0000005811453,26.));
#1701=CARTESIAN_POINT('',(77.0000011473894,45.2500002905726,26.));
#1702=CARTESIAN_POINT('',(77.0000011473894,39.0000005811453,23.));
#1703=CARTESIAN_POINT('',(77.0000011473894,39.0000005811453,26.));
#1704=CARTESIAN_POINT('',(77.0000011473894,64.0000009536743,23.));
#1705=CARTESIAN_POINT('Origin',(80.0000011920929,39.0000005811453,26.));
#1706=CARTESIAN_POINT('',(80.0000011920929,39.0000005811453,26.));
#1707=CARTESIAN_POINT('',(60.2500005960464,39.0000005811453,26.));
#1708=CARTESIAN_POINT('',(80.0000011920929,39.0000005811453,23.));
#1709=CARTESIAN_POINT('',(80.0000011920929,39.0000005811453,26.));
#1710=CARTESIAN_POINT('',(77.0000011473894,39.0000005811453,23.));
#1711=CARTESIAN_POINT('Origin',(80.0000011920929,64.0000009536743,26.));
#1712=CARTESIAN_POINT('',(80.0000011920929,57.7500004768372,26.));
#1713=CARTESIAN_POINT('',(80.0000011920929,39.0000005811453,23.));
#1714=CARTESIAN_POINT('Origin',(78.5000011697412,51.5000007674098,23.));
#1715=CARTESIAN_POINT('Origin',(40.5,51.5,26.));
#1716=CARTESIAN_POINT('',(0.,5.00000007450581,26.));
#1717=CARTESIAN_POINT('',(5.00000007450581,5.00000007450581,26.));
#1718=CARTESIAN_POINT('',(20.25,5.00000007450581,26.));
#1719=CARTESIAN_POINT('',(5.,98.,26.));
#1720=CARTESIAN_POINT('',(5.00000007450581,25.75,26.));
#1721=CARTESIAN_POINT('',(76.,98.,26.));
#1722=CARTESIAN_POINT('',(76.,98.,26.));
#1723=CARTESIAN_POINT('',(76.0000011324883,5.00000007450581,26.));
#1724=CARTESIAN_POINT('',(76.0000011324883,0.,26.));
#1725=CARTESIAN_POINT('',(81.0000012069941,5.00000007450581,26.));
#1726=CARTESIAN_POINT('',(58.2500005662441,5.00000007450581,26.));
#1727=CARTESIAN_POINT('',(81.,103.,26.));
#1728=CARTESIAN_POINT('',(81.,0.,26.));
#1729=CARTESIAN_POINT('',(0.,103.,26.));
#1730=CARTESIAN_POINT('',(81.,103.,26.));
#1731=CARTESIAN_POINT('',(0.,103.,26.));
#1732=CARTESIAN_POINT('Origin',(81.,31.0000002235174,-10.5000001564622));
#1733=CARTESIAN_POINT('',(81.,24.0000002235174,-10.5000001564622));
#1734=CARTESIAN_POINT('Origin',(81.,31.0000002235174,-10.5000001564622));
#1735=CARTESIAN_POINT('',(76.,24.0000002235174,-10.5000001564622));
#1736=CARTESIAN_POINT('',(81.,24.0000002235174,-10.5000001564622));
#1737=CARTESIAN_POINT('Origin',(76.,31.0000002235174,-10.5000001564622));
#1738=CARTESIAN_POINT('Origin',(5.,98.0000014603138,9.50000014156103));
#1739=CARTESIAN_POINT('',(5.00000007450581,30.,5.));
#1740=CARTESIAN_POINT('',(5.,98.0000014603138,9.50000014156103));
#1741=CARTESIAN_POINT('',(5.,51.3897837946908,6.41550041230873));
#1742=CARTESIAN_POINT('',(76.0000011324883,30.,5.));
#1743=CARTESIAN_POINT('',(40.5000003017485,30.,5.));
#1744=CARTESIAN_POINT('',(76.,98.0000014603138,9.50000014156103));
#1745=CARTESIAN_POINT('',(76.,97.6870330774128,9.47928899836818));
#1746=CARTESIAN_POINT('',(5.,98.,9.50000004492262));
#1747=CARTESIAN_POINT('Origin',(5.,98.,0.));
#1748=CARTESIAN_POINT('',(76.,98.,0.));
#1749=CARTESIAN_POINT('',(5.,98.,0.));
#1750=CARTESIAN_POINT('Origin',(76.,98.,0.));
#1751=CARTESIAN_POINT('',(76.,30.,1.));
#1752=CARTESIAN_POINT('',(76.,30.,4.));
#1753=CARTESIAN_POINT('',(76.0000011324883,42.0000006258488,1.));
#1754=CARTESIAN_POINT('',(76.,74.75,1.));
#1755=CARTESIAN_POINT('',(76.0000011324883,42.0000006258488,-39.));
#1756=CARTESIAN_POINT('',(76.0000011324883,42.0000006258488,0.));
#1757=CARTESIAN_POINT('',(76.0000011324883,-5.,-39.));
#1758=CARTESIAN_POINT('',(76.0000011324883,0.,-39.));
#1759=CARTESIAN_POINT('',(76.0000011324883,-5.,16.));
#1760=CARTESIAN_POINT('',(76.0000011324883,-5.,0.));
#1761=CARTESIAN_POINT('',(76.0000011324883,0.,16.));
#1762=CARTESIAN_POINT('',(76.0000011324883,0.,16.));
#1763=CARTESIAN_POINT('',(76.0000011324883,0.,0.));
#1764=CARTESIAN_POINT('',(76.,0.,8.));
#1765=CARTESIAN_POINT('',(76.0000011324883,5.00000007450581,0.));
#1766=CARTESIAN_POINT('',(76.,73.5,0.));
#1767=CARTESIAN_POINT('',(76.,5.00000007450581,8.));
#1768=CARTESIAN_POINT('',(76.,7.92500022351742,-10.5000001564622));
#1769=CARTESIAN_POINT('Origin',(76.,15.0000002235174,-10.5000001564622));
#1770=CARTESIAN_POINT('Origin',(5.00000007450581,0.,16.));
#1771=CARTESIAN_POINT('',(5.00000007450581,0.,16.));
#1772=CARTESIAN_POINT('',(0.,0.,16.));
#1773=CARTESIAN_POINT('',(22.7500000372529,0.,16.));
#1774=CARTESIAN_POINT('',(5.00000007450581,0.,0.));
#1775=CARTESIAN_POINT('',(5.,0.,8.));
#1776=CARTESIAN_POINT('',(0.,0.,0.));
#1777=CARTESIAN_POINT('',(0.,0.,0.));
#1778=CARTESIAN_POINT('',(0.,0.,8.));
#1779=CARTESIAN_POINT('Origin',(0.,5.00000007450581,16.));
#1780=CARTESIAN_POINT('',(0.,5.00000007450581,0.));
#1781=CARTESIAN_POINT('',(0.,5.00000007450581,8.));
#1782=CARTESIAN_POINT('',(5.00000007450581,5.00000007450581,0.));
#1783=CARTESIAN_POINT('',(5.00000007450581,5.00000007450581,0.));
#1784=CARTESIAN_POINT('',(5.,5.00000007450581,8.));
#1785=CARTESIAN_POINT('Origin',(40.5,49.,0.));
#1786=CARTESIAN_POINT('',(0.,76.,0.));
#1787=CARTESIAN_POINT('',(5.,27.,0.));
#1788=CARTESIAN_POINT('Origin',(81.0000012069941,0.,16.));
#1789=CARTESIAN_POINT('',(81.0000012069941,0.,16.));
#1790=CARTESIAN_POINT('',(60.750000603497,0.,16.));
#1791=CARTESIAN_POINT('',(81.0000012069941,0.,0.));
#1792=CARTESIAN_POINT('',(81.,0.,8.));
#1793=CARTESIAN_POINT('',(81.0000012069941,0.,0.));
#1794=CARTESIAN_POINT('Origin',(76.0000011324883,5.00000007450581,16.));
#1795=CARTESIAN_POINT('',(81.0000012069941,5.00000007450581,0.));
#1796=CARTESIAN_POINT('',(76.0000011324883,5.00000007450581,0.));
#1797=CARTESIAN_POINT('',(81.,5.00000007450581,8.));
#1798=CARTESIAN_POINT('Origin',(40.500000603497,49.,0.));
#1799=CARTESIAN_POINT('',(81.,24.5,0.));
#1800=CARTESIAN_POINT('Origin',(5.,5.,0.));
#1801=CARTESIAN_POINT('',(5.00000007450581,-5.,16.));
#1802=CARTESIAN_POINT('',(5.00000007450581,25.75,16.));
#1803=CARTESIAN_POINT('',(5.00000007450581,-5.,-39.));
#1804=CARTESIAN_POINT('',(5.00000007450581,-5.,0.));
#1805=CARTESIAN_POINT('',(5.00000007450581,42.0000006258488,-39.));
#1806=CARTESIAN_POINT('',(5.00000007450581,0.,-39.));
#1807=CARTESIAN_POINT('',(5.00000007450581,42.0000006258488,1.));
#1808=CARTESIAN_POINT('',(5.00000007450581,42.0000006258488,0.));
#1809=CARTESIAN_POINT('',(5.,30.,1.));
#1810=CARTESIAN_POINT('',(5.,28.25,1.));
#1811=CARTESIAN_POINT('',(5.,30.,4.));
#1812=CARTESIAN_POINT('',(5.,7.92500022351742,-10.5000001564622));
#1813=CARTESIAN_POINT('Origin',(5.,15.0000002235174,-10.5000001564622));
#1814=CARTESIAN_POINT('Origin',(40.5,51.5,16.));
#1815=CARTESIAN_POINT('',(81.,-5.,16.));
#1816=CARTESIAN_POINT('',(0.,-5.,16.));
#1817=CARTESIAN_POINT('',(81.,0.,16.));
#1818=CARTESIAN_POINT('Origin',(40.5,51.5,16.));
#1819=CARTESIAN_POINT('',(0.,-5.,16.));
#1820=CARTESIAN_POINT('',(0.,103.,16.));
#1821=CARTESIAN_POINT('',(0.,-5.,16.));
#1822=CARTESIAN_POINT('Origin',(81.,0.,0.));
#1823=CARTESIAN_POINT('',(81.,-5.,-39.));
#1824=CARTESIAN_POINT('',(81.,-5.,0.));
#1825=CARTESIAN_POINT('',(81.,42.0000006258488,-39.));
#1826=CARTESIAN_POINT('',(81.,0.,-39.));
#1827=CARTESIAN_POINT('',(81.,42.0000006258488,1.));
#1828=CARTESIAN_POINT('',(81.,42.0000006258488,0.));
#1829=CARTESIAN_POINT('',(81.,44.0000006258488,3.));
#1830=CARTESIAN_POINT('Origin',(81.,44.0000006258488,1.));
#1831=CARTESIAN_POINT('',(81.,103.,3.));
#1832=CARTESIAN_POINT('',(81.,25.75,3.));
#1833=CARTESIAN_POINT('',(81.,103.,0.));
#1834=CARTESIAN_POINT('',(81.,7.92500022351742,-10.5000001564622));
#1835=CARTESIAN_POINT('Origin',(81.,15.0000002235174,-10.5000001564622));
#1836=CARTESIAN_POINT('Origin',(42.0000005960464,77.2500007674098,1.));
#1837=CARTESIAN_POINT('',(40.0000005960464,98.0000014603138,1.));
#1838=CARTESIAN_POINT('',(40.0000005960464,103.00000153482,1.));
#1839=CARTESIAN_POINT('',(40.0000005960464,77.2500007674098,1.));
#1840=CARTESIAN_POINT('',(42.0000005960464,103.,3.));
#1841=CARTESIAN_POINT('Origin',(42.0000005960464,103.,1.));
#1842=CARTESIAN_POINT('',(42.0000005960464,96.0000014603138,3.));
#1843=CARTESIAN_POINT('',(42.0000005960464,77.2500007674098,3.));
#1844=CARTESIAN_POINT('Origin',(42.0000005960464,96.0000014603138,1.));
#1845=CARTESIAN_POINT('Origin',(40.2500002980232,96.0000014603138,1.));
#1846=CARTESIAN_POINT('',(0.,96.0000014603138,3.));
#1847=CARTESIAN_POINT('',(40.2500002980232,96.0000014603138,3.));
#1848=CARTESIAN_POINT('',(0.,98.0000014603138,1.));
#1849=CARTESIAN_POINT('Origin',(0.,96.0000014603138,1.));
#1850=CARTESIAN_POINT('',(40.2500002980232,98.0000014603138,1.));
#1851=CARTESIAN_POINT('Origin',(40.0000005960464,103.00000153482,0.));
#1852=CARTESIAN_POINT('',(40.0000005960464,98.0000014603138,-39.));
#1853=CARTESIAN_POINT('',(40.0000005960464,98.0000014603138,0.));
#1854=CARTESIAN_POINT('',(40.0000005960464,103.00000153482,-39.));
#1855=CARTESIAN_POINT('',(40.0000005960464,103.00000153482,-39.));
#1856=CARTESIAN_POINT('',(40.0000005960464,103.00000153482,0.));
#1857=CARTESIAN_POINT('Origin',(40.0000005960464,98.0000014603138,0.));
#1858=CARTESIAN_POINT('',(0.,98.0000014603138,-39.));
#1859=CARTESIAN_POINT('',(0.,98.0000014603138,0.));
#1860=CARTESIAN_POINT('',(40.0000005960464,98.0000014603138,-39.));
#1861=CARTESIAN_POINT('Origin',(20.25,44.0000006258488,1.));
#1862=CARTESIAN_POINT('',(0.,42.0000006258488,1.));
#1863=CARTESIAN_POINT('',(20.25,42.0000006258488,1.));
#1864=CARTESIAN_POINT('',(0.,44.0000006258488,3.));
#1865=CARTESIAN_POINT('Origin',(0.,44.0000006258488,1.));
#1866=CARTESIAN_POINT('',(7.,44.0000006258488,3.));
#1867=CARTESIAN_POINT('',(20.25,44.0000006258488,3.));
#1868=CARTESIAN_POINT('Origin',(7.,44.0000006258488,1.));
#1869=CARTESIAN_POINT('Origin',(7.,28.25,1.));
#1870=CARTESIAN_POINT('',(7.,30.,3.));
#1871=CARTESIAN_POINT('',(7.,28.25,3.));
#1872=CARTESIAN_POINT('Origin',(7.,30.,1.));
#1873=CARTESIAN_POINT('Origin',(0.,42.0000006258488,0.));
#1874=CARTESIAN_POINT('',(0.,42.0000006258488,-39.));
#1875=CARTESIAN_POINT('',(5.00000007450581,42.0000006258488,-39.));
#1876=CARTESIAN_POINT('',(0.,42.0000006258488,0.));
#1877=CARTESIAN_POINT('Origin',(74.,74.75,1.));
#1878=CARTESIAN_POINT('',(74.,30.,3.));
#1879=CARTESIAN_POINT('Origin',(74.,30.,1.));
#1880=CARTESIAN_POINT('',(74.,44.0000006258488,3.));
#1881=CARTESIAN_POINT('',(74.,74.75,3.));
#1882=CARTESIAN_POINT('Origin',(74.,44.0000006258488,1.));
#1883=CARTESIAN_POINT('Origin',(58.2500005662441,44.0000006258488,1.));
#1884=CARTESIAN_POINT('',(58.2500005662441,44.0000006258488,3.));
#1885=CARTESIAN_POINT('',(58.2500005662441,42.0000006258488,1.));
#1886=CARTESIAN_POINT('Origin',(76.0000011324883,42.0000006258488,0.));
#1887=CARTESIAN_POINT('',(76.0000011324883,42.0000006258488,-39.));
#1888=CARTESIAN_POINT('Origin',(57.7500024382025,71.8749988935888,1.));
#1889=CARTESIAN_POINT('',(59.7500024382025,92.2499977871776,1.));
#1890=CARTESIAN_POINT('',(57.7500024382025,92.2499977871776,3.));
#1891=CARTESIAN_POINT('Origin',(57.7500024382025,92.2499977871776,1.));
#1892=CARTESIAN_POINT('',(57.7500024382025,103.,3.));
#1893=CARTESIAN_POINT('',(57.7500024382025,71.8749988935888,3.));
#1894=CARTESIAN_POINT('',(59.7500024382025,103.,1.));
#1895=CARTESIAN_POINT('Origin',(57.7500024382025,103.,1.));
#1896=CARTESIAN_POINT('',(59.7500024382025,71.8749988935888,1.));
#1897=CARTESIAN_POINT('Origin',(40.5,51.5,3.));
#1898=CARTESIAN_POINT('',(60.75,103.,3.));
#1899=CARTESIAN_POINT('',(67.5,92.2499977871776,3.));
#1900=CARTESIAN_POINT('',(53.,92.2499977871776,3.));
#1901=CARTESIAN_POINT('',(67.5,103.,3.));
#1902=CARTESIAN_POINT('',(67.5,75.2499988935888,3.));
#1903=CARTESIAN_POINT('',(60.75,103.,3.));
#1904=CARTESIAN_POINT('',(40.5000003017485,30.,3.));
#1905=CARTESIAN_POINT('',(0.,77.25,3.));
#1906=CARTESIAN_POINT('',(57.75,51.7500006705523,3.));
#1907=CARTESIAN_POINT('',(67.5,51.7500006705523,3.));
#1908=CARTESIAN_POINT('',(50.125,51.7500006705522,3.));
#1909=CARTESIAN_POINT('',(57.75,41.0000006705523,3.));
#1910=CARTESIAN_POINT('',(57.75,48.2500003352761,3.));
#1911=CARTESIAN_POINT('',(67.5,41.0000006705523,3.));
#1912=CARTESIAN_POINT('',(53.,41.0000006705523,3.));
#1913=CARTESIAN_POINT('',(67.5,51.6250003352761,3.));
#1914=CARTESIAN_POINT('Origin',(67.5,75.2499988935888,1.));
#1915=CARTESIAN_POINT('',(65.5,92.2499977871776,1.));
#1916=CARTESIAN_POINT('Origin',(67.5,92.2499977871776,1.));
#1917=CARTESIAN_POINT('',(65.5,102.999997787178,1.));
#1918=CARTESIAN_POINT('',(65.5,75.2499988935888,1.));
#1919=CARTESIAN_POINT('Origin',(67.5,103.,1.));
#1920=CARTESIAN_POINT('Origin',(65.5,98.9999977871776,0.));
#1921=CARTESIAN_POINT('',(65.5,92.2499977871776,-22.));
#1922=CARTESIAN_POINT('',(65.5,92.2499977871776,0.));
#1923=CARTESIAN_POINT('',(65.5,102.999997787178,-22.));
#1924=CARTESIAN_POINT('',(65.5,98.9999977871776,-22.));
#1925=CARTESIAN_POINT('',(65.5,102.999997787178,0.));
#1926=CARTESIAN_POINT('',(65.5,94.1000014305115,-6.));
#1927=CARTESIAN_POINT('Origin',(65.5,96.0000014305115,-6.));
#1928=CARTESIAN_POINT('',(65.5,94.1000014305115,-16.000000149));
#1929=CARTESIAN_POINT('Origin',(65.5,96.0000014305115,-16.000000149));
#1930=CARTESIAN_POINT('Origin',(57.75,48.2500003352761,1.));
#1931=CARTESIAN_POINT('',(59.75,41.0000006705523,1.));
#1932=CARTESIAN_POINT('Origin',(57.75,41.0000006705523,1.));
#1933=CARTESIAN_POINT('',(59.75,51.7500006705523,1.));
#1934=CARTESIAN_POINT('Origin',(57.75,51.7500006705523,1.));
#1935=CARTESIAN_POINT('',(59.75,48.2500003352761,1.));
#1936=CARTESIAN_POINT('Origin',(67.5,51.6250003352761,1.));
#1937=CARTESIAN_POINT('',(65.5,51.7500006705523,1.));
#1938=CARTESIAN_POINT('Origin',(67.5,51.7500006705523,1.));
#1939=CARTESIAN_POINT('',(65.5,41.0000006705523,1.));
#1940=CARTESIAN_POINT('Origin',(67.5,41.0000006705523,1.));
#1941=CARTESIAN_POINT('',(65.5,51.6250003352761,1.));
#1942=CARTESIAN_POINT('Origin',(81.,103.,0.));
#1943=CARTESIAN_POINT('',(59.7500024382025,102.999997787178,-22.));
#1944=CARTESIAN_POINT('',(59.7500024382025,103.,0.));
#1945=CARTESIAN_POINT('',(0.,103.00000153482,-39.));
#1946=CARTESIAN_POINT('',(0.,103.00000153482,-39.));
#1947=CARTESIAN_POINT('',(0.,103.00000153482,0.));
#1948=CARTESIAN_POINT('',(65.5,102.999997787178,-22.));
#1949=CARTESIAN_POINT('Origin',(0.,103.,0.));
#1950=CARTESIAN_POINT('',(0.,98.0000014603138,-39.));
#1951=CARTESIAN_POINT('',(0.,-5.,-39.));
#1952=CARTESIAN_POINT('',(0.,0.,-39.));
#1953=CARTESIAN_POINT('',(0.,-5.,0.));
#1954=CARTESIAN_POINT('',(0.,7.92500022351742,-10.5000001564622));
#1955=CARTESIAN_POINT('Origin',(0.,15.0000002235174,-10.5000001564622));
#1956=CARTESIAN_POINT('Origin',(40.500000603497,30.,8.));
#1957=CARTESIAN_POINT('Origin',(65.5,41.0000006705523,0.));
#1958=CARTESIAN_POINT('',(59.75,41.0000006705523,-22.));
#1959=CARTESIAN_POINT('',(59.75,41.0000006705523,0.));
#1960=CARTESIAN_POINT('',(65.5,41.0000006705523,-22.));
#1961=CARTESIAN_POINT('',(59.75,41.0000006705523,-22.));
#1962=CARTESIAN_POINT('',(65.5,41.0000006705523,0.));
#1963=CARTESIAN_POINT('Origin',(65.5,48.0000007152557,-16.000000149));
#1964=CARTESIAN_POINT('',(65.5,46.1000007152557,-16.000000149));
#1965=CARTESIAN_POINT('Origin',(65.5,48.0000007152557,-16.000000149));
#1966=CARTESIAN_POINT('',(59.75,46.1000007152557,-16.000000149));
#1967=CARTESIAN_POINT('',(65.5,46.1000007152557,-16.000000149));
#1968=CARTESIAN_POINT('Origin',(59.75,48.0000007152557,-16.000000149));
#1969=CARTESIAN_POINT('Origin',(65.5,96.0000014305115,-16.000000149));
#1970=CARTESIAN_POINT('',(59.7500024382025,94.1000014305115,-16.000000149));
#1971=CARTESIAN_POINT('',(65.5,94.1000014305115,-16.000000149));
#1972=CARTESIAN_POINT('Origin',(59.7500024382025,96.0000014305115,-16.000000149));
#1973=CARTESIAN_POINT('Origin',(65.5,48.0000007152557,-6.));
#1974=CARTESIAN_POINT('',(65.5,46.1000007152557,-6.));
#1975=CARTESIAN_POINT('Origin',(65.5,48.0000007152557,-6.));
#1976=CARTESIAN_POINT('',(59.75,46.1000007152557,-6.));
#1977=CARTESIAN_POINT('',(65.5,46.1000007152557,-6.));
#1978=CARTESIAN_POINT('Origin',(59.75,48.0000007152557,-6.));
#1979=CARTESIAN_POINT('Origin',(65.5,96.0000014305115,-6.));
#1980=CARTESIAN_POINT('',(59.7500024382025,94.1000014305115,-6.));
#1981=CARTESIAN_POINT('',(65.5,94.1000014305115,-6.));
#1982=CARTESIAN_POINT('Origin',(59.7500024382025,96.0000014305115,-6.));
#1983=CARTESIAN_POINT('Origin',(81.,15.0000002235174,-10.5000001564622));
#1984=CARTESIAN_POINT('',(81.,7.92500022351742,-10.5000001564622));
#1985=CARTESIAN_POINT('Origin',(81.,15.0000002235174,-10.5000001564622));
#1986=CARTESIAN_POINT('',(81.,7.92500022351742,-10.5000001564622));
#1987=CARTESIAN_POINT('Origin',(0.,-5.,0.));
#1988=CARTESIAN_POINT('',(81.0000012069941,-5.,-39.));
#1989=CARTESIAN_POINT('Origin',(0.,-5.,0.));
#1990=CARTESIAN_POINT('',(0.,-5.,-39.));
#1991=CARTESIAN_POINT('Origin',(78.5000011697412,21.0000003129244,-39.));
#1992=CARTESIAN_POINT('Origin',(20.0000002980232,100.500001497567,-39.));
#1993=CARTESIAN_POINT('Origin',(2.5000000372529,21.0000003129244,-39.));
#1994=CARTESIAN_POINT('Origin',(65.5,51.7500006705523,0.));
#1995=CARTESIAN_POINT('',(65.5,51.7500006705523,-22.));
#1996=CARTESIAN_POINT('',(65.5,45.0000006705523,-22.));
#1997=CARTESIAN_POINT('',(65.5,51.7500006705523,0.));
#1998=CARTESIAN_POINT('Origin',(59.75,51.7500006705523,0.));
#1999=CARTESIAN_POINT('',(59.75,51.7500006705523,-22.));
#2000=CARTESIAN_POINT('',(65.5,51.7500006705523,-22.));
#2001=CARTESIAN_POINT('',(59.75,51.7500006705523,0.));
#2002=CARTESIAN_POINT('Origin',(59.75,45.0000006705523,0.));
#2003=CARTESIAN_POINT('',(59.75,45.0000006705523,-22.));
#2004=CARTESIAN_POINT('Origin',(62.625,48.3750006705523,-22.));
#2005=CARTESIAN_POINT('Origin',(59.7500024382025,92.2499977871776,0.));
#2006=CARTESIAN_POINT('',(59.7500024382025,92.2499977871776,-22.));
#2007=CARTESIAN_POINT('',(59.7500024382025,98.9999977871776,-22.));
#2008=CARTESIAN_POINT('',(59.7500024382025,92.2499977871776,0.));
#2009=CARTESIAN_POINT('Origin',(65.5,92.2499977871776,0.));
#2010=CARTESIAN_POINT('',(59.7500024382025,92.2499977871776,-22.));
#2011=CARTESIAN_POINT('Origin',(62.6250012191013,95.6249977871776,-22.));
#2012=UNCERTAINTY_MEASURE_WITH_UNIT(LENGTH_MEASURE(0.01),#2016,
'DISTANCE_ACCURACY_VALUE',
'Maximum model space distance between geometric entities at asserted c
onnectivities');
#2013=UNCERTAINTY_MEASURE_WITH_UNIT(LENGTH_MEASURE(0.01),#2016,
'DISTANCE_ACCURACY_VALUE',
'Maximum model space distance between geometric entities at asserted c
onnectivities');
#2014=(
GEOMETRIC_REPRESENTATION_CONTEXT(3)
GLOBAL_UNCERTAINTY_ASSIGNED_CONTEXT((#2012))
GLOBAL_UNIT_ASSIGNED_CONTEXT((#2016,#2017,#2018))
REPRESENTATION_CONTEXT('','3D')
);
#2015=(
GEOMETRIC_REPRESENTATION_CONTEXT(3)
GLOBAL_UNCERTAINTY_ASSIGNED_CONTEXT((#2013))
GLOBAL_UNIT_ASSIGNED_CONTEXT((#2016,#2017,#2018))
REPRESENTATION_CONTEXT('','3D')
);
#2016=(
LENGTH_UNIT()
NAMED_UNIT(*)
SI_UNIT(.MILLI.,.METRE.)
);
#2017=(
NAMED_UNIT(*)
PLANE_ANGLE_UNIT()
SI_UNIT($,.RADIAN.)
);
#2018=(
NAMED_UNIT(*)
SI_UNIT($,.STERADIAN.)
SOLID_ANGLE_UNIT()
);
#2019=SHAPE_DEFINITION_REPRESENTATION(#2020,#2021);
#2020=PRODUCT_DEFINITION_SHAPE('',$,#2023);
#2021=SHAPE_REPRESENTATION('',(#1239),#2014);
#2022=PRODUCT_DEFINITION_CONTEXT('part definition',#2027,'design');
#2023=PRODUCT_DEFINITION('2026-07-13-22-44-45-008',
'card-dispenser-chassis',#2024,#2022);
#2024=PRODUCT_DEFINITION_FORMATION('',$,#2029);
#2025=PRODUCT_RELATED_PRODUCT_CATEGORY('card-dispenser-chassis',
'card-dispenser-chassis',(#2029));
#2026=APPLICATION_PROTOCOL_DEFINITION('international standard',
'automotive_design',2009,#2027);
#2027=APPLICATION_CONTEXT(
'Core Data for Automotive Mechanical Design Process');
#2028=PRODUCT_CONTEXT('part definition',#2027,'mechanical');
#2029=PRODUCT('2026-07-13-22-44-45-008','card-dispenser-chassis',$,(#2028));
#2030=PRESENTATION_STYLE_ASSIGNMENT((#2031));
#2031=SURFACE_STYLE_USAGE(.BOTH.,#2032);
#2032=SURFACE_SIDE_STYLE('',(#2033));
#2033=SURFACE_STYLE_FILL_AREA(#2034);
#2034=FILL_AREA_STYLE('Steel - Satin',(#2035));
#2035=FILL_AREA_STYLE_COLOUR('Steel - Satin',#2036);
#2036=COLOUR_RGB('Steel - Satin',0.627450980392157,0.627450980392157,0.627450980392157);
ENDSEC;
END-ISO-10303-21;
