ISO-10303-21;
HEADER;
/* Generated by software containing ST-Developer
 * from STEP Tools, Inc. (www.steptools.com) 
 */

FILE_DESCRIPTION(
/* description */ (''),
/* implementation_level */ '2;1');

FILE_NAME(
/* name */ 'card-dispenser-shaft.step',
/* time_stamp */ '2026-07-27T21:00:58-07:00',
/* author */ (''),
/* organization */ (''),
/* preprocessor_version */ 'ST-DEVELOPER v20.1',
/* originating_system */ 'Autodesk Translation Framework v15.8.0.0',
/* authorisation */ '');

FILE_SCHEMA (('AUTOMOTIVE_DESIGN { 1 0 10303 214 3 1 1 }'));
ENDSEC;

DATA;
#10=MECHANICAL_DESIGN_GEOMETRIC_PRESENTATION_REPRESENTATION('',(#23,#24),
#428);
#11=ITEM_DEFINED_TRANSFORMATION($,$,#262,#284);
#12=ITEM_DEFINED_TRANSFORMATION($,$,#274,#285);
#13=(
REPRESENTATION_RELATIONSHIP($,$,#442,#441)
REPRESENTATION_RELATIONSHIP_WITH_TRANSFORMATION(#11)
SHAPE_REPRESENTATION_RELATIONSHIP()
);
#14=(
REPRESENTATION_RELATIONSHIP($,$,#443,#441)
REPRESENTATION_RELATIONSHIP_WITH_TRANSFORMATION(#12)
SHAPE_REPRESENTATION_RELATIONSHIP()
);
#15=CONTEXT_DEPENDENT_SHAPE_REPRESENTATION(#13,#439);
#16=CONTEXT_DEPENDENT_SHAPE_REPRESENTATION(#14,#440);
#17=NEXT_ASSEMBLY_USAGE_OCCURRENCE('Component1:1','Component1:1',
'Component1:1',#445,#446,'Component1:1');
#18=NEXT_ASSEMBLY_USAGE_OCCURRENCE('Component2:1','Component2:1',
'Component2:1',#445,#447,'Component2:1');
#19=SHAPE_REPRESENTATION_RELATIONSHIP('SRR','None',#442,#21);
#20=SHAPE_REPRESENTATION_RELATIONSHIP('SRR','None',#443,#22);
#21=ADVANCED_BREP_SHAPE_REPRESENTATION('',(#25),#426);
#22=ADVANCED_BREP_SHAPE_REPRESENTATION('',(#26),#427);
#23=STYLED_ITEM('',(#460),#25);
#24=STYLED_ITEM('',(#460),#26);
#25=MANIFOLD_SOLID_BREP('Body1',#236);
#26=MANIFOLD_SOLID_BREP('Body1',#237);
#27=FACE_BOUND('',#63,.T.);
#28=FACE_BOUND('',#65,.T.);
#29=FACE_BOUND('',#67,.T.);
#30=PLANE('',#266);
#31=PLANE('',#267);
#32=PLANE('',#268);
#33=PLANE('',#269);
#34=PLANE('',#270);
#35=PLANE('',#271);
#36=PLANE('',#272);
#37=PLANE('',#273);
#38=PLANE('',#275);
#39=PLANE('',#280);
#40=PLANE('',#283);
#41=FACE_OUTER_BOUND('',#55,.T.);
#42=FACE_OUTER_BOUND('',#56,.T.);
#43=FACE_OUTER_BOUND('',#57,.T.);
#44=FACE_OUTER_BOUND('',#58,.T.);
#45=FACE_OUTER_BOUND('',#59,.T.);
#46=FACE_OUTER_BOUND('',#60,.T.);
#47=FACE_OUTER_BOUND('',#61,.T.);
#48=FACE_OUTER_BOUND('',#62,.T.);
#49=FACE_OUTER_BOUND('',#64,.T.);
#50=FACE_OUTER_BOUND('',#66,.T.);
#51=FACE_OUTER_BOUND('',#68,.T.);
#52=FACE_OUTER_BOUND('',#69,.T.);
#53=FACE_OUTER_BOUND('',#70,.T.);
#54=FACE_OUTER_BOUND('',#71,.T.);
#55=EDGE_LOOP('',(#165,#166,#167,#168));
#56=EDGE_LOOP('',(#169,#170,#171,#172));
#57=EDGE_LOOP('',(#173,#174,#175,#176));
#58=EDGE_LOOP('',(#177,#178,#179,#180));
#59=EDGE_LOOP('',(#181,#182,#183,#184));
#60=EDGE_LOOP('',(#185,#186,#187,#188));
#61=EDGE_LOOP('',(#189,#190,#191,#192));
#62=EDGE_LOOP('',(#193,#194,#195,#196,#197,#198));
#63=EDGE_LOOP('',(#199));
#64=EDGE_LOOP('',(#200,#201,#202,#203,#204,#205));
#65=EDGE_LOOP('',(#206));
#66=EDGE_LOOP('',(#207));
#67=EDGE_LOOP('',(#208));
#68=EDGE_LOOP('',(#209,#210,#211,#212));
#69=EDGE_LOOP('',(#213));
#70=EDGE_LOOP('',(#214,#215,#216,#217));
#71=EDGE_LOOP('',(#218));
#72=LINE('',#363,#93);
#73=LINE('',#368,#94);
#74=LINE('',#370,#95);
#75=LINE('',#372,#96);
#76=LINE('',#373,#97);
#77=LINE('',#376,#98);
#78=LINE('',#378,#99);
#79=LINE('',#379,#100);
#80=LINE('',#382,#101);
#81=LINE('',#384,#102);
#82=LINE('',#385,#103);
#83=LINE('',#388,#104);
#84=LINE('',#390,#105);
#85=LINE('',#391,#106);
#86=LINE('',#394,#107);
#87=LINE('',#396,#108);
#88=LINE('',#397,#109);
#89=LINE('',#399,#110);
#90=LINE('',#400,#111);
#91=LINE('',#412,#112);
#92=LINE('',#417,#113);
#93=VECTOR('',#294,2.95);
#94=VECTOR('',#299,10.);
#95=VECTOR('',#300,10.);
#96=VECTOR('',#301,10.);
#97=VECTOR('',#302,10.);
#98=VECTOR('',#305,10.);
#99=VECTOR('',#306,10.);
#100=VECTOR('',#307,10.);
#101=VECTOR('',#310,10.);
#102=VECTOR('',#311,10.);
#103=VECTOR('',#312,10.);
#104=VECTOR('',#315,10.);
#105=VECTOR('',#316,10.);
#106=VECTOR('',#317,10.);
#107=VECTOR('',#320,10.);
#108=VECTOR('',#321,10.);
#109=VECTOR('',#322,10.);
#110=VECTOR('',#325,10.);
#111=VECTOR('',#326,10.);
#112=VECTOR('',#343,7.5);
#113=VECTOR('',#350,2.9);
#114=CIRCLE('',#264,2.95);
#115=CIRCLE('',#265,2.95);
#116=CIRCLE('',#276,7.5);
#117=CIRCLE('',#277,2.9);
#118=CIRCLE('',#279,7.5);
#119=CIRCLE('',#282,2.9);
#120=VERTEX_POINT('',#360);
#121=VERTEX_POINT('',#362);
#122=VERTEX_POINT('',#366);
#123=VERTEX_POINT('',#367);
#124=VERTEX_POINT('',#369);
#125=VERTEX_POINT('',#371);
#126=VERTEX_POINT('',#375);
#127=VERTEX_POINT('',#377);
#128=VERTEX_POINT('',#381);
#129=VERTEX_POINT('',#383);
#130=VERTEX_POINT('',#387);
#131=VERTEX_POINT('',#389);
#132=VERTEX_POINT('',#393);
#133=VERTEX_POINT('',#395);
#134=VERTEX_POINT('',#405);
#135=VERTEX_POINT('',#407);
#136=VERTEX_POINT('',#410);
#137=VERTEX_POINT('',#415);
#138=EDGE_CURVE('',#120,#120,#114,.T.);
#139=EDGE_CURVE('',#120,#121,#72,.T.);
#140=EDGE_CURVE('',#121,#121,#115,.T.);
#141=EDGE_CURVE('',#122,#123,#73,.T.);
#142=EDGE_CURVE('',#123,#124,#74,.T.);
#143=EDGE_CURVE('',#125,#124,#75,.T.);
#144=EDGE_CURVE('',#122,#125,#76,.T.);
#145=EDGE_CURVE('',#126,#122,#77,.T.);
#146=EDGE_CURVE('',#127,#125,#78,.T.);
#147=EDGE_CURVE('',#126,#127,#79,.T.);
#148=EDGE_CURVE('',#128,#126,#80,.T.);
#149=EDGE_CURVE('',#129,#127,#81,.T.);
#150=EDGE_CURVE('',#128,#129,#82,.T.);
#151=EDGE_CURVE('',#130,#128,#83,.T.);
#152=EDGE_CURVE('',#131,#129,#84,.T.);
#153=EDGE_CURVE('',#130,#131,#85,.T.);
#154=EDGE_CURVE('',#132,#130,#86,.T.);
#155=EDGE_CURVE('',#133,#131,#87,.T.);
#156=EDGE_CURVE('',#132,#133,#88,.T.);
#157=EDGE_CURVE('',#123,#132,#89,.T.);
#158=EDGE_CURVE('',#124,#133,#90,.T.);
#159=EDGE_CURVE('',#134,#134,#116,.T.);
#160=EDGE_CURVE('',#135,#135,#117,.T.);
#161=EDGE_CURVE('',#136,#136,#118,.T.);
#162=EDGE_CURVE('',#136,#134,#91,.T.);
#163=EDGE_CURVE('',#137,#137,#119,.T.);
#164=EDGE_CURVE('',#137,#135,#92,.T.);
#165=ORIENTED_EDGE('',*,*,#138,.F.);
#166=ORIENTED_EDGE('',*,*,#139,.T.);
#167=ORIENTED_EDGE('',*,*,#140,.F.);
#168=ORIENTED_EDGE('',*,*,#139,.F.);
#169=ORIENTED_EDGE('',*,*,#141,.T.);
#170=ORIENTED_EDGE('',*,*,#142,.T.);
#171=ORIENTED_EDGE('',*,*,#143,.F.);
#172=ORIENTED_EDGE('',*,*,#144,.F.);
#173=ORIENTED_EDGE('',*,*,#145,.T.);
#174=ORIENTED_EDGE('',*,*,#144,.T.);
#175=ORIENTED_EDGE('',*,*,#146,.F.);
#176=ORIENTED_EDGE('',*,*,#147,.F.);
#177=ORIENTED_EDGE('',*,*,#148,.T.);
#178=ORIENTED_EDGE('',*,*,#147,.T.);
#179=ORIENTED_EDGE('',*,*,#149,.F.);
#180=ORIENTED_EDGE('',*,*,#150,.F.);
#181=ORIENTED_EDGE('',*,*,#151,.T.);
#182=ORIENTED_EDGE('',*,*,#150,.T.);
#183=ORIENTED_EDGE('',*,*,#152,.F.);
#184=ORIENTED_EDGE('',*,*,#153,.F.);
#185=ORIENTED_EDGE('',*,*,#154,.T.);
#186=ORIENTED_EDGE('',*,*,#153,.T.);
#187=ORIENTED_EDGE('',*,*,#155,.F.);
#188=ORIENTED_EDGE('',*,*,#156,.F.);
#189=ORIENTED_EDGE('',*,*,#157,.T.);
#190=ORIENTED_EDGE('',*,*,#156,.T.);
#191=ORIENTED_EDGE('',*,*,#158,.F.);
#192=ORIENTED_EDGE('',*,*,#142,.F.);
#193=ORIENTED_EDGE('',*,*,#158,.T.);
#194=ORIENTED_EDGE('',*,*,#155,.T.);
#195=ORIENTED_EDGE('',*,*,#152,.T.);
#196=ORIENTED_EDGE('',*,*,#149,.T.);
#197=ORIENTED_EDGE('',*,*,#146,.T.);
#198=ORIENTED_EDGE('',*,*,#143,.T.);
#199=ORIENTED_EDGE('',*,*,#138,.T.);
#200=ORIENTED_EDGE('',*,*,#157,.F.);
#201=ORIENTED_EDGE('',*,*,#141,.F.);
#202=ORIENTED_EDGE('',*,*,#145,.F.);
#203=ORIENTED_EDGE('',*,*,#148,.F.);
#204=ORIENTED_EDGE('',*,*,#151,.F.);
#205=ORIENTED_EDGE('',*,*,#154,.F.);
#206=ORIENTED_EDGE('',*,*,#140,.T.);
#207=ORIENTED_EDGE('',*,*,#159,.T.);
#208=ORIENTED_EDGE('',*,*,#160,.F.);
#209=ORIENTED_EDGE('',*,*,#161,.F.);
#210=ORIENTED_EDGE('',*,*,#162,.T.);
#211=ORIENTED_EDGE('',*,*,#159,.F.);
#212=ORIENTED_EDGE('',*,*,#162,.F.);
#213=ORIENTED_EDGE('',*,*,#161,.T.);
#214=ORIENTED_EDGE('',*,*,#163,.F.);
#215=ORIENTED_EDGE('',*,*,#164,.T.);
#216=ORIENTED_EDGE('',*,*,#160,.T.);
#217=ORIENTED_EDGE('',*,*,#164,.F.);
#218=ORIENTED_EDGE('',*,*,#163,.T.);
#219=CYLINDRICAL_SURFACE('',#263,2.95);
#220=CYLINDRICAL_SURFACE('',#278,7.5);
#221=CYLINDRICAL_SURFACE('',#281,2.9);
#222=ADVANCED_FACE('',(#41),#219,.F.);
#223=ADVANCED_FACE('',(#42),#30,.T.);
#224=ADVANCED_FACE('',(#43),#31,.T.);
#225=ADVANCED_FACE('',(#44),#32,.T.);
#226=ADVANCED_FACE('',(#45),#33,.T.);
#227=ADVANCED_FACE('',(#46),#34,.T.);
#228=ADVANCED_FACE('',(#47),#35,.T.);
#229=ADVANCED_FACE('',(#48,#27),#36,.T.);
#230=ADVANCED_FACE('',(#49,#28),#37,.F.);
#231=ADVANCED_FACE('',(#50,#29),#38,.T.);
#232=ADVANCED_FACE('',(#51),#220,.T.);
#233=ADVANCED_FACE('',(#52),#39,.F.);
#234=ADVANCED_FACE('',(#53),#221,.T.);
#235=ADVANCED_FACE('',(#54),#40,.T.);
#236=CLOSED_SHELL('',(#222,#223,#224,#225,#226,#227,#228,#229,#230));
#237=CLOSED_SHELL('',(#231,#232,#233,#234,#235));
#238=DERIVED_UNIT_ELEMENT(#242,1.);
#239=DERIVED_UNIT_ELEMENT(#430,-3.);
#240=DERIVED_UNIT_ELEMENT(#242,1.);
#241=DERIVED_UNIT_ELEMENT(#430,-3.);
#242=(
MASS_UNIT()
NAMED_UNIT(*)
SI_UNIT(.KILO.,.GRAM.)
);
#243=DERIVED_UNIT((#238,#239));
#244=DERIVED_UNIT((#240,#241));
#245=MEASURE_REPRESENTATION_ITEM('density measure',
POSITIVE_RATIO_MEASURE(7850.),#243);
#246=MEASURE_REPRESENTATION_ITEM('density measure',
POSITIVE_RATIO_MEASURE(7850.),#244);
#247=PROPERTY_DEFINITION_REPRESENTATION(#257,#251);
#248=PROPERTY_DEFINITION_REPRESENTATION(#258,#252);
#249=PROPERTY_DEFINITION_REPRESENTATION(#259,#253);
#250=PROPERTY_DEFINITION_REPRESENTATION(#260,#254);
#251=REPRESENTATION('material name',(#255),#426);
#252=REPRESENTATION('density',(#245),#426);
#253=REPRESENTATION('material name',(#256),#427);
#254=REPRESENTATION('density',(#246),#427);
#255=DESCRIPTIVE_REPRESENTATION_ITEM('Steel','Steel');
#256=DESCRIPTIVE_REPRESENTATION_ITEM('Steel','Steel');
#257=PROPERTY_DEFINITION('material property','material name',#446);
#258=PROPERTY_DEFINITION('material property','density of part',#446);
#259=PROPERTY_DEFINITION('material property','material name',#447);
#260=PROPERTY_DEFINITION('material property','density of part',#447);
#261=AXIS2_PLACEMENT_3D('',#357,#286,#287);
#262=AXIS2_PLACEMENT_3D('',#358,#288,#289);
#263=AXIS2_PLACEMENT_3D('',#359,#290,#291);
#264=AXIS2_PLACEMENT_3D('',#361,#292,#293);
#265=AXIS2_PLACEMENT_3D('',#364,#295,#296);
#266=AXIS2_PLACEMENT_3D('',#365,#297,#298);
#267=AXIS2_PLACEMENT_3D('',#374,#303,#304);
#268=AXIS2_PLACEMENT_3D('',#380,#308,#309);
#269=AXIS2_PLACEMENT_3D('',#386,#313,#314);
#270=AXIS2_PLACEMENT_3D('',#392,#318,#319);
#271=AXIS2_PLACEMENT_3D('',#398,#323,#324);
#272=AXIS2_PLACEMENT_3D('',#401,#327,#328);
#273=AXIS2_PLACEMENT_3D('',#402,#329,#330);
#274=AXIS2_PLACEMENT_3D('',#403,#331,#332);
#275=AXIS2_PLACEMENT_3D('',#404,#333,#334);
#276=AXIS2_PLACEMENT_3D('',#406,#335,#336);
#277=AXIS2_PLACEMENT_3D('',#408,#337,#338);
#278=AXIS2_PLACEMENT_3D('',#409,#339,#340);
#279=AXIS2_PLACEMENT_3D('',#411,#341,#342);
#280=AXIS2_PLACEMENT_3D('',#413,#344,#345);
#281=AXIS2_PLACEMENT_3D('',#414,#346,#347);
#282=AXIS2_PLACEMENT_3D('',#416,#348,#349);
#283=AXIS2_PLACEMENT_3D('',#418,#351,#352);
#284=AXIS2_PLACEMENT_3D('',#419,#353,#354);
#285=AXIS2_PLACEMENT_3D('',#420,#355,#356);
#286=DIRECTION('axis',(0.,0.,1.));
#287=DIRECTION('refdir',(1.,0.,0.));
#288=DIRECTION('axis',(0.,0.,1.));
#289=DIRECTION('refdir',(1.,0.,0.));
#290=DIRECTION('center_axis',(0.,0.,1.));
#291=DIRECTION('ref_axis',(1.,0.,0.));
#292=DIRECTION('center_axis',(0.,0.,-1.));
#293=DIRECTION('ref_axis',(1.,0.,0.));
#294=DIRECTION('',(0.,0.,-1.));
#295=DIRECTION('center_axis',(0.,0.,1.));
#296=DIRECTION('ref_axis',(1.,0.,0.));
#297=DIRECTION('center_axis',(1.,0.,0.));
#298=DIRECTION('ref_axis',(0.,1.,0.));
#299=DIRECTION('',(0.,1.,0.));
#300=DIRECTION('',(0.,0.,1.));
#301=DIRECTION('',(0.,1.,0.));
#302=DIRECTION('',(0.,0.,1.));
#303=DIRECTION('center_axis',(0.5,-0.866025403784439,0.));
#304=DIRECTION('ref_axis',(0.866025403784439,0.5,0.));
#305=DIRECTION('',(0.866025403784439,0.5,0.));
#306=DIRECTION('',(0.866025403784439,0.5,0.));
#307=DIRECTION('',(0.,0.,1.));
#308=DIRECTION('center_axis',(-0.5,-0.866025403784439,0.));
#309=DIRECTION('ref_axis',(0.866025403784438,-0.5,0.));
#310=DIRECTION('',(0.866025403784439,-0.5,0.));
#311=DIRECTION('',(0.866025403784439,-0.5,0.));
#312=DIRECTION('',(0.,0.,1.));
#313=DIRECTION('center_axis',(-1.,0.,0.));
#314=DIRECTION('ref_axis',(0.,-1.,0.));
#315=DIRECTION('',(0.,-1.,0.));
#316=DIRECTION('',(0.,-1.,0.));
#317=DIRECTION('',(0.,0.,1.));
#318=DIRECTION('center_axis',(-0.5,0.866025403784439,0.));
#319=DIRECTION('ref_axis',(-0.866025403784439,-0.5,0.));
#320=DIRECTION('',(-0.866025403784439,-0.5,0.));
#321=DIRECTION('',(-0.866025403784439,-0.5,0.));
#322=DIRECTION('',(0.,0.,1.));
#323=DIRECTION('center_axis',(0.500000000000001,0.866025403784438,0.));
#324=DIRECTION('ref_axis',(-0.866025403784438,0.500000000000001,0.));
#325=DIRECTION('',(-0.866025403784438,0.500000000000001,0.));
#326=DIRECTION('',(-0.866025403784438,0.500000000000001,0.));
#327=DIRECTION('center_axis',(0.,0.,1.));
#328=DIRECTION('ref_axis',(1.,0.,0.));
#329=DIRECTION('center_axis',(0.,0.,1.));
#330=DIRECTION('ref_axis',(1.,0.,0.));
#331=DIRECTION('axis',(0.,0.,1.));
#332=DIRECTION('refdir',(1.,0.,0.));
#333=DIRECTION('center_axis',(0.,0.,1.));
#334=DIRECTION('ref_axis',(1.,0.,0.));
#335=DIRECTION('center_axis',(0.,0.,1.));
#336=DIRECTION('ref_axis',(1.,0.,0.));
#337=DIRECTION('center_axis',(0.,0.,1.));
#338=DIRECTION('ref_axis',(1.,0.,0.));
#339=DIRECTION('center_axis',(0.,0.,-1.));
#340=DIRECTION('ref_axis',(1.,0.,0.));
#341=DIRECTION('center_axis',(0.,0.,-1.));
#342=DIRECTION('ref_axis',(1.,0.,0.));
#343=DIRECTION('',(0.,0.,1.));
#344=DIRECTION('center_axis',(0.,0.,1.));
#345=DIRECTION('ref_axis',(1.,0.,0.));
#346=DIRECTION('center_axis',(0.,0.,1.));
#347=DIRECTION('ref_axis',(1.,0.,0.));
#348=DIRECTION('center_axis',(0.,0.,1.));
#349=DIRECTION('ref_axis',(1.,0.,0.));
#350=DIRECTION('',(0.,0.,-1.));
#351=DIRECTION('center_axis',(0.,0.,1.));
#352=DIRECTION('ref_axis',(1.,0.,0.));
#353=DIRECTION('',(0.,0.,1.));
#354=DIRECTION('',(1.,0.,0.));
#355=DIRECTION('',(0.,0.,1.));
#356=DIRECTION('',(1.,0.,0.));
#357=CARTESIAN_POINT('',(0.,0.,0.));
#358=CARTESIAN_POINT('',(0.,0.,0.));
#359=CARTESIAN_POINT('Origin',(45.0000006705523,0.,0.));
#360=CARTESIAN_POINT('',(42.0500006705523,-3.61270805748469E-16,50.));
#361=CARTESIAN_POINT('Origin',(45.0000006705523,0.,50.));
#362=CARTESIAN_POINT('',(42.0500006705523,-3.61270805748469E-16,0.));
#363=CARTESIAN_POINT('',(42.0500006705523,-3.61270805748469E-16,0.));
#364=CARTESIAN_POINT('Origin',(45.0000006705523,0.,0.));
#365=CARTESIAN_POINT('Origin',(48.4641023373091,-2.00000002980232,0.));
#366=CARTESIAN_POINT('',(48.4641023373091,-2.00000002980232,0.));
#367=CARTESIAN_POINT('',(48.4641023373091,2.00000002980232,0.));
#368=CARTESIAN_POINT('',(48.4641023373091,-2.00000002980232,0.));
#369=CARTESIAN_POINT('',(48.4641023373091,2.00000002980232,50.));
#370=CARTESIAN_POINT('',(48.4641023373091,2.00000002980232,0.));
#371=CARTESIAN_POINT('',(48.4641023373091,-2.00000002980232,50.));
#372=CARTESIAN_POINT('',(48.4641023373091,-2.00000002980232,50.));
#373=CARTESIAN_POINT('',(48.4641023373091,-2.00000002980232,0.));
#374=CARTESIAN_POINT('Origin',(45.0000006705523,-4.00000005960464,0.));
#375=CARTESIAN_POINT('',(45.0000006705523,-4.00000005960464,0.));
#376=CARTESIAN_POINT('',(45.0000006705523,-4.00000005960464,0.));
#377=CARTESIAN_POINT('',(45.0000006705523,-4.00000005960464,50.));
#378=CARTESIAN_POINT('',(45.0000006705523,-4.00000005960464,50.));
#379=CARTESIAN_POINT('',(45.0000006705523,-4.00000005960464,0.));
#380=CARTESIAN_POINT('Origin',(41.5358990037954,-2.00000002980232,0.));
#381=CARTESIAN_POINT('',(41.5358990037954,-2.00000002980232,0.));
#382=CARTESIAN_POINT('',(41.5358990037954,-2.00000002980232,0.));
#383=CARTESIAN_POINT('',(41.5358990037954,-2.00000002980232,50.));
#384=CARTESIAN_POINT('',(41.5358990037954,-2.00000002980232,50.));
#385=CARTESIAN_POINT('',(41.5358990037954,-2.00000002980232,0.));
#386=CARTESIAN_POINT('Origin',(41.5358990037954,2.00000002980232,0.));
#387=CARTESIAN_POINT('',(41.5358990037954,2.00000002980232,0.));
#388=CARTESIAN_POINT('',(41.5358990037954,2.00000002980232,0.));
#389=CARTESIAN_POINT('',(41.5358990037954,2.00000002980232,50.));
#390=CARTESIAN_POINT('',(41.5358990037954,2.00000002980232,50.));
#391=CARTESIAN_POINT('',(41.5358990037954,2.00000002980232,0.));
#392=CARTESIAN_POINT('Origin',(45.0000006705523,4.00000005960464,0.));
#393=CARTESIAN_POINT('',(45.0000006705523,4.00000005960464,0.));
#394=CARTESIAN_POINT('',(45.0000006705523,4.00000005960464,0.));
#395=CARTESIAN_POINT('',(45.0000006705523,4.00000005960464,50.));
#396=CARTESIAN_POINT('',(45.0000006705523,4.00000005960464,50.));
#397=CARTESIAN_POINT('',(45.0000006705523,4.00000005960464,0.));
#398=CARTESIAN_POINT('Origin',(48.4641023373091,2.00000002980232,0.));
#399=CARTESIAN_POINT('',(48.4641023373091,2.00000002980232,0.));
#400=CARTESIAN_POINT('',(48.4641023373091,2.00000002980232,50.));
#401=CARTESIAN_POINT('Origin',(20.4820511686546,0.,50.));
#402=CARTESIAN_POINT('Origin',(20.4820511686546,0.,0.));
#403=CARTESIAN_POINT('',(0.,0.,0.));
#404=CARTESIAN_POINT('Origin',(0.,0.,0.));
#405=CARTESIAN_POINT('',(-7.5,-9.18485099360515E-16,0.));
#406=CARTESIAN_POINT('Origin',(0.,0.,0.));
#407=CARTESIAN_POINT('',(-2.9,-3.55147571752732E-16,0.));
#408=CARTESIAN_POINT('Origin',(0.,0.,0.));
#409=CARTESIAN_POINT('Origin',(0.,0.,0.));
#410=CARTESIAN_POINT('',(-7.5,-9.18485099360515E-16,-2.));
#411=CARTESIAN_POINT('Origin',(0.,0.,-2.));
#412=CARTESIAN_POINT('',(-7.5,9.18485099360515E-16,0.));
#413=CARTESIAN_POINT('Origin',(0.,0.,-2.));
#414=CARTESIAN_POINT('Origin',(0.,0.,0.));
#415=CARTESIAN_POINT('',(-2.9,-3.55147571752732E-16,87.));
#416=CARTESIAN_POINT('Origin',(0.,0.,87.));
#417=CARTESIAN_POINT('',(-2.9,-3.55147571752732E-16,0.));
#418=CARTESIAN_POINT('Origin',(0.,0.,87.));
#419=CARTESIAN_POINT('',(0.,0.,0.));
#420=CARTESIAN_POINT('',(0.,0.,0.));
#421=UNCERTAINTY_MEASURE_WITH_UNIT(LENGTH_MEASURE(0.01),#429,
'DISTANCE_ACCURACY_VALUE',
'Maximum model space distance between geometric entities at asserted c
onnectivities');
#422=UNCERTAINTY_MEASURE_WITH_UNIT(LENGTH_MEASURE(0.01),#429,
'DISTANCE_ACCURACY_VALUE',
'Maximum model space distance between geometric entities at asserted c
onnectivities');
#423=UNCERTAINTY_MEASURE_WITH_UNIT(LENGTH_MEASURE(0.01),#429,
'DISTANCE_ACCURACY_VALUE',
'Maximum model space distance between geometric entities at asserted c
onnectivities');
#424=UNCERTAINTY_MEASURE_WITH_UNIT(LENGTH_MEASURE(0.01),#429,
'DISTANCE_ACCURACY_VALUE',
'Maximum model space distance between geometric entities at asserted c
onnectivities');
#425=(
GEOMETRIC_REPRESENTATION_CONTEXT(3)
GLOBAL_UNCERTAINTY_ASSIGNED_CONTEXT((#421))
GLOBAL_UNIT_ASSIGNED_CONTEXT((#429,#431,#432))
REPRESENTATION_CONTEXT('','3D')
);
#426=(
GEOMETRIC_REPRESENTATION_CONTEXT(3)
GLOBAL_UNCERTAINTY_ASSIGNED_CONTEXT((#422))
GLOBAL_UNIT_ASSIGNED_CONTEXT((#429,#431,#432))
REPRESENTATION_CONTEXT('','3D')
);
#427=(
GEOMETRIC_REPRESENTATION_CONTEXT(3)
GLOBAL_UNCERTAINTY_ASSIGNED_CONTEXT((#423))
GLOBAL_UNIT_ASSIGNED_CONTEXT((#429,#431,#432))
REPRESENTATION_CONTEXT('','3D')
);
#428=(
GEOMETRIC_REPRESENTATION_CONTEXT(3)
GLOBAL_UNCERTAINTY_ASSIGNED_CONTEXT((#424))
GLOBAL_UNIT_ASSIGNED_CONTEXT((#429,#431,#432))
REPRESENTATION_CONTEXT('','3D')
);
#429=(
LENGTH_UNIT()
NAMED_UNIT(*)
SI_UNIT(.MILLI.,.METRE.)
);
#430=(
LENGTH_UNIT()
NAMED_UNIT(*)
SI_UNIT($,.METRE.)
);
#431=(
NAMED_UNIT(*)
PLANE_ANGLE_UNIT()
SI_UNIT($,.RADIAN.)
);
#432=(
NAMED_UNIT(*)
SI_UNIT($,.STERADIAN.)
SOLID_ANGLE_UNIT()
);
#433=SHAPE_DEFINITION_REPRESENTATION(#436,#441);
#434=SHAPE_DEFINITION_REPRESENTATION(#437,#442);
#435=SHAPE_DEFINITION_REPRESENTATION(#438,#443);
#436=PRODUCT_DEFINITION_SHAPE('',$,#445);
#437=PRODUCT_DEFINITION_SHAPE('',$,#446);
#438=PRODUCT_DEFINITION_SHAPE('',$,#447);
#439=PRODUCT_DEFINITION_SHAPE($,$,#17);
#440=PRODUCT_DEFINITION_SHAPE($,$,#18);
#441=SHAPE_REPRESENTATION('',(#261,#284,#285),#425);
#442=SHAPE_REPRESENTATION('',(#262),#426);
#443=SHAPE_REPRESENTATION('',(#274),#427);
#444=PRODUCT_DEFINITION_CONTEXT('part definition',#455,'design');
#445=PRODUCT_DEFINITION('2026-07-26-23-05-58-167',
'card-dispenser-shaft',#448,#444);
#446=PRODUCT_DEFINITION('2026-07-27-03-40-20-627','Component1',#449,#444);
#447=PRODUCT_DEFINITION('2026-07-27-03-40-25-472','Component2',#450,#444);
#448=PRODUCT_DEFINITION_FORMATION('',$,#457);
#449=PRODUCT_DEFINITION_FORMATION('',$,#458);
#450=PRODUCT_DEFINITION_FORMATION('',$,#459);
#451=PRODUCT_RELATED_PRODUCT_CATEGORY('card-dispenser-shaft',
'card-dispenser-shaft',(#457));
#452=PRODUCT_RELATED_PRODUCT_CATEGORY('Component1','Component1',(#458));
#453=PRODUCT_RELATED_PRODUCT_CATEGORY('Component2','Component2',(#459));
#454=APPLICATION_PROTOCOL_DEFINITION('international standard',
'automotive_design',2009,#455);
#455=APPLICATION_CONTEXT(
'Core Data for Automotive Mechanical Design Process');
#456=PRODUCT_CONTEXT('part definition',#455,'mechanical');
#457=PRODUCT('2026-07-26-23-05-58-167','card-dispenser-shaft',$,(#456));
#458=PRODUCT('2026-07-27-03-40-20-627','Component1',$,(#456));
#459=PRODUCT('2026-07-27-03-40-25-472','Component2',$,(#456));
#460=PRESENTATION_STYLE_ASSIGNMENT((#461));
#461=SURFACE_STYLE_USAGE(.BOTH.,#462);
#462=SURFACE_SIDE_STYLE('',(#463));
#463=SURFACE_STYLE_FILL_AREA(#464);
#464=FILL_AREA_STYLE('Steel - Satin',(#465));
#465=FILL_AREA_STYLE_COLOUR('Steel - Satin',#466);
#466=COLOUR_RGB('Steel - Satin',0.627450980392157,0.627450980392157,0.627450980392157);
ENDSEC;
END-ISO-10303-21;
