ISO-10303-21;
HEADER;
/* Generated by software containing ST-Developer
 * from STEP Tools, Inc. (www.steptools.com) 
 */

FILE_DESCRIPTION(
/* description */ (''),
/* implementation_level */ '2;1');

FILE_NAME(
/* name */ 'dispenser-gate.step',
/* time_stamp */ '2026-09-12T01:18:16-07:00',
/* author */ (''),
/* organization */ (''),
/* preprocessor_version */ 'ST-DEVELOPER v20.2',
/* originating_system */ 'Autodesk Translation Framework v15.15.0.0',
/* authorisation */ '');

FILE_SCHEMA (('AUTOMOTIVE_DESIGN { 1 0 10303 214 3 1 1 }'));
ENDSEC;

DATA;
#10=MECHANICAL_DESIGN_GEOMETRIC_PRESENTATION_REPRESENTATION('',(#13),#352);
#11=SHAPE_REPRESENTATION_RELATIONSHIP('SRR','None',#359,#12);
#12=ADVANCED_BREP_SHAPE_REPRESENTATION('',(#14),#351);
#13=STYLED_ITEM('',(#368),#14);
#14=MANIFOLD_SOLID_BREP('Body1',#208);
#15=CIRCLE('',#224,2.5);
#16=CIRCLE('',#225,2.5);
#17=CIRCLE('',#227,2.5);
#18=CIRCLE('',#228,2.5);
#19=CYLINDRICAL_SURFACE('',#223,2.5);
#20=CYLINDRICAL_SURFACE('',#226,2.5);
#21=FACE_OUTER_BOUND('',#32,.T.);
#22=FACE_OUTER_BOUND('',#33,.T.);
#23=FACE_OUTER_BOUND('',#34,.T.);
#24=FACE_OUTER_BOUND('',#35,.T.);
#25=FACE_OUTER_BOUND('',#36,.T.);
#26=FACE_OUTER_BOUND('',#37,.T.);
#27=FACE_OUTER_BOUND('',#38,.T.);
#28=FACE_OUTER_BOUND('',#39,.T.);
#29=FACE_OUTER_BOUND('',#40,.T.);
#30=FACE_OUTER_BOUND('',#41,.T.);
#31=FACE_OUTER_BOUND('',#42,.T.);
#32=EDGE_LOOP('',(#134,#135,#136,#137));
#33=EDGE_LOOP('',(#138,#139,#140,#141));
#34=EDGE_LOOP('',(#142,#143,#144,#145));
#35=EDGE_LOOP('',(#146,#147,#148,#149,#150));
#36=EDGE_LOOP('',(#151,#152,#153,#154,#155));
#37=EDGE_LOOP('',(#156,#157,#158,#159,#160,#161,#162,#163));
#38=EDGE_LOOP('',(#164,#165,#166,#167));
#39=EDGE_LOOP('',(#168,#169,#170,#171));
#40=EDGE_LOOP('',(#172,#173,#174,#175));
#41=EDGE_LOOP('',(#176,#177,#178,#179,#180,#181,#182,#183));
#42=EDGE_LOOP('',(#184,#185,#186,#187));
#43=LINE('',#296,#66);
#44=LINE('',#298,#67);
#45=LINE('',#300,#68);
#46=LINE('',#301,#69);
#47=LINE('',#307,#70);
#48=LINE('',#310,#71);
#49=LINE('',#316,#72);
#50=LINE('',#319,#73);
#51=LINE('',#321,#74);
#52=LINE('',#322,#75);
#53=LINE('',#325,#76);
#54=LINE('',#327,#77);
#55=LINE('',#328,#78);
#56=LINE('',#331,#79);
#57=LINE('',#332,#80);
#58=LINE('',#334,#81);
#59=LINE('',#335,#82);
#60=LINE('',#338,#83);
#61=LINE('',#339,#84);
#62=LINE('',#341,#85);
#63=LINE('',#344,#86);
#64=LINE('',#345,#87);
#65=LINE('',#347,#88);
#66=VECTOR('',#241,10.);
#67=VECTOR('',#242,10.);
#68=VECTOR('',#243,10.);
#69=VECTOR('',#244,10.);
#70=VECTOR('',#249,10.);
#71=VECTOR('',#252,10.);
#72=VECTOR('',#259,10.);
#73=VECTOR('',#262,10.);
#74=VECTOR('',#263,10.);
#75=VECTOR('',#264,10.);
#76=VECTOR('',#267,10.);
#77=VECTOR('',#268,10.);
#78=VECTOR('',#269,10.);
#79=VECTOR('',#272,10.);
#80=VECTOR('',#273,10.);
#81=VECTOR('',#274,10.);
#82=VECTOR('',#275,10.);
#83=VECTOR('',#278,10.);
#84=VECTOR('',#279,10.);
#85=VECTOR('',#282,10.);
#86=VECTOR('',#285,10.);
#87=VECTOR('',#286,10.);
#88=VECTOR('',#289,10.);
#89=VERTEX_POINT('',#294);
#90=VERTEX_POINT('',#295);
#91=VERTEX_POINT('',#297);
#92=VERTEX_POINT('',#299);
#93=VERTEX_POINT('',#303);
#94=VERTEX_POINT('',#304);
#95=VERTEX_POINT('',#306);
#96=VERTEX_POINT('',#308);
#97=VERTEX_POINT('',#312);
#98=VERTEX_POINT('',#314);
#99=VERTEX_POINT('',#318);
#100=VERTEX_POINT('',#320);
#101=VERTEX_POINT('',#324);
#102=VERTEX_POINT('',#326);
#103=VERTEX_POINT('',#330);
#104=VERTEX_POINT('',#333);
#105=VERTEX_POINT('',#337);
#106=VERTEX_POINT('',#343);
#107=EDGE_CURVE('',#89,#90,#43,.T.);
#108=EDGE_CURVE('',#90,#91,#44,.T.);
#109=EDGE_CURVE('',#91,#92,#45,.T.);
#110=EDGE_CURVE('',#92,#89,#46,.T.);
#111=EDGE_CURVE('',#93,#94,#15,.F.);
#112=EDGE_CURVE('',#95,#94,#47,.T.);
#113=EDGE_CURVE('',#95,#96,#16,.F.);
#114=EDGE_CURVE('',#96,#93,#48,.T.);
#115=EDGE_CURVE('',#97,#95,#17,.F.);
#116=EDGE_CURVE('',#94,#98,#18,.F.);
#117=EDGE_CURVE('',#98,#97,#49,.T.);
#118=EDGE_CURVE('',#99,#97,#50,.T.);
#119=EDGE_CURVE('',#100,#99,#51,.T.);
#120=EDGE_CURVE('',#96,#100,#52,.T.);
#121=EDGE_CURVE('',#98,#101,#53,.T.);
#122=EDGE_CURVE('',#102,#93,#54,.T.);
#123=EDGE_CURVE('',#101,#102,#55,.T.);
#124=EDGE_CURVE('',#100,#103,#56,.T.);
#125=EDGE_CURVE('',#103,#92,#57,.T.);
#126=EDGE_CURVE('',#104,#91,#58,.T.);
#127=EDGE_CURVE('',#104,#102,#59,.T.);
#128=EDGE_CURVE('',#105,#99,#60,.T.);
#129=EDGE_CURVE('',#105,#103,#61,.T.);
#130=EDGE_CURVE('',#105,#89,#62,.T.);
#131=EDGE_CURVE('',#106,#104,#63,.T.);
#132=EDGE_CURVE('',#106,#90,#64,.T.);
#133=EDGE_CURVE('',#101,#106,#65,.T.);
#134=ORIENTED_EDGE('',*,*,#107,.T.);
#135=ORIENTED_EDGE('',*,*,#108,.T.);
#136=ORIENTED_EDGE('',*,*,#109,.T.);
#137=ORIENTED_EDGE('',*,*,#110,.T.);
#138=ORIENTED_EDGE('',*,*,#111,.T.);
#139=ORIENTED_EDGE('',*,*,#112,.F.);
#140=ORIENTED_EDGE('',*,*,#113,.T.);
#141=ORIENTED_EDGE('',*,*,#114,.T.);
#142=ORIENTED_EDGE('',*,*,#115,.T.);
#143=ORIENTED_EDGE('',*,*,#112,.T.);
#144=ORIENTED_EDGE('',*,*,#116,.T.);
#145=ORIENTED_EDGE('',*,*,#117,.T.);
#146=ORIENTED_EDGE('',*,*,#118,.F.);
#147=ORIENTED_EDGE('',*,*,#119,.F.);
#148=ORIENTED_EDGE('',*,*,#120,.F.);
#149=ORIENTED_EDGE('',*,*,#113,.F.);
#150=ORIENTED_EDGE('',*,*,#115,.F.);
#151=ORIENTED_EDGE('',*,*,#121,.F.);
#152=ORIENTED_EDGE('',*,*,#116,.F.);
#153=ORIENTED_EDGE('',*,*,#111,.F.);
#154=ORIENTED_EDGE('',*,*,#122,.F.);
#155=ORIENTED_EDGE('',*,*,#123,.F.);
#156=ORIENTED_EDGE('',*,*,#120,.T.);
#157=ORIENTED_EDGE('',*,*,#124,.T.);
#158=ORIENTED_EDGE('',*,*,#125,.T.);
#159=ORIENTED_EDGE('',*,*,#109,.F.);
#160=ORIENTED_EDGE('',*,*,#126,.F.);
#161=ORIENTED_EDGE('',*,*,#127,.T.);
#162=ORIENTED_EDGE('',*,*,#122,.T.);
#163=ORIENTED_EDGE('',*,*,#114,.F.);
#164=ORIENTED_EDGE('',*,*,#119,.T.);
#165=ORIENTED_EDGE('',*,*,#128,.F.);
#166=ORIENTED_EDGE('',*,*,#129,.T.);
#167=ORIENTED_EDGE('',*,*,#124,.F.);
#168=ORIENTED_EDGE('',*,*,#129,.F.);
#169=ORIENTED_EDGE('',*,*,#130,.T.);
#170=ORIENTED_EDGE('',*,*,#110,.F.);
#171=ORIENTED_EDGE('',*,*,#125,.F.);
#172=ORIENTED_EDGE('',*,*,#131,.T.);
#173=ORIENTED_EDGE('',*,*,#126,.T.);
#174=ORIENTED_EDGE('',*,*,#108,.F.);
#175=ORIENTED_EDGE('',*,*,#132,.F.);
#176=ORIENTED_EDGE('',*,*,#121,.T.);
#177=ORIENTED_EDGE('',*,*,#133,.T.);
#178=ORIENTED_EDGE('',*,*,#132,.T.);
#179=ORIENTED_EDGE('',*,*,#107,.F.);
#180=ORIENTED_EDGE('',*,*,#130,.F.);
#181=ORIENTED_EDGE('',*,*,#128,.T.);
#182=ORIENTED_EDGE('',*,*,#118,.T.);
#183=ORIENTED_EDGE('',*,*,#117,.F.);
#184=ORIENTED_EDGE('',*,*,#123,.T.);
#185=ORIENTED_EDGE('',*,*,#127,.F.);
#186=ORIENTED_EDGE('',*,*,#131,.F.);
#187=ORIENTED_EDGE('',*,*,#133,.F.);
#188=PLANE('',#222);
#189=PLANE('',#229);
#190=PLANE('',#230);
#191=PLANE('',#231);
#192=PLANE('',#232);
#193=PLANE('',#233);
#194=PLANE('',#234);
#195=PLANE('',#235);
#196=PLANE('',#236);
#197=ADVANCED_FACE('',(#21),#188,.T.);
#198=ADVANCED_FACE('',(#22),#19,.T.);
#199=ADVANCED_FACE('',(#23),#20,.T.);
#200=ADVANCED_FACE('',(#24),#189,.F.);
#201=ADVANCED_FACE('',(#25),#190,.F.);
#202=ADVANCED_FACE('',(#26),#191,.T.);
#203=ADVANCED_FACE('',(#27),#192,.F.);
#204=ADVANCED_FACE('',(#28),#193,.T.);
#205=ADVANCED_FACE('',(#29),#194,.T.);
#206=ADVANCED_FACE('',(#30),#195,.T.);
#207=ADVANCED_FACE('',(#31),#196,.F.);
#208=CLOSED_SHELL('',(#197,#198,#199,#200,#201,#202,#203,#204,#205,#206,
#207));
#209=DERIVED_UNIT_ELEMENT(#211,1.);
#210=DERIVED_UNIT_ELEMENT(#354,-3.);
#211=(
MASS_UNIT()
NAMED_UNIT(*)
SI_UNIT(.KILO.,.GRAM.)
);
#212=DERIVED_UNIT((#209,#210));
#213=MEASURE_REPRESENTATION_ITEM('density measure',
POSITIVE_RATIO_MEASURE(7850.),#212);
#214=PROPERTY_DEFINITION_REPRESENTATION(#219,#216);
#215=PROPERTY_DEFINITION_REPRESENTATION(#220,#217);
#216=REPRESENTATION('material name',(#218),#351);
#217=REPRESENTATION('density',(#213),#351);
#218=DESCRIPTIVE_REPRESENTATION_ITEM('Steel','Steel');
#219=PROPERTY_DEFINITION('material property','material name',#361);
#220=PROPERTY_DEFINITION('material property','density of part',#361);
#221=AXIS2_PLACEMENT_3D('',#292,#237,#238);
#222=AXIS2_PLACEMENT_3D('',#293,#239,#240);
#223=AXIS2_PLACEMENT_3D('',#302,#245,#246);
#224=AXIS2_PLACEMENT_3D('',#305,#247,#248);
#225=AXIS2_PLACEMENT_3D('',#309,#250,#251);
#226=AXIS2_PLACEMENT_3D('',#311,#253,#254);
#227=AXIS2_PLACEMENT_3D('',#313,#255,#256);
#228=AXIS2_PLACEMENT_3D('',#315,#257,#258);
#229=AXIS2_PLACEMENT_3D('',#317,#260,#261);
#230=AXIS2_PLACEMENT_3D('',#323,#265,#266);
#231=AXIS2_PLACEMENT_3D('',#329,#270,#271);
#232=AXIS2_PLACEMENT_3D('',#336,#276,#277);
#233=AXIS2_PLACEMENT_3D('',#340,#280,#281);
#234=AXIS2_PLACEMENT_3D('',#342,#283,#284);
#235=AXIS2_PLACEMENT_3D('',#346,#287,#288);
#236=AXIS2_PLACEMENT_3D('',#348,#290,#291);
#237=DIRECTION('axis',(0.,0.,1.));
#238=DIRECTION('refdir',(1.,0.,0.));
#239=DIRECTION('center_axis',(0.,0.,1.));
#240=DIRECTION('ref_axis',(1.,0.,0.));
#241=DIRECTION('',(1.,0.,0.));
#242=DIRECTION('',(0.,1.,0.));
#243=DIRECTION('',(-1.,0.,0.));
#244=DIRECTION('',(0.,-1.,0.));
#245=DIRECTION('center_axis',(-1.,0.,0.));
#246=DIRECTION('ref_axis',(0.,0.707106781186547,-0.707106781186547));
#247=DIRECTION('center_axis',(1.,0.,0.));
#248=DIRECTION('ref_axis',(0.,0.707106781186547,-0.707106781186547));
#249=DIRECTION('',(1.,0.,0.));
#250=DIRECTION('center_axis',(-1.,0.,0.));
#251=DIRECTION('ref_axis',(0.,0.707106781186547,-0.707106781186547));
#252=DIRECTION('',(1.,0.,0.));
#253=DIRECTION('center_axis',(1.,0.,0.));
#254=DIRECTION('ref_axis',(0.,-0.707106781186547,-0.707106781186547));
#255=DIRECTION('center_axis',(-1.,0.,0.));
#256=DIRECTION('ref_axis',(0.,-0.707106781186547,-0.707106781186547));
#257=DIRECTION('center_axis',(1.,0.,0.));
#258=DIRECTION('ref_axis',(0.,-0.707106781186547,-0.707106781186547));
#259=DIRECTION('',(-1.,0.,0.));
#260=DIRECTION('center_axis',(-1.,0.,0.));
#261=DIRECTION('ref_axis',(0.,0.,1.));
#262=DIRECTION('',(0.,0.,1.));
#263=DIRECTION('',(0.,-1.,0.));
#264=DIRECTION('',(0.,0.,-1.));
#265=DIRECTION('center_axis',(1.,0.,0.));
#266=DIRECTION('ref_axis',(0.,0.,-1.));
#267=DIRECTION('',(0.,0.,-1.));
#268=DIRECTION('',(0.,0.,1.));
#269=DIRECTION('',(0.,1.,0.));
#270=DIRECTION('center_axis',(0.,1.,0.));
#271=DIRECTION('ref_axis',(-1.,0.,0.));
#272=DIRECTION('',(-1.,0.,0.));
#273=DIRECTION('',(0.,0.,1.));
#274=DIRECTION('',(0.,0.,1.));
#275=DIRECTION('',(-1.,0.,0.));
#276=DIRECTION('center_axis',(0.,0.,1.));
#277=DIRECTION('ref_axis',(1.,0.,0.));
#278=DIRECTION('',(1.,0.,0.));
#279=DIRECTION('',(0.,1.,0.));
#280=DIRECTION('center_axis',(-1.,0.,0.));
#281=DIRECTION('ref_axis',(0.,-1.,0.));
#282=DIRECTION('',(0.,0.,1.));
#283=DIRECTION('center_axis',(1.,0.,0.));
#284=DIRECTION('ref_axis',(0.,1.,0.));
#285=DIRECTION('',(0.,1.,0.));
#286=DIRECTION('',(0.,0.,1.));
#287=DIRECTION('center_axis',(0.,-1.,0.));
#288=DIRECTION('ref_axis',(1.,0.,0.));
#289=DIRECTION('',(1.,0.,0.));
#290=DIRECTION('center_axis',(0.,0.,1.));
#291=DIRECTION('ref_axis',(1.,0.,0.));
#292=CARTESIAN_POINT('',(0.,0.,0.));
#293=CARTESIAN_POINT('Origin',(40.500000603497,2.5000000372529,26.));
#294=CARTESIAN_POINT('',(0.,0.,26.));
#295=CARTESIAN_POINT('',(81.0000012069941,0.,26.));
#296=CARTESIAN_POINT('',(0.,0.,26.));
#297=CARTESIAN_POINT('',(81.0000012069941,5.00000007450581,26.));
#298=CARTESIAN_POINT('',(81.0000012069941,0.,26.));
#299=CARTESIAN_POINT('',(0.,5.00000007450581,26.));
#300=CARTESIAN_POINT('',(81.0000012069941,5.00000007450581,26.));
#301=CARTESIAN_POINT('',(0.,0.,26.));
#302=CARTESIAN_POINT('Origin',(43.0000011697411,2.50000007450581,7.95));
#303=CARTESIAN_POINT('',(76.0000011324883,5.00000007450581,7.95));
#304=CARTESIAN_POINT('',(76.0000011324883,2.5,5.45));
#305=CARTESIAN_POINT('Origin',(76.0000011324883,2.50000007450581,7.95));
#306=CARTESIAN_POINT('',(5.00000113248825,2.5,5.45));
#307=CARTESIAN_POINT('',(2.50000056624412,2.5,5.45));
#308=CARTESIAN_POINT('',(5.00000113248825,5.00000007450581,7.95));
#309=CARTESIAN_POINT('Origin',(5.00000113248825,2.50000007450581,7.95));
#310=CARTESIAN_POINT('',(43.0000011697411,5.00000007450581,7.95));
#311=CARTESIAN_POINT('Origin',(2.50000056624412,2.5,7.95));
#312=CARTESIAN_POINT('',(5.00000113248825,0.,7.95));
#313=CARTESIAN_POINT('Origin',(5.00000113248825,2.5,7.95));
#314=CARTESIAN_POINT('',(76.0000011324883,0.,7.95));
#315=CARTESIAN_POINT('Origin',(76.0000011324883,2.5,7.95));
#316=CARTESIAN_POINT('',(2.50000056624412,0.,7.95));
#317=CARTESIAN_POINT('Origin',(5.00000113248825,0.,0.));
#318=CARTESIAN_POINT('',(5.00000113248825,0.,0.));
#319=CARTESIAN_POINT('',(5.00000113248825,0.,0.));
#320=CARTESIAN_POINT('',(5.00000113248825,5.,0.));
#321=CARTESIAN_POINT('',(5.00000113248825,1.25000001862645,0.));
#322=CARTESIAN_POINT('',(5.00000113248824,5.00000007450581,0.));
#323=CARTESIAN_POINT('Origin',(76.0000011324883,0.,5.45));
#324=CARTESIAN_POINT('',(76.0000011324883,0.,0.));
#325=CARTESIAN_POINT('',(76.0000011324883,0.,2.725));
#326=CARTESIAN_POINT('',(76.0000011324883,5.,0.));
#327=CARTESIAN_POINT('',(76.0000011324883,5.00000007450581,2.725));
#328=CARTESIAN_POINT('',(76.0000011324883,1.25000001862645,0.));
#329=CARTESIAN_POINT('Origin',(81.0000012069941,5.00000007450581,0.));
#330=CARTESIAN_POINT('',(0.,5.00000007450581,0.));
#331=CARTESIAN_POINT('',(81.0000012069941,5.00000007450581,0.));
#332=CARTESIAN_POINT('',(0.,5.00000007450581,0.));
#333=CARTESIAN_POINT('',(81.0000012069941,5.00000007450581,0.));
#334=CARTESIAN_POINT('',(81.0000012069941,5.00000007450581,0.));
#335=CARTESIAN_POINT('',(81.0000012069941,5.00000007450581,0.));
#336=CARTESIAN_POINT('Origin',(40.500000603497,2.5000000372529,0.));
#337=CARTESIAN_POINT('',(0.,0.,0.));
#338=CARTESIAN_POINT('',(0.,0.,0.));
#339=CARTESIAN_POINT('',(0.,0.,0.));
#340=CARTESIAN_POINT('Origin',(0.,5.00000007450581,0.));
#341=CARTESIAN_POINT('',(0.,0.,0.));
#342=CARTESIAN_POINT('Origin',(81.0000012069941,0.,0.));
#343=CARTESIAN_POINT('',(81.0000012069941,0.,0.));
#344=CARTESIAN_POINT('',(81.0000012069941,0.,0.));
#345=CARTESIAN_POINT('',(81.0000012069941,0.,0.));
#346=CARTESIAN_POINT('Origin',(0.,0.,0.));
#347=CARTESIAN_POINT('',(0.,0.,0.));
#348=CARTESIAN_POINT('Origin',(40.500000603497,2.5000000372529,0.));
#349=UNCERTAINTY_MEASURE_WITH_UNIT(LENGTH_MEASURE(0.01),#353,
'DISTANCE_ACCURACY_VALUE',
'Maximum model space distance between geometric entities at asserted c
onnectivities');
#350=UNCERTAINTY_MEASURE_WITH_UNIT(LENGTH_MEASURE(0.01),#353,
'DISTANCE_ACCURACY_VALUE',
'Maximum model space distance between geometric entities at asserted c
onnectivities');
#351=(
GEOMETRIC_REPRESENTATION_CONTEXT(3)
GLOBAL_UNCERTAINTY_ASSIGNED_CONTEXT((#349))
GLOBAL_UNIT_ASSIGNED_CONTEXT((#353,#355,#356))
REPRESENTATION_CONTEXT('','3D')
);
#352=(
GEOMETRIC_REPRESENTATION_CONTEXT(3)
GLOBAL_UNCERTAINTY_ASSIGNED_CONTEXT((#350))
GLOBAL_UNIT_ASSIGNED_CONTEXT((#353,#355,#356))
REPRESENTATION_CONTEXT('','3D')
);
#353=(
LENGTH_UNIT()
NAMED_UNIT(*)
SI_UNIT(.MILLI.,.METRE.)
);
#354=(
LENGTH_UNIT()
NAMED_UNIT(*)
SI_UNIT($,.METRE.)
);
#355=(
NAMED_UNIT(*)
PLANE_ANGLE_UNIT()
SI_UNIT($,.RADIAN.)
);
#356=(
NAMED_UNIT(*)
SI_UNIT($,.STERADIAN.)
SOLID_ANGLE_UNIT()
);
#357=SHAPE_DEFINITION_REPRESENTATION(#358,#359);
#358=PRODUCT_DEFINITION_SHAPE('',$,#361);
#359=SHAPE_REPRESENTATION('',(#221),#351);
#360=PRODUCT_DEFINITION_CONTEXT('part definition',#365,'design');
#361=PRODUCT_DEFINITION('2026-07-27-01-31-44-288','dispenser-gate',#362,
#360);
#362=PRODUCT_DEFINITION_FORMATION('',$,#367);
#363=PRODUCT_RELATED_PRODUCT_CATEGORY('dispenser-gate','dispenser-gate',
(#367));
#364=APPLICATION_PROTOCOL_DEFINITION('international standard',
'automotive_design',2009,#365);
#365=APPLICATION_CONTEXT(
'Core Data for Automotive Mechanical Design Process');
#366=PRODUCT_CONTEXT('part definition',#365,'mechanical');
#367=PRODUCT('2026-07-27-01-31-44-288','dispenser-gate',$,(#366));
#368=PRESENTATION_STYLE_ASSIGNMENT((#369));
#369=SURFACE_STYLE_USAGE(.BOTH.,#370);
#370=SURFACE_SIDE_STYLE('',(#371));
#371=SURFACE_STYLE_FILL_AREA(#372);
#372=FILL_AREA_STYLE('Steel - Satin',(#373));
#373=FILL_AREA_STYLE_COLOUR('Steel - Satin',#374);
#374=COLOUR_RGB('Steel - Satin',0.627450980392157,0.627450980392157,0.627450980392157);
ENDSEC;
END-ISO-10303-21;
