ISO-10303-21;
HEADER;
/* Generated by software containing ST-Developer
 * from STEP Tools, Inc. (www.steptools.com) 
 */

FILE_DESCRIPTION(
/* description */ (''),
/* implementation_level */ '2;1');

FILE_NAME(
/* name */ 'card-shuffler-wheels-and-shaft.step',
/* time_stamp */ '2026-08-17T15:53:04-07:00',
/* author */ (''),
/* organization */ (''),
/* preprocessor_version */ 'ST-DEVELOPER v20.1',
/* originating_system */ 'Autodesk Translation Framework v15.8.0.0',
/* authorisation */ '');

FILE_SCHEMA (('AUTOMOTIVE_DESIGN { 1 0 10303 214 3 1 1 }'));
ENDSEC;

DATA;
#10=MECHANICAL_DESIGN_GEOMETRIC_PRESENTATION_REPRESENTATION('',(#75,#76,
#77,#78,#79,#80),#1338);
#11=ITEM_DEFINED_TRANSFORMATION($,$,#792,#869);
#12=ITEM_DEFINED_TRANSFORMATION($,$,#792,#870);
#13=ITEM_DEFINED_TRANSFORMATION($,$,#780,#871);
#14=ITEM_DEFINED_TRANSFORMATION($,$,#786,#872);
#15=ITEM_DEFINED_TRANSFORMATION($,$,#792,#873);
#16=ITEM_DEFINED_TRANSFORMATION($,$,#792,#874);
#17=ITEM_DEFINED_TRANSFORMATION($,$,#841,#875);
#18=ITEM_DEFINED_TRANSFORMATION($,$,#850,#876);
#19=ITEM_DEFINED_TRANSFORMATION($,$,#859,#877);
#20=ITEM_DEFINED_TRANSFORMATION($,$,#859,#878);
#21=(
REPRESENTATION_RELATIONSHIP($,$,#1370,#1367)
REPRESENTATION_RELATIONSHIP_WITH_TRANSFORMATION(#11)
SHAPE_REPRESENTATION_RELATIONSHIP()
);
#22=(
REPRESENTATION_RELATIONSHIP($,$,#1370,#1367)
REPRESENTATION_RELATIONSHIP_WITH_TRANSFORMATION(#12)
SHAPE_REPRESENTATION_RELATIONSHIP()
);
#23=(
REPRESENTATION_RELATIONSHIP($,$,#1368,#1367)
REPRESENTATION_RELATIONSHIP_WITH_TRANSFORMATION(#13)
SHAPE_REPRESENTATION_RELATIONSHIP()
);
#24=(
REPRESENTATION_RELATIONSHIP($,$,#1369,#1367)
REPRESENTATION_RELATIONSHIP_WITH_TRANSFORMATION(#14)
SHAPE_REPRESENTATION_RELATIONSHIP()
);
#25=(
REPRESENTATION_RELATIONSHIP($,$,#1370,#1367)
REPRESENTATION_RELATIONSHIP_WITH_TRANSFORMATION(#15)
SHAPE_REPRESENTATION_RELATIONSHIP()
);
#26=(
REPRESENTATION_RELATIONSHIP($,$,#1370,#1367)
REPRESENTATION_RELATIONSHIP_WITH_TRANSFORMATION(#16)
SHAPE_REPRESENTATION_RELATIONSHIP()
);
#27=(
REPRESENTATION_RELATIONSHIP($,$,#1371,#1367)
REPRESENTATION_RELATIONSHIP_WITH_TRANSFORMATION(#17)
SHAPE_REPRESENTATION_RELATIONSHIP()
);
#28=(
REPRESENTATION_RELATIONSHIP($,$,#1372,#1367)
REPRESENTATION_RELATIONSHIP_WITH_TRANSFORMATION(#18)
SHAPE_REPRESENTATION_RELATIONSHIP()
);
#29=(
REPRESENTATION_RELATIONSHIP($,$,#1373,#1367)
REPRESENTATION_RELATIONSHIP_WITH_TRANSFORMATION(#19)
SHAPE_REPRESENTATION_RELATIONSHIP()
);
#30=(
REPRESENTATION_RELATIONSHIP($,$,#1373,#1367)
REPRESENTATION_RELATIONSHIP_WITH_TRANSFORMATION(#20)
SHAPE_REPRESENTATION_RELATIONSHIP()
);
#31=CONTEXT_DEPENDENT_SHAPE_REPRESENTATION(#21,#1357);
#32=CONTEXT_DEPENDENT_SHAPE_REPRESENTATION(#22,#1358);
#33=CONTEXT_DEPENDENT_SHAPE_REPRESENTATION(#23,#1359);
#34=CONTEXT_DEPENDENT_SHAPE_REPRESENTATION(#24,#1360);
#35=CONTEXT_DEPENDENT_SHAPE_REPRESENTATION(#25,#1361);
#36=CONTEXT_DEPENDENT_SHAPE_REPRESENTATION(#26,#1362);
#37=CONTEXT_DEPENDENT_SHAPE_REPRESENTATION(#27,#1363);
#38=CONTEXT_DEPENDENT_SHAPE_REPRESENTATION(#28,#1364);
#39=CONTEXT_DEPENDENT_SHAPE_REPRESENTATION(#29,#1365);
#40=CONTEXT_DEPENDENT_SHAPE_REPRESENTATION(#30,#1366);
#41=NEXT_ASSEMBLY_USAGE_OCCURRENCE('Component2:1','Component2:1',
'Component2:1',#1375,#1378,'Component2:1');
#42=NEXT_ASSEMBLY_USAGE_OCCURRENCE('Component2:2','Component2:2',
'Component2:2',#1375,#1378,'Component2:2');
#43=NEXT_ASSEMBLY_USAGE_OCCURRENCE('Component3:1','Component3:1',
'Component3:1',#1375,#1376,'Component3:1');
#44=NEXT_ASSEMBLY_USAGE_OCCURRENCE('Component4:1','Component4:1',
'Component4:1',#1375,#1377,'Component4:1');
#45=NEXT_ASSEMBLY_USAGE_OCCURRENCE('Component2:3','Component2:3',
'Component2:3',#1375,#1378,'Component2:3');
#46=NEXT_ASSEMBLY_USAGE_OCCURRENCE('Component2:4','Component2:4',
'Component2:4',#1375,#1378,'Component2:4');
#47=NEXT_ASSEMBLY_USAGE_OCCURRENCE('Component7:1','Component7:1',
'Component7:1',#1375,#1379,'Component7:1');
#48=NEXT_ASSEMBLY_USAGE_OCCURRENCE('Component8:1','Component8:1',
'Component8:1',#1375,#1380,'Component8:1');
#49=NEXT_ASSEMBLY_USAGE_OCCURRENCE('Component9:1','Component9:1',
'Component9:1',#1375,#1381,'Component9:1');
#50=NEXT_ASSEMBLY_USAGE_OCCURRENCE('Component9:2','Component9:2',
'Component9:2',#1375,#1381,'Component9:2');
#51=CONICAL_SURFACE('',#836,3.175,0.785398163397448);
#52=CONICAL_SURFACE('',#840,3.175,0.785398163397448);
#53=FACE_BOUND('',#170,.T.);
#54=FACE_BOUND('',#182,.T.);
#55=FACE_BOUND('',#189,.T.);
#56=FACE_BOUND('',#190,.T.);
#57=FACE_BOUND('',#191,.T.);
#58=FACE_BOUND('',#201,.T.);
#59=FACE_BOUND('',#203,.T.);
#60=FACE_BOUND('',#207,.T.);
#61=FACE_BOUND('',#209,.T.);
#62=FACE_BOUND('',#214,.T.);
#63=SHAPE_REPRESENTATION_RELATIONSHIP('SRR','None',#1368,#69);
#64=SHAPE_REPRESENTATION_RELATIONSHIP('SRR','None',#1369,#70);
#65=SHAPE_REPRESENTATION_RELATIONSHIP('SRR','None',#1370,#71);
#66=SHAPE_REPRESENTATION_RELATIONSHIP('SRR','None',#1371,#72);
#67=SHAPE_REPRESENTATION_RELATIONSHIP('SRR','None',#1372,#73);
#68=SHAPE_REPRESENTATION_RELATIONSHIP('SRR','None',#1373,#74);
#69=ADVANCED_BREP_SHAPE_REPRESENTATION('',(#81),#1332);
#70=ADVANCED_BREP_SHAPE_REPRESENTATION('',(#82),#1333);
#71=ADVANCED_BREP_SHAPE_REPRESENTATION('',(#83),#1334);
#72=ADVANCED_BREP_SHAPE_REPRESENTATION('',(#84),#1335);
#73=ADVANCED_BREP_SHAPE_REPRESENTATION('',(#85),#1336);
#74=ADVANCED_BREP_SHAPE_REPRESENTATION('',(#86),#1337);
#75=STYLED_ITEM('',(#1406),#81);
#76=STYLED_ITEM('',(#1406),#82);
#77=STYLED_ITEM('',(#1406),#83);
#78=STYLED_ITEM('',(#1406),#84);
#79=STYLED_ITEM('',(#1406),#85);
#80=STYLED_ITEM('',(#1406),#86);
#81=MANIFOLD_SOLID_BREP('Body1',#706);
#82=MANIFOLD_SOLID_BREP('Body1',#707);
#83=MANIFOLD_SOLID_BREP('Body1',#708);
#84=MANIFOLD_SOLID_BREP('Body1',#709);
#85=MANIFOLD_SOLID_BREP('Body1',#710);
#86=MANIFOLD_SOLID_BREP('Body1',#711);
#87=PLANE('',#784);
#88=PLANE('',#785);
#89=PLANE('',#790);
#90=PLANE('',#791);
#91=PLANE('',#793);
#92=PLANE('',#794);
#93=PLANE('',#795);
#94=PLANE('',#798);
#95=PLANE('',#803);
#96=PLANE('',#805);
#97=PLANE('',#806);
#98=PLANE('',#807);
#99=PLANE('',#812);
#100=PLANE('',#814);
#101=PLANE('',#815);
#102=PLANE('',#816);
#103=PLANE('',#819);
#104=PLANE('',#824);
#105=PLANE('',#826);
#106=PLANE('',#827);
#107=PLANE('',#831);
#108=PLANE('',#835);
#109=PLANE('',#848);
#110=PLANE('',#849);
#111=PLANE('',#857);
#112=PLANE('',#858);
#113=PLANE('',#863);
#114=PLANE('',#867);
#115=PLANE('',#868);
#116=FACE_OUTER_BOUND('',#161,.T.);
#117=FACE_OUTER_BOUND('',#162,.T.);
#118=FACE_OUTER_BOUND('',#163,.T.);
#119=FACE_OUTER_BOUND('',#164,.T.);
#120=FACE_OUTER_BOUND('',#165,.T.);
#121=FACE_OUTER_BOUND('',#166,.T.);
#122=FACE_OUTER_BOUND('',#167,.T.);
#123=FACE_OUTER_BOUND('',#168,.T.);
#124=FACE_OUTER_BOUND('',#169,.T.);
#125=FACE_OUTER_BOUND('',#171,.T.);
#126=FACE_OUTER_BOUND('',#172,.T.);
#127=FACE_OUTER_BOUND('',#173,.T.);
#128=FACE_OUTER_BOUND('',#174,.T.);
#129=FACE_OUTER_BOUND('',#175,.T.);
#130=FACE_OUTER_BOUND('',#176,.T.);
#131=FACE_OUTER_BOUND('',#177,.T.);
#132=FACE_OUTER_BOUND('',#178,.T.);
#133=FACE_OUTER_BOUND('',#179,.T.);
#134=FACE_OUTER_BOUND('',#180,.T.);
#135=FACE_OUTER_BOUND('',#181,.T.);
#136=FACE_OUTER_BOUND('',#183,.T.);
#137=FACE_OUTER_BOUND('',#184,.T.);
#138=FACE_OUTER_BOUND('',#185,.T.);
#139=FACE_OUTER_BOUND('',#186,.T.);
#140=FACE_OUTER_BOUND('',#187,.T.);
#141=FACE_OUTER_BOUND('',#188,.T.);
#142=FACE_OUTER_BOUND('',#192,.T.);
#143=FACE_OUTER_BOUND('',#193,.T.);
#144=FACE_OUTER_BOUND('',#194,.T.);
#145=FACE_OUTER_BOUND('',#195,.T.);
#146=FACE_OUTER_BOUND('',#196,.T.);
#147=FACE_OUTER_BOUND('',#197,.T.);
#148=FACE_OUTER_BOUND('',#198,.T.);
#149=FACE_OUTER_BOUND('',#199,.T.);
#150=FACE_OUTER_BOUND('',#200,.T.);
#151=FACE_OUTER_BOUND('',#202,.T.);
#152=FACE_OUTER_BOUND('',#204,.T.);
#153=FACE_OUTER_BOUND('',#205,.T.);
#154=FACE_OUTER_BOUND('',#206,.T.);
#155=FACE_OUTER_BOUND('',#208,.T.);
#156=FACE_OUTER_BOUND('',#210,.T.);
#157=FACE_OUTER_BOUND('',#211,.T.);
#158=FACE_OUTER_BOUND('',#212,.T.);
#159=FACE_OUTER_BOUND('',#213,.T.);
#160=FACE_OUTER_BOUND('',#215,.T.);
#161=EDGE_LOOP('',(#481,#482,#483,#484));
#162=EDGE_LOOP('',(#485));
#163=EDGE_LOOP('',(#486));
#164=EDGE_LOOP('',(#487,#488,#489,#490));
#165=EDGE_LOOP('',(#491));
#166=EDGE_LOOP('',(#492));
#167=EDGE_LOOP('',(#493,#494,#495,#496));
#168=EDGE_LOOP('',(#497,#498,#499,#500));
#169=EDGE_LOOP('',(#501));
#170=EDGE_LOOP('',(#502));
#171=EDGE_LOOP('',(#503,#504,#505,#506));
#172=EDGE_LOOP('',(#507,#508,#509,#510));
#173=EDGE_LOOP('',(#511,#512,#513,#514));
#174=EDGE_LOOP('',(#515,#516,#517,#518));
#175=EDGE_LOOP('',(#519,#520,#521,#522));
#176=EDGE_LOOP('',(#523,#524,#525,#526));
#177=EDGE_LOOP('',(#527,#528,#529,#530));
#178=EDGE_LOOP('',(#531,#532,#533,#534));
#179=EDGE_LOOP('',(#535,#536,#537,#538));
#180=EDGE_LOOP('',(#539,#540,#541,#542));
#181=EDGE_LOOP('',(#543));
#182=EDGE_LOOP('',(#544));
#183=EDGE_LOOP('',(#545,#546,#547,#548));
#184=EDGE_LOOP('',(#549,#550,#551,#552));
#185=EDGE_LOOP('',(#553,#554,#555,#556));
#186=EDGE_LOOP('',(#557,#558,#559,#560));
#187=EDGE_LOOP('',(#561,#562,#563,#564));
#188=EDGE_LOOP('',(#565,#566,#567,#568,#569,#570,#571,#572,#573,#574));
#189=EDGE_LOOP('',(#575,#576,#577,#578));
#190=EDGE_LOOP('',(#579,#580,#581,#582));
#191=EDGE_LOOP('',(#583,#584,#585,#586));
#192=EDGE_LOOP('',(#587,#588,#589,#590));
#193=EDGE_LOOP('',(#591,#592,#593,#594));
#194=EDGE_LOOP('',(#595,#596,#597,#598));
#195=EDGE_LOOP('',(#599,#600,#601,#602));
#196=EDGE_LOOP('',(#603,#604,#605,#606));
#197=EDGE_LOOP('',(#607,#608,#609,#610));
#198=EDGE_LOOP('',(#611,#612,#613,#614));
#199=EDGE_LOOP('',(#615,#616,#617,#618));
#200=EDGE_LOOP('',(#619));
#201=EDGE_LOOP('',(#620));
#202=EDGE_LOOP('',(#621));
#203=EDGE_LOOP('',(#622));
#204=EDGE_LOOP('',(#623,#624,#625,#626));
#205=EDGE_LOOP('',(#627,#628,#629,#630));
#206=EDGE_LOOP('',(#631));
#207=EDGE_LOOP('',(#632));
#208=EDGE_LOOP('',(#633));
#209=EDGE_LOOP('',(#634));
#210=EDGE_LOOP('',(#635,#636,#637,#638));
#211=EDGE_LOOP('',(#639));
#212=EDGE_LOOP('',(#640,#641,#642,#643));
#213=EDGE_LOOP('',(#644));
#214=EDGE_LOOP('',(#645));
#215=EDGE_LOOP('',(#646));
#216=LINE('',#1130,#261);
#217=LINE('',#1139,#262);
#218=LINE('',#1147,#263);
#219=LINE('',#1149,#264);
#220=LINE('',#1151,#265);
#221=LINE('',#1152,#266);
#222=LINE('',#1156,#267);
#223=LINE('',#1158,#268);
#224=LINE('',#1160,#269);
#225=LINE('',#1161,#270);
#226=LINE('',#1171,#271);
#227=LINE('',#1176,#272);
#228=LINE('',#1180,#273);
#229=LINE('',#1182,#274);
#230=LINE('',#1186,#275);
#231=LINE('',#1188,#276);
#232=LINE('',#1190,#277);
#233=LINE('',#1191,#278);
#234=LINE('',#1196,#279);
#235=LINE('',#1201,#280);
#236=LINE('',#1205,#281);
#237=LINE('',#1209,#282);
#238=LINE('',#1211,#283);
#239=LINE('',#1213,#284);
#240=LINE('',#1214,#285);
#241=LINE('',#1216,#286);
#242=LINE('',#1226,#287);
#243=LINE('',#1231,#288);
#244=LINE('',#1235,#289);
#245=LINE('',#1237,#290);
#246=LINE('',#1241,#291);
#247=LINE('',#1243,#292);
#248=LINE('',#1245,#293);
#249=LINE('',#1246,#294);
#250=LINE('',#1248,#295);
#251=LINE('',#1249,#296);
#252=LINE('',#1259,#297);
#253=LINE('',#1263,#298);
#254=LINE('',#1266,#299);
#255=LINE('',#1272,#300);
#256=LINE('',#1278,#301);
#257=LINE('',#1287,#302);
#258=LINE('',#1293,#303);
#259=LINE('',#1302,#304);
#260=LINE('',#1309,#305);
#261=VECTOR('',#887,2.8);
#262=VECTOR('',#900,2.8);
#263=VECTOR('',#911,10.);
#264=VECTOR('',#912,10.);
#265=VECTOR('',#913,10.);
#266=VECTOR('',#914,10.);
#267=VECTOR('',#917,10.);
#268=VECTOR('',#918,10.);
#269=VECTOR('',#919,10.);
#270=VECTOR('',#920,10.);
#271=VECTOR('',#931,10.);
#272=VECTOR('',#938,10.);
#273=VECTOR('',#943,10.);
#274=VECTOR('',#946,10.);
#275=VECTOR('',#949,10.);
#276=VECTOR('',#950,10.);
#277=VECTOR('',#951,10.);
#278=VECTOR('',#952,10.);
#279=VECTOR('',#957,10.);
#280=VECTOR('',#964,10.);
#281=VECTOR('',#969,10.);
#282=VECTOR('',#972,10.);
#283=VECTOR('',#973,10.);
#284=VECTOR('',#974,10.);
#285=VECTOR('',#975,10.);
#286=VECTOR('',#978,10.);
#287=VECTOR('',#989,10.);
#288=VECTOR('',#996,10.);
#289=VECTOR('',#1001,10.);
#290=VECTOR('',#1004,10.);
#291=VECTOR('',#1007,10.);
#292=VECTOR('',#1008,10.);
#293=VECTOR('',#1009,10.);
#294=VECTOR('',#1010,10.);
#295=VECTOR('',#1013,7.);
#296=VECTOR('',#1014,7.);
#297=VECTOR('',#1031,3.175);
#298=VECTOR('',#1036,2.925);
#299=VECTOR('',#1041,3.175);
#300=VECTOR('',#1048,2.925);
#301=VECTOR('',#1055,5.00000007450581);
#302=VECTOR('',#1068,2.925);
#303=VECTOR('',#1075,5.00000007450581);
#304=VECTOR('',#1088,2.75);
#305=VECTOR('',#1097,3.5);
#306=CIRCLE('',#782,2.8);
#307=CIRCLE('',#783,2.8);
#308=CIRCLE('',#788,2.8);
#309=CIRCLE('',#789,2.8);
#310=CIRCLE('',#796,7.);
#311=CIRCLE('',#797,3.425);
#312=CIRCLE('',#799,6.);
#313=CIRCLE('',#800,7.);
#314=CIRCLE('',#802,6.);
#315=CIRCLE('',#804,7.);
#316=CIRCLE('',#808,6.);
#317=CIRCLE('',#809,7.);
#318=CIRCLE('',#811,6.);
#319=CIRCLE('',#813,7.);
#320=CIRCLE('',#817,7.);
#321=CIRCLE('',#818,3.425);
#322=CIRCLE('',#820,6.);
#323=CIRCLE('',#821,7.);
#324=CIRCLE('',#823,6.);
#325=CIRCLE('',#825,7.);
#326=CIRCLE('',#829,7.);
#327=CIRCLE('',#830,7.);
#328=CIRCLE('',#832,6.);
#329=CIRCLE('',#834,6.);
#330=CIRCLE('',#837,2.925);
#331=CIRCLE('',#839,2.925);
#332=CIRCLE('',#843,2.925);
#333=CIRCLE('',#844,2.925);
#334=CIRCLE('',#846,5.00000007450581);
#335=CIRCLE('',#847,5.00000007450581);
#336=CIRCLE('',#852,2.925);
#337=CIRCLE('',#853,2.925);
#338=CIRCLE('',#855,5.00000007450581);
#339=CIRCLE('',#856,5.00000007450581);
#340=CIRCLE('',#861,2.75);
#341=CIRCLE('',#862,2.75);
#342=CIRCLE('',#865,3.5);
#343=CIRCLE('',#866,3.5);
#344=VERTEX_POINT('',#1127);
#345=VERTEX_POINT('',#1129);
#346=VERTEX_POINT('',#1136);
#347=VERTEX_POINT('',#1138);
#348=VERTEX_POINT('',#1145);
#349=VERTEX_POINT('',#1146);
#350=VERTEX_POINT('',#1148);
#351=VERTEX_POINT('',#1150);
#352=VERTEX_POINT('',#1154);
#353=VERTEX_POINT('',#1155);
#354=VERTEX_POINT('',#1157);
#355=VERTEX_POINT('',#1159);
#356=VERTEX_POINT('',#1163);
#357=VERTEX_POINT('',#1165);
#358=VERTEX_POINT('',#1168);
#359=VERTEX_POINT('',#1170);
#360=VERTEX_POINT('',#1174);
#361=VERTEX_POINT('',#1178);
#362=VERTEX_POINT('',#1184);
#363=VERTEX_POINT('',#1185);
#364=VERTEX_POINT('',#1187);
#365=VERTEX_POINT('',#1189);
#366=VERTEX_POINT('',#1193);
#367=VERTEX_POINT('',#1195);
#368=VERTEX_POINT('',#1199);
#369=VERTEX_POINT('',#1203);
#370=VERTEX_POINT('',#1207);
#371=VERTEX_POINT('',#1208);
#372=VERTEX_POINT('',#1210);
#373=VERTEX_POINT('',#1212);
#374=VERTEX_POINT('',#1218);
#375=VERTEX_POINT('',#1220);
#376=VERTEX_POINT('',#1223);
#377=VERTEX_POINT('',#1225);
#378=VERTEX_POINT('',#1229);
#379=VERTEX_POINT('',#1233);
#380=VERTEX_POINT('',#1239);
#381=VERTEX_POINT('',#1240);
#382=VERTEX_POINT('',#1242);
#383=VERTEX_POINT('',#1244);
#384=VERTEX_POINT('',#1258);
#385=VERTEX_POINT('',#1262);
#386=VERTEX_POINT('',#1269);
#387=VERTEX_POINT('',#1271);
#388=VERTEX_POINT('',#1275);
#389=VERTEX_POINT('',#1277);
#390=VERTEX_POINT('',#1284);
#391=VERTEX_POINT('',#1286);
#392=VERTEX_POINT('',#1290);
#393=VERTEX_POINT('',#1292);
#394=VERTEX_POINT('',#1299);
#395=VERTEX_POINT('',#1301);
#396=VERTEX_POINT('',#1306);
#397=VERTEX_POINT('',#1308);
#398=EDGE_CURVE('',#344,#344,#306,.T.);
#399=EDGE_CURVE('',#344,#345,#216,.T.);
#400=EDGE_CURVE('',#345,#345,#307,.T.);
#401=EDGE_CURVE('',#346,#346,#308,.T.);
#402=EDGE_CURVE('',#346,#347,#217,.T.);
#403=EDGE_CURVE('',#347,#347,#309,.T.);
#404=EDGE_CURVE('',#348,#349,#218,.T.);
#405=EDGE_CURVE('',#350,#348,#219,.T.);
#406=EDGE_CURVE('',#351,#350,#220,.T.);
#407=EDGE_CURVE('',#349,#351,#221,.T.);
#408=EDGE_CURVE('',#352,#353,#222,.T.);
#409=EDGE_CURVE('',#352,#354,#223,.T.);
#410=EDGE_CURVE('',#355,#354,#224,.T.);
#411=EDGE_CURVE('',#353,#355,#225,.T.);
#412=EDGE_CURVE('',#356,#356,#310,.T.);
#413=EDGE_CURVE('',#357,#357,#311,.T.);
#414=EDGE_CURVE('',#358,#353,#312,.T.);
#415=EDGE_CURVE('',#358,#359,#226,.T.);
#416=EDGE_CURVE('',#359,#352,#313,.T.);
#417=EDGE_CURVE('',#355,#360,#314,.T.);
#418=EDGE_CURVE('',#360,#358,#227,.T.);
#419=EDGE_CURVE('',#354,#361,#315,.T.);
#420=EDGE_CURVE('',#361,#360,#228,.T.);
#421=EDGE_CURVE('',#359,#361,#229,.T.);
#422=EDGE_CURVE('',#362,#363,#230,.T.);
#423=EDGE_CURVE('',#362,#364,#231,.T.);
#424=EDGE_CURVE('',#365,#364,#232,.T.);
#425=EDGE_CURVE('',#363,#365,#233,.T.);
#426=EDGE_CURVE('',#366,#363,#316,.T.);
#427=EDGE_CURVE('',#366,#367,#234,.T.);
#428=EDGE_CURVE('',#367,#362,#317,.T.);
#429=EDGE_CURVE('',#365,#368,#318,.T.);
#430=EDGE_CURVE('',#368,#366,#235,.T.);
#431=EDGE_CURVE('',#364,#369,#319,.T.);
#432=EDGE_CURVE('',#369,#368,#236,.T.);
#433=EDGE_CURVE('',#370,#371,#237,.T.);
#434=EDGE_CURVE('',#372,#370,#238,.T.);
#435=EDGE_CURVE('',#373,#372,#239,.T.);
#436=EDGE_CURVE('',#373,#371,#240,.T.);
#437=EDGE_CURVE('',#367,#369,#241,.T.);
#438=EDGE_CURVE('',#374,#374,#320,.T.);
#439=EDGE_CURVE('',#375,#375,#321,.T.);
#440=EDGE_CURVE('',#376,#350,#322,.T.);
#441=EDGE_CURVE('',#376,#377,#242,.T.);
#442=EDGE_CURVE('',#377,#351,#323,.T.);
#443=EDGE_CURVE('',#348,#378,#324,.T.);
#444=EDGE_CURVE('',#378,#376,#243,.T.);
#445=EDGE_CURVE('',#349,#379,#325,.T.);
#446=EDGE_CURVE('',#379,#378,#244,.T.);
#447=EDGE_CURVE('',#379,#377,#245,.T.);
#448=EDGE_CURVE('',#380,#381,#246,.T.);
#449=EDGE_CURVE('',#382,#380,#247,.T.);
#450=EDGE_CURVE('',#383,#382,#248,.T.);
#451=EDGE_CURVE('',#381,#383,#249,.T.);
#452=EDGE_CURVE('',#356,#367,#250,.T.);
#453=EDGE_CURVE('',#369,#374,#251,.T.);
#454=EDGE_CURVE('',#382,#373,#326,.T.);
#455=EDGE_CURVE('',#371,#380,#327,.T.);
#456=EDGE_CURVE('',#370,#381,#328,.T.);
#457=EDGE_CURVE('',#383,#372,#329,.T.);
#458=EDGE_CURVE('',#375,#384,#252,.T.);
#459=EDGE_CURVE('',#384,#384,#330,.T.);
#460=EDGE_CURVE('',#384,#385,#253,.T.);
#461=EDGE_CURVE('',#385,#385,#331,.T.);
#462=EDGE_CURVE('',#357,#385,#254,.T.);
#463=EDGE_CURVE('',#386,#386,#332,.T.);
#464=EDGE_CURVE('',#386,#387,#255,.T.);
#465=EDGE_CURVE('',#387,#387,#333,.T.);
#466=EDGE_CURVE('',#388,#388,#334,.T.);
#467=EDGE_CURVE('',#388,#389,#256,.T.);
#468=EDGE_CURVE('',#389,#389,#335,.T.);
#469=EDGE_CURVE('',#390,#390,#336,.T.);
#470=EDGE_CURVE('',#390,#391,#257,.T.);
#471=EDGE_CURVE('',#391,#391,#337,.T.);
#472=EDGE_CURVE('',#392,#392,#338,.T.);
#473=EDGE_CURVE('',#392,#393,#258,.T.);
#474=EDGE_CURVE('',#393,#393,#339,.T.);
#475=EDGE_CURVE('',#394,#394,#340,.T.);
#476=EDGE_CURVE('',#394,#395,#259,.T.);
#477=EDGE_CURVE('',#395,#395,#341,.T.);
#478=EDGE_CURVE('',#396,#396,#342,.T.);
#479=EDGE_CURVE('',#396,#397,#260,.T.);
#480=EDGE_CURVE('',#397,#397,#343,.T.);
#481=ORIENTED_EDGE('',*,*,#398,.F.);
#482=ORIENTED_EDGE('',*,*,#399,.T.);
#483=ORIENTED_EDGE('',*,*,#400,.T.);
#484=ORIENTED_EDGE('',*,*,#399,.F.);
#485=ORIENTED_EDGE('',*,*,#398,.T.);
#486=ORIENTED_EDGE('',*,*,#400,.F.);
#487=ORIENTED_EDGE('',*,*,#401,.F.);
#488=ORIENTED_EDGE('',*,*,#402,.T.);
#489=ORIENTED_EDGE('',*,*,#403,.T.);
#490=ORIENTED_EDGE('',*,*,#402,.F.);
#491=ORIENTED_EDGE('',*,*,#401,.T.);
#492=ORIENTED_EDGE('',*,*,#403,.F.);
#493=ORIENTED_EDGE('',*,*,#404,.F.);
#494=ORIENTED_EDGE('',*,*,#405,.F.);
#495=ORIENTED_EDGE('',*,*,#406,.F.);
#496=ORIENTED_EDGE('',*,*,#407,.F.);
#497=ORIENTED_EDGE('',*,*,#408,.F.);
#498=ORIENTED_EDGE('',*,*,#409,.T.);
#499=ORIENTED_EDGE('',*,*,#410,.F.);
#500=ORIENTED_EDGE('',*,*,#411,.F.);
#501=ORIENTED_EDGE('',*,*,#412,.F.);
#502=ORIENTED_EDGE('',*,*,#413,.F.);
#503=ORIENTED_EDGE('',*,*,#408,.T.);
#504=ORIENTED_EDGE('',*,*,#414,.F.);
#505=ORIENTED_EDGE('',*,*,#415,.T.);
#506=ORIENTED_EDGE('',*,*,#416,.T.);
#507=ORIENTED_EDGE('',*,*,#411,.T.);
#508=ORIENTED_EDGE('',*,*,#417,.T.);
#509=ORIENTED_EDGE('',*,*,#418,.T.);
#510=ORIENTED_EDGE('',*,*,#414,.T.);
#511=ORIENTED_EDGE('',*,*,#410,.T.);
#512=ORIENTED_EDGE('',*,*,#419,.T.);
#513=ORIENTED_EDGE('',*,*,#420,.T.);
#514=ORIENTED_EDGE('',*,*,#417,.F.);
#515=ORIENTED_EDGE('',*,*,#415,.F.);
#516=ORIENTED_EDGE('',*,*,#418,.F.);
#517=ORIENTED_EDGE('',*,*,#420,.F.);
#518=ORIENTED_EDGE('',*,*,#421,.F.);
#519=ORIENTED_EDGE('',*,*,#422,.F.);
#520=ORIENTED_EDGE('',*,*,#423,.T.);
#521=ORIENTED_EDGE('',*,*,#424,.F.);
#522=ORIENTED_EDGE('',*,*,#425,.F.);
#523=ORIENTED_EDGE('',*,*,#422,.T.);
#524=ORIENTED_EDGE('',*,*,#426,.F.);
#525=ORIENTED_EDGE('',*,*,#427,.T.);
#526=ORIENTED_EDGE('',*,*,#428,.T.);
#527=ORIENTED_EDGE('',*,*,#425,.T.);
#528=ORIENTED_EDGE('',*,*,#429,.T.);
#529=ORIENTED_EDGE('',*,*,#430,.T.);
#530=ORIENTED_EDGE('',*,*,#426,.T.);
#531=ORIENTED_EDGE('',*,*,#424,.T.);
#532=ORIENTED_EDGE('',*,*,#431,.T.);
#533=ORIENTED_EDGE('',*,*,#432,.T.);
#534=ORIENTED_EDGE('',*,*,#429,.F.);
#535=ORIENTED_EDGE('',*,*,#433,.F.);
#536=ORIENTED_EDGE('',*,*,#434,.F.);
#537=ORIENTED_EDGE('',*,*,#435,.F.);
#538=ORIENTED_EDGE('',*,*,#436,.T.);
#539=ORIENTED_EDGE('',*,*,#432,.F.);
#540=ORIENTED_EDGE('',*,*,#437,.F.);
#541=ORIENTED_EDGE('',*,*,#427,.F.);
#542=ORIENTED_EDGE('',*,*,#430,.F.);
#543=ORIENTED_EDGE('',*,*,#438,.T.);
#544=ORIENTED_EDGE('',*,*,#439,.F.);
#545=ORIENTED_EDGE('',*,*,#406,.T.);
#546=ORIENTED_EDGE('',*,*,#440,.F.);
#547=ORIENTED_EDGE('',*,*,#441,.T.);
#548=ORIENTED_EDGE('',*,*,#442,.T.);
#549=ORIENTED_EDGE('',*,*,#405,.T.);
#550=ORIENTED_EDGE('',*,*,#443,.T.);
#551=ORIENTED_EDGE('',*,*,#444,.T.);
#552=ORIENTED_EDGE('',*,*,#440,.T.);
#553=ORIENTED_EDGE('',*,*,#404,.T.);
#554=ORIENTED_EDGE('',*,*,#445,.T.);
#555=ORIENTED_EDGE('',*,*,#446,.T.);
#556=ORIENTED_EDGE('',*,*,#443,.F.);
#557=ORIENTED_EDGE('',*,*,#441,.F.);
#558=ORIENTED_EDGE('',*,*,#444,.F.);
#559=ORIENTED_EDGE('',*,*,#446,.F.);
#560=ORIENTED_EDGE('',*,*,#447,.T.);
#561=ORIENTED_EDGE('',*,*,#448,.F.);
#562=ORIENTED_EDGE('',*,*,#449,.F.);
#563=ORIENTED_EDGE('',*,*,#450,.F.);
#564=ORIENTED_EDGE('',*,*,#451,.F.);
#565=ORIENTED_EDGE('',*,*,#412,.T.);
#566=ORIENTED_EDGE('',*,*,#452,.T.);
#567=ORIENTED_EDGE('',*,*,#437,.T.);
#568=ORIENTED_EDGE('',*,*,#453,.T.);
#569=ORIENTED_EDGE('',*,*,#438,.F.);
#570=ORIENTED_EDGE('',*,*,#453,.F.);
#571=ORIENTED_EDGE('',*,*,#431,.F.);
#572=ORIENTED_EDGE('',*,*,#423,.F.);
#573=ORIENTED_EDGE('',*,*,#428,.F.);
#574=ORIENTED_EDGE('',*,*,#452,.F.);
#575=ORIENTED_EDGE('',*,*,#416,.F.);
#576=ORIENTED_EDGE('',*,*,#421,.T.);
#577=ORIENTED_EDGE('',*,*,#419,.F.);
#578=ORIENTED_EDGE('',*,*,#409,.F.);
#579=ORIENTED_EDGE('',*,*,#407,.T.);
#580=ORIENTED_EDGE('',*,*,#442,.F.);
#581=ORIENTED_EDGE('',*,*,#447,.F.);
#582=ORIENTED_EDGE('',*,*,#445,.F.);
#583=ORIENTED_EDGE('',*,*,#436,.F.);
#584=ORIENTED_EDGE('',*,*,#454,.F.);
#585=ORIENTED_EDGE('',*,*,#449,.T.);
#586=ORIENTED_EDGE('',*,*,#455,.F.);
#587=ORIENTED_EDGE('',*,*,#433,.T.);
#588=ORIENTED_EDGE('',*,*,#455,.T.);
#589=ORIENTED_EDGE('',*,*,#448,.T.);
#590=ORIENTED_EDGE('',*,*,#456,.F.);
#591=ORIENTED_EDGE('',*,*,#434,.T.);
#592=ORIENTED_EDGE('',*,*,#456,.T.);
#593=ORIENTED_EDGE('',*,*,#451,.T.);
#594=ORIENTED_EDGE('',*,*,#457,.T.);
#595=ORIENTED_EDGE('',*,*,#435,.T.);
#596=ORIENTED_EDGE('',*,*,#457,.F.);
#597=ORIENTED_EDGE('',*,*,#450,.T.);
#598=ORIENTED_EDGE('',*,*,#454,.T.);
#599=ORIENTED_EDGE('',*,*,#439,.T.);
#600=ORIENTED_EDGE('',*,*,#458,.T.);
#601=ORIENTED_EDGE('',*,*,#459,.T.);
#602=ORIENTED_EDGE('',*,*,#458,.F.);
#603=ORIENTED_EDGE('',*,*,#459,.F.);
#604=ORIENTED_EDGE('',*,*,#460,.T.);
#605=ORIENTED_EDGE('',*,*,#461,.F.);
#606=ORIENTED_EDGE('',*,*,#460,.F.);
#607=ORIENTED_EDGE('',*,*,#413,.T.);
#608=ORIENTED_EDGE('',*,*,#462,.T.);
#609=ORIENTED_EDGE('',*,*,#461,.T.);
#610=ORIENTED_EDGE('',*,*,#462,.F.);
#611=ORIENTED_EDGE('',*,*,#463,.F.);
#612=ORIENTED_EDGE('',*,*,#464,.T.);
#613=ORIENTED_EDGE('',*,*,#465,.T.);
#614=ORIENTED_EDGE('',*,*,#464,.F.);
#615=ORIENTED_EDGE('',*,*,#466,.F.);
#616=ORIENTED_EDGE('',*,*,#467,.T.);
#617=ORIENTED_EDGE('',*,*,#468,.T.);
#618=ORIENTED_EDGE('',*,*,#467,.F.);
#619=ORIENTED_EDGE('',*,*,#466,.T.);
#620=ORIENTED_EDGE('',*,*,#463,.T.);
#621=ORIENTED_EDGE('',*,*,#468,.F.);
#622=ORIENTED_EDGE('',*,*,#465,.F.);
#623=ORIENTED_EDGE('',*,*,#469,.F.);
#624=ORIENTED_EDGE('',*,*,#470,.T.);
#625=ORIENTED_EDGE('',*,*,#471,.T.);
#626=ORIENTED_EDGE('',*,*,#470,.F.);
#627=ORIENTED_EDGE('',*,*,#472,.F.);
#628=ORIENTED_EDGE('',*,*,#473,.T.);
#629=ORIENTED_EDGE('',*,*,#474,.T.);
#630=ORIENTED_EDGE('',*,*,#473,.F.);
#631=ORIENTED_EDGE('',*,*,#472,.T.);
#632=ORIENTED_EDGE('',*,*,#469,.T.);
#633=ORIENTED_EDGE('',*,*,#474,.F.);
#634=ORIENTED_EDGE('',*,*,#471,.F.);
#635=ORIENTED_EDGE('',*,*,#475,.F.);
#636=ORIENTED_EDGE('',*,*,#476,.T.);
#637=ORIENTED_EDGE('',*,*,#477,.F.);
#638=ORIENTED_EDGE('',*,*,#476,.F.);
#639=ORIENTED_EDGE('',*,*,#475,.T.);
#640=ORIENTED_EDGE('',*,*,#478,.F.);
#641=ORIENTED_EDGE('',*,*,#479,.T.);
#642=ORIENTED_EDGE('',*,*,#480,.T.);
#643=ORIENTED_EDGE('',*,*,#479,.F.);
#644=ORIENTED_EDGE('',*,*,#478,.T.);
#645=ORIENTED_EDGE('',*,*,#477,.T.);
#646=ORIENTED_EDGE('',*,*,#480,.F.);
#647=CYLINDRICAL_SURFACE('',#781,2.8);
#648=CYLINDRICAL_SURFACE('',#787,2.8);
#649=CYLINDRICAL_SURFACE('',#801,6.);
#650=CYLINDRICAL_SURFACE('',#810,6.);
#651=CYLINDRICAL_SURFACE('',#822,6.);
#652=CYLINDRICAL_SURFACE('',#828,7.);
#653=CYLINDRICAL_SURFACE('',#833,6.);
#654=CYLINDRICAL_SURFACE('',#838,2.925);
#655=CYLINDRICAL_SURFACE('',#842,2.925);
#656=CYLINDRICAL_SURFACE('',#845,5.00000007450581);
#657=CYLINDRICAL_SURFACE('',#851,2.925);
#658=CYLINDRICAL_SURFACE('',#854,5.00000007450581);
#659=CYLINDRICAL_SURFACE('',#860,2.75);
#660=CYLINDRICAL_SURFACE('',#864,3.5);
#661=ADVANCED_FACE('',(#116),#647,.T.);
#662=ADVANCED_FACE('',(#117),#87,.T.);
#663=ADVANCED_FACE('',(#118),#88,.F.);
#664=ADVANCED_FACE('',(#119),#648,.T.);
#665=ADVANCED_FACE('',(#120),#89,.T.);
#666=ADVANCED_FACE('',(#121),#90,.F.);
#667=ADVANCED_FACE('',(#122),#91,.T.);
#668=ADVANCED_FACE('',(#123),#92,.T.);
#669=ADVANCED_FACE('',(#124,#53),#93,.F.);
#670=ADVANCED_FACE('',(#125),#94,.T.);
#671=ADVANCED_FACE('',(#126),#649,.T.);
#672=ADVANCED_FACE('',(#127),#95,.F.);
#673=ADVANCED_FACE('',(#128),#96,.T.);
#674=ADVANCED_FACE('',(#129),#97,.T.);
#675=ADVANCED_FACE('',(#130),#98,.T.);
#676=ADVANCED_FACE('',(#131),#650,.T.);
#677=ADVANCED_FACE('',(#132),#99,.F.);
#678=ADVANCED_FACE('',(#133),#100,.T.);
#679=ADVANCED_FACE('',(#134),#101,.T.);
#680=ADVANCED_FACE('',(#135,#54),#102,.T.);
#681=ADVANCED_FACE('',(#136),#103,.F.);
#682=ADVANCED_FACE('',(#137),#651,.T.);
#683=ADVANCED_FACE('',(#138),#104,.T.);
#684=ADVANCED_FACE('',(#139),#105,.T.);
#685=ADVANCED_FACE('',(#140),#106,.T.);
#686=ADVANCED_FACE('',(#141,#55,#56,#57),#652,.T.);
#687=ADVANCED_FACE('',(#142),#107,.F.);
#688=ADVANCED_FACE('',(#143),#653,.T.);
#689=ADVANCED_FACE('',(#144),#108,.T.);
#690=ADVANCED_FACE('',(#145),#51,.F.);
#691=ADVANCED_FACE('',(#146),#654,.F.);
#692=ADVANCED_FACE('',(#147),#52,.F.);
#693=ADVANCED_FACE('',(#148),#655,.F.);
#694=ADVANCED_FACE('',(#149),#656,.T.);
#695=ADVANCED_FACE('',(#150,#58),#109,.T.);
#696=ADVANCED_FACE('',(#151,#59),#110,.F.);
#697=ADVANCED_FACE('',(#152),#657,.F.);
#698=ADVANCED_FACE('',(#153),#658,.T.);
#699=ADVANCED_FACE('',(#154,#60),#111,.T.);
#700=ADVANCED_FACE('',(#155,#61),#112,.F.);
#701=ADVANCED_FACE('',(#156),#659,.T.);
#702=ADVANCED_FACE('',(#157),#113,.T.);
#703=ADVANCED_FACE('',(#158),#660,.T.);
#704=ADVANCED_FACE('',(#159,#62),#114,.T.);
#705=ADVANCED_FACE('',(#160),#115,.F.);
#706=CLOSED_SHELL('',(#661,#662,#663));
#707=CLOSED_SHELL('',(#664,#665,#666));
#708=CLOSED_SHELL('',(#667,#668,#669,#670,#671,#672,#673,#674,#675,#676,
#677,#678,#679,#680,#681,#682,#683,#684,#685,#686,#687,#688,#689,#690,#691,
#692));
#709=CLOSED_SHELL('',(#693,#694,#695,#696));
#710=CLOSED_SHELL('',(#697,#698,#699,#700));
#711=CLOSED_SHELL('',(#701,#702,#703,#704,#705));
#712=DERIVED_UNIT_ELEMENT(#724,1.);
#713=DERIVED_UNIT_ELEMENT(#1340,-3.);
#714=DERIVED_UNIT_ELEMENT(#724,1.);
#715=DERIVED_UNIT_ELEMENT(#1340,-3.);
#716=DERIVED_UNIT_ELEMENT(#724,1.);
#717=DERIVED_UNIT_ELEMENT(#1340,-3.);
#718=DERIVED_UNIT_ELEMENT(#724,1.);
#719=DERIVED_UNIT_ELEMENT(#1340,-3.);
#720=DERIVED_UNIT_ELEMENT(#724,1.);
#721=DERIVED_UNIT_ELEMENT(#1340,-3.);
#722=DERIVED_UNIT_ELEMENT(#724,1.);
#723=DERIVED_UNIT_ELEMENT(#1340,-3.);
#724=(
MASS_UNIT()
NAMED_UNIT(*)
SI_UNIT(.KILO.,.GRAM.)
);
#725=DERIVED_UNIT((#712,#713));
#726=DERIVED_UNIT((#714,#715));
#727=DERIVED_UNIT((#716,#717));
#728=DERIVED_UNIT((#718,#719));
#729=DERIVED_UNIT((#720,#721));
#730=DERIVED_UNIT((#722,#723));
#731=MEASURE_REPRESENTATION_ITEM('density measure',
POSITIVE_RATIO_MEASURE(7850.),#725);
#732=MEASURE_REPRESENTATION_ITEM('density measure',
POSITIVE_RATIO_MEASURE(7850.),#726);
#733=MEASURE_REPRESENTATION_ITEM('density measure',
POSITIVE_RATIO_MEASURE(7850.),#727);
#734=MEASURE_REPRESENTATION_ITEM('density measure',
POSITIVE_RATIO_MEASURE(7850.),#728);
#735=MEASURE_REPRESENTATION_ITEM('density measure',
POSITIVE_RATIO_MEASURE(7850.),#729);
#736=MEASURE_REPRESENTATION_ITEM('density measure',
POSITIVE_RATIO_MEASURE(7850.),#730);
#737=PROPERTY_DEFINITION_REPRESENTATION(#767,#749);
#738=PROPERTY_DEFINITION_REPRESENTATION(#768,#750);
#739=PROPERTY_DEFINITION_REPRESENTATION(#769,#751);
#740=PROPERTY_DEFINITION_REPRESENTATION(#770,#752);
#741=PROPERTY_DEFINITION_REPRESENTATION(#771,#753);
#742=PROPERTY_DEFINITION_REPRESENTATION(#772,#754);
#743=PROPERTY_DEFINITION_REPRESENTATION(#773,#755);
#744=PROPERTY_DEFINITION_REPRESENTATION(#774,#756);
#745=PROPERTY_DEFINITION_REPRESENTATION(#775,#757);
#746=PROPERTY_DEFINITION_REPRESENTATION(#776,#758);
#747=PROPERTY_DEFINITION_REPRESENTATION(#777,#759);
#748=PROPERTY_DEFINITION_REPRESENTATION(#778,#760);
#749=REPRESENTATION('material name',(#761),#1332);
#750=REPRESENTATION('density',(#731),#1332);
#751=REPRESENTATION('material name',(#762),#1333);
#752=REPRESENTATION('density',(#732),#1333);
#753=REPRESENTATION('material name',(#763),#1334);
#754=REPRESENTATION('density',(#733),#1334);
#755=REPRESENTATION('material name',(#764),#1335);
#756=REPRESENTATION('density',(#734),#1335);
#757=REPRESENTATION('material name',(#765),#1336);
#758=REPRESENTATION('density',(#735),#1336);
#759=REPRESENTATION('material name',(#766),#1337);
#760=REPRESENTATION('density',(#736),#1337);
#761=DESCRIPTIVE_REPRESENTATION_ITEM('Steel','Steel');
#762=DESCRIPTIVE_REPRESENTATION_ITEM('Steel','Steel');
#763=DESCRIPTIVE_REPRESENTATION_ITEM('Steel','Steel');
#764=DESCRIPTIVE_REPRESENTATION_ITEM('Steel','Steel');
#765=DESCRIPTIVE_REPRESENTATION_ITEM('Steel','Steel');
#766=DESCRIPTIVE_REPRESENTATION_ITEM('Steel','Steel');
#767=PROPERTY_DEFINITION('material property','material name',#1376);
#768=PROPERTY_DEFINITION('material property','density of part',#1376);
#769=PROPERTY_DEFINITION('material property','material name',#1377);
#770=PROPERTY_DEFINITION('material property','density of part',#1377);
#771=PROPERTY_DEFINITION('material property','material name',#1378);
#772=PROPERTY_DEFINITION('material property','density of part',#1378);
#773=PROPERTY_DEFINITION('material property','material name',#1379);
#774=PROPERTY_DEFINITION('material property','density of part',#1379);
#775=PROPERTY_DEFINITION('material property','material name',#1380);
#776=PROPERTY_DEFINITION('material property','density of part',#1380);
#777=PROPERTY_DEFINITION('material property','material name',#1381);
#778=PROPERTY_DEFINITION('material property','density of part',#1381);
#779=AXIS2_PLACEMENT_3D('',#1124,#879,#880);
#780=AXIS2_PLACEMENT_3D('',#1125,#881,#882);
#781=AXIS2_PLACEMENT_3D('',#1126,#883,#884);
#782=AXIS2_PLACEMENT_3D('',#1128,#885,#886);
#783=AXIS2_PLACEMENT_3D('',#1131,#888,#889);
#784=AXIS2_PLACEMENT_3D('',#1132,#890,#891);
#785=AXIS2_PLACEMENT_3D('',#1133,#892,#893);
#786=AXIS2_PLACEMENT_3D('',#1134,#894,#895);
#787=AXIS2_PLACEMENT_3D('',#1135,#896,#897);
#788=AXIS2_PLACEMENT_3D('',#1137,#898,#899);
#789=AXIS2_PLACEMENT_3D('',#1140,#901,#902);
#790=AXIS2_PLACEMENT_3D('',#1141,#903,#904);
#791=AXIS2_PLACEMENT_3D('',#1142,#905,#906);
#792=AXIS2_PLACEMENT_3D('',#1143,#907,#908);
#793=AXIS2_PLACEMENT_3D('',#1144,#909,#910);
#794=AXIS2_PLACEMENT_3D('',#1153,#915,#916);
#795=AXIS2_PLACEMENT_3D('',#1162,#921,#922);
#796=AXIS2_PLACEMENT_3D('',#1164,#923,#924);
#797=AXIS2_PLACEMENT_3D('',#1166,#925,#926);
#798=AXIS2_PLACEMENT_3D('',#1167,#927,#928);
#799=AXIS2_PLACEMENT_3D('',#1169,#929,#930);
#800=AXIS2_PLACEMENT_3D('',#1172,#932,#933);
#801=AXIS2_PLACEMENT_3D('',#1173,#934,#935);
#802=AXIS2_PLACEMENT_3D('',#1175,#936,#937);
#803=AXIS2_PLACEMENT_3D('',#1177,#939,#940);
#804=AXIS2_PLACEMENT_3D('',#1179,#941,#942);
#805=AXIS2_PLACEMENT_3D('',#1181,#944,#945);
#806=AXIS2_PLACEMENT_3D('',#1183,#947,#948);
#807=AXIS2_PLACEMENT_3D('',#1192,#953,#954);
#808=AXIS2_PLACEMENT_3D('',#1194,#955,#956);
#809=AXIS2_PLACEMENT_3D('',#1197,#958,#959);
#810=AXIS2_PLACEMENT_3D('',#1198,#960,#961);
#811=AXIS2_PLACEMENT_3D('',#1200,#962,#963);
#812=AXIS2_PLACEMENT_3D('',#1202,#965,#966);
#813=AXIS2_PLACEMENT_3D('',#1204,#967,#968);
#814=AXIS2_PLACEMENT_3D('',#1206,#970,#971);
#815=AXIS2_PLACEMENT_3D('',#1215,#976,#977);
#816=AXIS2_PLACEMENT_3D('',#1217,#979,#980);
#817=AXIS2_PLACEMENT_3D('',#1219,#981,#982);
#818=AXIS2_PLACEMENT_3D('',#1221,#983,#984);
#819=AXIS2_PLACEMENT_3D('',#1222,#985,#986);
#820=AXIS2_PLACEMENT_3D('',#1224,#987,#988);
#821=AXIS2_PLACEMENT_3D('',#1227,#990,#991);
#822=AXIS2_PLACEMENT_3D('',#1228,#992,#993);
#823=AXIS2_PLACEMENT_3D('',#1230,#994,#995);
#824=AXIS2_PLACEMENT_3D('',#1232,#997,#998);
#825=AXIS2_PLACEMENT_3D('',#1234,#999,#1000);
#826=AXIS2_PLACEMENT_3D('',#1236,#1002,#1003);
#827=AXIS2_PLACEMENT_3D('',#1238,#1005,#1006);
#828=AXIS2_PLACEMENT_3D('',#1247,#1011,#1012);
#829=AXIS2_PLACEMENT_3D('',#1250,#1015,#1016);
#830=AXIS2_PLACEMENT_3D('',#1251,#1017,#1018);
#831=AXIS2_PLACEMENT_3D('',#1252,#1019,#1020);
#832=AXIS2_PLACEMENT_3D('',#1253,#1021,#1022);
#833=AXIS2_PLACEMENT_3D('',#1254,#1023,#1024);
#834=AXIS2_PLACEMENT_3D('',#1255,#1025,#1026);
#835=AXIS2_PLACEMENT_3D('',#1256,#1027,#1028);
#836=AXIS2_PLACEMENT_3D('',#1257,#1029,#1030);
#837=AXIS2_PLACEMENT_3D('',#1260,#1032,#1033);
#838=AXIS2_PLACEMENT_3D('',#1261,#1034,#1035);
#839=AXIS2_PLACEMENT_3D('',#1264,#1037,#1038);
#840=AXIS2_PLACEMENT_3D('',#1265,#1039,#1040);
#841=AXIS2_PLACEMENT_3D('',#1267,#1042,#1043);
#842=AXIS2_PLACEMENT_3D('',#1268,#1044,#1045);
#843=AXIS2_PLACEMENT_3D('',#1270,#1046,#1047);
#844=AXIS2_PLACEMENT_3D('',#1273,#1049,#1050);
#845=AXIS2_PLACEMENT_3D('',#1274,#1051,#1052);
#846=AXIS2_PLACEMENT_3D('',#1276,#1053,#1054);
#847=AXIS2_PLACEMENT_3D('',#1279,#1056,#1057);
#848=AXIS2_PLACEMENT_3D('',#1280,#1058,#1059);
#849=AXIS2_PLACEMENT_3D('',#1281,#1060,#1061);
#850=AXIS2_PLACEMENT_3D('',#1282,#1062,#1063);
#851=AXIS2_PLACEMENT_3D('',#1283,#1064,#1065);
#852=AXIS2_PLACEMENT_3D('',#1285,#1066,#1067);
#853=AXIS2_PLACEMENT_3D('',#1288,#1069,#1070);
#854=AXIS2_PLACEMENT_3D('',#1289,#1071,#1072);
#855=AXIS2_PLACEMENT_3D('',#1291,#1073,#1074);
#856=AXIS2_PLACEMENT_3D('',#1294,#1076,#1077);
#857=AXIS2_PLACEMENT_3D('',#1295,#1078,#1079);
#858=AXIS2_PLACEMENT_3D('',#1296,#1080,#1081);
#859=AXIS2_PLACEMENT_3D('',#1297,#1082,#1083);
#860=AXIS2_PLACEMENT_3D('',#1298,#1084,#1085);
#861=AXIS2_PLACEMENT_3D('',#1300,#1086,#1087);
#862=AXIS2_PLACEMENT_3D('',#1303,#1089,#1090);
#863=AXIS2_PLACEMENT_3D('',#1304,#1091,#1092);
#864=AXIS2_PLACEMENT_3D('',#1305,#1093,#1094);
#865=AXIS2_PLACEMENT_3D('',#1307,#1095,#1096);
#866=AXIS2_PLACEMENT_3D('',#1310,#1098,#1099);
#867=AXIS2_PLACEMENT_3D('',#1311,#1100,#1101);
#868=AXIS2_PLACEMENT_3D('',#1312,#1102,#1103);
#869=AXIS2_PLACEMENT_3D('',#1313,#1104,#1105);
#870=AXIS2_PLACEMENT_3D('',#1314,#1106,#1107);
#871=AXIS2_PLACEMENT_3D('',#1315,#1108,#1109);
#872=AXIS2_PLACEMENT_3D('',#1316,#1110,#1111);
#873=AXIS2_PLACEMENT_3D('',#1317,#1112,#1113);
#874=AXIS2_PLACEMENT_3D('',#1318,#1114,#1115);
#875=AXIS2_PLACEMENT_3D('',#1319,#1116,#1117);
#876=AXIS2_PLACEMENT_3D('',#1320,#1118,#1119);
#877=AXIS2_PLACEMENT_3D('',#1321,#1120,#1121);
#878=AXIS2_PLACEMENT_3D('',#1322,#1122,#1123);
#879=DIRECTION('axis',(0.,0.,1.));
#880=DIRECTION('refdir',(1.,0.,0.));
#881=DIRECTION('axis',(0.,0.,1.));
#882=DIRECTION('refdir',(1.,0.,0.));
#883=DIRECTION('center_axis',(0.,1.,-2.22044604925031E-16));
#884=DIRECTION('ref_axis',(1.,0.,0.));
#885=DIRECTION('center_axis',(0.,1.,-2.22044604925031E-16));
#886=DIRECTION('ref_axis',(1.,0.,0.));
#887=DIRECTION('',(0.,-1.,2.22044604925031E-16));
#888=DIRECTION('center_axis',(0.,1.,-2.22044604925031E-16));
#889=DIRECTION('ref_axis',(1.,0.,0.));
#890=DIRECTION('center_axis',(0.,1.,-2.22044604925031E-16));
#891=DIRECTION('ref_axis',(1.,0.,0.));
#892=DIRECTION('center_axis',(0.,1.,-2.22044604925031E-16));
#893=DIRECTION('ref_axis',(1.,0.,0.));
#894=DIRECTION('axis',(0.,0.,1.));
#895=DIRECTION('refdir',(1.,0.,0.));
#896=DIRECTION('center_axis',(0.,1.,-2.22044604925031E-16));
#897=DIRECTION('ref_axis',(1.,0.,0.));
#898=DIRECTION('center_axis',(0.,1.,-2.22044604925031E-16));
#899=DIRECTION('ref_axis',(1.,0.,0.));
#900=DIRECTION('',(0.,-1.,2.22044604925031E-16));
#901=DIRECTION('center_axis',(0.,1.,-2.22044604925031E-16));
#902=DIRECTION('ref_axis',(1.,0.,0.));
#903=DIRECTION('center_axis',(0.,1.,-2.22044604925031E-16));
#904=DIRECTION('ref_axis',(1.,0.,0.));
#905=DIRECTION('center_axis',(0.,1.,-2.22044604925031E-16));
#906=DIRECTION('ref_axis',(1.,0.,0.));
#907=DIRECTION('axis',(0.,0.,1.));
#908=DIRECTION('refdir',(1.,0.,0.));
#909=DIRECTION('center_axis',(-1.13717202777969E-16,-1.,0.));
#910=DIRECTION('ref_axis',(1.,-1.13717202777969E-16,0.));
#911=DIRECTION('',(-1.,1.13717202777969E-16,0.));
#912=DIRECTION('',(0.,0.,-1.));
#913=DIRECTION('',(1.,-1.13717202777969E-16,0.));
#914=DIRECTION('',(0.,0.,1.));
#915=DIRECTION('center_axis',(0.40497379737232,0.91432829084626,0.));
#916=DIRECTION('ref_axis',(-0.91432829084626,0.40497379737232,0.));
#917=DIRECTION('',(0.91432829084626,-0.40497379737232,0.));
#918=DIRECTION('',(0.,0.,1.));
#919=DIRECTION('',(-0.91432829084626,0.40497379737232,0.));
#920=DIRECTION('',(0.,0.,1.));
#921=DIRECTION('center_axis',(0.,0.,1.));
#922=DIRECTION('ref_axis',(1.,0.,0.));
#923=DIRECTION('center_axis',(0.,0.,1.));
#924=DIRECTION('ref_axis',(1.,0.,0.));
#925=DIRECTION('center_axis',(0.,0.,-1.));
#926=DIRECTION('ref_axis',(-1.,0.,0.));
#927=DIRECTION('center_axis',(0.,0.,1.));
#928=DIRECTION('ref_axis',(1.,0.,0.));
#929=DIRECTION('center_axis',(0.,0.,1.));
#930=DIRECTION('ref_axis',(1.,0.,0.));
#931=DIRECTION('',(4.96013201789418E-17,1.,0.));
#932=DIRECTION('center_axis',(0.,0.,1.));
#933=DIRECTION('ref_axis',(1.,0.,0.));
#934=DIRECTION('center_axis',(0.,0.,1.));
#935=DIRECTION('ref_axis',(1.,0.,0.));
#936=DIRECTION('center_axis',(0.,0.,-1.));
#937=DIRECTION('ref_axis',(1.,0.,0.));
#938=DIRECTION('',(0.,0.,-1.));
#939=DIRECTION('center_axis',(0.,0.,1.));
#940=DIRECTION('ref_axis',(-1.,0.,0.));
#941=DIRECTION('center_axis',(0.,0.,-1.));
#942=DIRECTION('ref_axis',(-1.,0.,0.));
#943=DIRECTION('',(-4.96013201789418E-17,-1.,0.));
#944=DIRECTION('center_axis',(-1.,4.96013201789418E-17,0.));
#945=DIRECTION('ref_axis',(-4.96013201789418E-17,-1.,0.));
#946=DIRECTION('',(0.,0.,1.));
#947=DIRECTION('center_axis',(0.91432829084626,-0.40497379737232,0.));
#948=DIRECTION('ref_axis',(0.40497379737232,0.91432829084626,0.));
#949=DIRECTION('',(-0.40497379737232,-0.91432829084626,0.));
#950=DIRECTION('',(0.,0.,1.));
#951=DIRECTION('',(0.40497379737232,0.91432829084626,0.));
#952=DIRECTION('',(0.,0.,1.));
#953=DIRECTION('center_axis',(0.,0.,1.));
#954=DIRECTION('ref_axis',(1.,0.,0.));
#955=DIRECTION('center_axis',(0.,0.,1.));
#956=DIRECTION('ref_axis',(1.,0.,0.));
#957=DIRECTION('',(1.,0.,0.));
#958=DIRECTION('center_axis',(0.,0.,1.));
#959=DIRECTION('ref_axis',(1.,0.,0.));
#960=DIRECTION('center_axis',(0.,0.,1.));
#961=DIRECTION('ref_axis',(1.,0.,0.));
#962=DIRECTION('center_axis',(0.,0.,-1.));
#963=DIRECTION('ref_axis',(1.,0.,0.));
#964=DIRECTION('',(0.,0.,-1.));
#965=DIRECTION('center_axis',(0.,0.,1.));
#966=DIRECTION('ref_axis',(-1.,0.,0.));
#967=DIRECTION('center_axis',(0.,0.,-1.));
#968=DIRECTION('ref_axis',(-1.,0.,0.));
#969=DIRECTION('',(-1.,0.,0.));
#970=DIRECTION('center_axis',(-0.404973797372321,-0.91432829084626,0.));
#971=DIRECTION('ref_axis',(0.91432829084626,-0.404973797372321,0.));
#972=DIRECTION('',(0.91432829084626,-0.404973797372321,0.));
#973=DIRECTION('',(0.,0.,1.));
#974=DIRECTION('',(-0.91432829084626,0.404973797372321,0.));
#975=DIRECTION('',(0.,0.,1.));
#976=DIRECTION('center_axis',(0.,1.,0.));
#977=DIRECTION('ref_axis',(-1.,0.,0.));
#978=DIRECTION('',(0.,0.,1.));
#979=DIRECTION('center_axis',(0.,0.,1.));
#980=DIRECTION('ref_axis',(1.,0.,0.));
#981=DIRECTION('center_axis',(0.,0.,1.));
#982=DIRECTION('ref_axis',(-1.,0.,0.));
#983=DIRECTION('center_axis',(0.,0.,1.));
#984=DIRECTION('ref_axis',(-1.,0.,0.));
#985=DIRECTION('center_axis',(0.,0.,1.));
#986=DIRECTION('ref_axis',(-1.,0.,0.));
#987=DIRECTION('center_axis',(0.,0.,-1.));
#988=DIRECTION('ref_axis',(1.,0.,0.));
#989=DIRECTION('',(-0.40497379737232,-0.91432829084626,0.));
#990=DIRECTION('center_axis',(0.,0.,-1.));
#991=DIRECTION('ref_axis',(-1.,0.,0.));
#992=DIRECTION('center_axis',(0.,0.,1.));
#993=DIRECTION('ref_axis',(1.,0.,0.));
#994=DIRECTION('center_axis',(0.,0.,1.));
#995=DIRECTION('ref_axis',(1.,0.,0.));
#996=DIRECTION('',(0.,0.,1.));
#997=DIRECTION('center_axis',(0.,0.,1.));
#998=DIRECTION('ref_axis',(1.,0.,0.));
#999=DIRECTION('center_axis',(0.,0.,1.));
#1000=DIRECTION('ref_axis',(1.,0.,0.));
#1001=DIRECTION('',(0.40497379737232,0.91432829084626,0.));
#1002=DIRECTION('center_axis',(-0.91432829084626,0.40497379737232,0.));
#1003=DIRECTION('ref_axis',(-0.40497379737232,-0.91432829084626,0.));
#1004=DIRECTION('',(0.,0.,1.));
#1005=DIRECTION('center_axis',(1.,-1.93270359408497E-16,0.));
#1006=DIRECTION('ref_axis',(1.93270359408497E-16,1.,0.));
#1007=DIRECTION('',(1.93270359408497E-16,1.,0.));
#1008=DIRECTION('',(0.,0.,1.));
#1009=DIRECTION('',(-1.93270359408497E-16,-1.,0.));
#1010=DIRECTION('',(0.,0.,-1.));
#1011=DIRECTION('center_axis',(0.,0.,-1.));
#1012=DIRECTION('ref_axis',(-1.,0.,0.));
#1013=DIRECTION('',(0.,0.,1.));
#1014=DIRECTION('',(0.,0.,1.));
#1015=DIRECTION('center_axis',(0.,0.,1.));
#1016=DIRECTION('ref_axis',(1.,0.,0.));
#1017=DIRECTION('center_axis',(0.,0.,-1.));
#1018=DIRECTION('ref_axis',(-1.,0.,0.));
#1019=DIRECTION('center_axis',(0.,0.,1.));
#1020=DIRECTION('ref_axis',(-1.,0.,0.));
#1021=DIRECTION('center_axis',(0.,0.,-1.));
#1022=DIRECTION('ref_axis',(1.,0.,0.));
#1023=DIRECTION('center_axis',(0.,0.,1.));
#1024=DIRECTION('ref_axis',(1.,0.,0.));
#1025=DIRECTION('center_axis',(0.,0.,1.));
#1026=DIRECTION('ref_axis',(1.,0.,0.));
#1027=DIRECTION('center_axis',(0.,0.,1.));
#1028=DIRECTION('ref_axis',(1.,0.,0.));
#1029=DIRECTION('center_axis',(0.,0.,1.));
#1030=DIRECTION('ref_axis',(-1.,0.,0.));
#1031=DIRECTION('',(-0.707106781186547,-8.65956056235493E-17,-0.707106781186548));
#1032=DIRECTION('center_axis',(0.,0.,-1.));
#1033=DIRECTION('ref_axis',(-1.,0.,0.));
#1034=DIRECTION('center_axis',(0.,0.,-1.));
#1035=DIRECTION('ref_axis',(-1.,0.,0.));
#1036=DIRECTION('',(0.,0.,-1.));
#1037=DIRECTION('center_axis',(0.,0.,1.));
#1038=DIRECTION('ref_axis',(-1.,0.,0.));
#1039=DIRECTION('center_axis',(0.,0.,-1.));
#1040=DIRECTION('ref_axis',(-1.,0.,0.));
#1041=DIRECTION('',(-0.707106781186547,8.65956056235493E-17,0.707106781186548));
#1042=DIRECTION('axis',(0.,0.,1.));
#1043=DIRECTION('refdir',(1.,0.,0.));
#1044=DIRECTION('center_axis',(0.,0.,1.));
#1045=DIRECTION('ref_axis',(1.,0.,0.));
#1046=DIRECTION('center_axis',(0.,0.,-1.));
#1047=DIRECTION('ref_axis',(1.,0.,0.));
#1048=DIRECTION('',(0.,0.,-1.));
#1049=DIRECTION('center_axis',(0.,0.,-1.));
#1050=DIRECTION('ref_axis',(1.,0.,0.));
#1051=DIRECTION('center_axis',(0.,0.,1.));
#1052=DIRECTION('ref_axis',(1.,0.,0.));
#1053=DIRECTION('center_axis',(0.,0.,1.));
#1054=DIRECTION('ref_axis',(1.,0.,0.));
#1055=DIRECTION('',(0.,0.,-1.));
#1056=DIRECTION('center_axis',(0.,0.,1.));
#1057=DIRECTION('ref_axis',(1.,0.,0.));
#1058=DIRECTION('center_axis',(0.,0.,1.));
#1059=DIRECTION('ref_axis',(1.,0.,0.));
#1060=DIRECTION('center_axis',(0.,0.,1.));
#1061=DIRECTION('ref_axis',(1.,0.,0.));
#1062=DIRECTION('axis',(0.,0.,1.));
#1063=DIRECTION('refdir',(1.,0.,0.));
#1064=DIRECTION('center_axis',(0.,0.,1.));
#1065=DIRECTION('ref_axis',(1.,0.,0.));
#1066=DIRECTION('center_axis',(0.,0.,-1.));
#1067=DIRECTION('ref_axis',(1.,0.,0.));
#1068=DIRECTION('',(0.,0.,-1.));
#1069=DIRECTION('center_axis',(0.,0.,-1.));
#1070=DIRECTION('ref_axis',(1.,0.,0.));
#1071=DIRECTION('center_axis',(0.,0.,1.));
#1072=DIRECTION('ref_axis',(1.,0.,0.));
#1073=DIRECTION('center_axis',(0.,0.,1.));
#1074=DIRECTION('ref_axis',(1.,0.,0.));
#1075=DIRECTION('',(0.,0.,-1.));
#1076=DIRECTION('center_axis',(0.,0.,1.));
#1077=DIRECTION('ref_axis',(1.,0.,0.));
#1078=DIRECTION('center_axis',(0.,0.,1.));
#1079=DIRECTION('ref_axis',(1.,0.,0.));
#1080=DIRECTION('center_axis',(0.,0.,1.));
#1081=DIRECTION('ref_axis',(1.,0.,0.));
#1082=DIRECTION('axis',(0.,0.,1.));
#1083=DIRECTION('refdir',(1.,0.,0.));
#1084=DIRECTION('center_axis',(0.,0.,1.));
#1085=DIRECTION('ref_axis',(-1.,0.,0.));
#1086=DIRECTION('center_axis',(0.,0.,1.));
#1087=DIRECTION('ref_axis',(-1.,0.,0.));
#1088=DIRECTION('',(0.,0.,-1.));
#1089=DIRECTION('center_axis',(0.,0.,-1.));
#1090=DIRECTION('ref_axis',(-1.,0.,0.));
#1091=DIRECTION('center_axis',(0.,0.,1.));
#1092=DIRECTION('ref_axis',(-1.,0.,0.));
#1093=DIRECTION('center_axis',(0.,0.,1.));
#1094=DIRECTION('ref_axis',(1.,0.,0.));
#1095=DIRECTION('center_axis',(0.,0.,1.));
#1096=DIRECTION('ref_axis',(1.,0.,0.));
#1097=DIRECTION('',(0.,0.,-1.));
#1098=DIRECTION('center_axis',(0.,0.,1.));
#1099=DIRECTION('ref_axis',(1.,0.,0.));
#1100=DIRECTION('center_axis',(0.,0.,1.));
#1101=DIRECTION('ref_axis',(1.,0.,0.));
#1102=DIRECTION('center_axis',(0.,0.,1.));
#1103=DIRECTION('ref_axis',(1.,0.,0.));
#1104=DIRECTION('',(0.,0.,1.));
#1105=DIRECTION('',(1.,0.,0.));
#1106=DIRECTION('',(0.,0.,1.));
#1107=DIRECTION('',(1.,0.,0.));
#1108=DIRECTION('',(0.,0.,1.));
#1109=DIRECTION('',(1.,0.,0.));
#1110=DIRECTION('',(0.,0.,1.));
#1111=DIRECTION('',(1.,0.,0.));
#1112=DIRECTION('',(0.,0.,1.));
#1113=DIRECTION('',(1.,0.,0.));
#1114=DIRECTION('',(0.,0.,1.));
#1115=DIRECTION('',(1.,0.,0.));
#1116=DIRECTION('',(0.,0.,1.));
#1117=DIRECTION('',(1.,0.,0.));
#1118=DIRECTION('',(0.,0.,1.));
#1119=DIRECTION('',(1.,0.,0.));
#1120=DIRECTION('',(0.,0.,1.));
#1121=DIRECTION('',(1.,0.,0.));
#1122=DIRECTION('',(0.,0.,1.));
#1123=DIRECTION('',(1.,0.,0.));
#1124=CARTESIAN_POINT('',(0.,0.,0.));
#1125=CARTESIAN_POINT('',(0.,0.,0.));
#1126=CARTESIAN_POINT('Origin',(35.0000005215406,-45.,3.00000000000001));
#1127=CARTESIAN_POINT('',(32.2000005215406,74.,2.99999999999998));
#1128=CARTESIAN_POINT('Origin',(35.0000005215406,74.,2.99999999999998));
#1129=CARTESIAN_POINT('',(32.2000005215406,-45.,3.00000000000001));
#1130=CARTESIAN_POINT('',(32.2000005215406,-45.,3.00000000000001));
#1131=CARTESIAN_POINT('Origin',(35.0000005215406,-45.,3.00000000000001));
#1132=CARTESIAN_POINT('Origin',(35.0000005215406,74.,2.99999999999998));
#1133=CARTESIAN_POINT('Origin',(35.0000005215406,-45.,3.00000000000001));
#1134=CARTESIAN_POINT('',(0.,0.,0.));
#1135=CARTESIAN_POINT('Origin',(23.0000005215406,-45.,3.00000000000001));
#1136=CARTESIAN_POINT('',(20.2000005215406,74.,2.99999999999998));
#1137=CARTESIAN_POINT('Origin',(23.0000005215406,74.,2.99999999999998));
#1138=CARTESIAN_POINT('',(20.2000005215406,-45.,3.00000000000001));
#1139=CARTESIAN_POINT('',(20.2000005215406,-45.,3.00000000000001));
#1140=CARTESIAN_POINT('Origin',(23.0000005215406,-45.,3.00000000000001));
#1141=CARTESIAN_POINT('Origin',(23.0000005215406,74.,2.99999999999998));
#1142=CARTESIAN_POINT('Origin',(23.0000005215406,-45.,3.00000000000001));
#1143=CARTESIAN_POINT('',(0.,0.,0.));
#1144=CARTESIAN_POINT('Origin',(-7.,7.9602041944578E-16,0.));
#1145=CARTESIAN_POINT('',(-6.,6.82303216667811E-16,1.));
#1146=CARTESIAN_POINT('',(-7.,7.9602041944578E-16,1.));
#1147=CARTESIAN_POINT('',(-3.5,3.9801020972289E-16,1.));
#1148=CARTESIAN_POINT('',(-6.,6.82303216667811E-16,18.));
#1149=CARTESIAN_POINT('',(-6.,6.82303216667811E-16,0.));
#1150=CARTESIAN_POINT('',(-7.,7.9602041944578E-16,18.));
#1151=CARTESIAN_POINT('',(-3.5,3.9801020972289E-16,18.));
#1152=CARTESIAN_POINT('',(-7.,7.9602041944578E-16,0.));
#1153=CARTESIAN_POINT('Origin',(-5.48596974507756,2.42984278423392,0.));
#1154=CARTESIAN_POINT('',(-6.40029803592382,2.83481658160624,1.));
#1155=CARTESIAN_POINT('',(-5.48596974507756,2.42984278423392,1.));
#1156=CARTESIAN_POINT('',(-2.74298487253878,1.21492139211696,1.));
#1157=CARTESIAN_POINT('',(-6.40029803592382,2.83481658160624,18.));
#1158=CARTESIAN_POINT('',(-6.40029803592382,2.83481658160624,0.));
#1159=CARTESIAN_POINT('',(-5.48596974507756,2.42984278423392,18.));
#1160=CARTESIAN_POINT('',(-2.74298487253878,1.21492139211696,18.));
#1161=CARTESIAN_POINT('',(-5.48596974507756,2.42984278423392,0.));
#1162=CARTESIAN_POINT('Origin',(0.,0.,0.));
#1163=CARTESIAN_POINT('',(7.,-8.57252759403147E-16,-2.22044604925031E-15));
#1164=CARTESIAN_POINT('Origin',(0.,0.,0.));
#1165=CARTESIAN_POINT('',(3.425,-4.19441528707968E-16,0.));
#1166=CARTESIAN_POINT('Origin',(0.,0.,0.));
#1167=CARTESIAN_POINT('Origin',(0.,0.,1.));
#1168=CARTESIAN_POINT('',(2.97607921073651E-16,6.,1.));
#1169=CARTESIAN_POINT('Origin',(0.,0.,1.));
#1170=CARTESIAN_POINT('',(3.47209241252593E-16,7.,1.));
#1171=CARTESIAN_POINT('',(1.73604620626296E-16,3.5,1.));
#1172=CARTESIAN_POINT('Origin',(0.,0.,1.));
#1173=CARTESIAN_POINT('Origin',(0.,0.,0.));
#1174=CARTESIAN_POINT('',(2.97607921073651E-16,6.,18.));
#1175=CARTESIAN_POINT('Origin',(0.,0.,18.));
#1176=CARTESIAN_POINT('',(2.97607921073651E-16,6.,0.));
#1177=CARTESIAN_POINT('Origin',(0.,0.,18.));
#1178=CARTESIAN_POINT('',(3.47209241252593E-16,7.,18.));
#1179=CARTESIAN_POINT('Origin',(0.,0.,18.));
#1180=CARTESIAN_POINT('',(1.73604620626296E-16,3.5,18.));
#1181=CARTESIAN_POINT('Origin',(3.47209241252593E-16,7.,0.));
#1182=CARTESIAN_POINT('',(3.47209241252593E-16,7.,0.));
#1183=CARTESIAN_POINT('Origin',(2.42984278423392,5.48596974507756,0.));
#1184=CARTESIAN_POINT('',(2.83481658160624,6.40029803592382,1.));
#1185=CARTESIAN_POINT('',(2.42984278423392,5.48596974507756,1.));
#1186=CARTESIAN_POINT('',(1.21492139211696,2.74298487253878,1.));
#1187=CARTESIAN_POINT('',(2.83481658160624,6.40029803592382,18.));
#1188=CARTESIAN_POINT('',(2.83481658160624,6.40029803592382,0.));
#1189=CARTESIAN_POINT('',(2.42984278423392,5.48596974507756,18.));
#1190=CARTESIAN_POINT('',(1.21492139211696,2.74298487253878,18.));
#1191=CARTESIAN_POINT('',(2.42984278423392,5.48596974507756,0.));
#1192=CARTESIAN_POINT('Origin',(0.,0.,1.));
#1193=CARTESIAN_POINT('',(6.,0.,1.));
#1194=CARTESIAN_POINT('Origin',(0.,0.,1.));
#1195=CARTESIAN_POINT('',(7.,0.,1.));
#1196=CARTESIAN_POINT('',(3.5,0.,1.));
#1197=CARTESIAN_POINT('Origin',(0.,0.,1.));
#1198=CARTESIAN_POINT('Origin',(0.,0.,0.));
#1199=CARTESIAN_POINT('',(6.,0.,18.));
#1200=CARTESIAN_POINT('Origin',(0.,0.,18.));
#1201=CARTESIAN_POINT('',(6.,0.,0.));
#1202=CARTESIAN_POINT('Origin',(0.,0.,18.));
#1203=CARTESIAN_POINT('',(7.,0.,18.));
#1204=CARTESIAN_POINT('Origin',(0.,0.,18.));
#1205=CARTESIAN_POINT('',(3.5,0.,18.));
#1206=CARTESIAN_POINT('Origin',(5.48596974507756,-2.42984278423392,0.));
#1207=CARTESIAN_POINT('',(5.48596974507756,-2.42984278423392,18.));
#1208=CARTESIAN_POINT('',(6.40029803592382,-2.83481658160624,18.));
#1209=CARTESIAN_POINT('',(2.74298487253878,-1.21492139211696,18.));
#1210=CARTESIAN_POINT('',(5.48596974507756,-2.42984278423392,1.));
#1211=CARTESIAN_POINT('',(5.48596974507756,-2.42984278423392,0.));
#1212=CARTESIAN_POINT('',(6.40029803592382,-2.83481658160624,1.));
#1213=CARTESIAN_POINT('',(2.74298487253878,-1.21492139211696,1.));
#1214=CARTESIAN_POINT('',(6.40029803592382,-2.83481658160624,0.));
#1215=CARTESIAN_POINT('Origin',(7.,0.,0.));
#1216=CARTESIAN_POINT('',(7.,0.,0.));
#1217=CARTESIAN_POINT('Origin',(0.,0.,19.));
#1218=CARTESIAN_POINT('',(7.,-8.57252759403147E-16,19.));
#1219=CARTESIAN_POINT('Origin',(0.,0.,19.));
#1220=CARTESIAN_POINT('',(3.425,4.19441528707968E-16,19.));
#1221=CARTESIAN_POINT('Origin',(0.,0.,19.));
#1222=CARTESIAN_POINT('Origin',(0.,0.,18.));
#1223=CARTESIAN_POINT('',(-2.42984278423392,-5.48596974507756,18.));
#1224=CARTESIAN_POINT('Origin',(0.,0.,18.));
#1225=CARTESIAN_POINT('',(-2.83481658160624,-6.40029803592382,18.));
#1226=CARTESIAN_POINT('',(-1.21492139211696,-2.74298487253878,18.));
#1227=CARTESIAN_POINT('Origin',(0.,0.,18.));
#1228=CARTESIAN_POINT('Origin',(0.,0.,0.));
#1229=CARTESIAN_POINT('',(-2.42984278423392,-5.48596974507756,1.));
#1230=CARTESIAN_POINT('Origin',(0.,0.,1.));
#1231=CARTESIAN_POINT('',(-2.42984278423392,-5.48596974507756,0.));
#1232=CARTESIAN_POINT('Origin',(0.,0.,1.));
#1233=CARTESIAN_POINT('',(-2.83481658160624,-6.40029803592382,1.));
#1234=CARTESIAN_POINT('Origin',(0.,0.,1.));
#1235=CARTESIAN_POINT('',(-1.21492139211696,-2.74298487253878,1.));
#1236=CARTESIAN_POINT('Origin',(-2.42984278423392,-5.48596974507756,0.));
#1237=CARTESIAN_POINT('',(-2.83481658160624,-6.40029803592382,0.));
#1238=CARTESIAN_POINT('Origin',(-1.35289251585948E-15,-7.,0.));
#1239=CARTESIAN_POINT('',(-1.35289251585948E-15,-7.,18.));
#1240=CARTESIAN_POINT('',(-1.15962215645098E-15,-6.,18.));
#1241=CARTESIAN_POINT('',(-6.7644625792974E-16,-3.5,18.));
#1242=CARTESIAN_POINT('',(-1.35289251585948E-15,-7.,1.));
#1243=CARTESIAN_POINT('',(-1.35289251585948E-15,-7.,0.));
#1244=CARTESIAN_POINT('',(-1.15962215645098E-15,-6.,1.));
#1245=CARTESIAN_POINT('',(-6.7644625792974E-16,-3.5,1.));
#1246=CARTESIAN_POINT('',(-1.15962215645098E-15,-6.,0.));
#1247=CARTESIAN_POINT('Origin',(0.,0.,19.));
#1248=CARTESIAN_POINT('',(7.,-8.57252759403147E-16,19.));
#1249=CARTESIAN_POINT('',(7.,-8.57252759403147E-16,19.));
#1250=CARTESIAN_POINT('Origin',(0.,0.,1.));
#1251=CARTESIAN_POINT('Origin',(0.,0.,18.));
#1252=CARTESIAN_POINT('Origin',(0.,0.,18.));
#1253=CARTESIAN_POINT('Origin',(0.,0.,18.));
#1254=CARTESIAN_POINT('Origin',(0.,0.,0.));
#1255=CARTESIAN_POINT('Origin',(0.,0.,1.));
#1256=CARTESIAN_POINT('Origin',(0.,0.,1.));
#1257=CARTESIAN_POINT('Origin',(0.,0.,18.75));
#1258=CARTESIAN_POINT('',(2.925,-3.58209188750601E-16,18.5));
#1259=CARTESIAN_POINT('',(3.175,3.88825358729285E-16,18.75));
#1260=CARTESIAN_POINT('Origin',(0.,0.,18.5));
#1261=CARTESIAN_POINT('Origin',(0.,0.,19.));
#1262=CARTESIAN_POINT('',(2.925,3.58209188750601E-16,0.5));
#1263=CARTESIAN_POINT('',(2.925,-3.58209188750601E-16,19.));
#1264=CARTESIAN_POINT('Origin',(0.,0.,0.5));
#1265=CARTESIAN_POINT('Origin',(0.,0.,0.25));
#1266=CARTESIAN_POINT('',(3.175,-3.88825358729285E-16,0.25));
#1267=CARTESIAN_POINT('',(0.,0.,0.));
#1268=CARTESIAN_POINT('Origin',(-15.,-45.0000006705523,0.));
#1269=CARTESIAN_POINT('',(-17.925,-45.0000006705523,5.));
#1270=CARTESIAN_POINT('Origin',(-15.,-45.0000006705523,5.));
#1271=CARTESIAN_POINT('',(-17.925,-45.0000006705523,0.));
#1272=CARTESIAN_POINT('',(-17.925,-45.0000006705523,0.));
#1273=CARTESIAN_POINT('Origin',(-15.,-45.0000006705523,0.));
#1274=CARTESIAN_POINT('Origin',(-15.,-45.0000006705523,0.));
#1275=CARTESIAN_POINT('',(-20.0000000745058,-45.0000006705523,5.));
#1276=CARTESIAN_POINT('Origin',(-15.,-45.0000006705523,5.));
#1277=CARTESIAN_POINT('',(-20.0000000745058,-45.0000006705523,0.));
#1278=CARTESIAN_POINT('',(-20.0000000745058,-45.0000006705523,0.));
#1279=CARTESIAN_POINT('Origin',(-15.,-45.0000006705523,0.));
#1280=CARTESIAN_POINT('Origin',(-15.,-45.0000006705523,5.));
#1281=CARTESIAN_POINT('Origin',(-15.,-45.0000006705523,0.));
#1282=CARTESIAN_POINT('',(0.,0.,0.));
#1283=CARTESIAN_POINT('Origin',(0.,-45.0000006705523,0.));
#1284=CARTESIAN_POINT('',(-2.925,-45.0000006705523,5.));
#1285=CARTESIAN_POINT('Origin',(0.,-45.0000006705523,5.));
#1286=CARTESIAN_POINT('',(-2.925,-45.0000006705523,0.));
#1287=CARTESIAN_POINT('',(-2.925,-45.0000006705523,0.));
#1288=CARTESIAN_POINT('Origin',(0.,-45.0000006705523,0.));
#1289=CARTESIAN_POINT('Origin',(0.,-45.0000006705523,0.));
#1290=CARTESIAN_POINT('',(-5.00000007450581,-45.0000006705523,5.));
#1291=CARTESIAN_POINT('Origin',(0.,-45.0000006705523,5.));
#1292=CARTESIAN_POINT('',(-5.00000007450581,-45.0000006705523,0.));
#1293=CARTESIAN_POINT('',(-5.00000007450581,-45.0000006705523,0.));
#1294=CARTESIAN_POINT('Origin',(0.,-45.0000006705523,0.));
#1295=CARTESIAN_POINT('Origin',(0.,-45.0000006705523,5.));
#1296=CARTESIAN_POINT('Origin',(0.,-45.0000006705523,0.));
#1297=CARTESIAN_POINT('',(0.,0.,0.));
#1298=CARTESIAN_POINT('Origin',(-40.0000005960464,-45.0000006705523,1.));
#1299=CARTESIAN_POINT('',(-37.2500005960464,-45.0000006705523,21.));
#1300=CARTESIAN_POINT('Origin',(-40.0000005960464,-45.0000006705523,21.));
#1301=CARTESIAN_POINT('',(-37.2500005960464,-45.0000006705523,1.));
#1302=CARTESIAN_POINT('',(-37.2500005960464,-45.0000006705523,1.));
#1303=CARTESIAN_POINT('Origin',(-40.0000005960464,-45.0000006705523,1.));
#1304=CARTESIAN_POINT('Origin',(-40.0000005960464,-45.0000006705523,21.));
#1305=CARTESIAN_POINT('Origin',(-40.0000005960464,-45.0000006705523,0.));
#1306=CARTESIAN_POINT('',(-43.5000005960464,-45.0000006705523,1.));
#1307=CARTESIAN_POINT('Origin',(-40.0000005960464,-45.0000006705523,1.));
#1308=CARTESIAN_POINT('',(-43.5000005960464,-45.0000006705523,0.));
#1309=CARTESIAN_POINT('',(-43.5000005960464,-45.0000006705523,0.));
#1310=CARTESIAN_POINT('Origin',(-40.0000005960464,-45.0000006705523,0.));
#1311=CARTESIAN_POINT('Origin',(-40.0000005960464,-45.0000006705523,1.));
#1312=CARTESIAN_POINT('Origin',(-40.0000005960464,-45.0000006705523,0.));
#1313=CARTESIAN_POINT('',(0.,0.,0.));
#1314=CARTESIAN_POINT('',(-33.,0.,0.));
#1315=CARTESIAN_POINT('',(0.,0.,0.));
#1316=CARTESIAN_POINT('',(0.,0.,0.));
#1317=CARTESIAN_POINT('',(-34.,34.,0.));
#1318=CARTESIAN_POINT('',(2.,34.,0.));
#1319=CARTESIAN_POINT('',(0.,0.,0.));
#1320=CARTESIAN_POINT('',(0.,0.,0.));
#1321=CARTESIAN_POINT('',(0.,0.,0.));
#1322=CARTESIAN_POINT('',(11.,0.,0.));
#1323=UNCERTAINTY_MEASURE_WITH_UNIT(LENGTH_MEASURE(0.01),#1339,
'DISTANCE_ACCURACY_VALUE',
'Maximum model space distance between geometric entities at asserted c
onnectivities');
#1324=UNCERTAINTY_MEASURE_WITH_UNIT(LENGTH_MEASURE(0.01),#1339,
'DISTANCE_ACCURACY_VALUE',
'Maximum model space distance between geometric entities at asserted c
onnectivities');
#1325=UNCERTAINTY_MEASURE_WITH_UNIT(LENGTH_MEASURE(0.01),#1339,
'DISTANCE_ACCURACY_VALUE',
'Maximum model space distance between geometric entities at asserted c
onnectivities');
#1326=UNCERTAINTY_MEASURE_WITH_UNIT(LENGTH_MEASURE(0.01),#1339,
'DISTANCE_ACCURACY_VALUE',
'Maximum model space distance between geometric entities at asserted c
onnectivities');
#1327=UNCERTAINTY_MEASURE_WITH_UNIT(LENGTH_MEASURE(0.01),#1339,
'DISTANCE_ACCURACY_VALUE',
'Maximum model space distance between geometric entities at asserted c
onnectivities');
#1328=UNCERTAINTY_MEASURE_WITH_UNIT(LENGTH_MEASURE(0.01),#1339,
'DISTANCE_ACCURACY_VALUE',
'Maximum model space distance between geometric entities at asserted c
onnectivities');
#1329=UNCERTAINTY_MEASURE_WITH_UNIT(LENGTH_MEASURE(0.01),#1339,
'DISTANCE_ACCURACY_VALUE',
'Maximum model space distance between geometric entities at asserted c
onnectivities');
#1330=UNCERTAINTY_MEASURE_WITH_UNIT(LENGTH_MEASURE(0.01),#1339,
'DISTANCE_ACCURACY_VALUE',
'Maximum model space distance between geometric entities at asserted c
onnectivities');
#1331=(
GEOMETRIC_REPRESENTATION_CONTEXT(3)
GLOBAL_UNCERTAINTY_ASSIGNED_CONTEXT((#1323))
GLOBAL_UNIT_ASSIGNED_CONTEXT((#1339,#1341,#1342))
REPRESENTATION_CONTEXT('','3D')
);
#1332=(
GEOMETRIC_REPRESENTATION_CONTEXT(3)
GLOBAL_UNCERTAINTY_ASSIGNED_CONTEXT((#1324))
GLOBAL_UNIT_ASSIGNED_CONTEXT((#1339,#1341,#1342))
REPRESENTATION_CONTEXT('','3D')
);
#1333=(
GEOMETRIC_REPRESENTATION_CONTEXT(3)
GLOBAL_UNCERTAINTY_ASSIGNED_CONTEXT((#1325))
GLOBAL_UNIT_ASSIGNED_CONTEXT((#1339,#1341,#1342))
REPRESENTATION_CONTEXT('','3D')
);
#1334=(
GEOMETRIC_REPRESENTATION_CONTEXT(3)
GLOBAL_UNCERTAINTY_ASSIGNED_CONTEXT((#1326))
GLOBAL_UNIT_ASSIGNED_CONTEXT((#1339,#1341,#1342))
REPRESENTATION_CONTEXT('','3D')
);
#1335=(
GEOMETRIC_REPRESENTATION_CONTEXT(3)
GLOBAL_UNCERTAINTY_ASSIGNED_CONTEXT((#1327))
GLOBAL_UNIT_ASSIGNED_CONTEXT((#1339,#1341,#1342))
REPRESENTATION_CONTEXT('','3D')
);
#1336=(
GEOMETRIC_REPRESENTATION_CONTEXT(3)
GLOBAL_UNCERTAINTY_ASSIGNED_CONTEXT((#1328))
GLOBAL_UNIT_ASSIGNED_CONTEXT((#1339,#1341,#1342))
REPRESENTATION_CONTEXT('','3D')
);
#1337=(
GEOMETRIC_REPRESENTATION_CONTEXT(3)
GLOBAL_UNCERTAINTY_ASSIGNED_CONTEXT((#1329))
GLOBAL_UNIT_ASSIGNED_CONTEXT((#1339,#1341,#1342))
REPRESENTATION_CONTEXT('','3D')
);
#1338=(
GEOMETRIC_REPRESENTATION_CONTEXT(3)
GLOBAL_UNCERTAINTY_ASSIGNED_CONTEXT((#1330))
GLOBAL_UNIT_ASSIGNED_CONTEXT((#1339,#1341,#1342))
REPRESENTATION_CONTEXT('','3D')
);
#1339=(
LENGTH_UNIT()
NAMED_UNIT(*)
SI_UNIT(.MILLI.,.METRE.)
);
#1340=(
LENGTH_UNIT()
NAMED_UNIT(*)
SI_UNIT($,.METRE.)
);
#1341=(
NAMED_UNIT(*)
PLANE_ANGLE_UNIT()
SI_UNIT($,.RADIAN.)
);
#1342=(
NAMED_UNIT(*)
SI_UNIT($,.STERADIAN.)
SOLID_ANGLE_UNIT()
);
#1343=SHAPE_DEFINITION_REPRESENTATION(#1350,#1367);
#1344=SHAPE_DEFINITION_REPRESENTATION(#1351,#1368);
#1345=SHAPE_DEFINITION_REPRESENTATION(#1352,#1369);
#1346=SHAPE_DEFINITION_REPRESENTATION(#1353,#1370);
#1347=SHAPE_DEFINITION_REPRESENTATION(#1354,#1371);
#1348=SHAPE_DEFINITION_REPRESENTATION(#1355,#1372);
#1349=SHAPE_DEFINITION_REPRESENTATION(#1356,#1373);
#1350=PRODUCT_DEFINITION_SHAPE('',$,#1375);
#1351=PRODUCT_DEFINITION_SHAPE('',$,#1376);
#1352=PRODUCT_DEFINITION_SHAPE('',$,#1377);
#1353=PRODUCT_DEFINITION_SHAPE('',$,#1378);
#1354=PRODUCT_DEFINITION_SHAPE('',$,#1379);
#1355=PRODUCT_DEFINITION_SHAPE('',$,#1380);
#1356=PRODUCT_DEFINITION_SHAPE('',$,#1381);
#1357=PRODUCT_DEFINITION_SHAPE($,$,#41);
#1358=PRODUCT_DEFINITION_SHAPE($,$,#42);
#1359=PRODUCT_DEFINITION_SHAPE($,$,#43);
#1360=PRODUCT_DEFINITION_SHAPE($,$,#44);
#1361=PRODUCT_DEFINITION_SHAPE($,$,#45);
#1362=PRODUCT_DEFINITION_SHAPE($,$,#46);
#1363=PRODUCT_DEFINITION_SHAPE($,$,#47);
#1364=PRODUCT_DEFINITION_SHAPE($,$,#48);
#1365=PRODUCT_DEFINITION_SHAPE($,$,#49);
#1366=PRODUCT_DEFINITION_SHAPE($,$,#50);
#1367=SHAPE_REPRESENTATION('',(#779,#869,#870,#871,#872,#873,#874,#875,
#876,#877,#878),#1331);
#1368=SHAPE_REPRESENTATION('',(#780),#1332);
#1369=SHAPE_REPRESENTATION('',(#786),#1333);
#1370=SHAPE_REPRESENTATION('',(#792),#1334);
#1371=SHAPE_REPRESENTATION('',(#841),#1335);
#1372=SHAPE_REPRESENTATION('',(#850),#1336);
#1373=SHAPE_REPRESENTATION('',(#859),#1337);
#1374=PRODUCT_DEFINITION_CONTEXT('part definition',#1397,'design');
#1375=PRODUCT_DEFINITION('2026-07-30-19-48-15-416',
'card-shuffler-wheels-and-shaft',#1382,#1374);
#1376=PRODUCT_DEFINITION('2026-07-31-16-25-10-615','Component3',#1383,#1374);
#1377=PRODUCT_DEFINITION('2026-07-31-16-25-10-619','Component4',#1384,#1374);
#1378=PRODUCT_DEFINITION('2026-07-31-16-18-04-707','Component2',#1385,#1374);
#1379=PRODUCT_DEFINITION('2026-08-15-23-04-46-105','Component7',#1386,#1374);
#1380=PRODUCT_DEFINITION('2026-08-15-23-04-46-110','Component8',#1387,#1374);
#1381=PRODUCT_DEFINITION('2026-08-17-15-33-29-178','Component9',#1388,#1374);
#1382=PRODUCT_DEFINITION_FORMATION('',$,#1399);
#1383=PRODUCT_DEFINITION_FORMATION('',$,#1400);
#1384=PRODUCT_DEFINITION_FORMATION('',$,#1401);
#1385=PRODUCT_DEFINITION_FORMATION('',$,#1402);
#1386=PRODUCT_DEFINITION_FORMATION('',$,#1403);
#1387=PRODUCT_DEFINITION_FORMATION('',$,#1404);
#1388=PRODUCT_DEFINITION_FORMATION('',$,#1405);
#1389=PRODUCT_RELATED_PRODUCT_CATEGORY('card-shuffler-wheels-and-shaft',
'card-shuffler-wheels-and-shaft',(#1399));
#1390=PRODUCT_RELATED_PRODUCT_CATEGORY('Component3','Component3',(#1400));
#1391=PRODUCT_RELATED_PRODUCT_CATEGORY('Component4','Component4',(#1401));
#1392=PRODUCT_RELATED_PRODUCT_CATEGORY('Component2','Component2',(#1402));
#1393=PRODUCT_RELATED_PRODUCT_CATEGORY('Component7','Component7',(#1403));
#1394=PRODUCT_RELATED_PRODUCT_CATEGORY('Component8','Component8',(#1404));
#1395=PRODUCT_RELATED_PRODUCT_CATEGORY('Component9','Component9',(#1405));
#1396=APPLICATION_PROTOCOL_DEFINITION('international standard',
'automotive_design',2009,#1397);
#1397=APPLICATION_CONTEXT(
'Core Data for Automotive Mechanical Design Process');
#1398=PRODUCT_CONTEXT('part definition',#1397,'mechanical');
#1399=PRODUCT('2026-07-30-19-48-15-416',
'card-shuffler-wheels-and-shaft',$,(#1398));
#1400=PRODUCT('2026-07-31-16-25-10-615','Component3',$,(#1398));
#1401=PRODUCT('2026-07-31-16-25-10-619','Component4',$,(#1398));
#1402=PRODUCT('2026-07-31-16-18-04-707','Component2',$,(#1398));
#1403=PRODUCT('2026-08-15-23-04-46-105','Component7',$,(#1398));
#1404=PRODUCT('2026-08-15-23-04-46-110','Component8',$,(#1398));
#1405=PRODUCT('2026-08-17-15-33-29-178','Component9',$,(#1398));
#1406=PRESENTATION_STYLE_ASSIGNMENT((#1407));
#1407=SURFACE_STYLE_USAGE(.BOTH.,#1408);
#1408=SURFACE_SIDE_STYLE('',(#1409));
#1409=SURFACE_STYLE_FILL_AREA(#1410);
#1410=FILL_AREA_STYLE('Steel - Satin',(#1411));
#1411=FILL_AREA_STYLE_COLOUR('Steel - Satin',#1412);
#1412=COLOUR_RGB('Steel - Satin',0.627450980392157,0.627450980392157,0.627450980392157);
ENDSEC;
END-ISO-10303-21;
