ISO-10303-21;
HEADER;
/* Generated by software containing ST-Developer
 * from STEP Tools, Inc. (www.steptools.com) 
 */

FILE_DESCRIPTION(
/* description */ (''),
/* implementation_level */ '2;1');

FILE_NAME(
/* name */ 'card-shuffler-platforms.step',
/* time_stamp */ '2026-07-30T17:56:10-07:00',
/* author */ (''),
/* organization */ (''),
/* preprocessor_version */ 'ST-DEVELOPER v20.1',
/* originating_system */ 'Autodesk Translation Framework v15.8.0.0',
/* authorisation */ '');

FILE_SCHEMA (('AUTOMOTIVE_DESIGN { 1 0 10303 214 3 1 1 }'));
ENDSEC;

DATA;
#10=MECHANICAL_DESIGN_GEOMETRIC_PRESENTATION_REPRESENTATION('',(#23,#24),
#1695);
#11=ITEM_DEFINED_TRANSFORMATION($,$,#1077,#1131);
#12=ITEM_DEFINED_TRANSFORMATION($,$,#1104,#1132);
#13=(
REPRESENTATION_RELATIONSHIP($,$,#1709,#1708)
REPRESENTATION_RELATIONSHIP_WITH_TRANSFORMATION(#11)
SHAPE_REPRESENTATION_RELATIONSHIP()
);
#14=(
REPRESENTATION_RELATIONSHIP($,$,#1710,#1708)
REPRESENTATION_RELATIONSHIP_WITH_TRANSFORMATION(#12)
SHAPE_REPRESENTATION_RELATIONSHIP()
);
#15=CONTEXT_DEPENDENT_SHAPE_REPRESENTATION(#13,#1706);
#16=CONTEXT_DEPENDENT_SHAPE_REPRESENTATION(#14,#1707);
#17=NEXT_ASSEMBLY_USAGE_OCCURRENCE('Component1:1','Component1:1',
'Component1:1',#1712,#1713,'Component1:1');
#18=NEXT_ASSEMBLY_USAGE_OCCURRENCE('Component2:1','Component2:1',
'Component2:1',#1712,#1714,'Component2:1');
#19=SHAPE_REPRESENTATION_RELATIONSHIP('SRR','None',#1709,#21);
#20=SHAPE_REPRESENTATION_RELATIONSHIP('SRR','None',#1710,#22);
#21=ADVANCED_BREP_SHAPE_REPRESENTATION('',(#25),#1693);
#22=ADVANCED_BREP_SHAPE_REPRESENTATION('',(#26),#1694);
#23=STYLED_ITEM('',(#1727),#25);
#24=STYLED_ITEM('',(#1727),#26);
#25=MANIFOLD_SOLID_BREP('Body1',#1051);
#26=MANIFOLD_SOLID_BREP('Body1',#1052);
#27=FACE_OUTER_BOUND('',#79,.T.);
#28=FACE_OUTER_BOUND('',#80,.T.);
#29=FACE_OUTER_BOUND('',#81,.T.);
#30=FACE_OUTER_BOUND('',#82,.T.);
#31=FACE_OUTER_BOUND('',#83,.T.);
#32=FACE_OUTER_BOUND('',#84,.T.);
#33=FACE_OUTER_BOUND('',#85,.T.);
#34=FACE_OUTER_BOUND('',#86,.T.);
#35=FACE_OUTER_BOUND('',#87,.T.);
#36=FACE_OUTER_BOUND('',#88,.T.);
#37=FACE_OUTER_BOUND('',#89,.T.);
#38=FACE_OUTER_BOUND('',#90,.T.);
#39=FACE_OUTER_BOUND('',#91,.T.);
#40=FACE_OUTER_BOUND('',#92,.T.);
#41=FACE_OUTER_BOUND('',#93,.T.);
#42=FACE_OUTER_BOUND('',#94,.T.);
#43=FACE_OUTER_BOUND('',#95,.T.);
#44=FACE_OUTER_BOUND('',#96,.T.);
#45=FACE_OUTER_BOUND('',#97,.T.);
#46=FACE_OUTER_BOUND('',#98,.T.);
#47=FACE_OUTER_BOUND('',#99,.T.);
#48=FACE_OUTER_BOUND('',#100,.T.);
#49=FACE_OUTER_BOUND('',#101,.T.);
#50=FACE_OUTER_BOUND('',#102,.T.);
#51=FACE_OUTER_BOUND('',#103,.T.);
#52=FACE_OUTER_BOUND('',#104,.T.);
#53=FACE_OUTER_BOUND('',#105,.T.);
#54=FACE_OUTER_BOUND('',#106,.T.);
#55=FACE_OUTER_BOUND('',#107,.T.);
#56=FACE_OUTER_BOUND('',#108,.T.);
#57=FACE_OUTER_BOUND('',#109,.T.);
#58=FACE_OUTER_BOUND('',#110,.T.);
#59=FACE_OUTER_BOUND('',#111,.T.);
#60=FACE_OUTER_BOUND('',#112,.T.);
#61=FACE_OUTER_BOUND('',#113,.T.);
#62=FACE_OUTER_BOUND('',#114,.T.);
#63=FACE_OUTER_BOUND('',#115,.T.);
#64=FACE_OUTER_BOUND('',#116,.T.);
#65=FACE_OUTER_BOUND('',#117,.T.);
#66=FACE_OUTER_BOUND('',#118,.T.);
#67=FACE_OUTER_BOUND('',#119,.T.);
#68=FACE_OUTER_BOUND('',#120,.T.);
#69=FACE_OUTER_BOUND('',#121,.T.);
#70=FACE_OUTER_BOUND('',#122,.T.);
#71=FACE_OUTER_BOUND('',#123,.T.);
#72=FACE_OUTER_BOUND('',#124,.T.);
#73=FACE_OUTER_BOUND('',#125,.T.);
#74=FACE_OUTER_BOUND('',#126,.T.);
#75=FACE_OUTER_BOUND('',#127,.T.);
#76=FACE_OUTER_BOUND('',#128,.T.);
#77=FACE_OUTER_BOUND('',#129,.T.);
#78=FACE_OUTER_BOUND('',#130,.T.);
#79=EDGE_LOOP('',(#659,#660,#661,#662));
#80=EDGE_LOOP('',(#663,#664,#665,#666));
#81=EDGE_LOOP('',(#667,#668,#669,#670));
#82=EDGE_LOOP('',(#671,#672,#673,#674));
#83=EDGE_LOOP('',(#675,#676,#677,#678));
#84=EDGE_LOOP('',(#679,#680,#681,#682));
#85=EDGE_LOOP('',(#683,#684,#685,#686));
#86=EDGE_LOOP('',(#687,#688,#689,#690));
#87=EDGE_LOOP('',(#691,#692,#693,#694));
#88=EDGE_LOOP('',(#695,#696,#697,#698));
#89=EDGE_LOOP('',(#699,#700,#701,#702));
#90=EDGE_LOOP('',(#703,#704,#705,#706));
#91=EDGE_LOOP('',(#707,#708,#709,#710));
#92=EDGE_LOOP('',(#711,#712,#713,#714));
#93=EDGE_LOOP('',(#715,#716,#717,#718));
#94=EDGE_LOOP('',(#719,#720,#721,#722));
#95=EDGE_LOOP('',(#723,#724,#725,#726));
#96=EDGE_LOOP('',(#727,#728,#729,#730));
#97=EDGE_LOOP('',(#731,#732,#733,#734));
#98=EDGE_LOOP('',(#735,#736,#737,#738));
#99=EDGE_LOOP('',(#739,#740,#741,#742));
#100=EDGE_LOOP('',(#743,#744,#745,#746));
#101=EDGE_LOOP('',(#747,#748,#749,#750));
#102=EDGE_LOOP('',(#751,#752,#753,#754));
#103=EDGE_LOOP('',(#755,#756,#757,#758,#759,#760,#761,#762,#763,#764,#765,
#766,#767,#768,#769,#770,#771,#772,#773,#774,#775,#776,#777,#778));
#104=EDGE_LOOP('',(#779,#780,#781,#782,#783,#784,#785,#786,#787,#788,#789,
#790,#791,#792,#793,#794,#795,#796,#797,#798,#799,#800,#801,#802));
#105=EDGE_LOOP('',(#803,#804,#805,#806));
#106=EDGE_LOOP('',(#807,#808,#809,#810));
#107=EDGE_LOOP('',(#811,#812,#813,#814));
#108=EDGE_LOOP('',(#815,#816,#817,#818));
#109=EDGE_LOOP('',(#819,#820,#821,#822));
#110=EDGE_LOOP('',(#823,#824,#825,#826));
#111=EDGE_LOOP('',(#827,#828,#829,#830));
#112=EDGE_LOOP('',(#831,#832,#833,#834));
#113=EDGE_LOOP('',(#835,#836,#837,#838));
#114=EDGE_LOOP('',(#839,#840,#841,#842));
#115=EDGE_LOOP('',(#843,#844,#845,#846));
#116=EDGE_LOOP('',(#847,#848,#849,#850));
#117=EDGE_LOOP('',(#851,#852,#853,#854));
#118=EDGE_LOOP('',(#855,#856,#857,#858));
#119=EDGE_LOOP('',(#859,#860,#861,#862));
#120=EDGE_LOOP('',(#863,#864,#865,#866));
#121=EDGE_LOOP('',(#867,#868,#869,#870));
#122=EDGE_LOOP('',(#871,#872,#873,#874));
#123=EDGE_LOOP('',(#875,#876,#877,#878));
#124=EDGE_LOOP('',(#879,#880,#881,#882));
#125=EDGE_LOOP('',(#883,#884,#885,#886));
#126=EDGE_LOOP('',(#887,#888,#889,#890));
#127=EDGE_LOOP('',(#891,#892,#893,#894));
#128=EDGE_LOOP('',(#895,#896,#897,#898));
#129=EDGE_LOOP('',(#899,#900,#901,#902,#903,#904,#905,#906,#907,#908,#909,
#910,#911,#912,#913,#914,#915,#916,#917,#918,#919,#920,#921,#922));
#130=EDGE_LOOP('',(#923,#924,#925,#926,#927,#928,#929,#930,#931,#932,#933,
#934,#935,#936,#937,#938,#939,#940,#941,#942,#943,#944,#945,#946));
#131=LINE('',#1396,#275);
#132=LINE('',#1398,#276);
#133=LINE('',#1400,#277);
#134=LINE('',#1401,#278);
#135=LINE('',#1404,#279);
#136=LINE('',#1406,#280);
#137=LINE('',#1407,#281);
#138=LINE('',#1410,#282);
#139=LINE('',#1412,#283);
#140=LINE('',#1413,#284);
#141=LINE('',#1416,#285);
#142=LINE('',#1418,#286);
#143=LINE('',#1419,#287);
#144=LINE('',#1422,#288);
#145=LINE('',#1424,#289);
#146=LINE('',#1425,#290);
#147=LINE('',#1428,#291);
#148=LINE('',#1430,#292);
#149=LINE('',#1431,#293);
#150=LINE('',#1434,#294);
#151=LINE('',#1436,#295);
#152=LINE('',#1437,#296);
#153=LINE('',#1440,#297);
#154=LINE('',#1442,#298);
#155=LINE('',#1443,#299);
#156=LINE('',#1446,#300);
#157=LINE('',#1448,#301);
#158=LINE('',#1449,#302);
#159=LINE('',#1452,#303);
#160=LINE('',#1454,#304);
#161=LINE('',#1455,#305);
#162=LINE('',#1458,#306);
#163=LINE('',#1460,#307);
#164=LINE('',#1461,#308);
#165=LINE('',#1464,#309);
#166=LINE('',#1466,#310);
#167=LINE('',#1467,#311);
#168=LINE('',#1470,#312);
#169=LINE('',#1472,#313);
#170=LINE('',#1473,#314);
#171=LINE('',#1476,#315);
#172=LINE('',#1478,#316);
#173=LINE('',#1479,#317);
#174=LINE('',#1482,#318);
#175=LINE('',#1484,#319);
#176=LINE('',#1485,#320);
#177=LINE('',#1488,#321);
#178=LINE('',#1490,#322);
#179=LINE('',#1491,#323);
#180=LINE('',#1494,#324);
#181=LINE('',#1496,#325);
#182=LINE('',#1497,#326);
#183=LINE('',#1500,#327);
#184=LINE('',#1502,#328);
#185=LINE('',#1503,#329);
#186=LINE('',#1506,#330);
#187=LINE('',#1508,#331);
#188=LINE('',#1509,#332);
#189=LINE('',#1512,#333);
#190=LINE('',#1514,#334);
#191=LINE('',#1515,#335);
#192=LINE('',#1518,#336);
#193=LINE('',#1520,#337);
#194=LINE('',#1521,#338);
#195=LINE('',#1524,#339);
#196=LINE('',#1526,#340);
#197=LINE('',#1527,#341);
#198=LINE('',#1530,#342);
#199=LINE('',#1532,#343);
#200=LINE('',#1533,#344);
#201=LINE('',#1535,#345);
#202=LINE('',#1536,#346);
#203=LINE('',#1543,#347);
#204=LINE('',#1545,#348);
#205=LINE('',#1547,#349);
#206=LINE('',#1548,#350);
#207=LINE('',#1551,#351);
#208=LINE('',#1553,#352);
#209=LINE('',#1554,#353);
#210=LINE('',#1557,#354);
#211=LINE('',#1559,#355);
#212=LINE('',#1560,#356);
#213=LINE('',#1563,#357);
#214=LINE('',#1565,#358);
#215=LINE('',#1566,#359);
#216=LINE('',#1569,#360);
#217=LINE('',#1571,#361);
#218=LINE('',#1572,#362);
#219=LINE('',#1575,#363);
#220=LINE('',#1577,#364);
#221=LINE('',#1578,#365);
#222=LINE('',#1581,#366);
#223=LINE('',#1583,#367);
#224=LINE('',#1584,#368);
#225=LINE('',#1587,#369);
#226=LINE('',#1589,#370);
#227=LINE('',#1590,#371);
#228=LINE('',#1593,#372);
#229=LINE('',#1595,#373);
#230=LINE('',#1596,#374);
#231=LINE('',#1599,#375);
#232=LINE('',#1601,#376);
#233=LINE('',#1602,#377);
#234=LINE('',#1605,#378);
#235=LINE('',#1607,#379);
#236=LINE('',#1608,#380);
#237=LINE('',#1611,#381);
#238=LINE('',#1613,#382);
#239=LINE('',#1614,#383);
#240=LINE('',#1617,#384);
#241=LINE('',#1619,#385);
#242=LINE('',#1620,#386);
#243=LINE('',#1623,#387);
#244=LINE('',#1625,#388);
#245=LINE('',#1626,#389);
#246=LINE('',#1629,#390);
#247=LINE('',#1631,#391);
#248=LINE('',#1632,#392);
#249=LINE('',#1635,#393);
#250=LINE('',#1637,#394);
#251=LINE('',#1638,#395);
#252=LINE('',#1641,#396);
#253=LINE('',#1643,#397);
#254=LINE('',#1644,#398);
#255=LINE('',#1647,#399);
#256=LINE('',#1649,#400);
#257=LINE('',#1650,#401);
#258=LINE('',#1653,#402);
#259=LINE('',#1655,#403);
#260=LINE('',#1656,#404);
#261=LINE('',#1659,#405);
#262=LINE('',#1661,#406);
#263=LINE('',#1662,#407);
#264=LINE('',#1665,#408);
#265=LINE('',#1667,#409);
#266=LINE('',#1668,#410);
#267=LINE('',#1671,#411);
#268=LINE('',#1673,#412);
#269=LINE('',#1674,#413);
#270=LINE('',#1677,#414);
#271=LINE('',#1679,#415);
#272=LINE('',#1680,#416);
#273=LINE('',#1682,#417);
#274=LINE('',#1683,#418);
#275=VECTOR('',#1139,10.);
#276=VECTOR('',#1140,10.);
#277=VECTOR('',#1141,10.);
#278=VECTOR('',#1142,10.);
#279=VECTOR('',#1145,10.);
#280=VECTOR('',#1146,10.);
#281=VECTOR('',#1147,10.);
#282=VECTOR('',#1150,10.);
#283=VECTOR('',#1151,10.);
#284=VECTOR('',#1152,10.);
#285=VECTOR('',#1155,10.);
#286=VECTOR('',#1156,10.);
#287=VECTOR('',#1157,10.);
#288=VECTOR('',#1160,10.);
#289=VECTOR('',#1161,10.);
#290=VECTOR('',#1162,10.);
#291=VECTOR('',#1165,10.);
#292=VECTOR('',#1166,10.);
#293=VECTOR('',#1167,10.);
#294=VECTOR('',#1170,10.);
#295=VECTOR('',#1171,10.);
#296=VECTOR('',#1172,10.);
#297=VECTOR('',#1175,10.);
#298=VECTOR('',#1176,10.);
#299=VECTOR('',#1177,10.);
#300=VECTOR('',#1180,10.);
#301=VECTOR('',#1181,10.);
#302=VECTOR('',#1182,10.);
#303=VECTOR('',#1185,10.);
#304=VECTOR('',#1186,10.);
#305=VECTOR('',#1187,10.);
#306=VECTOR('',#1190,10.);
#307=VECTOR('',#1191,10.);
#308=VECTOR('',#1192,10.);
#309=VECTOR('',#1195,10.);
#310=VECTOR('',#1196,10.);
#311=VECTOR('',#1197,10.);
#312=VECTOR('',#1200,10.);
#313=VECTOR('',#1201,10.);
#314=VECTOR('',#1202,10.);
#315=VECTOR('',#1205,10.);
#316=VECTOR('',#1206,10.);
#317=VECTOR('',#1207,10.);
#318=VECTOR('',#1210,10.);
#319=VECTOR('',#1211,10.);
#320=VECTOR('',#1212,10.);
#321=VECTOR('',#1215,10.);
#322=VECTOR('',#1216,10.);
#323=VECTOR('',#1217,10.);
#324=VECTOR('',#1220,10.);
#325=VECTOR('',#1221,10.);
#326=VECTOR('',#1222,10.);
#327=VECTOR('',#1225,10.);
#328=VECTOR('',#1226,10.);
#329=VECTOR('',#1227,10.);
#330=VECTOR('',#1230,10.);
#331=VECTOR('',#1231,10.);
#332=VECTOR('',#1232,10.);
#333=VECTOR('',#1235,10.);
#334=VECTOR('',#1236,10.);
#335=VECTOR('',#1237,10.);
#336=VECTOR('',#1240,10.);
#337=VECTOR('',#1241,10.);
#338=VECTOR('',#1242,10.);
#339=VECTOR('',#1245,10.);
#340=VECTOR('',#1246,10.);
#341=VECTOR('',#1247,10.);
#342=VECTOR('',#1250,10.);
#343=VECTOR('',#1251,10.);
#344=VECTOR('',#1252,10.);
#345=VECTOR('',#1255,10.);
#346=VECTOR('',#1256,10.);
#347=VECTOR('',#1265,10.);
#348=VECTOR('',#1266,10.);
#349=VECTOR('',#1267,10.);
#350=VECTOR('',#1268,10.);
#351=VECTOR('',#1271,10.);
#352=VECTOR('',#1272,10.);
#353=VECTOR('',#1273,10.);
#354=VECTOR('',#1276,10.);
#355=VECTOR('',#1277,10.);
#356=VECTOR('',#1278,10.);
#357=VECTOR('',#1281,10.);
#358=VECTOR('',#1282,10.);
#359=VECTOR('',#1283,10.);
#360=VECTOR('',#1286,10.);
#361=VECTOR('',#1287,10.);
#362=VECTOR('',#1288,10.);
#363=VECTOR('',#1291,10.);
#364=VECTOR('',#1292,10.);
#365=VECTOR('',#1293,10.);
#366=VECTOR('',#1296,10.);
#367=VECTOR('',#1297,10.);
#368=VECTOR('',#1298,10.);
#369=VECTOR('',#1301,10.);
#370=VECTOR('',#1302,10.);
#371=VECTOR('',#1303,10.);
#372=VECTOR('',#1306,10.);
#373=VECTOR('',#1307,10.);
#374=VECTOR('',#1308,10.);
#375=VECTOR('',#1311,10.);
#376=VECTOR('',#1312,10.);
#377=VECTOR('',#1313,10.);
#378=VECTOR('',#1316,10.);
#379=VECTOR('',#1317,10.);
#380=VECTOR('',#1318,10.);
#381=VECTOR('',#1321,10.);
#382=VECTOR('',#1322,10.);
#383=VECTOR('',#1323,10.);
#384=VECTOR('',#1326,10.);
#385=VECTOR('',#1327,10.);
#386=VECTOR('',#1328,10.);
#387=VECTOR('',#1331,10.);
#388=VECTOR('',#1332,10.);
#389=VECTOR('',#1333,10.);
#390=VECTOR('',#1336,10.);
#391=VECTOR('',#1337,10.);
#392=VECTOR('',#1338,10.);
#393=VECTOR('',#1341,10.);
#394=VECTOR('',#1342,10.);
#395=VECTOR('',#1343,10.);
#396=VECTOR('',#1346,10.);
#397=VECTOR('',#1347,10.);
#398=VECTOR('',#1348,10.);
#399=VECTOR('',#1351,10.);
#400=VECTOR('',#1352,10.);
#401=VECTOR('',#1353,10.);
#402=VECTOR('',#1356,10.);
#403=VECTOR('',#1357,10.);
#404=VECTOR('',#1358,10.);
#405=VECTOR('',#1361,10.);
#406=VECTOR('',#1362,10.);
#407=VECTOR('',#1363,10.);
#408=VECTOR('',#1366,10.);
#409=VECTOR('',#1367,10.);
#410=VECTOR('',#1368,10.);
#411=VECTOR('',#1371,10.);
#412=VECTOR('',#1372,10.);
#413=VECTOR('',#1373,10.);
#414=VECTOR('',#1376,10.);
#415=VECTOR('',#1377,10.);
#416=VECTOR('',#1378,10.);
#417=VECTOR('',#1381,10.);
#418=VECTOR('',#1382,10.);
#419=VERTEX_POINT('',#1394);
#420=VERTEX_POINT('',#1395);
#421=VERTEX_POINT('',#1397);
#422=VERTEX_POINT('',#1399);
#423=VERTEX_POINT('',#1403);
#424=VERTEX_POINT('',#1405);
#425=VERTEX_POINT('',#1409);
#426=VERTEX_POINT('',#1411);
#427=VERTEX_POINT('',#1415);
#428=VERTEX_POINT('',#1417);
#429=VERTEX_POINT('',#1421);
#430=VERTEX_POINT('',#1423);
#431=VERTEX_POINT('',#1427);
#432=VERTEX_POINT('',#1429);
#433=VERTEX_POINT('',#1433);
#434=VERTEX_POINT('',#1435);
#435=VERTEX_POINT('',#1439);
#436=VERTEX_POINT('',#1441);
#437=VERTEX_POINT('',#1445);
#438=VERTEX_POINT('',#1447);
#439=VERTEX_POINT('',#1451);
#440=VERTEX_POINT('',#1453);
#441=VERTEX_POINT('',#1457);
#442=VERTEX_POINT('',#1459);
#443=VERTEX_POINT('',#1463);
#444=VERTEX_POINT('',#1465);
#445=VERTEX_POINT('',#1469);
#446=VERTEX_POINT('',#1471);
#447=VERTEX_POINT('',#1475);
#448=VERTEX_POINT('',#1477);
#449=VERTEX_POINT('',#1481);
#450=VERTEX_POINT('',#1483);
#451=VERTEX_POINT('',#1487);
#452=VERTEX_POINT('',#1489);
#453=VERTEX_POINT('',#1493);
#454=VERTEX_POINT('',#1495);
#455=VERTEX_POINT('',#1499);
#456=VERTEX_POINT('',#1501);
#457=VERTEX_POINT('',#1505);
#458=VERTEX_POINT('',#1507);
#459=VERTEX_POINT('',#1511);
#460=VERTEX_POINT('',#1513);
#461=VERTEX_POINT('',#1517);
#462=VERTEX_POINT('',#1519);
#463=VERTEX_POINT('',#1523);
#464=VERTEX_POINT('',#1525);
#465=VERTEX_POINT('',#1529);
#466=VERTEX_POINT('',#1531);
#467=VERTEX_POINT('',#1541);
#468=VERTEX_POINT('',#1542);
#469=VERTEX_POINT('',#1544);
#470=VERTEX_POINT('',#1546);
#471=VERTEX_POINT('',#1550);
#472=VERTEX_POINT('',#1552);
#473=VERTEX_POINT('',#1556);
#474=VERTEX_POINT('',#1558);
#475=VERTEX_POINT('',#1562);
#476=VERTEX_POINT('',#1564);
#477=VERTEX_POINT('',#1568);
#478=VERTEX_POINT('',#1570);
#479=VERTEX_POINT('',#1574);
#480=VERTEX_POINT('',#1576);
#481=VERTEX_POINT('',#1580);
#482=VERTEX_POINT('',#1582);
#483=VERTEX_POINT('',#1586);
#484=VERTEX_POINT('',#1588);
#485=VERTEX_POINT('',#1592);
#486=VERTEX_POINT('',#1594);
#487=VERTEX_POINT('',#1598);
#488=VERTEX_POINT('',#1600);
#489=VERTEX_POINT('',#1604);
#490=VERTEX_POINT('',#1606);
#491=VERTEX_POINT('',#1610);
#492=VERTEX_POINT('',#1612);
#493=VERTEX_POINT('',#1616);
#494=VERTEX_POINT('',#1618);
#495=VERTEX_POINT('',#1622);
#496=VERTEX_POINT('',#1624);
#497=VERTEX_POINT('',#1628);
#498=VERTEX_POINT('',#1630);
#499=VERTEX_POINT('',#1634);
#500=VERTEX_POINT('',#1636);
#501=VERTEX_POINT('',#1640);
#502=VERTEX_POINT('',#1642);
#503=VERTEX_POINT('',#1646);
#504=VERTEX_POINT('',#1648);
#505=VERTEX_POINT('',#1652);
#506=VERTEX_POINT('',#1654);
#507=VERTEX_POINT('',#1658);
#508=VERTEX_POINT('',#1660);
#509=VERTEX_POINT('',#1664);
#510=VERTEX_POINT('',#1666);
#511=VERTEX_POINT('',#1670);
#512=VERTEX_POINT('',#1672);
#513=VERTEX_POINT('',#1676);
#514=VERTEX_POINT('',#1678);
#515=EDGE_CURVE('',#419,#420,#131,.T.);
#516=EDGE_CURVE('',#419,#421,#132,.T.);
#517=EDGE_CURVE('',#422,#421,#133,.T.);
#518=EDGE_CURVE('',#420,#422,#134,.T.);
#519=EDGE_CURVE('',#420,#423,#135,.T.);
#520=EDGE_CURVE('',#424,#422,#136,.T.);
#521=EDGE_CURVE('',#423,#424,#137,.T.);
#522=EDGE_CURVE('',#423,#425,#138,.T.);
#523=EDGE_CURVE('',#426,#424,#139,.T.);
#524=EDGE_CURVE('',#425,#426,#140,.T.);
#525=EDGE_CURVE('',#427,#425,#141,.T.);
#526=EDGE_CURVE('',#428,#426,#142,.T.);
#527=EDGE_CURVE('',#427,#428,#143,.T.);
#528=EDGE_CURVE('',#429,#427,#144,.T.);
#529=EDGE_CURVE('',#430,#428,#145,.T.);
#530=EDGE_CURVE('',#429,#430,#146,.T.);
#531=EDGE_CURVE('',#429,#431,#147,.T.);
#532=EDGE_CURVE('',#432,#430,#148,.T.);
#533=EDGE_CURVE('',#431,#432,#149,.T.);
#534=EDGE_CURVE('',#431,#433,#150,.T.);
#535=EDGE_CURVE('',#434,#432,#151,.T.);
#536=EDGE_CURVE('',#433,#434,#152,.T.);
#537=EDGE_CURVE('',#433,#435,#153,.T.);
#538=EDGE_CURVE('',#436,#434,#154,.T.);
#539=EDGE_CURVE('',#435,#436,#155,.T.);
#540=EDGE_CURVE('',#437,#435,#156,.T.);
#541=EDGE_CURVE('',#438,#436,#157,.T.);
#542=EDGE_CURVE('',#437,#438,#158,.T.);
#543=EDGE_CURVE('',#439,#437,#159,.T.);
#544=EDGE_CURVE('',#440,#438,#160,.T.);
#545=EDGE_CURVE('',#439,#440,#161,.T.);
#546=EDGE_CURVE('',#441,#439,#162,.T.);
#547=EDGE_CURVE('',#442,#440,#163,.T.);
#548=EDGE_CURVE('',#441,#442,#164,.T.);
#549=EDGE_CURVE('',#443,#441,#165,.T.);
#550=EDGE_CURVE('',#444,#442,#166,.T.);
#551=EDGE_CURVE('',#443,#444,#167,.T.);
#552=EDGE_CURVE('',#445,#443,#168,.T.);
#553=EDGE_CURVE('',#446,#444,#169,.T.);
#554=EDGE_CURVE('',#445,#446,#170,.T.);
#555=EDGE_CURVE('',#447,#445,#171,.T.);
#556=EDGE_CURVE('',#448,#446,#172,.T.);
#557=EDGE_CURVE('',#447,#448,#173,.T.);
#558=EDGE_CURVE('',#447,#449,#174,.T.);
#559=EDGE_CURVE('',#450,#448,#175,.T.);
#560=EDGE_CURVE('',#449,#450,#176,.T.);
#561=EDGE_CURVE('',#449,#451,#177,.T.);
#562=EDGE_CURVE('',#452,#450,#178,.T.);
#563=EDGE_CURVE('',#451,#452,#179,.T.);
#564=EDGE_CURVE('',#451,#453,#180,.T.);
#565=EDGE_CURVE('',#454,#452,#181,.T.);
#566=EDGE_CURVE('',#453,#454,#182,.T.);
#567=EDGE_CURVE('',#453,#455,#183,.T.);
#568=EDGE_CURVE('',#456,#454,#184,.T.);
#569=EDGE_CURVE('',#455,#456,#185,.T.);
#570=EDGE_CURVE('',#455,#457,#186,.T.);
#571=EDGE_CURVE('',#458,#456,#187,.T.);
#572=EDGE_CURVE('',#457,#458,#188,.T.);
#573=EDGE_CURVE('',#459,#457,#189,.T.);
#574=EDGE_CURVE('',#460,#458,#190,.T.);
#575=EDGE_CURVE('',#459,#460,#191,.T.);
#576=EDGE_CURVE('',#461,#459,#192,.T.);
#577=EDGE_CURVE('',#462,#460,#193,.T.);
#578=EDGE_CURVE('',#461,#462,#194,.T.);
#579=EDGE_CURVE('',#463,#461,#195,.T.);
#580=EDGE_CURVE('',#464,#462,#196,.T.);
#581=EDGE_CURVE('',#463,#464,#197,.T.);
#582=EDGE_CURVE('',#463,#465,#198,.T.);
#583=EDGE_CURVE('',#466,#464,#199,.T.);
#584=EDGE_CURVE('',#465,#466,#200,.T.);
#585=EDGE_CURVE('',#419,#465,#201,.T.);
#586=EDGE_CURVE('',#421,#466,#202,.T.);
#587=EDGE_CURVE('',#467,#468,#203,.T.);
#588=EDGE_CURVE('',#467,#469,#204,.T.);
#589=EDGE_CURVE('',#470,#469,#205,.T.);
#590=EDGE_CURVE('',#468,#470,#206,.T.);
#591=EDGE_CURVE('',#468,#471,#207,.T.);
#592=EDGE_CURVE('',#472,#470,#208,.T.);
#593=EDGE_CURVE('',#471,#472,#209,.T.);
#594=EDGE_CURVE('',#471,#473,#210,.T.);
#595=EDGE_CURVE('',#474,#472,#211,.T.);
#596=EDGE_CURVE('',#473,#474,#212,.T.);
#597=EDGE_CURVE('',#475,#473,#213,.T.);
#598=EDGE_CURVE('',#476,#474,#214,.T.);
#599=EDGE_CURVE('',#475,#476,#215,.T.);
#600=EDGE_CURVE('',#477,#475,#216,.T.);
#601=EDGE_CURVE('',#478,#476,#217,.T.);
#602=EDGE_CURVE('',#477,#478,#218,.T.);
#603=EDGE_CURVE('',#477,#479,#219,.T.);
#604=EDGE_CURVE('',#480,#478,#220,.T.);
#605=EDGE_CURVE('',#479,#480,#221,.T.);
#606=EDGE_CURVE('',#479,#481,#222,.T.);
#607=EDGE_CURVE('',#482,#480,#223,.T.);
#608=EDGE_CURVE('',#481,#482,#224,.T.);
#609=EDGE_CURVE('',#481,#483,#225,.T.);
#610=EDGE_CURVE('',#484,#482,#226,.T.);
#611=EDGE_CURVE('',#483,#484,#227,.T.);
#612=EDGE_CURVE('',#485,#483,#228,.T.);
#613=EDGE_CURVE('',#486,#484,#229,.T.);
#614=EDGE_CURVE('',#485,#486,#230,.T.);
#615=EDGE_CURVE('',#487,#485,#231,.T.);
#616=EDGE_CURVE('',#488,#486,#232,.T.);
#617=EDGE_CURVE('',#487,#488,#233,.T.);
#618=EDGE_CURVE('',#489,#487,#234,.T.);
#619=EDGE_CURVE('',#490,#488,#235,.T.);
#620=EDGE_CURVE('',#489,#490,#236,.T.);
#621=EDGE_CURVE('',#491,#489,#237,.T.);
#622=EDGE_CURVE('',#492,#490,#238,.T.);
#623=EDGE_CURVE('',#491,#492,#239,.T.);
#624=EDGE_CURVE('',#493,#491,#240,.T.);
#625=EDGE_CURVE('',#494,#492,#241,.T.);
#626=EDGE_CURVE('',#493,#494,#242,.T.);
#627=EDGE_CURVE('',#495,#493,#243,.T.);
#628=EDGE_CURVE('',#496,#494,#244,.T.);
#629=EDGE_CURVE('',#495,#496,#245,.T.);
#630=EDGE_CURVE('',#495,#497,#246,.T.);
#631=EDGE_CURVE('',#498,#496,#247,.T.);
#632=EDGE_CURVE('',#497,#498,#248,.T.);
#633=EDGE_CURVE('',#497,#499,#249,.T.);
#634=EDGE_CURVE('',#500,#498,#250,.T.);
#635=EDGE_CURVE('',#499,#500,#251,.T.);
#636=EDGE_CURVE('',#499,#501,#252,.T.);
#637=EDGE_CURVE('',#502,#500,#253,.T.);
#638=EDGE_CURVE('',#501,#502,#254,.T.);
#639=EDGE_CURVE('',#501,#503,#255,.T.);
#640=EDGE_CURVE('',#504,#502,#256,.T.);
#641=EDGE_CURVE('',#503,#504,#257,.T.);
#642=EDGE_CURVE('',#503,#505,#258,.T.);
#643=EDGE_CURVE('',#506,#504,#259,.T.);
#644=EDGE_CURVE('',#505,#506,#260,.T.);
#645=EDGE_CURVE('',#507,#505,#261,.T.);
#646=EDGE_CURVE('',#508,#506,#262,.T.);
#647=EDGE_CURVE('',#507,#508,#263,.T.);
#648=EDGE_CURVE('',#509,#507,#264,.T.);
#649=EDGE_CURVE('',#510,#508,#265,.T.);
#650=EDGE_CURVE('',#509,#510,#266,.T.);
#651=EDGE_CURVE('',#511,#509,#267,.T.);
#652=EDGE_CURVE('',#512,#510,#268,.T.);
#653=EDGE_CURVE('',#511,#512,#269,.T.);
#654=EDGE_CURVE('',#511,#513,#270,.T.);
#655=EDGE_CURVE('',#514,#512,#271,.T.);
#656=EDGE_CURVE('',#513,#514,#272,.T.);
#657=EDGE_CURVE('',#467,#513,#273,.T.);
#658=EDGE_CURVE('',#469,#514,#274,.T.);
#659=ORIENTED_EDGE('',*,*,#515,.F.);
#660=ORIENTED_EDGE('',*,*,#516,.T.);
#661=ORIENTED_EDGE('',*,*,#517,.F.);
#662=ORIENTED_EDGE('',*,*,#518,.F.);
#663=ORIENTED_EDGE('',*,*,#519,.F.);
#664=ORIENTED_EDGE('',*,*,#518,.T.);
#665=ORIENTED_EDGE('',*,*,#520,.F.);
#666=ORIENTED_EDGE('',*,*,#521,.F.);
#667=ORIENTED_EDGE('',*,*,#522,.F.);
#668=ORIENTED_EDGE('',*,*,#521,.T.);
#669=ORIENTED_EDGE('',*,*,#523,.F.);
#670=ORIENTED_EDGE('',*,*,#524,.F.);
#671=ORIENTED_EDGE('',*,*,#525,.T.);
#672=ORIENTED_EDGE('',*,*,#524,.T.);
#673=ORIENTED_EDGE('',*,*,#526,.F.);
#674=ORIENTED_EDGE('',*,*,#527,.F.);
#675=ORIENTED_EDGE('',*,*,#528,.T.);
#676=ORIENTED_EDGE('',*,*,#527,.T.);
#677=ORIENTED_EDGE('',*,*,#529,.F.);
#678=ORIENTED_EDGE('',*,*,#530,.F.);
#679=ORIENTED_EDGE('',*,*,#531,.F.);
#680=ORIENTED_EDGE('',*,*,#530,.T.);
#681=ORIENTED_EDGE('',*,*,#532,.F.);
#682=ORIENTED_EDGE('',*,*,#533,.F.);
#683=ORIENTED_EDGE('',*,*,#534,.F.);
#684=ORIENTED_EDGE('',*,*,#533,.T.);
#685=ORIENTED_EDGE('',*,*,#535,.F.);
#686=ORIENTED_EDGE('',*,*,#536,.F.);
#687=ORIENTED_EDGE('',*,*,#537,.F.);
#688=ORIENTED_EDGE('',*,*,#536,.T.);
#689=ORIENTED_EDGE('',*,*,#538,.F.);
#690=ORIENTED_EDGE('',*,*,#539,.F.);
#691=ORIENTED_EDGE('',*,*,#540,.T.);
#692=ORIENTED_EDGE('',*,*,#539,.T.);
#693=ORIENTED_EDGE('',*,*,#541,.F.);
#694=ORIENTED_EDGE('',*,*,#542,.F.);
#695=ORIENTED_EDGE('',*,*,#543,.T.);
#696=ORIENTED_EDGE('',*,*,#542,.T.);
#697=ORIENTED_EDGE('',*,*,#544,.F.);
#698=ORIENTED_EDGE('',*,*,#545,.F.);
#699=ORIENTED_EDGE('',*,*,#546,.T.);
#700=ORIENTED_EDGE('',*,*,#545,.T.);
#701=ORIENTED_EDGE('',*,*,#547,.F.);
#702=ORIENTED_EDGE('',*,*,#548,.F.);
#703=ORIENTED_EDGE('',*,*,#549,.T.);
#704=ORIENTED_EDGE('',*,*,#548,.T.);
#705=ORIENTED_EDGE('',*,*,#550,.F.);
#706=ORIENTED_EDGE('',*,*,#551,.F.);
#707=ORIENTED_EDGE('',*,*,#552,.T.);
#708=ORIENTED_EDGE('',*,*,#551,.T.);
#709=ORIENTED_EDGE('',*,*,#553,.F.);
#710=ORIENTED_EDGE('',*,*,#554,.F.);
#711=ORIENTED_EDGE('',*,*,#555,.T.);
#712=ORIENTED_EDGE('',*,*,#554,.T.);
#713=ORIENTED_EDGE('',*,*,#556,.F.);
#714=ORIENTED_EDGE('',*,*,#557,.F.);
#715=ORIENTED_EDGE('',*,*,#558,.F.);
#716=ORIENTED_EDGE('',*,*,#557,.T.);
#717=ORIENTED_EDGE('',*,*,#559,.F.);
#718=ORIENTED_EDGE('',*,*,#560,.F.);
#719=ORIENTED_EDGE('',*,*,#561,.F.);
#720=ORIENTED_EDGE('',*,*,#560,.T.);
#721=ORIENTED_EDGE('',*,*,#562,.F.);
#722=ORIENTED_EDGE('',*,*,#563,.F.);
#723=ORIENTED_EDGE('',*,*,#564,.F.);
#724=ORIENTED_EDGE('',*,*,#563,.T.);
#725=ORIENTED_EDGE('',*,*,#565,.F.);
#726=ORIENTED_EDGE('',*,*,#566,.F.);
#727=ORIENTED_EDGE('',*,*,#567,.F.);
#728=ORIENTED_EDGE('',*,*,#566,.T.);
#729=ORIENTED_EDGE('',*,*,#568,.F.);
#730=ORIENTED_EDGE('',*,*,#569,.F.);
#731=ORIENTED_EDGE('',*,*,#570,.F.);
#732=ORIENTED_EDGE('',*,*,#569,.T.);
#733=ORIENTED_EDGE('',*,*,#571,.F.);
#734=ORIENTED_EDGE('',*,*,#572,.F.);
#735=ORIENTED_EDGE('',*,*,#573,.T.);
#736=ORIENTED_EDGE('',*,*,#572,.T.);
#737=ORIENTED_EDGE('',*,*,#574,.F.);
#738=ORIENTED_EDGE('',*,*,#575,.F.);
#739=ORIENTED_EDGE('',*,*,#576,.T.);
#740=ORIENTED_EDGE('',*,*,#575,.T.);
#741=ORIENTED_EDGE('',*,*,#577,.F.);
#742=ORIENTED_EDGE('',*,*,#578,.F.);
#743=ORIENTED_EDGE('',*,*,#579,.T.);
#744=ORIENTED_EDGE('',*,*,#578,.T.);
#745=ORIENTED_EDGE('',*,*,#580,.F.);
#746=ORIENTED_EDGE('',*,*,#581,.F.);
#747=ORIENTED_EDGE('',*,*,#582,.F.);
#748=ORIENTED_EDGE('',*,*,#581,.T.);
#749=ORIENTED_EDGE('',*,*,#583,.F.);
#750=ORIENTED_EDGE('',*,*,#584,.F.);
#751=ORIENTED_EDGE('',*,*,#585,.T.);
#752=ORIENTED_EDGE('',*,*,#584,.T.);
#753=ORIENTED_EDGE('',*,*,#586,.F.);
#754=ORIENTED_EDGE('',*,*,#516,.F.);
#755=ORIENTED_EDGE('',*,*,#586,.T.);
#756=ORIENTED_EDGE('',*,*,#583,.T.);
#757=ORIENTED_EDGE('',*,*,#580,.T.);
#758=ORIENTED_EDGE('',*,*,#577,.T.);
#759=ORIENTED_EDGE('',*,*,#574,.T.);
#760=ORIENTED_EDGE('',*,*,#571,.T.);
#761=ORIENTED_EDGE('',*,*,#568,.T.);
#762=ORIENTED_EDGE('',*,*,#565,.T.);
#763=ORIENTED_EDGE('',*,*,#562,.T.);
#764=ORIENTED_EDGE('',*,*,#559,.T.);
#765=ORIENTED_EDGE('',*,*,#556,.T.);
#766=ORIENTED_EDGE('',*,*,#553,.T.);
#767=ORIENTED_EDGE('',*,*,#550,.T.);
#768=ORIENTED_EDGE('',*,*,#547,.T.);
#769=ORIENTED_EDGE('',*,*,#544,.T.);
#770=ORIENTED_EDGE('',*,*,#541,.T.);
#771=ORIENTED_EDGE('',*,*,#538,.T.);
#772=ORIENTED_EDGE('',*,*,#535,.T.);
#773=ORIENTED_EDGE('',*,*,#532,.T.);
#774=ORIENTED_EDGE('',*,*,#529,.T.);
#775=ORIENTED_EDGE('',*,*,#526,.T.);
#776=ORIENTED_EDGE('',*,*,#523,.T.);
#777=ORIENTED_EDGE('',*,*,#520,.T.);
#778=ORIENTED_EDGE('',*,*,#517,.T.);
#779=ORIENTED_EDGE('',*,*,#585,.F.);
#780=ORIENTED_EDGE('',*,*,#515,.T.);
#781=ORIENTED_EDGE('',*,*,#519,.T.);
#782=ORIENTED_EDGE('',*,*,#522,.T.);
#783=ORIENTED_EDGE('',*,*,#525,.F.);
#784=ORIENTED_EDGE('',*,*,#528,.F.);
#785=ORIENTED_EDGE('',*,*,#531,.T.);
#786=ORIENTED_EDGE('',*,*,#534,.T.);
#787=ORIENTED_EDGE('',*,*,#537,.T.);
#788=ORIENTED_EDGE('',*,*,#540,.F.);
#789=ORIENTED_EDGE('',*,*,#543,.F.);
#790=ORIENTED_EDGE('',*,*,#546,.F.);
#791=ORIENTED_EDGE('',*,*,#549,.F.);
#792=ORIENTED_EDGE('',*,*,#552,.F.);
#793=ORIENTED_EDGE('',*,*,#555,.F.);
#794=ORIENTED_EDGE('',*,*,#558,.T.);
#795=ORIENTED_EDGE('',*,*,#561,.T.);
#796=ORIENTED_EDGE('',*,*,#564,.T.);
#797=ORIENTED_EDGE('',*,*,#567,.T.);
#798=ORIENTED_EDGE('',*,*,#570,.T.);
#799=ORIENTED_EDGE('',*,*,#573,.F.);
#800=ORIENTED_EDGE('',*,*,#576,.F.);
#801=ORIENTED_EDGE('',*,*,#579,.F.);
#802=ORIENTED_EDGE('',*,*,#582,.T.);
#803=ORIENTED_EDGE('',*,*,#587,.F.);
#804=ORIENTED_EDGE('',*,*,#588,.T.);
#805=ORIENTED_EDGE('',*,*,#589,.F.);
#806=ORIENTED_EDGE('',*,*,#590,.F.);
#807=ORIENTED_EDGE('',*,*,#591,.F.);
#808=ORIENTED_EDGE('',*,*,#590,.T.);
#809=ORIENTED_EDGE('',*,*,#592,.F.);
#810=ORIENTED_EDGE('',*,*,#593,.F.);
#811=ORIENTED_EDGE('',*,*,#594,.F.);
#812=ORIENTED_EDGE('',*,*,#593,.T.);
#813=ORIENTED_EDGE('',*,*,#595,.F.);
#814=ORIENTED_EDGE('',*,*,#596,.F.);
#815=ORIENTED_EDGE('',*,*,#597,.T.);
#816=ORIENTED_EDGE('',*,*,#596,.T.);
#817=ORIENTED_EDGE('',*,*,#598,.F.);
#818=ORIENTED_EDGE('',*,*,#599,.F.);
#819=ORIENTED_EDGE('',*,*,#600,.T.);
#820=ORIENTED_EDGE('',*,*,#599,.T.);
#821=ORIENTED_EDGE('',*,*,#601,.F.);
#822=ORIENTED_EDGE('',*,*,#602,.F.);
#823=ORIENTED_EDGE('',*,*,#603,.F.);
#824=ORIENTED_EDGE('',*,*,#602,.T.);
#825=ORIENTED_EDGE('',*,*,#604,.F.);
#826=ORIENTED_EDGE('',*,*,#605,.F.);
#827=ORIENTED_EDGE('',*,*,#606,.F.);
#828=ORIENTED_EDGE('',*,*,#605,.T.);
#829=ORIENTED_EDGE('',*,*,#607,.F.);
#830=ORIENTED_EDGE('',*,*,#608,.F.);
#831=ORIENTED_EDGE('',*,*,#609,.F.);
#832=ORIENTED_EDGE('',*,*,#608,.T.);
#833=ORIENTED_EDGE('',*,*,#610,.F.);
#834=ORIENTED_EDGE('',*,*,#611,.F.);
#835=ORIENTED_EDGE('',*,*,#612,.T.);
#836=ORIENTED_EDGE('',*,*,#611,.T.);
#837=ORIENTED_EDGE('',*,*,#613,.F.);
#838=ORIENTED_EDGE('',*,*,#614,.F.);
#839=ORIENTED_EDGE('',*,*,#615,.T.);
#840=ORIENTED_EDGE('',*,*,#614,.T.);
#841=ORIENTED_EDGE('',*,*,#616,.F.);
#842=ORIENTED_EDGE('',*,*,#617,.F.);
#843=ORIENTED_EDGE('',*,*,#618,.T.);
#844=ORIENTED_EDGE('',*,*,#617,.T.);
#845=ORIENTED_EDGE('',*,*,#619,.F.);
#846=ORIENTED_EDGE('',*,*,#620,.F.);
#847=ORIENTED_EDGE('',*,*,#621,.T.);
#848=ORIENTED_EDGE('',*,*,#620,.T.);
#849=ORIENTED_EDGE('',*,*,#622,.F.);
#850=ORIENTED_EDGE('',*,*,#623,.F.);
#851=ORIENTED_EDGE('',*,*,#624,.T.);
#852=ORIENTED_EDGE('',*,*,#623,.T.);
#853=ORIENTED_EDGE('',*,*,#625,.F.);
#854=ORIENTED_EDGE('',*,*,#626,.F.);
#855=ORIENTED_EDGE('',*,*,#627,.T.);
#856=ORIENTED_EDGE('',*,*,#626,.T.);
#857=ORIENTED_EDGE('',*,*,#628,.F.);
#858=ORIENTED_EDGE('',*,*,#629,.F.);
#859=ORIENTED_EDGE('',*,*,#630,.F.);
#860=ORIENTED_EDGE('',*,*,#629,.T.);
#861=ORIENTED_EDGE('',*,*,#631,.F.);
#862=ORIENTED_EDGE('',*,*,#632,.F.);
#863=ORIENTED_EDGE('',*,*,#633,.F.);
#864=ORIENTED_EDGE('',*,*,#632,.T.);
#865=ORIENTED_EDGE('',*,*,#634,.F.);
#866=ORIENTED_EDGE('',*,*,#635,.F.);
#867=ORIENTED_EDGE('',*,*,#636,.F.);
#868=ORIENTED_EDGE('',*,*,#635,.T.);
#869=ORIENTED_EDGE('',*,*,#637,.F.);
#870=ORIENTED_EDGE('',*,*,#638,.F.);
#871=ORIENTED_EDGE('',*,*,#639,.F.);
#872=ORIENTED_EDGE('',*,*,#638,.T.);
#873=ORIENTED_EDGE('',*,*,#640,.F.);
#874=ORIENTED_EDGE('',*,*,#641,.F.);
#875=ORIENTED_EDGE('',*,*,#642,.F.);
#876=ORIENTED_EDGE('',*,*,#641,.T.);
#877=ORIENTED_EDGE('',*,*,#643,.F.);
#878=ORIENTED_EDGE('',*,*,#644,.F.);
#879=ORIENTED_EDGE('',*,*,#645,.T.);
#880=ORIENTED_EDGE('',*,*,#644,.T.);
#881=ORIENTED_EDGE('',*,*,#646,.F.);
#882=ORIENTED_EDGE('',*,*,#647,.F.);
#883=ORIENTED_EDGE('',*,*,#648,.T.);
#884=ORIENTED_EDGE('',*,*,#647,.T.);
#885=ORIENTED_EDGE('',*,*,#649,.F.);
#886=ORIENTED_EDGE('',*,*,#650,.F.);
#887=ORIENTED_EDGE('',*,*,#651,.T.);
#888=ORIENTED_EDGE('',*,*,#650,.T.);
#889=ORIENTED_EDGE('',*,*,#652,.F.);
#890=ORIENTED_EDGE('',*,*,#653,.F.);
#891=ORIENTED_EDGE('',*,*,#654,.F.);
#892=ORIENTED_EDGE('',*,*,#653,.T.);
#893=ORIENTED_EDGE('',*,*,#655,.F.);
#894=ORIENTED_EDGE('',*,*,#656,.F.);
#895=ORIENTED_EDGE('',*,*,#657,.T.);
#896=ORIENTED_EDGE('',*,*,#656,.T.);
#897=ORIENTED_EDGE('',*,*,#658,.F.);
#898=ORIENTED_EDGE('',*,*,#588,.F.);
#899=ORIENTED_EDGE('',*,*,#658,.T.);
#900=ORIENTED_EDGE('',*,*,#655,.T.);
#901=ORIENTED_EDGE('',*,*,#652,.T.);
#902=ORIENTED_EDGE('',*,*,#649,.T.);
#903=ORIENTED_EDGE('',*,*,#646,.T.);
#904=ORIENTED_EDGE('',*,*,#643,.T.);
#905=ORIENTED_EDGE('',*,*,#640,.T.);
#906=ORIENTED_EDGE('',*,*,#637,.T.);
#907=ORIENTED_EDGE('',*,*,#634,.T.);
#908=ORIENTED_EDGE('',*,*,#631,.T.);
#909=ORIENTED_EDGE('',*,*,#628,.T.);
#910=ORIENTED_EDGE('',*,*,#625,.T.);
#911=ORIENTED_EDGE('',*,*,#622,.T.);
#912=ORIENTED_EDGE('',*,*,#619,.T.);
#913=ORIENTED_EDGE('',*,*,#616,.T.);
#914=ORIENTED_EDGE('',*,*,#613,.T.);
#915=ORIENTED_EDGE('',*,*,#610,.T.);
#916=ORIENTED_EDGE('',*,*,#607,.T.);
#917=ORIENTED_EDGE('',*,*,#604,.T.);
#918=ORIENTED_EDGE('',*,*,#601,.T.);
#919=ORIENTED_EDGE('',*,*,#598,.T.);
#920=ORIENTED_EDGE('',*,*,#595,.T.);
#921=ORIENTED_EDGE('',*,*,#592,.T.);
#922=ORIENTED_EDGE('',*,*,#589,.T.);
#923=ORIENTED_EDGE('',*,*,#657,.F.);
#924=ORIENTED_EDGE('',*,*,#587,.T.);
#925=ORIENTED_EDGE('',*,*,#591,.T.);
#926=ORIENTED_EDGE('',*,*,#594,.T.);
#927=ORIENTED_EDGE('',*,*,#597,.F.);
#928=ORIENTED_EDGE('',*,*,#600,.F.);
#929=ORIENTED_EDGE('',*,*,#603,.T.);
#930=ORIENTED_EDGE('',*,*,#606,.T.);
#931=ORIENTED_EDGE('',*,*,#609,.T.);
#932=ORIENTED_EDGE('',*,*,#612,.F.);
#933=ORIENTED_EDGE('',*,*,#615,.F.);
#934=ORIENTED_EDGE('',*,*,#618,.F.);
#935=ORIENTED_EDGE('',*,*,#621,.F.);
#936=ORIENTED_EDGE('',*,*,#624,.F.);
#937=ORIENTED_EDGE('',*,*,#627,.F.);
#938=ORIENTED_EDGE('',*,*,#630,.T.);
#939=ORIENTED_EDGE('',*,*,#633,.T.);
#940=ORIENTED_EDGE('',*,*,#636,.T.);
#941=ORIENTED_EDGE('',*,*,#639,.T.);
#942=ORIENTED_EDGE('',*,*,#642,.T.);
#943=ORIENTED_EDGE('',*,*,#645,.F.);
#944=ORIENTED_EDGE('',*,*,#648,.F.);
#945=ORIENTED_EDGE('',*,*,#651,.F.);
#946=ORIENTED_EDGE('',*,*,#654,.T.);
#947=PLANE('',#1078);
#948=PLANE('',#1079);
#949=PLANE('',#1080);
#950=PLANE('',#1081);
#951=PLANE('',#1082);
#952=PLANE('',#1083);
#953=PLANE('',#1084);
#954=PLANE('',#1085);
#955=PLANE('',#1086);
#956=PLANE('',#1087);
#957=PLANE('',#1088);
#958=PLANE('',#1089);
#959=PLANE('',#1090);
#960=PLANE('',#1091);
#961=PLANE('',#1092);
#962=PLANE('',#1093);
#963=PLANE('',#1094);
#964=PLANE('',#1095);
#965=PLANE('',#1096);
#966=PLANE('',#1097);
#967=PLANE('',#1098);
#968=PLANE('',#1099);
#969=PLANE('',#1100);
#970=PLANE('',#1101);
#971=PLANE('',#1102);
#972=PLANE('',#1103);
#973=PLANE('',#1105);
#974=PLANE('',#1106);
#975=PLANE('',#1107);
#976=PLANE('',#1108);
#977=PLANE('',#1109);
#978=PLANE('',#1110);
#979=PLANE('',#1111);
#980=PLANE('',#1112);
#981=PLANE('',#1113);
#982=PLANE('',#1114);
#983=PLANE('',#1115);
#984=PLANE('',#1116);
#985=PLANE('',#1117);
#986=PLANE('',#1118);
#987=PLANE('',#1119);
#988=PLANE('',#1120);
#989=PLANE('',#1121);
#990=PLANE('',#1122);
#991=PLANE('',#1123);
#992=PLANE('',#1124);
#993=PLANE('',#1125);
#994=PLANE('',#1126);
#995=PLANE('',#1127);
#996=PLANE('',#1128);
#997=PLANE('',#1129);
#998=PLANE('',#1130);
#999=ADVANCED_FACE('',(#27),#947,.T.);
#1000=ADVANCED_FACE('',(#28),#948,.T.);
#1001=ADVANCED_FACE('',(#29),#949,.T.);
#1002=ADVANCED_FACE('',(#30),#950,.T.);
#1003=ADVANCED_FACE('',(#31),#951,.T.);
#1004=ADVANCED_FACE('',(#32),#952,.T.);
#1005=ADVANCED_FACE('',(#33),#953,.T.);
#1006=ADVANCED_FACE('',(#34),#954,.T.);
#1007=ADVANCED_FACE('',(#35),#955,.T.);
#1008=ADVANCED_FACE('',(#36),#956,.T.);
#1009=ADVANCED_FACE('',(#37),#957,.T.);
#1010=ADVANCED_FACE('',(#38),#958,.T.);
#1011=ADVANCED_FACE('',(#39),#959,.T.);
#1012=ADVANCED_FACE('',(#40),#960,.T.);
#1013=ADVANCED_FACE('',(#41),#961,.T.);
#1014=ADVANCED_FACE('',(#42),#962,.T.);
#1015=ADVANCED_FACE('',(#43),#963,.T.);
#1016=ADVANCED_FACE('',(#44),#964,.T.);
#1017=ADVANCED_FACE('',(#45),#965,.T.);
#1018=ADVANCED_FACE('',(#46),#966,.T.);
#1019=ADVANCED_FACE('',(#47),#967,.T.);
#1020=ADVANCED_FACE('',(#48),#968,.T.);
#1021=ADVANCED_FACE('',(#49),#969,.T.);
#1022=ADVANCED_FACE('',(#50),#970,.T.);
#1023=ADVANCED_FACE('',(#51),#971,.T.);
#1024=ADVANCED_FACE('',(#52),#972,.F.);
#1025=ADVANCED_FACE('',(#53),#973,.T.);
#1026=ADVANCED_FACE('',(#54),#974,.T.);
#1027=ADVANCED_FACE('',(#55),#975,.T.);
#1028=ADVANCED_FACE('',(#56),#976,.T.);
#1029=ADVANCED_FACE('',(#57),#977,.T.);
#1030=ADVANCED_FACE('',(#58),#978,.T.);
#1031=ADVANCED_FACE('',(#59),#979,.T.);
#1032=ADVANCED_FACE('',(#60),#980,.T.);
#1033=ADVANCED_FACE('',(#61),#981,.T.);
#1034=ADVANCED_FACE('',(#62),#982,.T.);
#1035=ADVANCED_FACE('',(#63),#983,.T.);
#1036=ADVANCED_FACE('',(#64),#984,.T.);
#1037=ADVANCED_FACE('',(#65),#985,.T.);
#1038=ADVANCED_FACE('',(#66),#986,.T.);
#1039=ADVANCED_FACE('',(#67),#987,.T.);
#1040=ADVANCED_FACE('',(#68),#988,.T.);
#1041=ADVANCED_FACE('',(#69),#989,.T.);
#1042=ADVANCED_FACE('',(#70),#990,.T.);
#1043=ADVANCED_FACE('',(#71),#991,.T.);
#1044=ADVANCED_FACE('',(#72),#992,.T.);
#1045=ADVANCED_FACE('',(#73),#993,.T.);
#1046=ADVANCED_FACE('',(#74),#994,.T.);
#1047=ADVANCED_FACE('',(#75),#995,.T.);
#1048=ADVANCED_FACE('',(#76),#996,.T.);
#1049=ADVANCED_FACE('',(#77),#997,.T.);
#1050=ADVANCED_FACE('',(#78),#998,.F.);
#1051=CLOSED_SHELL('',(#999,#1000,#1001,#1002,#1003,#1004,#1005,#1006,#1007,
#1008,#1009,#1010,#1011,#1012,#1013,#1014,#1015,#1016,#1017,#1018,#1019,
#1020,#1021,#1022,#1023,#1024));
#1052=CLOSED_SHELL('',(#1025,#1026,#1027,#1028,#1029,#1030,#1031,#1032,
#1033,#1034,#1035,#1036,#1037,#1038,#1039,#1040,#1041,#1042,#1043,#1044,
#1045,#1046,#1047,#1048,#1049,#1050));
#1053=DERIVED_UNIT_ELEMENT(#1057,1.);
#1054=DERIVED_UNIT_ELEMENT(#1697,-3.);
#1055=DERIVED_UNIT_ELEMENT(#1057,1.);
#1056=DERIVED_UNIT_ELEMENT(#1697,-3.);
#1057=(
MASS_UNIT()
NAMED_UNIT(*)
SI_UNIT(.KILO.,.GRAM.)
);
#1058=DERIVED_UNIT((#1053,#1054));
#1059=DERIVED_UNIT((#1055,#1056));
#1060=MEASURE_REPRESENTATION_ITEM('density measure',
POSITIVE_RATIO_MEASURE(7850.),#1058);
#1061=MEASURE_REPRESENTATION_ITEM('density measure',
POSITIVE_RATIO_MEASURE(7850.),#1059);
#1062=PROPERTY_DEFINITION_REPRESENTATION(#1072,#1066);
#1063=PROPERTY_DEFINITION_REPRESENTATION(#1073,#1067);
#1064=PROPERTY_DEFINITION_REPRESENTATION(#1074,#1068);
#1065=PROPERTY_DEFINITION_REPRESENTATION(#1075,#1069);
#1066=REPRESENTATION('material name',(#1070),#1693);
#1067=REPRESENTATION('density',(#1060),#1693);
#1068=REPRESENTATION('material name',(#1071),#1694);
#1069=REPRESENTATION('density',(#1061),#1694);
#1070=DESCRIPTIVE_REPRESENTATION_ITEM('Steel','Steel');
#1071=DESCRIPTIVE_REPRESENTATION_ITEM('Steel','Steel');
#1072=PROPERTY_DEFINITION('material property','material name',#1713);
#1073=PROPERTY_DEFINITION('material property','density of part',#1713);
#1074=PROPERTY_DEFINITION('material property','material name',#1714);
#1075=PROPERTY_DEFINITION('material property','density of part',#1714);
#1076=AXIS2_PLACEMENT_3D('',#1391,#1133,#1134);
#1077=AXIS2_PLACEMENT_3D('',#1392,#1135,#1136);
#1078=AXIS2_PLACEMENT_3D('',#1393,#1137,#1138);
#1079=AXIS2_PLACEMENT_3D('',#1402,#1143,#1144);
#1080=AXIS2_PLACEMENT_3D('',#1408,#1148,#1149);
#1081=AXIS2_PLACEMENT_3D('',#1414,#1153,#1154);
#1082=AXIS2_PLACEMENT_3D('',#1420,#1158,#1159);
#1083=AXIS2_PLACEMENT_3D('',#1426,#1163,#1164);
#1084=AXIS2_PLACEMENT_3D('',#1432,#1168,#1169);
#1085=AXIS2_PLACEMENT_3D('',#1438,#1173,#1174);
#1086=AXIS2_PLACEMENT_3D('',#1444,#1178,#1179);
#1087=AXIS2_PLACEMENT_3D('',#1450,#1183,#1184);
#1088=AXIS2_PLACEMENT_3D('',#1456,#1188,#1189);
#1089=AXIS2_PLACEMENT_3D('',#1462,#1193,#1194);
#1090=AXIS2_PLACEMENT_3D('',#1468,#1198,#1199);
#1091=AXIS2_PLACEMENT_3D('',#1474,#1203,#1204);
#1092=AXIS2_PLACEMENT_3D('',#1480,#1208,#1209);
#1093=AXIS2_PLACEMENT_3D('',#1486,#1213,#1214);
#1094=AXIS2_PLACEMENT_3D('',#1492,#1218,#1219);
#1095=AXIS2_PLACEMENT_3D('',#1498,#1223,#1224);
#1096=AXIS2_PLACEMENT_3D('',#1504,#1228,#1229);
#1097=AXIS2_PLACEMENT_3D('',#1510,#1233,#1234);
#1098=AXIS2_PLACEMENT_3D('',#1516,#1238,#1239);
#1099=AXIS2_PLACEMENT_3D('',#1522,#1243,#1244);
#1100=AXIS2_PLACEMENT_3D('',#1528,#1248,#1249);
#1101=AXIS2_PLACEMENT_3D('',#1534,#1253,#1254);
#1102=AXIS2_PLACEMENT_3D('',#1537,#1257,#1258);
#1103=AXIS2_PLACEMENT_3D('',#1538,#1259,#1260);
#1104=AXIS2_PLACEMENT_3D('',#1539,#1261,#1262);
#1105=AXIS2_PLACEMENT_3D('',#1540,#1263,#1264);
#1106=AXIS2_PLACEMENT_3D('',#1549,#1269,#1270);
#1107=AXIS2_PLACEMENT_3D('',#1555,#1274,#1275);
#1108=AXIS2_PLACEMENT_3D('',#1561,#1279,#1280);
#1109=AXIS2_PLACEMENT_3D('',#1567,#1284,#1285);
#1110=AXIS2_PLACEMENT_3D('',#1573,#1289,#1290);
#1111=AXIS2_PLACEMENT_3D('',#1579,#1294,#1295);
#1112=AXIS2_PLACEMENT_3D('',#1585,#1299,#1300);
#1113=AXIS2_PLACEMENT_3D('',#1591,#1304,#1305);
#1114=AXIS2_PLACEMENT_3D('',#1597,#1309,#1310);
#1115=AXIS2_PLACEMENT_3D('',#1603,#1314,#1315);
#1116=AXIS2_PLACEMENT_3D('',#1609,#1319,#1320);
#1117=AXIS2_PLACEMENT_3D('',#1615,#1324,#1325);
#1118=AXIS2_PLACEMENT_3D('',#1621,#1329,#1330);
#1119=AXIS2_PLACEMENT_3D('',#1627,#1334,#1335);
#1120=AXIS2_PLACEMENT_3D('',#1633,#1339,#1340);
#1121=AXIS2_PLACEMENT_3D('',#1639,#1344,#1345);
#1122=AXIS2_PLACEMENT_3D('',#1645,#1349,#1350);
#1123=AXIS2_PLACEMENT_3D('',#1651,#1354,#1355);
#1124=AXIS2_PLACEMENT_3D('',#1657,#1359,#1360);
#1125=AXIS2_PLACEMENT_3D('',#1663,#1364,#1365);
#1126=AXIS2_PLACEMENT_3D('',#1669,#1369,#1370);
#1127=AXIS2_PLACEMENT_3D('',#1675,#1374,#1375);
#1128=AXIS2_PLACEMENT_3D('',#1681,#1379,#1380);
#1129=AXIS2_PLACEMENT_3D('',#1684,#1383,#1384);
#1130=AXIS2_PLACEMENT_3D('',#1685,#1385,#1386);
#1131=AXIS2_PLACEMENT_3D('',#1686,#1387,#1388);
#1132=AXIS2_PLACEMENT_3D('',#1687,#1389,#1390);
#1133=DIRECTION('axis',(0.,0.,1.));
#1134=DIRECTION('refdir',(1.,0.,0.));
#1135=DIRECTION('axis',(0.,0.,1.));
#1136=DIRECTION('refdir',(1.,0.,0.));
#1137=DIRECTION('center_axis',(0.,-1.,0.));
#1138=DIRECTION('ref_axis',(1.,0.,0.));
#1139=DIRECTION('',(-1.,0.,0.));
#1140=DIRECTION('',(0.,0.,1.));
#1141=DIRECTION('',(1.,0.,0.));
#1142=DIRECTION('',(0.,0.,1.));
#1143=DIRECTION('center_axis',(1.,0.,0.));
#1144=DIRECTION('ref_axis',(0.,1.,0.));
#1145=DIRECTION('',(0.,-1.,0.));
#1146=DIRECTION('',(0.,1.,0.));
#1147=DIRECTION('',(0.,0.,1.));
#1148=DIRECTION('center_axis',(4.44089209850063E-16,1.,0.));
#1149=DIRECTION('ref_axis',(-1.,4.44089209850063E-16,0.));
#1150=DIRECTION('',(1.,-4.44089209850063E-16,0.));
#1151=DIRECTION('',(-1.,4.44089209850063E-16,0.));
#1152=DIRECTION('',(0.,0.,1.));
#1153=DIRECTION('center_axis',(1.,0.,0.));
#1154=DIRECTION('ref_axis',(0.,1.,0.));
#1155=DIRECTION('',(0.,1.,0.));
#1156=DIRECTION('',(0.,1.,0.));
#1157=DIRECTION('',(0.,0.,1.));
#1158=DIRECTION('center_axis',(0.,-1.,0.));
#1159=DIRECTION('ref_axis',(1.,0.,0.));
#1160=DIRECTION('',(1.,0.,0.));
#1161=DIRECTION('',(1.,0.,0.));
#1162=DIRECTION('',(0.,0.,1.));
#1163=DIRECTION('center_axis',(1.,0.,0.));
#1164=DIRECTION('ref_axis',(0.,1.,0.));
#1165=DIRECTION('',(0.,-1.,0.));
#1166=DIRECTION('',(0.,1.,0.));
#1167=DIRECTION('',(0.,0.,1.));
#1168=DIRECTION('center_axis',(0.,-1.,0.));
#1169=DIRECTION('ref_axis',(1.,0.,0.));
#1170=DIRECTION('',(-1.,0.,0.));
#1171=DIRECTION('',(1.,0.,0.));
#1172=DIRECTION('',(0.,0.,1.));
#1173=DIRECTION('center_axis',(-1.,0.,0.));
#1174=DIRECTION('ref_axis',(0.,-1.,0.));
#1175=DIRECTION('',(0.,1.,0.));
#1176=DIRECTION('',(0.,-1.,0.));
#1177=DIRECTION('',(0.,0.,1.));
#1178=DIRECTION('center_axis',(0.,-1.,0.));
#1179=DIRECTION('ref_axis',(1.,0.,0.));
#1180=DIRECTION('',(1.,0.,0.));
#1181=DIRECTION('',(1.,0.,0.));
#1182=DIRECTION('',(0.,0.,1.));
#1183=DIRECTION('center_axis',(1.,0.,0.));
#1184=DIRECTION('ref_axis',(0.,1.,0.));
#1185=DIRECTION('',(0.,1.,0.));
#1186=DIRECTION('',(0.,1.,0.));
#1187=DIRECTION('',(0.,0.,1.));
#1188=DIRECTION('center_axis',(0.,-1.,0.));
#1189=DIRECTION('ref_axis',(1.,0.,0.));
#1190=DIRECTION('',(1.,0.,0.));
#1191=DIRECTION('',(1.,0.,0.));
#1192=DIRECTION('',(0.,0.,1.));
#1193=DIRECTION('center_axis',(-1.,0.,0.));
#1194=DIRECTION('ref_axis',(0.,-1.,0.));
#1195=DIRECTION('',(0.,-1.,0.));
#1196=DIRECTION('',(0.,-1.,0.));
#1197=DIRECTION('',(0.,0.,1.));
#1198=DIRECTION('center_axis',(0.,-1.,0.));
#1199=DIRECTION('ref_axis',(1.,0.,0.));
#1200=DIRECTION('',(1.,0.,0.));
#1201=DIRECTION('',(1.,0.,0.));
#1202=DIRECTION('',(0.,0.,1.));
#1203=DIRECTION('center_axis',(-1.,0.,0.));
#1204=DIRECTION('ref_axis',(0.,-1.,0.));
#1205=DIRECTION('',(0.,-1.,0.));
#1206=DIRECTION('',(0.,-1.,0.));
#1207=DIRECTION('',(0.,0.,1.));
#1208=DIRECTION('center_axis',(0.,1.,0.));
#1209=DIRECTION('ref_axis',(-1.,0.,0.));
#1210=DIRECTION('',(1.,0.,0.));
#1211=DIRECTION('',(-1.,0.,0.));
#1212=DIRECTION('',(0.,0.,1.));
#1213=DIRECTION('center_axis',(-1.,0.,0.));
#1214=DIRECTION('ref_axis',(0.,-1.,0.));
#1215=DIRECTION('',(0.,1.,0.));
#1216=DIRECTION('',(0.,-1.,0.));
#1217=DIRECTION('',(0.,0.,1.));
#1218=DIRECTION('center_axis',(0.,1.,0.));
#1219=DIRECTION('ref_axis',(-1.,0.,0.));
#1220=DIRECTION('',(1.,0.,0.));
#1221=DIRECTION('',(-1.,0.,0.));
#1222=DIRECTION('',(0.,0.,1.));
#1223=DIRECTION('center_axis',(1.,0.,0.));
#1224=DIRECTION('ref_axis',(0.,1.,0.));
#1225=DIRECTION('',(0.,-1.,0.));
#1226=DIRECTION('',(0.,1.,0.));
#1227=DIRECTION('',(0.,0.,1.));
#1228=DIRECTION('center_axis',(0.,1.,0.));
#1229=DIRECTION('ref_axis',(-1.,0.,0.));
#1230=DIRECTION('',(1.,0.,0.));
#1231=DIRECTION('',(-1.,0.,0.));
#1232=DIRECTION('',(0.,0.,1.));
#1233=DIRECTION('center_axis',(-1.,0.,0.));
#1234=DIRECTION('ref_axis',(0.,-1.,0.));
#1235=DIRECTION('',(0.,-1.,0.));
#1236=DIRECTION('',(0.,-1.,0.));
#1237=DIRECTION('',(0.,0.,1.));
#1238=DIRECTION('center_axis',(0.,1.,0.));
#1239=DIRECTION('ref_axis',(-1.,0.,0.));
#1240=DIRECTION('',(-1.,0.,0.));
#1241=DIRECTION('',(-1.,0.,0.));
#1242=DIRECTION('',(0.,0.,1.));
#1243=DIRECTION('center_axis',(1.,0.,0.));
#1244=DIRECTION('ref_axis',(0.,1.,0.));
#1245=DIRECTION('',(0.,1.,0.));
#1246=DIRECTION('',(0.,1.,0.));
#1247=DIRECTION('',(0.,0.,1.));
#1248=DIRECTION('center_axis',(0.,1.,0.));
#1249=DIRECTION('ref_axis',(-1.,0.,0.));
#1250=DIRECTION('',(1.,0.,0.));
#1251=DIRECTION('',(-1.,0.,0.));
#1252=DIRECTION('',(0.,0.,1.));
#1253=DIRECTION('center_axis',(1.,0.,0.));
#1254=DIRECTION('ref_axis',(0.,1.,0.));
#1255=DIRECTION('',(0.,1.,0.));
#1256=DIRECTION('',(0.,1.,0.));
#1257=DIRECTION('center_axis',(0.,0.,1.));
#1258=DIRECTION('ref_axis',(1.,0.,0.));
#1259=DIRECTION('center_axis',(0.,0.,1.));
#1260=DIRECTION('ref_axis',(1.,0.,0.));
#1261=DIRECTION('axis',(0.,0.,1.));
#1262=DIRECTION('refdir',(1.,0.,0.));
#1263=DIRECTION('center_axis',(0.,-1.,0.));
#1264=DIRECTION('ref_axis',(1.,0.,0.));
#1265=DIRECTION('',(-1.,0.,0.));
#1266=DIRECTION('',(0.,0.,1.));
#1267=DIRECTION('',(1.,0.,0.));
#1268=DIRECTION('',(0.,0.,1.));
#1269=DIRECTION('center_axis',(1.,0.,0.));
#1270=DIRECTION('ref_axis',(0.,1.,0.));
#1271=DIRECTION('',(0.,-1.,0.));
#1272=DIRECTION('',(0.,1.,0.));
#1273=DIRECTION('',(0.,0.,1.));
#1274=DIRECTION('center_axis',(4.44089209850063E-16,1.,0.));
#1275=DIRECTION('ref_axis',(-1.,4.44089209850063E-16,0.));
#1276=DIRECTION('',(1.,-4.44089209850063E-16,0.));
#1277=DIRECTION('',(-1.,4.44089209850063E-16,0.));
#1278=DIRECTION('',(0.,0.,1.));
#1279=DIRECTION('center_axis',(1.,0.,0.));
#1280=DIRECTION('ref_axis',(0.,1.,0.));
#1281=DIRECTION('',(0.,1.,0.));
#1282=DIRECTION('',(0.,1.,0.));
#1283=DIRECTION('',(0.,0.,1.));
#1284=DIRECTION('center_axis',(0.,-1.,0.));
#1285=DIRECTION('ref_axis',(1.,0.,0.));
#1286=DIRECTION('',(1.,0.,0.));
#1287=DIRECTION('',(1.,0.,0.));
#1288=DIRECTION('',(0.,0.,1.));
#1289=DIRECTION('center_axis',(1.,0.,0.));
#1290=DIRECTION('ref_axis',(0.,1.,0.));
#1291=DIRECTION('',(0.,-1.,0.));
#1292=DIRECTION('',(0.,1.,0.));
#1293=DIRECTION('',(0.,0.,1.));
#1294=DIRECTION('center_axis',(0.,-1.,0.));
#1295=DIRECTION('ref_axis',(1.,0.,0.));
#1296=DIRECTION('',(-1.,0.,0.));
#1297=DIRECTION('',(1.,0.,0.));
#1298=DIRECTION('',(0.,0.,1.));
#1299=DIRECTION('center_axis',(-1.,0.,0.));
#1300=DIRECTION('ref_axis',(0.,-1.,0.));
#1301=DIRECTION('',(0.,1.,0.));
#1302=DIRECTION('',(0.,-1.,0.));
#1303=DIRECTION('',(0.,0.,1.));
#1304=DIRECTION('center_axis',(0.,-1.,0.));
#1305=DIRECTION('ref_axis',(1.,0.,0.));
#1306=DIRECTION('',(1.,0.,0.));
#1307=DIRECTION('',(1.,0.,0.));
#1308=DIRECTION('',(0.,0.,1.));
#1309=DIRECTION('center_axis',(1.,0.,0.));
#1310=DIRECTION('ref_axis',(0.,1.,0.));
#1311=DIRECTION('',(0.,1.,0.));
#1312=DIRECTION('',(0.,1.,0.));
#1313=DIRECTION('',(0.,0.,1.));
#1314=DIRECTION('center_axis',(0.,-1.,0.));
#1315=DIRECTION('ref_axis',(1.,0.,0.));
#1316=DIRECTION('',(1.,0.,0.));
#1317=DIRECTION('',(1.,0.,0.));
#1318=DIRECTION('',(0.,0.,1.));
#1319=DIRECTION('center_axis',(-1.,0.,0.));
#1320=DIRECTION('ref_axis',(0.,-1.,0.));
#1321=DIRECTION('',(0.,-1.,0.));
#1322=DIRECTION('',(0.,-1.,0.));
#1323=DIRECTION('',(0.,0.,1.));
#1324=DIRECTION('center_axis',(0.,-1.,0.));
#1325=DIRECTION('ref_axis',(1.,0.,0.));
#1326=DIRECTION('',(1.,0.,0.));
#1327=DIRECTION('',(1.,0.,0.));
#1328=DIRECTION('',(0.,0.,1.));
#1329=DIRECTION('center_axis',(-1.,0.,0.));
#1330=DIRECTION('ref_axis',(0.,-1.,0.));
#1331=DIRECTION('',(0.,-1.,0.));
#1332=DIRECTION('',(0.,-1.,0.));
#1333=DIRECTION('',(0.,0.,1.));
#1334=DIRECTION('center_axis',(0.,1.,0.));
#1335=DIRECTION('ref_axis',(-1.,0.,0.));
#1336=DIRECTION('',(1.,0.,0.));
#1337=DIRECTION('',(-1.,0.,0.));
#1338=DIRECTION('',(0.,0.,1.));
#1339=DIRECTION('center_axis',(-1.,0.,0.));
#1340=DIRECTION('ref_axis',(0.,-1.,0.));
#1341=DIRECTION('',(0.,1.,0.));
#1342=DIRECTION('',(0.,-1.,0.));
#1343=DIRECTION('',(0.,0.,1.));
#1344=DIRECTION('center_axis',(0.,1.,0.));
#1345=DIRECTION('ref_axis',(-1.,0.,0.));
#1346=DIRECTION('',(1.,0.,0.));
#1347=DIRECTION('',(-1.,0.,0.));
#1348=DIRECTION('',(0.,0.,1.));
#1349=DIRECTION('center_axis',(1.,0.,0.));
#1350=DIRECTION('ref_axis',(0.,1.,0.));
#1351=DIRECTION('',(0.,-1.,0.));
#1352=DIRECTION('',(0.,1.,0.));
#1353=DIRECTION('',(0.,0.,1.));
#1354=DIRECTION('center_axis',(0.,1.,0.));
#1355=DIRECTION('ref_axis',(-1.,0.,0.));
#1356=DIRECTION('',(1.,0.,0.));
#1357=DIRECTION('',(-1.,0.,0.));
#1358=DIRECTION('',(0.,0.,1.));
#1359=DIRECTION('center_axis',(-1.,0.,0.));
#1360=DIRECTION('ref_axis',(0.,-1.,0.));
#1361=DIRECTION('',(0.,-1.,0.));
#1362=DIRECTION('',(0.,-1.,0.));
#1363=DIRECTION('',(0.,0.,1.));
#1364=DIRECTION('center_axis',(0.,1.,0.));
#1365=DIRECTION('ref_axis',(-1.,0.,0.));
#1366=DIRECTION('',(-1.,0.,0.));
#1367=DIRECTION('',(-1.,0.,0.));
#1368=DIRECTION('',(0.,0.,1.));
#1369=DIRECTION('center_axis',(1.,0.,0.));
#1370=DIRECTION('ref_axis',(0.,1.,0.));
#1371=DIRECTION('',(0.,1.,0.));
#1372=DIRECTION('',(0.,1.,0.));
#1373=DIRECTION('',(0.,0.,1.));
#1374=DIRECTION('center_axis',(0.,1.,0.));
#1375=DIRECTION('ref_axis',(-1.,0.,0.));
#1376=DIRECTION('',(1.,0.,0.));
#1377=DIRECTION('',(-1.,0.,0.));
#1378=DIRECTION('',(0.,0.,1.));
#1379=DIRECTION('center_axis',(1.,0.,0.));
#1380=DIRECTION('ref_axis',(0.,1.,0.));
#1381=DIRECTION('',(0.,1.,0.));
#1382=DIRECTION('',(0.,1.,0.));
#1383=DIRECTION('center_axis',(0.,0.,1.));
#1384=DIRECTION('ref_axis',(1.,0.,0.));
#1385=DIRECTION('center_axis',(0.,0.,1.));
#1386=DIRECTION('ref_axis',(1.,0.,0.));
#1387=DIRECTION('',(0.,0.,1.));
#1388=DIRECTION('',(1.,0.,0.));
#1389=DIRECTION('',(0.,0.,1.));
#1390=DIRECTION('',(1.,0.,0.));
#1391=CARTESIAN_POINT('',(0.,0.,0.));
#1392=CARTESIAN_POINT('',(0.,0.,0.));
#1393=CARTESIAN_POINT('Origin',(15.0000000000001,58.,0.));
#1394=CARTESIAN_POINT('',(35.,58.,0.));
#1395=CARTESIAN_POINT('',(15.0000000000001,58.,0.));
#1396=CARTESIAN_POINT('',(55.0000000000001,58.,0.));
#1397=CARTESIAN_POINT('',(35.,58.,2.5));
#1398=CARTESIAN_POINT('',(35.,58.,0.));
#1399=CARTESIAN_POINT('',(15.0000000000001,58.,2.5));
#1400=CARTESIAN_POINT('',(55.0000000000001,58.,2.5));
#1401=CARTESIAN_POINT('',(15.0000000000001,58.,0.));
#1402=CARTESIAN_POINT('Origin',(15.0000000000001,45.,0.));
#1403=CARTESIAN_POINT('',(15.0000000000001,45.,0.));
#1404=CARTESIAN_POINT('',(15.0000000000001,58.,0.));
#1405=CARTESIAN_POINT('',(15.0000000000001,45.,2.5));
#1406=CARTESIAN_POINT('',(15.0000000000001,58.,2.5));
#1407=CARTESIAN_POINT('',(15.0000000000001,45.,0.));
#1408=CARTESIAN_POINT('Origin',(35.,45.,0.));
#1409=CARTESIAN_POINT('',(35.,45.,0.));
#1410=CARTESIAN_POINT('',(15.0000000000001,45.,0.));
#1411=CARTESIAN_POINT('',(35.,45.,2.5));
#1412=CARTESIAN_POINT('',(15.0000000000001,45.,2.5));
#1413=CARTESIAN_POINT('',(35.,45.,0.));
#1414=CARTESIAN_POINT('Origin',(35.,5.00000007450581,0.));
#1415=CARTESIAN_POINT('',(35.0000005215406,5.00000007450581,0.));
#1416=CARTESIAN_POINT('',(35.,0.,0.));
#1417=CARTESIAN_POINT('',(35.0000005215406,5.00000007450581,2.5));
#1418=CARTESIAN_POINT('',(35.,0.,2.5));
#1419=CARTESIAN_POINT('',(35.0000005215406,5.00000007450581,0.));
#1420=CARTESIAN_POINT('Origin',(32.75,5.00000007450581,0.));
#1421=CARTESIAN_POINT('',(32.75,5.00000007450581,0.));
#1422=CARTESIAN_POINT('',(0.,5.00000007450581,0.));
#1423=CARTESIAN_POINT('',(32.75,5.00000007450581,2.5));
#1424=CARTESIAN_POINT('',(0.,5.00000007450581,2.5));
#1425=CARTESIAN_POINT('',(32.75,5.00000007450581,0.));
#1426=CARTESIAN_POINT('Origin',(32.75,0.,0.));
#1427=CARTESIAN_POINT('',(32.75,0.,0.));
#1428=CARTESIAN_POINT('',(32.75,5.00000007450581,0.));
#1429=CARTESIAN_POINT('',(32.75,0.,2.5));
#1430=CARTESIAN_POINT('',(32.75,5.00000007450581,2.5));
#1431=CARTESIAN_POINT('',(32.75,0.,0.));
#1432=CARTESIAN_POINT('Origin',(26.2500001303852,0.,0.));
#1433=CARTESIAN_POINT('',(26.2500001303852,0.,0.));
#1434=CARTESIAN_POINT('',(32.75,0.,0.));
#1435=CARTESIAN_POINT('',(26.2500001303852,0.,2.5));
#1436=CARTESIAN_POINT('',(32.75,0.,2.5));
#1437=CARTESIAN_POINT('',(26.2500001303852,0.,0.));
#1438=CARTESIAN_POINT('Origin',(26.2500001303852,5.00000007450581,0.));
#1439=CARTESIAN_POINT('',(26.2500001303852,5.00000007450581,0.));
#1440=CARTESIAN_POINT('',(26.2500001303852,0.,0.));
#1441=CARTESIAN_POINT('',(26.2500001303852,5.00000007450581,2.5));
#1442=CARTESIAN_POINT('',(26.2500001303852,0.,2.5));
#1443=CARTESIAN_POINT('',(26.2500001303852,5.00000007450581,0.));
#1444=CARTESIAN_POINT('Origin',(8.75000013038516,5.00000007450581,0.));
#1445=CARTESIAN_POINT('',(8.75000013038516,5.00000007450581,0.));
#1446=CARTESIAN_POINT('',(0.,5.00000007450581,0.));
#1447=CARTESIAN_POINT('',(8.75000013038516,5.00000007450581,2.5));
#1448=CARTESIAN_POINT('',(0.,5.00000007450581,2.5));
#1449=CARTESIAN_POINT('',(8.75000013038516,5.00000007450581,0.));
#1450=CARTESIAN_POINT('Origin',(8.75000013038516,0.,0.));
#1451=CARTESIAN_POINT('',(8.75000013038516,0.,0.));
#1452=CARTESIAN_POINT('',(8.75000013038516,0.,0.));
#1453=CARTESIAN_POINT('',(8.75000013038516,0.,2.5));
#1454=CARTESIAN_POINT('',(8.75000013038516,0.,2.5));
#1455=CARTESIAN_POINT('',(8.75000013038516,0.,0.));
#1456=CARTESIAN_POINT('Origin',(2.25,0.,0.));
#1457=CARTESIAN_POINT('',(2.25,0.,0.));
#1458=CARTESIAN_POINT('',(2.25,0.,0.));
#1459=CARTESIAN_POINT('',(2.25,0.,2.5));
#1460=CARTESIAN_POINT('',(2.25,0.,2.5));
#1461=CARTESIAN_POINT('',(2.25,0.,0.));
#1462=CARTESIAN_POINT('Origin',(2.25,5.00000007450581,0.));
#1463=CARTESIAN_POINT('',(2.25,5.00000007450581,0.));
#1464=CARTESIAN_POINT('',(2.25,5.00000007450581,0.));
#1465=CARTESIAN_POINT('',(2.25,5.00000007450581,2.5));
#1466=CARTESIAN_POINT('',(2.25,5.00000007450581,2.5));
#1467=CARTESIAN_POINT('',(2.25,5.00000007450581,0.));
#1468=CARTESIAN_POINT('Origin',(0.,5.00000007450581,0.));
#1469=CARTESIAN_POINT('',(0.,5.00000007450581,0.));
#1470=CARTESIAN_POINT('',(0.,5.00000007450581,0.));
#1471=CARTESIAN_POINT('',(0.,5.00000007450581,2.5));
#1472=CARTESIAN_POINT('',(0.,5.00000007450581,2.5));
#1473=CARTESIAN_POINT('',(0.,5.00000007450581,0.));
#1474=CARTESIAN_POINT('Origin',(0.,98.0000014603138,0.));
#1475=CARTESIAN_POINT('',(0.,98.0000014603138,0.));
#1476=CARTESIAN_POINT('',(0.,103.,0.));
#1477=CARTESIAN_POINT('',(0.,98.0000014603138,2.5));
#1478=CARTESIAN_POINT('',(0.,103.,2.5));
#1479=CARTESIAN_POINT('',(0.,98.0000014603138,0.));
#1480=CARTESIAN_POINT('Origin',(2.25,98.0000014603138,0.));
#1481=CARTESIAN_POINT('',(2.25,98.0000014603138,0.));
#1482=CARTESIAN_POINT('',(0.,98.0000014603138,0.));
#1483=CARTESIAN_POINT('',(2.25,98.0000014603138,2.5));
#1484=CARTESIAN_POINT('',(0.,98.0000014603138,2.5));
#1485=CARTESIAN_POINT('',(2.25,98.0000014603138,0.));
#1486=CARTESIAN_POINT('Origin',(2.25,103.,0.));
#1487=CARTESIAN_POINT('',(2.25,103.,0.));
#1488=CARTESIAN_POINT('',(2.25,97.9999999254942,0.));
#1489=CARTESIAN_POINT('',(2.25,103.,2.5));
#1490=CARTESIAN_POINT('',(2.25,97.9999999254942,2.5));
#1491=CARTESIAN_POINT('',(2.25,103.,0.));
#1492=CARTESIAN_POINT('Origin',(8.75000013038516,103.,0.));
#1493=CARTESIAN_POINT('',(8.75000013038516,103.,0.));
#1494=CARTESIAN_POINT('',(2.25,103.,0.));
#1495=CARTESIAN_POINT('',(8.75000013038516,103.,2.5));
#1496=CARTESIAN_POINT('',(2.25,103.,2.5));
#1497=CARTESIAN_POINT('',(8.75000013038516,103.,0.));
#1498=CARTESIAN_POINT('Origin',(8.75000013038516,98.0000014603138,0.));
#1499=CARTESIAN_POINT('',(8.75000013038516,98.0000014603138,0.));
#1500=CARTESIAN_POINT('',(8.75000013038516,103.,0.));
#1501=CARTESIAN_POINT('',(8.75000013038516,98.0000014603138,2.5));
#1502=CARTESIAN_POINT('',(8.75000013038516,103.,2.5));
#1503=CARTESIAN_POINT('',(8.75000013038516,98.0000014603138,0.));
#1504=CARTESIAN_POINT('Origin',(26.2500001303852,98.0000014603138,0.));
#1505=CARTESIAN_POINT('',(26.2500001303852,98.0000014603138,0.));
#1506=CARTESIAN_POINT('',(0.,98.0000014603138,0.));
#1507=CARTESIAN_POINT('',(26.2500001303852,98.0000014603138,2.5));
#1508=CARTESIAN_POINT('',(0.,98.0000014603138,2.5));
#1509=CARTESIAN_POINT('',(26.2500001303852,98.0000014603138,0.));
#1510=CARTESIAN_POINT('Origin',(26.2500001303852,103.,0.));
#1511=CARTESIAN_POINT('',(26.2500001303852,103.,0.));
#1512=CARTESIAN_POINT('',(26.2500001303852,103.,0.));
#1513=CARTESIAN_POINT('',(26.2500001303852,103.,2.5));
#1514=CARTESIAN_POINT('',(26.2500001303852,103.,2.5));
#1515=CARTESIAN_POINT('',(26.2500001303852,103.,0.));
#1516=CARTESIAN_POINT('Origin',(32.75,103.,0.));
#1517=CARTESIAN_POINT('',(32.75,103.,0.));
#1518=CARTESIAN_POINT('',(32.75,103.,0.));
#1519=CARTESIAN_POINT('',(32.75,103.,2.5));
#1520=CARTESIAN_POINT('',(32.75,103.,2.5));
#1521=CARTESIAN_POINT('',(32.75,103.,0.));
#1522=CARTESIAN_POINT('Origin',(32.75,98.0000014603138,0.));
#1523=CARTESIAN_POINT('',(32.75,98.0000014603138,0.));
#1524=CARTESIAN_POINT('',(32.75,98.0000014603138,0.));
#1525=CARTESIAN_POINT('',(32.75,98.0000014603138,2.5));
#1526=CARTESIAN_POINT('',(32.75,98.0000014603138,2.5));
#1527=CARTESIAN_POINT('',(32.75,98.0000014603138,0.));
#1528=CARTESIAN_POINT('Origin',(35.0000005215406,98.0000014603138,0.));
#1529=CARTESIAN_POINT('',(35.0000005215406,98.0000014603138,0.));
#1530=CARTESIAN_POINT('',(0.,98.0000014603138,0.));
#1531=CARTESIAN_POINT('',(35.0000005215406,98.0000014603138,2.5));
#1532=CARTESIAN_POINT('',(0.,98.0000014603138,2.5));
#1533=CARTESIAN_POINT('',(35.0000005215406,98.0000014603138,0.));
#1534=CARTESIAN_POINT('Origin',(35.,58.,0.));
#1535=CARTESIAN_POINT('',(35.,0.,0.));
#1536=CARTESIAN_POINT('',(35.,0.,2.5));
#1537=CARTESIAN_POINT('Origin',(17.5000002607703,51.5,2.5));
#1538=CARTESIAN_POINT('Origin',(17.5000002607703,51.5,0.));
#1539=CARTESIAN_POINT('',(0.,0.,0.));
#1540=CARTESIAN_POINT('Origin',(52.0000000000001,58.,0.));
#1541=CARTESIAN_POINT('',(72.,58.,0.));
#1542=CARTESIAN_POINT('',(52.0000000000001,58.,0.));
#1543=CARTESIAN_POINT('',(92.0000000000001,58.,0.));
#1544=CARTESIAN_POINT('',(72.,58.,2.5));
#1545=CARTESIAN_POINT('',(72.,58.,0.));
#1546=CARTESIAN_POINT('',(52.0000000000001,58.,2.5));
#1547=CARTESIAN_POINT('',(92.0000000000001,58.,2.5));
#1548=CARTESIAN_POINT('',(52.0000000000001,58.,0.));
#1549=CARTESIAN_POINT('Origin',(52.0000000000001,45.,0.));
#1550=CARTESIAN_POINT('',(52.0000000000001,45.,0.));
#1551=CARTESIAN_POINT('',(52.0000000000001,58.,0.));
#1552=CARTESIAN_POINT('',(52.0000000000001,45.,2.5));
#1553=CARTESIAN_POINT('',(52.0000000000001,58.,2.5));
#1554=CARTESIAN_POINT('',(52.0000000000001,45.,0.));
#1555=CARTESIAN_POINT('Origin',(72.,45.,0.));
#1556=CARTESIAN_POINT('',(72.,45.,0.));
#1557=CARTESIAN_POINT('',(52.0000000000001,45.,0.));
#1558=CARTESIAN_POINT('',(72.,45.,2.5));
#1559=CARTESIAN_POINT('',(52.0000000000001,45.,2.5));
#1560=CARTESIAN_POINT('',(72.,45.,0.));
#1561=CARTESIAN_POINT('Origin',(72.,5.00000007450581,0.));
#1562=CARTESIAN_POINT('',(72.0000005215406,5.00000007450581,0.));
#1563=CARTESIAN_POINT('',(72.,0.,0.));
#1564=CARTESIAN_POINT('',(72.0000005215406,5.00000007450581,2.5));
#1565=CARTESIAN_POINT('',(72.,0.,2.5));
#1566=CARTESIAN_POINT('',(72.0000005215406,5.00000007450581,0.));
#1567=CARTESIAN_POINT('Origin',(69.75,5.00000007450581,0.));
#1568=CARTESIAN_POINT('',(69.75,5.00000007450581,0.));
#1569=CARTESIAN_POINT('',(37.,5.00000007450581,0.));
#1570=CARTESIAN_POINT('',(69.75,5.00000007450581,2.5));
#1571=CARTESIAN_POINT('',(37.,5.00000007450581,2.5));
#1572=CARTESIAN_POINT('',(69.75,5.00000007450581,0.));
#1573=CARTESIAN_POINT('Origin',(69.75,0.,0.));
#1574=CARTESIAN_POINT('',(69.75,0.,0.));
#1575=CARTESIAN_POINT('',(69.75,5.00000007450581,0.));
#1576=CARTESIAN_POINT('',(69.75,0.,2.5));
#1577=CARTESIAN_POINT('',(69.75,5.00000007450581,2.5));
#1578=CARTESIAN_POINT('',(69.75,0.,0.));
#1579=CARTESIAN_POINT('Origin',(63.2500001303852,0.,0.));
#1580=CARTESIAN_POINT('',(63.2500001303852,0.,0.));
#1581=CARTESIAN_POINT('',(69.75,0.,0.));
#1582=CARTESIAN_POINT('',(63.2500001303852,0.,2.5));
#1583=CARTESIAN_POINT('',(69.75,0.,2.5));
#1584=CARTESIAN_POINT('',(63.2500001303852,0.,0.));
#1585=CARTESIAN_POINT('Origin',(63.2500001303852,5.00000007450581,0.));
#1586=CARTESIAN_POINT('',(63.2500001303852,5.00000007450581,0.));
#1587=CARTESIAN_POINT('',(63.2500001303852,0.,0.));
#1588=CARTESIAN_POINT('',(63.2500001303852,5.00000007450581,2.5));
#1589=CARTESIAN_POINT('',(63.2500001303852,0.,2.5));
#1590=CARTESIAN_POINT('',(63.2500001303852,5.00000007450581,0.));
#1591=CARTESIAN_POINT('Origin',(45.7500001303852,5.00000007450581,0.));
#1592=CARTESIAN_POINT('',(45.7500001303852,5.00000007450581,0.));
#1593=CARTESIAN_POINT('',(37.,5.00000007450581,0.));
#1594=CARTESIAN_POINT('',(45.7500001303852,5.00000007450581,2.5));
#1595=CARTESIAN_POINT('',(37.,5.00000007450581,2.5));
#1596=CARTESIAN_POINT('',(45.7500001303852,5.00000007450581,0.));
#1597=CARTESIAN_POINT('Origin',(45.7500001303852,0.,0.));
#1598=CARTESIAN_POINT('',(45.7500001303852,0.,0.));
#1599=CARTESIAN_POINT('',(45.7500001303852,0.,0.));
#1600=CARTESIAN_POINT('',(45.7500001303852,0.,2.5));
#1601=CARTESIAN_POINT('',(45.7500001303852,0.,2.5));
#1602=CARTESIAN_POINT('',(45.7500001303852,0.,0.));
#1603=CARTESIAN_POINT('Origin',(39.25,0.,0.));
#1604=CARTESIAN_POINT('',(39.25,0.,0.));
#1605=CARTESIAN_POINT('',(39.25,0.,0.));
#1606=CARTESIAN_POINT('',(39.25,0.,2.5));
#1607=CARTESIAN_POINT('',(39.25,0.,2.5));
#1608=CARTESIAN_POINT('',(39.25,0.,0.));
#1609=CARTESIAN_POINT('Origin',(39.25,5.00000007450581,0.));
#1610=CARTESIAN_POINT('',(39.25,5.00000007450581,0.));
#1611=CARTESIAN_POINT('',(39.25,5.00000007450581,0.));
#1612=CARTESIAN_POINT('',(39.25,5.00000007450581,2.5));
#1613=CARTESIAN_POINT('',(39.25,5.00000007450581,2.5));
#1614=CARTESIAN_POINT('',(39.25,5.00000007450581,0.));
#1615=CARTESIAN_POINT('Origin',(37.,5.00000007450581,0.));
#1616=CARTESIAN_POINT('',(37.,5.00000007450581,0.));
#1617=CARTESIAN_POINT('',(37.,5.00000007450581,0.));
#1618=CARTESIAN_POINT('',(37.,5.00000007450581,2.5));
#1619=CARTESIAN_POINT('',(37.,5.00000007450581,2.5));
#1620=CARTESIAN_POINT('',(37.,5.00000007450581,0.));
#1621=CARTESIAN_POINT('Origin',(37.,98.0000014603138,0.));
#1622=CARTESIAN_POINT('',(37.,98.0000014603138,0.));
#1623=CARTESIAN_POINT('',(37.,103.,0.));
#1624=CARTESIAN_POINT('',(37.,98.0000014603138,2.5));
#1625=CARTESIAN_POINT('',(37.,103.,2.5));
#1626=CARTESIAN_POINT('',(37.,98.0000014603138,0.));
#1627=CARTESIAN_POINT('Origin',(39.25,98.0000014603138,0.));
#1628=CARTESIAN_POINT('',(39.25,98.0000014603138,0.));
#1629=CARTESIAN_POINT('',(37.,98.0000014603138,0.));
#1630=CARTESIAN_POINT('',(39.25,98.0000014603138,2.5));
#1631=CARTESIAN_POINT('',(37.,98.0000014603138,2.5));
#1632=CARTESIAN_POINT('',(39.25,98.0000014603138,0.));
#1633=CARTESIAN_POINT('Origin',(39.25,103.,0.));
#1634=CARTESIAN_POINT('',(39.25,103.,0.));
#1635=CARTESIAN_POINT('',(39.25,97.9999999254942,0.));
#1636=CARTESIAN_POINT('',(39.25,103.,2.5));
#1637=CARTESIAN_POINT('',(39.25,97.9999999254942,2.5));
#1638=CARTESIAN_POINT('',(39.25,103.,0.));
#1639=CARTESIAN_POINT('Origin',(45.7500001303852,103.,0.));
#1640=CARTESIAN_POINT('',(45.7500001303852,103.,0.));
#1641=CARTESIAN_POINT('',(39.25,103.,0.));
#1642=CARTESIAN_POINT('',(45.7500001303852,103.,2.5));
#1643=CARTESIAN_POINT('',(39.25,103.,2.5));
#1644=CARTESIAN_POINT('',(45.7500001303852,103.,0.));
#1645=CARTESIAN_POINT('Origin',(45.7500001303852,98.0000014603138,0.));
#1646=CARTESIAN_POINT('',(45.7500001303852,98.0000014603138,0.));
#1647=CARTESIAN_POINT('',(45.7500001303852,103.,0.));
#1648=CARTESIAN_POINT('',(45.7500001303852,98.0000014603138,2.5));
#1649=CARTESIAN_POINT('',(45.7500001303852,103.,2.5));
#1650=CARTESIAN_POINT('',(45.7500001303852,98.0000014603138,0.));
#1651=CARTESIAN_POINT('Origin',(63.2500001303852,98.0000014603138,0.));
#1652=CARTESIAN_POINT('',(63.2500001303852,98.0000014603138,0.));
#1653=CARTESIAN_POINT('',(37.,98.0000014603138,0.));
#1654=CARTESIAN_POINT('',(63.2500001303852,98.0000014603138,2.5));
#1655=CARTESIAN_POINT('',(37.,98.0000014603138,2.5));
#1656=CARTESIAN_POINT('',(63.2500001303852,98.0000014603138,0.));
#1657=CARTESIAN_POINT('Origin',(63.2500001303852,103.,0.));
#1658=CARTESIAN_POINT('',(63.2500001303852,103.,0.));
#1659=CARTESIAN_POINT('',(63.2500001303852,103.,0.));
#1660=CARTESIAN_POINT('',(63.2500001303852,103.,2.5));
#1661=CARTESIAN_POINT('',(63.2500001303852,103.,2.5));
#1662=CARTESIAN_POINT('',(63.2500001303852,103.,0.));
#1663=CARTESIAN_POINT('Origin',(69.75,103.,0.));
#1664=CARTESIAN_POINT('',(69.75,103.,0.));
#1665=CARTESIAN_POINT('',(69.75,103.,0.));
#1666=CARTESIAN_POINT('',(69.75,103.,2.5));
#1667=CARTESIAN_POINT('',(69.75,103.,2.5));
#1668=CARTESIAN_POINT('',(69.75,103.,0.));
#1669=CARTESIAN_POINT('Origin',(69.75,98.0000014603138,0.));
#1670=CARTESIAN_POINT('',(69.75,98.0000014603138,0.));
#1671=CARTESIAN_POINT('',(69.75,98.0000014603138,0.));
#1672=CARTESIAN_POINT('',(69.75,98.0000014603138,2.5));
#1673=CARTESIAN_POINT('',(69.75,98.0000014603138,2.5));
#1674=CARTESIAN_POINT('',(69.75,98.0000014603138,0.));
#1675=CARTESIAN_POINT('Origin',(72.0000005215406,98.0000014603138,0.));
#1676=CARTESIAN_POINT('',(72.0000005215406,98.0000014603138,0.));
#1677=CARTESIAN_POINT('',(37.,98.0000014603138,0.));
#1678=CARTESIAN_POINT('',(72.0000005215406,98.0000014603138,2.5));
#1679=CARTESIAN_POINT('',(37.,98.0000014603138,2.5));
#1680=CARTESIAN_POINT('',(72.0000005215406,98.0000014603138,0.));
#1681=CARTESIAN_POINT('Origin',(72.,58.,0.));
#1682=CARTESIAN_POINT('',(72.,0.,0.));
#1683=CARTESIAN_POINT('',(72.,0.,2.5));
#1684=CARTESIAN_POINT('Origin',(54.5000002607703,51.5,2.5));
#1685=CARTESIAN_POINT('Origin',(54.5000002607703,51.5,0.));
#1686=CARTESIAN_POINT('',(0.,0.,0.));
#1687=CARTESIAN_POINT('',(0.,0.,0.));
#1688=UNCERTAINTY_MEASURE_WITH_UNIT(LENGTH_MEASURE(0.01),#1696,
'DISTANCE_ACCURACY_VALUE',
'Maximum model space distance between geometric entities at asserted c
onnectivities');
#1689=UNCERTAINTY_MEASURE_WITH_UNIT(LENGTH_MEASURE(0.01),#1696,
'DISTANCE_ACCURACY_VALUE',
'Maximum model space distance between geometric entities at asserted c
onnectivities');
#1690=UNCERTAINTY_MEASURE_WITH_UNIT(LENGTH_MEASURE(0.01),#1696,
'DISTANCE_ACCURACY_VALUE',
'Maximum model space distance between geometric entities at asserted c
onnectivities');
#1691=UNCERTAINTY_MEASURE_WITH_UNIT(LENGTH_MEASURE(0.01),#1696,
'DISTANCE_ACCURACY_VALUE',
'Maximum model space distance between geometric entities at asserted c
onnectivities');
#1692=(
GEOMETRIC_REPRESENTATION_CONTEXT(3)
GLOBAL_UNCERTAINTY_ASSIGNED_CONTEXT((#1688))
GLOBAL_UNIT_ASSIGNED_CONTEXT((#1696,#1698,#1699))
REPRESENTATION_CONTEXT('','3D')
);
#1693=(
GEOMETRIC_REPRESENTATION_CONTEXT(3)
GLOBAL_UNCERTAINTY_ASSIGNED_CONTEXT((#1689))
GLOBAL_UNIT_ASSIGNED_CONTEXT((#1696,#1698,#1699))
REPRESENTATION_CONTEXT('','3D')
);
#1694=(
GEOMETRIC_REPRESENTATION_CONTEXT(3)
GLOBAL_UNCERTAINTY_ASSIGNED_CONTEXT((#1690))
GLOBAL_UNIT_ASSIGNED_CONTEXT((#1696,#1698,#1699))
REPRESENTATION_CONTEXT('','3D')
);
#1695=(
GEOMETRIC_REPRESENTATION_CONTEXT(3)
GLOBAL_UNCERTAINTY_ASSIGNED_CONTEXT((#1691))
GLOBAL_UNIT_ASSIGNED_CONTEXT((#1696,#1698,#1699))
REPRESENTATION_CONTEXT('','3D')
);
#1696=(
LENGTH_UNIT()
NAMED_UNIT(*)
SI_UNIT(.MILLI.,.METRE.)
);
#1697=(
LENGTH_UNIT()
NAMED_UNIT(*)
SI_UNIT($,.METRE.)
);
#1698=(
NAMED_UNIT(*)
PLANE_ANGLE_UNIT()
SI_UNIT($,.RADIAN.)
);
#1699=(
NAMED_UNIT(*)
SI_UNIT($,.STERADIAN.)
SOLID_ANGLE_UNIT()
);
#1700=SHAPE_DEFINITION_REPRESENTATION(#1703,#1708);
#1701=SHAPE_DEFINITION_REPRESENTATION(#1704,#1709);
#1702=SHAPE_DEFINITION_REPRESENTATION(#1705,#1710);
#1703=PRODUCT_DEFINITION_SHAPE('',$,#1712);
#1704=PRODUCT_DEFINITION_SHAPE('',$,#1713);
#1705=PRODUCT_DEFINITION_SHAPE('',$,#1714);
#1706=PRODUCT_DEFINITION_SHAPE($,$,#17);
#1707=PRODUCT_DEFINITION_SHAPE($,$,#18);
#1708=SHAPE_REPRESENTATION('',(#1076,#1131,#1132),#1692);
#1709=SHAPE_REPRESENTATION('',(#1077),#1693);
#1710=SHAPE_REPRESENTATION('',(#1104),#1694);
#1711=PRODUCT_DEFINITION_CONTEXT('part definition',#1722,'design');
#1712=PRODUCT_DEFINITION('2026-07-28-16-04-37-564',
'card-shuffler-platforms',#1715,#1711);
#1713=PRODUCT_DEFINITION('2026-07-29-15-19-14-329','Component1',#1716,#1711);
#1714=PRODUCT_DEFINITION('2026-07-29-15-19-15-565','Component2',#1717,#1711);
#1715=PRODUCT_DEFINITION_FORMATION('',$,#1724);
#1716=PRODUCT_DEFINITION_FORMATION('',$,#1725);
#1717=PRODUCT_DEFINITION_FORMATION('',$,#1726);
#1718=PRODUCT_RELATED_PRODUCT_CATEGORY('card-shuffler-platforms',
'card-shuffler-platforms',(#1724));
#1719=PRODUCT_RELATED_PRODUCT_CATEGORY('Component1','Component1',(#1725));
#1720=PRODUCT_RELATED_PRODUCT_CATEGORY('Component2','Component2',(#1726));
#1721=APPLICATION_PROTOCOL_DEFINITION('international standard',
'automotive_design',2009,#1722);
#1722=APPLICATION_CONTEXT(
'Core Data for Automotive Mechanical Design Process');
#1723=PRODUCT_CONTEXT('part definition',#1722,'mechanical');
#1724=PRODUCT('2026-07-28-16-04-37-564','card-shuffler-platforms',$,(#1723));
#1725=PRODUCT('2026-07-29-15-19-14-329','Component1',$,(#1723));
#1726=PRODUCT('2026-07-29-15-19-15-565','Component2',$,(#1723));
#1727=PRESENTATION_STYLE_ASSIGNMENT((#1728));
#1728=SURFACE_STYLE_USAGE(.BOTH.,#1729);
#1729=SURFACE_SIDE_STYLE('',(#1730));
#1730=SURFACE_STYLE_FILL_AREA(#1731);
#1731=FILL_AREA_STYLE('Steel - Satin',(#1732));
#1732=FILL_AREA_STYLE_COLOUR('Steel - Satin',#1733);
#1733=COLOUR_RGB('Steel - Satin',0.627450980392157,0.627450980392157,0.627450980392157);
ENDSEC;
END-ISO-10303-21;
