ISO-10303-21;
HEADER;
/* Generated by software containing ST-Developer
 * from STEP Tools, Inc. (www.steptools.com) 
 */

FILE_DESCRIPTION(
/* description */ (''),
/* implementation_level */ '2;1');

FILE_NAME(
/* name */ 'card-shuffler-gates.step',
/* time_stamp */ '2026-09-12T01:21:06-07:00',
/* author */ (''),
/* organization */ (''),
/* preprocessor_version */ 'ST-DEVELOPER v20.2',
/* originating_system */ 'Autodesk Translation Framework v15.15.0.0',
/* authorisation */ '');

FILE_SCHEMA (('AUTOMOTIVE_DESIGN { 1 0 10303 214 3 1 1 }'));
ENDSEC;

DATA;
#10=MECHANICAL_DESIGN_GEOMETRIC_PRESENTATION_REPRESENTATION('',(#21),#565);
#11=ITEM_DEFINED_TRANSFORMATION($,$,#357,#376);
#12=ITEM_DEFINED_TRANSFORMATION($,$,#357,#377);
#13=(
REPRESENTATION_RELATIONSHIP($,$,#577,#576)
REPRESENTATION_RELATIONSHIP_WITH_TRANSFORMATION(#11)
SHAPE_REPRESENTATION_RELATIONSHIP()
);
#14=(
REPRESENTATION_RELATIONSHIP($,$,#577,#576)
REPRESENTATION_RELATIONSHIP_WITH_TRANSFORMATION(#12)
SHAPE_REPRESENTATION_RELATIONSHIP()
);
#15=CONTEXT_DEPENDENT_SHAPE_REPRESENTATION(#13,#574);
#16=CONTEXT_DEPENDENT_SHAPE_REPRESENTATION(#14,#575);
#17=NEXT_ASSEMBLY_USAGE_OCCURRENCE('Component1:1','Component1:1',
'Component1:1',#579,#580,'Component1:1');
#18=NEXT_ASSEMBLY_USAGE_OCCURRENCE('Component1:2','Component1:2',
'Component1:2',#579,#580,'Component1:2');
#19=SHAPE_REPRESENTATION_RELATIONSHIP('SRR','None',#577,#20);
#20=ADVANCED_BREP_SHAPE_REPRESENTATION('',(#22),#564);
#21=STYLED_ITEM('',(#590),#22);
#22=MANIFOLD_SOLID_BREP('Body2',#343);
#23=FACE_OUTER_BOUND('',#41,.T.);
#24=FACE_OUTER_BOUND('',#42,.T.);
#25=FACE_OUTER_BOUND('',#43,.T.);
#26=FACE_OUTER_BOUND('',#44,.T.);
#27=FACE_OUTER_BOUND('',#45,.T.);
#28=FACE_OUTER_BOUND('',#46,.T.);
#29=FACE_OUTER_BOUND('',#47,.T.);
#30=FACE_OUTER_BOUND('',#48,.T.);
#31=FACE_OUTER_BOUND('',#49,.T.);
#32=FACE_OUTER_BOUND('',#50,.T.);
#33=FACE_OUTER_BOUND('',#51,.T.);
#34=FACE_OUTER_BOUND('',#52,.T.);
#35=FACE_OUTER_BOUND('',#53,.T.);
#36=FACE_OUTER_BOUND('',#54,.T.);
#37=FACE_OUTER_BOUND('',#55,.T.);
#38=FACE_OUTER_BOUND('',#56,.T.);
#39=FACE_OUTER_BOUND('',#57,.T.);
#40=FACE_OUTER_BOUND('',#58,.T.);
#41=EDGE_LOOP('',(#219,#220,#221,#222));
#42=EDGE_LOOP('',(#223,#224,#225));
#43=EDGE_LOOP('',(#226,#227,#228,#229));
#44=EDGE_LOOP('',(#230,#231,#232));
#45=EDGE_LOOP('',(#233,#234,#235,#236,#237,#238,#239,#240,#241,#242));
#46=EDGE_LOOP('',(#243,#244,#245,#246));
#47=EDGE_LOOP('',(#247,#248,#249));
#48=EDGE_LOOP('',(#250,#251,#252,#253));
#49=EDGE_LOOP('',(#254,#255,#256));
#50=EDGE_LOOP('',(#257,#258,#259,#260));
#51=EDGE_LOOP('',(#261,#262,#263,#264));
#52=EDGE_LOOP('',(#265,#266,#267,#268));
#53=EDGE_LOOP('',(#269,#270,#271,#272,#273,#274));
#54=EDGE_LOOP('',(#275,#276,#277,#278,#279,#280));
#55=EDGE_LOOP('',(#281,#282,#283,#284));
#56=EDGE_LOOP('',(#285,#286,#287,#288,#289,#290));
#57=EDGE_LOOP('',(#291,#292,#293,#294,#295,#296));
#58=EDGE_LOOP('',(#297,#298,#299,#300,#301,#302,#303,#304,#305,#306));
#59=LINE('',#471,#103);
#60=LINE('',#473,#104);
#61=LINE('',#475,#105);
#62=LINE('',#476,#106);
#63=LINE('',#479,#107);
#64=LINE('',#480,#108);
#65=LINE('',#484,#109);
#66=LINE('',#486,#110);
#67=LINE('',#488,#111);
#68=LINE('',#489,#112);
#69=LINE('',#492,#113);
#70=LINE('',#493,#114);
#71=LINE('',#496,#115);
#72=LINE('',#498,#116);
#73=LINE('',#500,#117);
#74=LINE('',#502,#118);
#75=LINE('',#504,#119);
#76=LINE('',#506,#120);
#77=LINE('',#508,#121);
#78=LINE('',#509,#122);
#79=LINE('',#512,#123);
#80=LINE('',#514,#124);
#81=LINE('',#515,#125);
#82=LINE('',#517,#126);
#83=LINE('',#521,#127);
#84=LINE('',#523,#128);
#85=LINE('',#525,#129);
#86=LINE('',#526,#130);
#87=LINE('',#529,#131);
#88=LINE('',#530,#132);
#89=LINE('',#533,#133);
#90=LINE('',#535,#134);
#91=LINE('',#536,#135);
#92=LINE('',#538,#136);
#93=LINE('',#539,#137);
#94=LINE('',#541,#138);
#95=LINE('',#542,#139);
#96=LINE('',#545,#140);
#97=LINE('',#546,#141);
#98=LINE('',#547,#142);
#99=LINE('',#551,#143);
#100=LINE('',#552,#144);
#101=LINE('',#554,#145);
#102=LINE('',#556,#146);
#103=VECTOR('',#384,10.);
#104=VECTOR('',#385,10.);
#105=VECTOR('',#386,10.);
#106=VECTOR('',#387,10.);
#107=VECTOR('',#390,10.);
#108=VECTOR('',#391,10.);
#109=VECTOR('',#394,10.);
#110=VECTOR('',#395,10.);
#111=VECTOR('',#396,10.);
#112=VECTOR('',#397,10.);
#113=VECTOR('',#400,10.);
#114=VECTOR('',#401,10.);
#115=VECTOR('',#404,10.);
#116=VECTOR('',#405,10.);
#117=VECTOR('',#406,10.);
#118=VECTOR('',#407,10.);
#119=VECTOR('',#408,10.);
#120=VECTOR('',#409,10.);
#121=VECTOR('',#410,10.);
#122=VECTOR('',#411,10.);
#123=VECTOR('',#414,10.);
#124=VECTOR('',#415,10.);
#125=VECTOR('',#416,10.);
#126=VECTOR('',#419,10.);
#127=VECTOR('',#422,10.);
#128=VECTOR('',#423,10.);
#129=VECTOR('',#424,10.);
#130=VECTOR('',#425,10.);
#131=VECTOR('',#428,10.);
#132=VECTOR('',#429,10.);
#133=VECTOR('',#432,10.);
#134=VECTOR('',#433,10.);
#135=VECTOR('',#434,10.);
#136=VECTOR('',#437,10.);
#137=VECTOR('',#438,10.);
#138=VECTOR('',#441,10.);
#139=VECTOR('',#442,10.);
#140=VECTOR('',#445,10.);
#141=VECTOR('',#446,10.);
#142=VECTOR('',#447,10.);
#143=VECTOR('',#452,10.);
#144=VECTOR('',#453,10.);
#145=VECTOR('',#456,10.);
#146=VECTOR('',#459,10.);
#147=VERTEX_POINT('',#469);
#148=VERTEX_POINT('',#470);
#149=VERTEX_POINT('',#472);
#150=VERTEX_POINT('',#474);
#151=VERTEX_POINT('',#478);
#152=VERTEX_POINT('',#482);
#153=VERTEX_POINT('',#483);
#154=VERTEX_POINT('',#485);
#155=VERTEX_POINT('',#487);
#156=VERTEX_POINT('',#491);
#157=VERTEX_POINT('',#495);
#158=VERTEX_POINT('',#497);
#159=VERTEX_POINT('',#499);
#160=VERTEX_POINT('',#501);
#161=VERTEX_POINT('',#503);
#162=VERTEX_POINT('',#505);
#163=VERTEX_POINT('',#507);
#164=VERTEX_POINT('',#511);
#165=VERTEX_POINT('',#513);
#166=VERTEX_POINT('',#519);
#167=VERTEX_POINT('',#520);
#168=VERTEX_POINT('',#522);
#169=VERTEX_POINT('',#524);
#170=VERTEX_POINT('',#528);
#171=VERTEX_POINT('',#532);
#172=VERTEX_POINT('',#534);
#173=VERTEX_POINT('',#544);
#174=VERTEX_POINT('',#550);
#175=EDGE_CURVE('',#147,#148,#59,.T.);
#176=EDGE_CURVE('',#149,#147,#60,.T.);
#177=EDGE_CURVE('',#150,#149,#61,.T.);
#178=EDGE_CURVE('',#148,#150,#62,.T.);
#179=EDGE_CURVE('',#151,#150,#63,.T.);
#180=EDGE_CURVE('',#151,#149,#64,.T.);
#181=EDGE_CURVE('',#152,#153,#65,.T.);
#182=EDGE_CURVE('',#152,#154,#66,.T.);
#183=EDGE_CURVE('',#155,#154,#67,.T.);
#184=EDGE_CURVE('',#153,#155,#68,.T.);
#185=EDGE_CURVE('',#154,#156,#69,.T.);
#186=EDGE_CURVE('',#155,#156,#70,.T.);
#187=EDGE_CURVE('',#156,#157,#71,.T.);
#188=EDGE_CURVE('',#157,#158,#72,.T.);
#189=EDGE_CURVE('',#158,#159,#73,.T.);
#190=EDGE_CURVE('',#159,#160,#74,.T.);
#191=EDGE_CURVE('',#160,#161,#75,.T.);
#192=EDGE_CURVE('',#161,#162,#76,.T.);
#193=EDGE_CURVE('',#162,#163,#77,.T.);
#194=EDGE_CURVE('',#163,#153,#78,.T.);
#195=EDGE_CURVE('',#161,#164,#79,.T.);
#196=EDGE_CURVE('',#165,#160,#80,.T.);
#197=EDGE_CURVE('',#164,#165,#81,.T.);
#198=EDGE_CURVE('',#159,#165,#82,.T.);
#199=EDGE_CURVE('',#166,#167,#83,.T.);
#200=EDGE_CURVE('',#166,#168,#84,.T.);
#201=EDGE_CURVE('',#169,#168,#85,.T.);
#202=EDGE_CURVE('',#167,#169,#86,.T.);
#203=EDGE_CURVE('',#168,#170,#87,.T.);
#204=EDGE_CURVE('',#169,#170,#88,.T.);
#205=EDGE_CURVE('',#158,#171,#89,.T.);
#206=EDGE_CURVE('',#172,#157,#90,.T.);
#207=EDGE_CURVE('',#171,#172,#91,.T.);
#208=EDGE_CURVE('',#151,#156,#92,.T.);
#209=EDGE_CURVE('',#151,#172,#93,.T.);
#210=EDGE_CURVE('',#171,#170,#94,.T.);
#211=EDGE_CURVE('',#170,#159,#95,.T.);
#212=EDGE_CURVE('',#167,#173,#96,.T.);
#213=EDGE_CURVE('',#173,#162,#97,.T.);
#214=EDGE_CURVE('',#166,#164,#98,.T.);
#215=EDGE_CURVE('',#173,#174,#99,.T.);
#216=EDGE_CURVE('',#174,#163,#100,.T.);
#217=EDGE_CURVE('',#148,#152,#101,.T.);
#218=EDGE_CURVE('',#174,#147,#102,.T.);
#219=ORIENTED_EDGE('',*,*,#175,.F.);
#220=ORIENTED_EDGE('',*,*,#176,.F.);
#221=ORIENTED_EDGE('',*,*,#177,.F.);
#222=ORIENTED_EDGE('',*,*,#178,.F.);
#223=ORIENTED_EDGE('',*,*,#179,.T.);
#224=ORIENTED_EDGE('',*,*,#177,.T.);
#225=ORIENTED_EDGE('',*,*,#180,.F.);
#226=ORIENTED_EDGE('',*,*,#181,.F.);
#227=ORIENTED_EDGE('',*,*,#182,.T.);
#228=ORIENTED_EDGE('',*,*,#183,.F.);
#229=ORIENTED_EDGE('',*,*,#184,.F.);
#230=ORIENTED_EDGE('',*,*,#185,.T.);
#231=ORIENTED_EDGE('',*,*,#186,.F.);
#232=ORIENTED_EDGE('',*,*,#183,.T.);
#233=ORIENTED_EDGE('',*,*,#184,.T.);
#234=ORIENTED_EDGE('',*,*,#186,.T.);
#235=ORIENTED_EDGE('',*,*,#187,.T.);
#236=ORIENTED_EDGE('',*,*,#188,.T.);
#237=ORIENTED_EDGE('',*,*,#189,.T.);
#238=ORIENTED_EDGE('',*,*,#190,.T.);
#239=ORIENTED_EDGE('',*,*,#191,.T.);
#240=ORIENTED_EDGE('',*,*,#192,.T.);
#241=ORIENTED_EDGE('',*,*,#193,.T.);
#242=ORIENTED_EDGE('',*,*,#194,.T.);
#243=ORIENTED_EDGE('',*,*,#195,.F.);
#244=ORIENTED_EDGE('',*,*,#191,.F.);
#245=ORIENTED_EDGE('',*,*,#196,.F.);
#246=ORIENTED_EDGE('',*,*,#197,.F.);
#247=ORIENTED_EDGE('',*,*,#196,.T.);
#248=ORIENTED_EDGE('',*,*,#190,.F.);
#249=ORIENTED_EDGE('',*,*,#198,.T.);
#250=ORIENTED_EDGE('',*,*,#199,.F.);
#251=ORIENTED_EDGE('',*,*,#200,.T.);
#252=ORIENTED_EDGE('',*,*,#201,.F.);
#253=ORIENTED_EDGE('',*,*,#202,.F.);
#254=ORIENTED_EDGE('',*,*,#201,.T.);
#255=ORIENTED_EDGE('',*,*,#203,.T.);
#256=ORIENTED_EDGE('',*,*,#204,.F.);
#257=ORIENTED_EDGE('',*,*,#205,.F.);
#258=ORIENTED_EDGE('',*,*,#188,.F.);
#259=ORIENTED_EDGE('',*,*,#206,.F.);
#260=ORIENTED_EDGE('',*,*,#207,.F.);
#261=ORIENTED_EDGE('',*,*,#206,.T.);
#262=ORIENTED_EDGE('',*,*,#187,.F.);
#263=ORIENTED_EDGE('',*,*,#208,.F.);
#264=ORIENTED_EDGE('',*,*,#209,.T.);
#265=ORIENTED_EDGE('',*,*,#205,.T.);
#266=ORIENTED_EDGE('',*,*,#210,.T.);
#267=ORIENTED_EDGE('',*,*,#211,.T.);
#268=ORIENTED_EDGE('',*,*,#189,.F.);
#269=ORIENTED_EDGE('',*,*,#212,.T.);
#270=ORIENTED_EDGE('',*,*,#213,.T.);
#271=ORIENTED_EDGE('',*,*,#192,.F.);
#272=ORIENTED_EDGE('',*,*,#195,.T.);
#273=ORIENTED_EDGE('',*,*,#214,.F.);
#274=ORIENTED_EDGE('',*,*,#199,.T.);
#275=ORIENTED_EDGE('',*,*,#214,.T.);
#276=ORIENTED_EDGE('',*,*,#197,.T.);
#277=ORIENTED_EDGE('',*,*,#198,.F.);
#278=ORIENTED_EDGE('',*,*,#211,.F.);
#279=ORIENTED_EDGE('',*,*,#203,.F.);
#280=ORIENTED_EDGE('',*,*,#200,.F.);
#281=ORIENTED_EDGE('',*,*,#215,.T.);
#282=ORIENTED_EDGE('',*,*,#216,.T.);
#283=ORIENTED_EDGE('',*,*,#193,.F.);
#284=ORIENTED_EDGE('',*,*,#213,.F.);
#285=ORIENTED_EDGE('',*,*,#208,.T.);
#286=ORIENTED_EDGE('',*,*,#185,.F.);
#287=ORIENTED_EDGE('',*,*,#182,.F.);
#288=ORIENTED_EDGE('',*,*,#217,.F.);
#289=ORIENTED_EDGE('',*,*,#178,.T.);
#290=ORIENTED_EDGE('',*,*,#179,.F.);
#291=ORIENTED_EDGE('',*,*,#218,.T.);
#292=ORIENTED_EDGE('',*,*,#175,.T.);
#293=ORIENTED_EDGE('',*,*,#217,.T.);
#294=ORIENTED_EDGE('',*,*,#181,.T.);
#295=ORIENTED_EDGE('',*,*,#194,.F.);
#296=ORIENTED_EDGE('',*,*,#216,.F.);
#297=ORIENTED_EDGE('',*,*,#176,.T.);
#298=ORIENTED_EDGE('',*,*,#218,.F.);
#299=ORIENTED_EDGE('',*,*,#215,.F.);
#300=ORIENTED_EDGE('',*,*,#212,.F.);
#301=ORIENTED_EDGE('',*,*,#202,.T.);
#302=ORIENTED_EDGE('',*,*,#204,.T.);
#303=ORIENTED_EDGE('',*,*,#210,.F.);
#304=ORIENTED_EDGE('',*,*,#207,.T.);
#305=ORIENTED_EDGE('',*,*,#209,.F.);
#306=ORIENTED_EDGE('',*,*,#180,.T.);
#307=PLANE('',#358);
#308=PLANE('',#359);
#309=PLANE('',#360);
#310=PLANE('',#361);
#311=PLANE('',#362);
#312=PLANE('',#363);
#313=PLANE('',#364);
#314=PLANE('',#365);
#315=PLANE('',#366);
#316=PLANE('',#367);
#317=PLANE('',#368);
#318=PLANE('',#369);
#319=PLANE('',#370);
#320=PLANE('',#371);
#321=PLANE('',#372);
#322=PLANE('',#373);
#323=PLANE('',#374);
#324=PLANE('',#375);
#325=ADVANCED_FACE('',(#23),#307,.T.);
#326=ADVANCED_FACE('',(#24),#308,.T.);
#327=ADVANCED_FACE('',(#25),#309,.T.);
#328=ADVANCED_FACE('',(#26),#310,.T.);
#329=ADVANCED_FACE('',(#27),#311,.T.);
#330=ADVANCED_FACE('',(#28),#312,.T.);
#331=ADVANCED_FACE('',(#29),#313,.T.);
#332=ADVANCED_FACE('',(#30),#314,.T.);
#333=ADVANCED_FACE('',(#31),#315,.T.);
#334=ADVANCED_FACE('',(#32),#316,.F.);
#335=ADVANCED_FACE('',(#33),#317,.T.);
#336=ADVANCED_FACE('',(#34),#318,.T.);
#337=ADVANCED_FACE('',(#35),#319,.T.);
#338=ADVANCED_FACE('',(#36),#320,.T.);
#339=ADVANCED_FACE('',(#37),#321,.T.);
#340=ADVANCED_FACE('',(#38),#322,.T.);
#341=ADVANCED_FACE('',(#39),#323,.T.);
#342=ADVANCED_FACE('',(#40),#324,.F.);
#343=CLOSED_SHELL('',(#325,#326,#327,#328,#329,#330,#331,#332,#333,#334,
#335,#336,#337,#338,#339,#340,#341,#342));
#344=DERIVED_UNIT_ELEMENT(#346,1.);
#345=DERIVED_UNIT_ELEMENT(#567,-3.);
#346=(
MASS_UNIT()
NAMED_UNIT(*)
SI_UNIT(.KILO.,.GRAM.)
);
#347=DERIVED_UNIT((#344,#345));
#348=MEASURE_REPRESENTATION_ITEM('density measure',
POSITIVE_RATIO_MEASURE(7850.),#347);
#349=PROPERTY_DEFINITION_REPRESENTATION(#354,#351);
#350=PROPERTY_DEFINITION_REPRESENTATION(#355,#352);
#351=REPRESENTATION('material name',(#353),#564);
#352=REPRESENTATION('density',(#348),#564);
#353=DESCRIPTIVE_REPRESENTATION_ITEM('Steel','Steel');
#354=PROPERTY_DEFINITION('material property','material name',#580);
#355=PROPERTY_DEFINITION('material property','density of part',#580);
#356=AXIS2_PLACEMENT_3D('',#466,#378,#379);
#357=AXIS2_PLACEMENT_3D('',#467,#380,#381);
#358=AXIS2_PLACEMENT_3D('',#468,#382,#383);
#359=AXIS2_PLACEMENT_3D('',#477,#388,#389);
#360=AXIS2_PLACEMENT_3D('',#481,#392,#393);
#361=AXIS2_PLACEMENT_3D('',#490,#398,#399);
#362=AXIS2_PLACEMENT_3D('',#494,#402,#403);
#363=AXIS2_PLACEMENT_3D('',#510,#412,#413);
#364=AXIS2_PLACEMENT_3D('',#516,#417,#418);
#365=AXIS2_PLACEMENT_3D('',#518,#420,#421);
#366=AXIS2_PLACEMENT_3D('',#527,#426,#427);
#367=AXIS2_PLACEMENT_3D('',#531,#430,#431);
#368=AXIS2_PLACEMENT_3D('',#537,#435,#436);
#369=AXIS2_PLACEMENT_3D('',#540,#439,#440);
#370=AXIS2_PLACEMENT_3D('',#543,#443,#444);
#371=AXIS2_PLACEMENT_3D('',#548,#448,#449);
#372=AXIS2_PLACEMENT_3D('',#549,#450,#451);
#373=AXIS2_PLACEMENT_3D('',#553,#454,#455);
#374=AXIS2_PLACEMENT_3D('',#555,#457,#458);
#375=AXIS2_PLACEMENT_3D('',#557,#460,#461);
#376=AXIS2_PLACEMENT_3D('',#558,#462,#463);
#377=AXIS2_PLACEMENT_3D('',#559,#464,#465);
#378=DIRECTION('axis',(0.,0.,1.));
#379=DIRECTION('refdir',(1.,0.,0.));
#380=DIRECTION('axis',(0.,0.,1.));
#381=DIRECTION('refdir',(1.,0.,0.));
#382=DIRECTION('center_axis',(0.,0.5,-0.866025403784439));
#383=DIRECTION('ref_axis',(0.,0.866025403784439,0.5));
#384=DIRECTION('',(0.,-0.866025403784439,-0.5));
#385=DIRECTION('',(-1.,0.,0.));
#386=DIRECTION('',(0.,0.866025403784439,0.5));
#387=DIRECTION('',(1.,0.,0.));
#388=DIRECTION('center_axis',(1.,0.,0.));
#389=DIRECTION('ref_axis',(0.,0.,-1.));
#390=DIRECTION('',(0.,0.,-1.));
#391=DIRECTION('',(0.,1.,0.));
#392=DIRECTION('center_axis',(0.,0.5,0.866025403784439));
#393=DIRECTION('ref_axis',(0.,-0.866025403784439,0.5));
#394=DIRECTION('',(0.,0.866025403784439,-0.5));
#395=DIRECTION('',(1.,0.,0.));
#396=DIRECTION('',(0.,-0.866025403784439,0.5));
#397=DIRECTION('',(1.,0.,0.));
#398=DIRECTION('center_axis',(1.,0.,0.));
#399=DIRECTION('ref_axis',(0.,0.,-1.));
#400=DIRECTION('',(0.,0.,-1.));
#401=DIRECTION('',(0.,-1.,0.));
#402=DIRECTION('center_axis',(0.,0.,1.));
#403=DIRECTION('ref_axis',(1.,0.,0.));
#404=DIRECTION('',(0.,-1.,0.));
#405=DIRECTION('',(1.,0.,0.));
#406=DIRECTION('',(0.,1.,0.));
#407=DIRECTION('',(0.,1.,0.));
#408=DIRECTION('',(1.,0.,0.));
#409=DIRECTION('',(0.,1.,0.));
#410=DIRECTION('',(-1.,0.,0.));
#411=DIRECTION('',(0.,-1.,0.));
#412=DIRECTION('center_axis',(0.,0.5,0.866025403784439));
#413=DIRECTION('ref_axis',(0.,0.866025403784439,-0.5));
#414=DIRECTION('',(0.,-0.866025403784439,0.5));
#415=DIRECTION('',(0.,0.866025403784439,-0.5));
#416=DIRECTION('',(-1.,0.,0.));
#417=DIRECTION('center_axis',(-1.,0.,0.));
#418=DIRECTION('ref_axis',(0.,0.,1.));
#419=DIRECTION('',(0.,0.,1.));
#420=DIRECTION('center_axis',(0.,0.5,-0.866025403784439));
#421=DIRECTION('ref_axis',(0.,-0.866025403784439,-0.5));
#422=DIRECTION('',(0.,0.866025403784439,0.5));
#423=DIRECTION('',(-1.,0.,0.));
#424=DIRECTION('',(0.,-0.866025403784439,-0.5));
#425=DIRECTION('',(-1.,0.,0.));
#426=DIRECTION('center_axis',(-1.,0.,0.));
#427=DIRECTION('ref_axis',(0.,0.,1.));
#428=DIRECTION('',(0.,0.,1.));
#429=DIRECTION('',(0.,-1.,0.));
#430=DIRECTION('center_axis',(0.,0.939692620785904,-0.342020143325679));
#431=DIRECTION('ref_axis',(-2.25842343639271E-33,0.342020143325679,0.939692620785904));
#432=DIRECTION('',(0.,-0.342020143325679,-0.939692620785904));
#433=DIRECTION('',(0.,0.342020143325679,0.939692620785904));
#434=DIRECTION('',(-1.,0.,0.));
#435=DIRECTION('center_axis',(-1.,0.,0.));
#436=DIRECTION('ref_axis',(0.,-1.,0.));
#437=DIRECTION('',(0.,0.,1.));
#438=DIRECTION('',(0.,-1.,0.));
#439=DIRECTION('center_axis',(1.,0.,0.));
#440=DIRECTION('ref_axis',(0.,1.,0.));
#441=DIRECTION('',(0.,1.,0.));
#442=DIRECTION('',(0.,0.,1.));
#443=DIRECTION('center_axis',(1.,0.,0.));
#444=DIRECTION('ref_axis',(0.,1.,0.));
#445=DIRECTION('',(0.,1.,0.));
#446=DIRECTION('',(0.,0.,1.));
#447=DIRECTION('',(0.,0.,1.));
#448=DIRECTION('center_axis',(0.,-1.,0.));
#449=DIRECTION('ref_axis',(1.,0.,0.));
#450=DIRECTION('center_axis',(0.,1.,0.));
#451=DIRECTION('ref_axis',(-1.,0.,0.));
#452=DIRECTION('',(-1.,0.,0.));
#453=DIRECTION('',(0.,0.,1.));
#454=DIRECTION('center_axis',(0.,-1.,0.));
#455=DIRECTION('ref_axis',(1.,0.,0.));
#456=DIRECTION('',(0.,0.,1.));
#457=DIRECTION('center_axis',(-1.,0.,0.));
#458=DIRECTION('ref_axis',(0.,-1.,0.));
#459=DIRECTION('',(0.,-1.,0.));
#460=DIRECTION('center_axis',(0.,0.,1.));
#461=DIRECTION('ref_axis',(1.,0.,0.));
#462=DIRECTION('',(0.,0.,1.));
#463=DIRECTION('',(1.,0.,0.));
#464=DIRECTION('',(0.,0.,1.));
#465=DIRECTION('',(1.,0.,0.));
#466=CARTESIAN_POINT('',(0.,0.,0.));
#467=CARTESIAN_POINT('',(0.,0.,0.));
#468=CARTESIAN_POINT('Origin',(-5.00000007450581,0.,-1.50000002235174));
#469=CARTESIAN_POINT('',(-5.00000007450581,2.59807625006767,1.38777878078145E-16));
#470=CARTESIAN_POINT('',(-5.00000007450581,0.,-1.50000002235174));
#471=CARTESIAN_POINT('',(-5.00000007450581,4.33012708344611,1.00000001490116));
#472=CARTESIAN_POINT('',(-7.45058059692383E-8,2.59807625006767,2.77555756156289E-16));
#473=CARTESIAN_POINT('',(-3.75000005587935,2.59807625006767,0.));
#474=CARTESIAN_POINT('',(-7.45058059692383E-8,0.,-1.50000002235174));
#475=CARTESIAN_POINT('',(-7.45058059692383E-8,4.33012708344611,1.00000001490116));
#476=CARTESIAN_POINT('',(-5.00000007450581,0.,-1.50000002235174));
#477=CARTESIAN_POINT('Origin',(-7.45058059692383E-8,1.29903812503383,-0.750000011175871));
#478=CARTESIAN_POINT('',(0.,0.,0.));
#479=CARTESIAN_POINT('',(-7.45058059692383E-8,0.,-1.50000002235174));
#480=CARTESIAN_POINT('',(-7.45058059692383E-8,3.14951906251692,0.));
#481=CARTESIAN_POINT('Origin',(-5.00000007450581,2.59807630168681,2.));
#482=CARTESIAN_POINT('',(-5.00000007450581,0.,3.50000005215406));
#483=CARTESIAN_POINT('',(-5.00000007450581,2.59807630168681,2.));
#484=CARTESIAN_POINT('',(-5.00000007450581,0.,3.50000005215406));
#485=CARTESIAN_POINT('',(-7.45058059692383E-8,0.,3.50000005215406));
#486=CARTESIAN_POINT('',(-5.00000007450581,0.,3.50000005215406));
#487=CARTESIAN_POINT('',(-7.45058059692383E-8,2.59807630168681,2.));
#488=CARTESIAN_POINT('',(-7.45058059692383E-8,0.,3.50000005215406));
#489=CARTESIAN_POINT('',(-3.75000005587935,2.59807630168681,2.));
#490=CARTESIAN_POINT('Origin',(-7.45058059692383E-8,1.2990381508434,2.75000002607703));
#491=CARTESIAN_POINT('',(0.,0.,2.));
#492=CARTESIAN_POINT('',(-7.45058059692383E-8,0.,-1.50000002235174));
#493=CARTESIAN_POINT('',(-7.45058059692383E-8,3.1495190754217,2.));
#494=CARTESIAN_POINT('Origin',(-2.5000000372529,5.,2.));
#495=CARTESIAN_POINT('',(1.10749068127601E-31,-16.7720594569676,2.));
#496=CARTESIAN_POINT('',(0.,10.,2.));
#497=CARTESIAN_POINT('',(93.000001385808,-16.7720594569676,2.));
#498=CARTESIAN_POINT('',(-1.25000001862645,-16.7720594569676,2.));
#499=CARTESIAN_POINT('',(93.000001385808,0.,2.));
#500=CARTESIAN_POINT('',(93.000001385808,-15.5,2.));
#501=CARTESIAN_POINT('',(93.0000014603138,2.5980763016868,2.));
#502=CARTESIAN_POINT('',(93.0000014603138,3.1495190754217,2.));
#503=CARTESIAN_POINT('',(98.0000014603138,2.5980763016868,2.));
#504=CARTESIAN_POINT('',(47.7500007115304,2.5980763016868,2.));
#505=CARTESIAN_POINT('',(98.0000014603138,10.,2.));
#506=CARTESIAN_POINT('',(98.0000014603138,0.,2.));
#507=CARTESIAN_POINT('',(-5.00000007450581,10.,2.));
#508=CARTESIAN_POINT('',(98.0000014603138,10.,2.));
#509=CARTESIAN_POINT('',(-5.00000007450581,10.,2.));
#510=CARTESIAN_POINT('Origin',(98.0000014603138,0.,3.50000005215406));
#511=CARTESIAN_POINT('',(98.0000014603138,0.,3.50000005215406));
#512=CARTESIAN_POINT('',(98.0000014603138,4.33012703505317,1.00000004284084));
#513=CARTESIAN_POINT('',(93.0000014603138,0.,3.50000005215406));
#514=CARTESIAN_POINT('',(93.0000014603138,4.33012703505317,1.00000004284084));
#515=CARTESIAN_POINT('',(98.0000014603138,0.,3.50000005215406));
#516=CARTESIAN_POINT('Origin',(93.0000014603138,1.2990381508434,2.75000002607703));
#517=CARTESIAN_POINT('',(93.0000014603138,0.,3.50000005215406));
#518=CARTESIAN_POINT('Origin',(98.0000014603138,2.59807615328179,0.));
#519=CARTESIAN_POINT('',(98.0000014603138,0.,-1.49999996647239));
#520=CARTESIAN_POINT('',(98.0000014603138,2.59807615328179,2.77555756156289E-16));
#521=CARTESIAN_POINT('',(98.0000014603138,0.,-1.49999996647239));
#522=CARTESIAN_POINT('',(93.0000014603138,0.,-1.49999996647239));
#523=CARTESIAN_POINT('',(98.0000014603138,0.,-1.49999996647239));
#524=CARTESIAN_POINT('',(93.0000014603138,2.59807615328179,2.77555756156289E-16));
#525=CARTESIAN_POINT('',(93.0000014603138,0.,-1.49999996647239));
#526=CARTESIAN_POINT('',(47.7500007115304,2.59807615328179,-6.93889390390723E-17));
#527=CARTESIAN_POINT('Origin',(93.0000014603138,1.29903807664089,-0.749999983236194));
#528=CARTESIAN_POINT('',(93.000001385808,0.,0.));
#529=CARTESIAN_POINT('',(93.0000014603138,0.,3.50000005215406));
#530=CARTESIAN_POINT('',(93.0000014603138,3.14951903832045,0.));
#531=CARTESIAN_POINT('Origin',(1.15555796171297E-31,-17.4999999255,0.));
#532=CARTESIAN_POINT('',(93.,-17.4999999255,0.));
#533=CARTESIAN_POINT('',(93.000001385808,-17.4999999255,0.));
#534=CARTESIAN_POINT('',(1.15555796171297E-31,-17.4999999255,0.));
#535=CARTESIAN_POINT('',(6.84227765783602E-48,-15.8915554763003,4.41916480462316));
#536=CARTESIAN_POINT('',(93.,-17.4999999255,0.));
#537=CARTESIAN_POINT('Origin',(0.,10.,0.));
#538=CARTESIAN_POINT('',(0.,0.,0.));
#539=CARTESIAN_POINT('',(0.,10.,0.));
#540=CARTESIAN_POINT('Origin',(93.000001385808,-17.4999999255,0.));
#541=CARTESIAN_POINT('',(93.000001385808,-15.5,0.));
#542=CARTESIAN_POINT('',(93.000001385808,0.,0.));
#543=CARTESIAN_POINT('Origin',(98.0000014603138,0.,0.));
#544=CARTESIAN_POINT('',(98.0000014603138,10.,0.));
#545=CARTESIAN_POINT('',(98.0000014603138,0.,0.));
#546=CARTESIAN_POINT('',(98.0000014603138,10.,0.));
#547=CARTESIAN_POINT('',(98.0000014603138,0.,0.));
#548=CARTESIAN_POINT('Origin',(93.000001385808,0.,0.));
#549=CARTESIAN_POINT('Origin',(0.,10.,0.));
#550=CARTESIAN_POINT('',(-5.00000007450581,10.,0.));
#551=CARTESIAN_POINT('',(98.0000014603138,10.,0.));
#552=CARTESIAN_POINT('',(-5.00000007450581,10.,0.));
#553=CARTESIAN_POINT('Origin',(-5.00000007450581,0.,0.));
#554=CARTESIAN_POINT('',(-5.00000007450581,0.,0.));
#555=CARTESIAN_POINT('Origin',(-5.00000007450581,10.,0.));
#556=CARTESIAN_POINT('',(-5.00000007450581,10.,0.));
#557=CARTESIAN_POINT('Origin',(-2.5000000372529,5.,0.));
#558=CARTESIAN_POINT('',(0.,0.,0.));
#559=CARTESIAN_POINT('',(0.,33.,0.));
#560=UNCERTAINTY_MEASURE_WITH_UNIT(LENGTH_MEASURE(0.01),#566,
'DISTANCE_ACCURACY_VALUE',
'Maximum model space distance between geometric entities at asserted c
onnectivities');
#561=UNCERTAINTY_MEASURE_WITH_UNIT(LENGTH_MEASURE(0.01),#566,
'DISTANCE_ACCURACY_VALUE',
'Maximum model space distance between geometric entities at asserted c
onnectivities');
#562=UNCERTAINTY_MEASURE_WITH_UNIT(LENGTH_MEASURE(0.01),#566,
'DISTANCE_ACCURACY_VALUE',
'Maximum model space distance between geometric entities at asserted c
onnectivities');
#563=(
GEOMETRIC_REPRESENTATION_CONTEXT(3)
GLOBAL_UNCERTAINTY_ASSIGNED_CONTEXT((#560))
GLOBAL_UNIT_ASSIGNED_CONTEXT((#566,#568,#569))
REPRESENTATION_CONTEXT('','3D')
);
#564=(
GEOMETRIC_REPRESENTATION_CONTEXT(3)
GLOBAL_UNCERTAINTY_ASSIGNED_CONTEXT((#561))
GLOBAL_UNIT_ASSIGNED_CONTEXT((#566,#568,#569))
REPRESENTATION_CONTEXT('','3D')
);
#565=(
GEOMETRIC_REPRESENTATION_CONTEXT(3)
GLOBAL_UNCERTAINTY_ASSIGNED_CONTEXT((#562))
GLOBAL_UNIT_ASSIGNED_CONTEXT((#566,#568,#569))
REPRESENTATION_CONTEXT('','3D')
);
#566=(
LENGTH_UNIT()
NAMED_UNIT(*)
SI_UNIT(.MILLI.,.METRE.)
);
#567=(
LENGTH_UNIT()
NAMED_UNIT(*)
SI_UNIT($,.METRE.)
);
#568=(
NAMED_UNIT(*)
PLANE_ANGLE_UNIT()
SI_UNIT($,.RADIAN.)
);
#569=(
NAMED_UNIT(*)
SI_UNIT($,.STERADIAN.)
SOLID_ANGLE_UNIT()
);
#570=SHAPE_DEFINITION_REPRESENTATION(#572,#576);
#571=SHAPE_DEFINITION_REPRESENTATION(#573,#577);
#572=PRODUCT_DEFINITION_SHAPE('',$,#579);
#573=PRODUCT_DEFINITION_SHAPE('',$,#580);
#574=PRODUCT_DEFINITION_SHAPE($,$,#17);
#575=PRODUCT_DEFINITION_SHAPE($,$,#18);
#576=SHAPE_REPRESENTATION('',(#356,#376,#377),#563);
#577=SHAPE_REPRESENTATION('',(#357),#564);
#578=PRODUCT_DEFINITION_CONTEXT('part definition',#586,'design');
#579=PRODUCT_DEFINITION('2026-07-29-22-33-21-616','card-shuffler-gates',
#581,#578);
#580=PRODUCT_DEFINITION('2026-07-29-22-39-06-031','Component1',#582,#578);
#581=PRODUCT_DEFINITION_FORMATION('',$,#588);
#582=PRODUCT_DEFINITION_FORMATION('',$,#589);
#583=PRODUCT_RELATED_PRODUCT_CATEGORY('card-shuffler-gates',
'card-shuffler-gates',(#588));
#584=PRODUCT_RELATED_PRODUCT_CATEGORY('Component1','Component1',(#589));
#585=APPLICATION_PROTOCOL_DEFINITION('international standard',
'automotive_design',2009,#586);
#586=APPLICATION_CONTEXT(
'Core Data for Automotive Mechanical Design Process');
#587=PRODUCT_CONTEXT('part definition',#586,'mechanical');
#588=PRODUCT('2026-07-29-22-33-21-616','card-shuffler-gates',$,(#587));
#589=PRODUCT('2026-07-29-22-39-06-031','Component1',$,(#587));
#590=PRESENTATION_STYLE_ASSIGNMENT((#591));
#591=SURFACE_STYLE_USAGE(.BOTH.,#592);
#592=SURFACE_SIDE_STYLE('',(#593));
#593=SURFACE_STYLE_FILL_AREA(#594);
#594=FILL_AREA_STYLE('Steel - Satin',(#595));
#595=FILL_AREA_STYLE_COLOUR('Steel - Satin',#596);
#596=COLOUR_RGB('Steel - Satin',0.627450980392157,0.627450980392157,0.627450980392157);
ENDSEC;
END-ISO-10303-21;
