ISO-10303-21;
HEADER;
/* Generated by software containing ST-Developer
 * from STEP Tools, Inc. (www.steptools.com) 
 */

FILE_DESCRIPTION(
/* description */ (''),
/* implementation_level */ '2;1');

FILE_NAME(
/* name */ 'card-shuffler-side-plates.step',
/* time_stamp */ '2026-07-30T17:56:19-07:00',
/* author */ (''),
/* organization */ (''),
/* preprocessor_version */ 'ST-DEVELOPER v20.1',
/* originating_system */ 'Autodesk Translation Framework v15.8.0.0',
/* authorisation */ '');

FILE_SCHEMA (('AUTOMOTIVE_DESIGN { 1 0 10303 214 3 1 1 }'));
ENDSEC;

DATA;
#10=MECHANICAL_DESIGN_GEOMETRIC_PRESENTATION_REPRESENTATION('',(#21),#2036);
#11=ITEM_DEFINED_TRANSFORMATION($,$,#1296,#1368);
#12=ITEM_DEFINED_TRANSFORMATION($,$,#1296,#1369);
#13=(
REPRESENTATION_RELATIONSHIP($,$,#2048,#2047)
REPRESENTATION_RELATIONSHIP_WITH_TRANSFORMATION(#11)
SHAPE_REPRESENTATION_RELATIONSHIP()
);
#14=(
REPRESENTATION_RELATIONSHIP($,$,#2048,#2047)
REPRESENTATION_RELATIONSHIP_WITH_TRANSFORMATION(#12)
SHAPE_REPRESENTATION_RELATIONSHIP()
);
#15=CONTEXT_DEPENDENT_SHAPE_REPRESENTATION(#13,#2045);
#16=CONTEXT_DEPENDENT_SHAPE_REPRESENTATION(#14,#2046);
#17=NEXT_ASSEMBLY_USAGE_OCCURRENCE('Component2:1','Component2:1',
'Component2:1',#2050,#2051,'Component2:1');
#18=NEXT_ASSEMBLY_USAGE_OCCURRENCE('Component2:2','Component2:2',
'Component2:2',#2050,#2051,'Component2:2');
#19=SHAPE_REPRESENTATION_RELATIONSHIP('SRR','None',#2048,#20);
#20=ADVANCED_BREP_SHAPE_REPRESENTATION('',(#22),#2035);
#21=STYLED_ITEM('',(#2061),#22);
#22=MANIFOLD_SOLID_BREP('Body1',#1282);
#23=CYLINDRICAL_SURFACE('',#1335,6.99999999999999);
#24=CYLINDRICAL_SURFACE('',#1348,1.9);
#25=CYLINDRICAL_SURFACE('',#1363,1.9);
#26=CYLINDRICAL_SURFACE('',#1364,7.);
#27=CYLINDRICAL_SURFACE('',#1365,7.00000000000001);
#28=FACE_BOUND('',#134,.T.);
#29=FACE_BOUND('',#135,.T.);
#30=FACE_BOUND('',#136,.T.);
#31=FACE_BOUND('',#137,.T.);
#32=FACE_BOUND('',#138,.T.);
#33=FACE_BOUND('',#139,.T.);
#34=FACE_BOUND('',#140,.T.);
#35=FACE_BOUND('',#141,.T.);
#36=FACE_BOUND('',#142,.T.);
#37=FACE_BOUND('',#143,.T.);
#38=FACE_BOUND('',#144,.T.);
#39=FACE_BOUND('',#145,.T.);
#40=FACE_BOUND('',#146,.T.);
#41=FACE_BOUND('',#148,.T.);
#42=FACE_BOUND('',#149,.T.);
#43=FACE_BOUND('',#150,.T.);
#44=FACE_BOUND('',#151,.T.);
#45=FACE_BOUND('',#152,.T.);
#46=FACE_BOUND('',#153,.T.);
#47=FACE_BOUND('',#154,.T.);
#48=FACE_BOUND('',#155,.T.);
#49=FACE_BOUND('',#156,.T.);
#50=FACE_BOUND('',#157,.T.);
#51=FACE_BOUND('',#158,.T.);
#52=FACE_BOUND('',#159,.T.);
#53=FACE_BOUND('',#160,.T.);
#54=FACE_BOUND('',#168,.T.);
#55=FACE_BOUND('',#174,.T.);
#56=CIRCLE('',#1304,1.9);
#57=CIRCLE('',#1305,6.99999999999999);
#58=CIRCLE('',#1306,7.);
#59=CIRCLE('',#1307,7.00000000000001);
#60=CIRCLE('',#1308,1.9);
#61=CIRCLE('',#1310,6.99999999999999);
#62=CIRCLE('',#1311,7.00000000000001);
#63=CIRCLE('',#1312,7.);
#64=CIRCLE('',#1320,1.9);
#65=CIRCLE('',#1326,1.9);
#66=FACE_OUTER_BOUND('',#127,.T.);
#67=FACE_OUTER_BOUND('',#128,.T.);
#68=FACE_OUTER_BOUND('',#129,.T.);
#69=FACE_OUTER_BOUND('',#130,.T.);
#70=FACE_OUTER_BOUND('',#131,.T.);
#71=FACE_OUTER_BOUND('',#132,.T.);
#72=FACE_OUTER_BOUND('',#133,.T.);
#73=FACE_OUTER_BOUND('',#147,.T.);
#74=FACE_OUTER_BOUND('',#161,.T.);
#75=FACE_OUTER_BOUND('',#162,.T.);
#76=FACE_OUTER_BOUND('',#163,.T.);
#77=FACE_OUTER_BOUND('',#164,.T.);
#78=FACE_OUTER_BOUND('',#165,.T.);
#79=FACE_OUTER_BOUND('',#166,.T.);
#80=FACE_OUTER_BOUND('',#167,.T.);
#81=FACE_OUTER_BOUND('',#169,.T.);
#82=FACE_OUTER_BOUND('',#170,.T.);
#83=FACE_OUTER_BOUND('',#171,.T.);
#84=FACE_OUTER_BOUND('',#172,.T.);
#85=FACE_OUTER_BOUND('',#173,.T.);
#86=FACE_OUTER_BOUND('',#175,.T.);
#87=FACE_OUTER_BOUND('',#176,.T.);
#88=FACE_OUTER_BOUND('',#177,.T.);
#89=FACE_OUTER_BOUND('',#178,.T.);
#90=FACE_OUTER_BOUND('',#179,.T.);
#91=FACE_OUTER_BOUND('',#180,.T.);
#92=FACE_OUTER_BOUND('',#181,.T.);
#93=FACE_OUTER_BOUND('',#182,.T.);
#94=FACE_OUTER_BOUND('',#183,.T.);
#95=FACE_OUTER_BOUND('',#184,.T.);
#96=FACE_OUTER_BOUND('',#185,.T.);
#97=FACE_OUTER_BOUND('',#186,.T.);
#98=FACE_OUTER_BOUND('',#187,.T.);
#99=FACE_OUTER_BOUND('',#188,.T.);
#100=FACE_OUTER_BOUND('',#189,.T.);
#101=FACE_OUTER_BOUND('',#190,.T.);
#102=FACE_OUTER_BOUND('',#191,.T.);
#103=FACE_OUTER_BOUND('',#192,.T.);
#104=FACE_OUTER_BOUND('',#193,.T.);
#105=FACE_OUTER_BOUND('',#194,.T.);
#106=FACE_OUTER_BOUND('',#195,.T.);
#107=FACE_OUTER_BOUND('',#196,.T.);
#108=FACE_OUTER_BOUND('',#197,.T.);
#109=FACE_OUTER_BOUND('',#198,.T.);
#110=FACE_OUTER_BOUND('',#199,.T.);
#111=FACE_OUTER_BOUND('',#200,.T.);
#112=FACE_OUTER_BOUND('',#201,.T.);
#113=FACE_OUTER_BOUND('',#202,.T.);
#114=FACE_OUTER_BOUND('',#203,.T.);
#115=FACE_OUTER_BOUND('',#204,.T.);
#116=FACE_OUTER_BOUND('',#205,.T.);
#117=FACE_OUTER_BOUND('',#206,.T.);
#118=FACE_OUTER_BOUND('',#207,.T.);
#119=FACE_OUTER_BOUND('',#208,.T.);
#120=FACE_OUTER_BOUND('',#209,.T.);
#121=FACE_OUTER_BOUND('',#210,.T.);
#122=FACE_OUTER_BOUND('',#211,.T.);
#123=FACE_OUTER_BOUND('',#212,.T.);
#124=FACE_OUTER_BOUND('',#213,.T.);
#125=FACE_OUTER_BOUND('',#214,.T.);
#126=FACE_OUTER_BOUND('',#215,.T.);
#127=EDGE_LOOP('',(#823,#824,#825,#826));
#128=EDGE_LOOP('',(#827,#828,#829,#830));
#129=EDGE_LOOP('',(#831,#832,#833,#834));
#130=EDGE_LOOP('',(#835,#836,#837,#838));
#131=EDGE_LOOP('',(#839,#840,#841,#842));
#132=EDGE_LOOP('',(#843,#844,#845,#846));
#133=EDGE_LOOP('',(#847,#848,#849,#850,#851,#852,#853,#854,#855,#856,#857,
#858));
#134=EDGE_LOOP('',(#859));
#135=EDGE_LOOP('',(#860));
#136=EDGE_LOOP('',(#861,#862,#863,#864));
#137=EDGE_LOOP('',(#865,#866,#867,#868));
#138=EDGE_LOOP('',(#869,#870,#871,#872));
#139=EDGE_LOOP('',(#873,#874,#875,#876));
#140=EDGE_LOOP('',(#877,#878,#879,#880));
#141=EDGE_LOOP('',(#881,#882,#883,#884));
#142=EDGE_LOOP('',(#885,#886,#887,#888));
#143=EDGE_LOOP('',(#889,#890,#891,#892));
#144=EDGE_LOOP('',(#893));
#145=EDGE_LOOP('',(#894));
#146=EDGE_LOOP('',(#895));
#147=EDGE_LOOP('',(#896,#897,#898,#899,#900,#901,#902,#903,#904,#905,#906,
#907));
#148=EDGE_LOOP('',(#908,#909,#910,#911));
#149=EDGE_LOOP('',(#912));
#150=EDGE_LOOP('',(#913,#914,#915,#916));
#151=EDGE_LOOP('',(#917,#918,#919,#920));
#152=EDGE_LOOP('',(#921));
#153=EDGE_LOOP('',(#922,#923,#924,#925));
#154=EDGE_LOOP('',(#926,#927,#928,#929));
#155=EDGE_LOOP('',(#930,#931,#932,#933));
#156=EDGE_LOOP('',(#934,#935,#936,#937));
#157=EDGE_LOOP('',(#938,#939,#940,#941));
#158=EDGE_LOOP('',(#942,#943,#944,#945));
#159=EDGE_LOOP('',(#946));
#160=EDGE_LOOP('',(#947,#948,#949,#950));
#161=EDGE_LOOP('',(#951,#952,#953,#954));
#162=EDGE_LOOP('',(#955,#956,#957,#958));
#163=EDGE_LOOP('',(#959,#960,#961,#962));
#164=EDGE_LOOP('',(#963,#964,#965,#966));
#165=EDGE_LOOP('',(#967,#968,#969,#970));
#166=EDGE_LOOP('',(#971,#972,#973,#974));
#167=EDGE_LOOP('',(#975,#976,#977,#978));
#168=EDGE_LOOP('',(#979));
#169=EDGE_LOOP('',(#980,#981,#982,#983));
#170=EDGE_LOOP('',(#984,#985,#986,#987));
#171=EDGE_LOOP('',(#988,#989,#990,#991));
#172=EDGE_LOOP('',(#992,#993,#994,#995));
#173=EDGE_LOOP('',(#996,#997,#998,#999));
#174=EDGE_LOOP('',(#1000));
#175=EDGE_LOOP('',(#1001,#1002,#1003,#1004));
#176=EDGE_LOOP('',(#1005,#1006,#1007,#1008));
#177=EDGE_LOOP('',(#1009,#1010,#1011,#1012));
#178=EDGE_LOOP('',(#1013,#1014,#1015,#1016));
#179=EDGE_LOOP('',(#1017,#1018,#1019,#1020));
#180=EDGE_LOOP('',(#1021,#1022,#1023,#1024));
#181=EDGE_LOOP('',(#1025,#1026,#1027,#1028));
#182=EDGE_LOOP('',(#1029,#1030,#1031,#1032));
#183=EDGE_LOOP('',(#1033,#1034,#1035,#1036));
#184=EDGE_LOOP('',(#1037,#1038,#1039,#1040));
#185=EDGE_LOOP('',(#1041,#1042,#1043,#1044));
#186=EDGE_LOOP('',(#1045,#1046,#1047,#1048));
#187=EDGE_LOOP('',(#1049,#1050,#1051,#1052));
#188=EDGE_LOOP('',(#1053,#1054,#1055,#1056));
#189=EDGE_LOOP('',(#1057,#1058,#1059,#1060));
#190=EDGE_LOOP('',(#1061,#1062,#1063,#1064));
#191=EDGE_LOOP('',(#1065,#1066,#1067,#1068));
#192=EDGE_LOOP('',(#1069,#1070,#1071,#1072));
#193=EDGE_LOOP('',(#1073,#1074,#1075,#1076));
#194=EDGE_LOOP('',(#1077,#1078,#1079,#1080));
#195=EDGE_LOOP('',(#1081,#1082,#1083,#1084));
#196=EDGE_LOOP('',(#1085,#1086,#1087,#1088));
#197=EDGE_LOOP('',(#1089,#1090,#1091,#1092));
#198=EDGE_LOOP('',(#1093,#1094,#1095,#1096));
#199=EDGE_LOOP('',(#1097,#1098,#1099,#1100));
#200=EDGE_LOOP('',(#1101,#1102,#1103,#1104));
#201=EDGE_LOOP('',(#1105,#1106,#1107,#1108));
#202=EDGE_LOOP('',(#1109,#1110,#1111,#1112));
#203=EDGE_LOOP('',(#1113,#1114,#1115,#1116));
#204=EDGE_LOOP('',(#1117,#1118,#1119,#1120));
#205=EDGE_LOOP('',(#1121,#1122,#1123,#1124));
#206=EDGE_LOOP('',(#1125,#1126,#1127,#1128));
#207=EDGE_LOOP('',(#1129,#1130,#1131,#1132));
#208=EDGE_LOOP('',(#1133,#1134,#1135,#1136));
#209=EDGE_LOOP('',(#1137,#1138,#1139,#1140));
#210=EDGE_LOOP('',(#1141,#1142,#1143,#1144));
#211=EDGE_LOOP('',(#1145,#1146,#1147,#1148));
#212=EDGE_LOOP('',(#1149,#1150,#1151,#1152));
#213=EDGE_LOOP('',(#1153,#1154,#1155,#1156));
#214=EDGE_LOOP('',(#1157,#1158,#1159,#1160));
#215=EDGE_LOOP('',(#1161,#1162,#1163,#1164));
#216=LINE('',#1686,#377);
#217=LINE('',#1688,#378);
#218=LINE('',#1690,#379);
#219=LINE('',#1691,#380);
#220=LINE('',#1695,#381);
#221=LINE('',#1697,#382);
#222=LINE('',#1699,#383);
#223=LINE('',#1700,#384);
#224=LINE('',#1702,#385);
#225=LINE('',#1703,#386);
#226=LINE('',#1707,#387);
#227=LINE('',#1709,#388);
#228=LINE('',#1711,#389);
#229=LINE('',#1712,#390);
#230=LINE('',#1716,#391);
#231=LINE('',#1718,#392);
#232=LINE('',#1720,#393);
#233=LINE('',#1721,#394);
#234=LINE('',#1723,#395);
#235=LINE('',#1724,#396);
#236=LINE('',#1727,#397);
#237=LINE('',#1729,#398);
#238=LINE('',#1731,#399);
#239=LINE('',#1733,#400);
#240=LINE('',#1734,#401);
#241=LINE('',#1735,#402);
#242=LINE('',#1742,#403);
#243=LINE('',#1744,#404);
#244=LINE('',#1746,#405);
#245=LINE('',#1747,#406);
#246=LINE('',#1750,#407);
#247=LINE('',#1752,#408);
#248=LINE('',#1754,#409);
#249=LINE('',#1755,#410);
#250=LINE('',#1758,#411);
#251=LINE('',#1760,#412);
#252=LINE('',#1762,#413);
#253=LINE('',#1763,#414);
#254=LINE('',#1766,#415);
#255=LINE('',#1768,#416);
#256=LINE('',#1770,#417);
#257=LINE('',#1771,#418);
#258=LINE('',#1774,#419);
#259=LINE('',#1776,#420);
#260=LINE('',#1778,#421);
#261=LINE('',#1779,#422);
#262=LINE('',#1782,#423);
#263=LINE('',#1784,#424);
#264=LINE('',#1786,#425);
#265=LINE('',#1787,#426);
#266=LINE('',#1790,#427);
#267=LINE('',#1792,#428);
#268=LINE('',#1794,#429);
#269=LINE('',#1795,#430);
#270=LINE('',#1798,#431);
#271=LINE('',#1800,#432);
#272=LINE('',#1802,#433);
#273=LINE('',#1803,#434);
#274=LINE('',#1811,#435);
#275=LINE('',#1813,#436);
#276=LINE('',#1815,#437);
#277=LINE('',#1817,#438);
#278=LINE('',#1819,#439);
#279=LINE('',#1820,#440);
#280=LINE('',#1823,#441);
#281=LINE('',#1825,#442);
#282=LINE('',#1827,#443);
#283=LINE('',#1828,#444);
#284=LINE('',#1833,#445);
#285=LINE('',#1835,#446);
#286=LINE('',#1837,#447);
#287=LINE('',#1838,#448);
#288=LINE('',#1841,#449);
#289=LINE('',#1843,#450);
#290=LINE('',#1845,#451);
#291=LINE('',#1846,#452);
#292=LINE('',#1851,#453);
#293=LINE('',#1853,#454);
#294=LINE('',#1855,#455);
#295=LINE('',#1856,#456);
#296=LINE('',#1859,#457);
#297=LINE('',#1861,#458);
#298=LINE('',#1863,#459);
#299=LINE('',#1864,#460);
#300=LINE('',#1867,#461);
#301=LINE('',#1869,#462);
#302=LINE('',#1871,#463);
#303=LINE('',#1872,#464);
#304=LINE('',#1875,#465);
#305=LINE('',#1877,#466);
#306=LINE('',#1879,#467);
#307=LINE('',#1880,#468);
#308=LINE('',#1883,#469);
#309=LINE('',#1885,#470);
#310=LINE('',#1887,#471);
#311=LINE('',#1888,#472);
#312=LINE('',#1891,#473);
#313=LINE('',#1893,#474);
#314=LINE('',#1895,#475);
#315=LINE('',#1896,#476);
#316=LINE('',#1901,#477);
#317=LINE('',#1903,#478);
#318=LINE('',#1905,#479);
#319=LINE('',#1906,#480);
#320=LINE('',#1909,#481);
#321=LINE('',#1912,#482);
#322=LINE('',#1914,#483);
#323=LINE('',#1915,#484);
#324=LINE('',#1918,#485);
#325=LINE('',#1919,#486);
#326=LINE('',#1922,#487);
#327=LINE('',#1923,#488);
#328=LINE('',#1925,#489);
#329=LINE('',#1931,#490);
#330=LINE('',#1933,#491);
#331=LINE('',#1934,#492);
#332=LINE('',#1937,#493);
#333=LINE('',#1938,#494);
#334=LINE('',#1941,#495);
#335=LINE('',#1942,#496);
#336=LINE('',#1944,#497);
#337=LINE('',#1949,#498);
#338=LINE('',#1950,#499);
#339=LINE('',#1952,#500);
#340=LINE('',#1953,#501);
#341=LINE('',#1955,#502);
#342=LINE('',#1956,#503);
#343=LINE('',#1958,#504);
#344=LINE('',#1960,#505);
#345=LINE('',#1961,#506);
#346=LINE('',#1963,#507);
#347=LINE('',#1964,#508);
#348=LINE('',#1966,#509);
#349=LINE('',#1967,#510);
#350=LINE('',#1969,#511);
#351=LINE('',#1970,#512);
#352=LINE('',#1972,#513);
#353=LINE('',#1976,#514);
#354=LINE('',#1977,#515);
#355=LINE('',#1979,#516);
#356=LINE('',#1981,#517);
#357=LINE('',#1984,#518);
#358=LINE('',#1985,#519);
#359=LINE('',#1987,#520);
#360=LINE('',#1989,#521);
#361=LINE('',#1994,#522);
#362=LINE('',#1996,#523);
#363=LINE('',#1998,#524);
#364=LINE('',#2001,#525);
#365=LINE('',#2002,#526);
#366=LINE('',#2004,#527);
#367=LINE('',#2006,#528);
#368=LINE('',#2009,#529);
#369=LINE('',#2010,#530);
#370=LINE('',#2012,#531);
#371=LINE('',#2014,#532);
#372=LINE('',#2017,#533);
#373=LINE('',#2019,#534);
#374=LINE('',#2022,#535);
#375=LINE('',#2024,#536);
#376=LINE('',#2026,#537);
#377=VECTOR('',#1376,10.);
#378=VECTOR('',#1377,10.);
#379=VECTOR('',#1378,10.);
#380=VECTOR('',#1379,10.);
#381=VECTOR('',#1382,10.);
#382=VECTOR('',#1383,10.);
#383=VECTOR('',#1384,10.);
#384=VECTOR('',#1385,10.);
#385=VECTOR('',#1388,10.);
#386=VECTOR('',#1389,10.);
#387=VECTOR('',#1392,10.);
#388=VECTOR('',#1393,10.);
#389=VECTOR('',#1394,10.);
#390=VECTOR('',#1395,10.);
#391=VECTOR('',#1398,10.);
#392=VECTOR('',#1399,10.);
#393=VECTOR('',#1400,10.);
#394=VECTOR('',#1401,10.);
#395=VECTOR('',#1404,10.);
#396=VECTOR('',#1405,10.);
#397=VECTOR('',#1408,10.);
#398=VECTOR('',#1409,10.);
#399=VECTOR('',#1410,10.);
#400=VECTOR('',#1411,10.);
#401=VECTOR('',#1412,10.);
#402=VECTOR('',#1413,10.);
#403=VECTOR('',#1418,10.);
#404=VECTOR('',#1419,10.);
#405=VECTOR('',#1420,10.);
#406=VECTOR('',#1421,10.);
#407=VECTOR('',#1422,10.);
#408=VECTOR('',#1423,10.);
#409=VECTOR('',#1424,10.);
#410=VECTOR('',#1425,10.);
#411=VECTOR('',#1426,10.);
#412=VECTOR('',#1427,10.);
#413=VECTOR('',#1428,10.);
#414=VECTOR('',#1429,10.);
#415=VECTOR('',#1430,10.);
#416=VECTOR('',#1431,10.);
#417=VECTOR('',#1432,10.);
#418=VECTOR('',#1433,10.);
#419=VECTOR('',#1434,10.);
#420=VECTOR('',#1435,10.);
#421=VECTOR('',#1436,10.);
#422=VECTOR('',#1437,10.);
#423=VECTOR('',#1438,10.);
#424=VECTOR('',#1439,10.);
#425=VECTOR('',#1440,10.);
#426=VECTOR('',#1441,10.);
#427=VECTOR('',#1442,10.);
#428=VECTOR('',#1443,10.);
#429=VECTOR('',#1444,10.);
#430=VECTOR('',#1445,10.);
#431=VECTOR('',#1446,10.);
#432=VECTOR('',#1447,10.);
#433=VECTOR('',#1448,10.);
#434=VECTOR('',#1449,10.);
#435=VECTOR('',#1458,10.);
#436=VECTOR('',#1459,10.);
#437=VECTOR('',#1460,10.);
#438=VECTOR('',#1461,10.);
#439=VECTOR('',#1462,10.);
#440=VECTOR('',#1463,10.);
#441=VECTOR('',#1464,10.);
#442=VECTOR('',#1465,10.);
#443=VECTOR('',#1466,10.);
#444=VECTOR('',#1467,10.);
#445=VECTOR('',#1470,10.);
#446=VECTOR('',#1471,10.);
#447=VECTOR('',#1472,10.);
#448=VECTOR('',#1473,10.);
#449=VECTOR('',#1474,10.);
#450=VECTOR('',#1475,10.);
#451=VECTOR('',#1476,10.);
#452=VECTOR('',#1477,10.);
#453=VECTOR('',#1480,10.);
#454=VECTOR('',#1481,10.);
#455=VECTOR('',#1482,10.);
#456=VECTOR('',#1483,10.);
#457=VECTOR('',#1484,10.);
#458=VECTOR('',#1485,10.);
#459=VECTOR('',#1486,10.);
#460=VECTOR('',#1487,10.);
#461=VECTOR('',#1488,10.);
#462=VECTOR('',#1489,10.);
#463=VECTOR('',#1490,10.);
#464=VECTOR('',#1491,10.);
#465=VECTOR('',#1492,10.);
#466=VECTOR('',#1493,10.);
#467=VECTOR('',#1494,10.);
#468=VECTOR('',#1495,10.);
#469=VECTOR('',#1496,10.);
#470=VECTOR('',#1497,10.);
#471=VECTOR('',#1498,10.);
#472=VECTOR('',#1499,10.);
#473=VECTOR('',#1500,10.);
#474=VECTOR('',#1501,10.);
#475=VECTOR('',#1502,10.);
#476=VECTOR('',#1503,10.);
#477=VECTOR('',#1506,10.);
#478=VECTOR('',#1507,10.);
#479=VECTOR('',#1508,10.);
#480=VECTOR('',#1509,10.);
#481=VECTOR('',#1514,10.);
#482=VECTOR('',#1517,10.);
#483=VECTOR('',#1518,10.);
#484=VECTOR('',#1519,10.);
#485=VECTOR('',#1522,10.);
#486=VECTOR('',#1523,10.);
#487=VECTOR('',#1526,10.);
#488=VECTOR('',#1527,10.);
#489=VECTOR('',#1530,10.);
#490=VECTOR('',#1537,10.);
#491=VECTOR('',#1538,10.);
#492=VECTOR('',#1539,10.);
#493=VECTOR('',#1542,10.);
#494=VECTOR('',#1543,10.);
#495=VECTOR('',#1546,10.);
#496=VECTOR('',#1547,10.);
#497=VECTOR('',#1550,10.);
#498=VECTOR('',#1557,10.);
#499=VECTOR('',#1558,10.);
#500=VECTOR('',#1561,10.);
#501=VECTOR('',#1562,10.);
#502=VECTOR('',#1565,10.);
#503=VECTOR('',#1566,10.);
#504=VECTOR('',#1569,10.);
#505=VECTOR('',#1572,10.);
#506=VECTOR('',#1573,10.);
#507=VECTOR('',#1576,10.);
#508=VECTOR('',#1577,10.);
#509=VECTOR('',#1580,10.);
#510=VECTOR('',#1581,10.);
#511=VECTOR('',#1584,10.);
#512=VECTOR('',#1585,10.);
#513=VECTOR('',#1588,6.99999999999999);
#514=VECTOR('',#1595,10.);
#515=VECTOR('',#1596,10.);
#516=VECTOR('',#1599,10.);
#517=VECTOR('',#1602,10.);
#518=VECTOR('',#1607,10.);
#519=VECTOR('',#1608,10.);
#520=VECTOR('',#1611,10.);
#521=VECTOR('',#1614,10.);
#522=VECTOR('',#1623,1.9);
#523=VECTOR('',#1626,10.);
#524=VECTOR('',#1629,10.);
#525=VECTOR('',#1634,10.);
#526=VECTOR('',#1635,10.);
#527=VECTOR('',#1638,10.);
#528=VECTOR('',#1641,10.);
#529=VECTOR('',#1646,10.);
#530=VECTOR('',#1647,10.);
#531=VECTOR('',#1650,10.);
#532=VECTOR('',#1653,10.);
#533=VECTOR('',#1658,10.);
#534=VECTOR('',#1661,10.);
#535=VECTOR('',#1666,1.9);
#536=VECTOR('',#1669,7.);
#537=VECTOR('',#1672,7.00000000000001);
#538=VERTEX_POINT('',#1684);
#539=VERTEX_POINT('',#1685);
#540=VERTEX_POINT('',#1687);
#541=VERTEX_POINT('',#1689);
#542=VERTEX_POINT('',#1693);
#543=VERTEX_POINT('',#1694);
#544=VERTEX_POINT('',#1696);
#545=VERTEX_POINT('',#1698);
#546=VERTEX_POINT('',#1705);
#547=VERTEX_POINT('',#1706);
#548=VERTEX_POINT('',#1708);
#549=VERTEX_POINT('',#1710);
#550=VERTEX_POINT('',#1714);
#551=VERTEX_POINT('',#1715);
#552=VERTEX_POINT('',#1717);
#553=VERTEX_POINT('',#1719);
#554=VERTEX_POINT('',#1726);
#555=VERTEX_POINT('',#1728);
#556=VERTEX_POINT('',#1730);
#557=VERTEX_POINT('',#1732);
#558=VERTEX_POINT('',#1736);
#559=VERTEX_POINT('',#1738);
#560=VERTEX_POINT('',#1740);
#561=VERTEX_POINT('',#1741);
#562=VERTEX_POINT('',#1743);
#563=VERTEX_POINT('',#1745);
#564=VERTEX_POINT('',#1748);
#565=VERTEX_POINT('',#1749);
#566=VERTEX_POINT('',#1751);
#567=VERTEX_POINT('',#1753);
#568=VERTEX_POINT('',#1756);
#569=VERTEX_POINT('',#1757);
#570=VERTEX_POINT('',#1759);
#571=VERTEX_POINT('',#1761);
#572=VERTEX_POINT('',#1764);
#573=VERTEX_POINT('',#1765);
#574=VERTEX_POINT('',#1767);
#575=VERTEX_POINT('',#1769);
#576=VERTEX_POINT('',#1772);
#577=VERTEX_POINT('',#1773);
#578=VERTEX_POINT('',#1775);
#579=VERTEX_POINT('',#1777);
#580=VERTEX_POINT('',#1780);
#581=VERTEX_POINT('',#1781);
#582=VERTEX_POINT('',#1783);
#583=VERTEX_POINT('',#1785);
#584=VERTEX_POINT('',#1788);
#585=VERTEX_POINT('',#1789);
#586=VERTEX_POINT('',#1791);
#587=VERTEX_POINT('',#1793);
#588=VERTEX_POINT('',#1796);
#589=VERTEX_POINT('',#1797);
#590=VERTEX_POINT('',#1799);
#591=VERTEX_POINT('',#1801);
#592=VERTEX_POINT('',#1804);
#593=VERTEX_POINT('',#1806);
#594=VERTEX_POINT('',#1808);
#595=VERTEX_POINT('',#1812);
#596=VERTEX_POINT('',#1814);
#597=VERTEX_POINT('',#1816);
#598=VERTEX_POINT('',#1818);
#599=VERTEX_POINT('',#1821);
#600=VERTEX_POINT('',#1822);
#601=VERTEX_POINT('',#1824);
#602=VERTEX_POINT('',#1826);
#603=VERTEX_POINT('',#1829);
#604=VERTEX_POINT('',#1831);
#605=VERTEX_POINT('',#1832);
#606=VERTEX_POINT('',#1834);
#607=VERTEX_POINT('',#1836);
#608=VERTEX_POINT('',#1839);
#609=VERTEX_POINT('',#1840);
#610=VERTEX_POINT('',#1842);
#611=VERTEX_POINT('',#1844);
#612=VERTEX_POINT('',#1847);
#613=VERTEX_POINT('',#1849);
#614=VERTEX_POINT('',#1850);
#615=VERTEX_POINT('',#1852);
#616=VERTEX_POINT('',#1854);
#617=VERTEX_POINT('',#1857);
#618=VERTEX_POINT('',#1858);
#619=VERTEX_POINT('',#1860);
#620=VERTEX_POINT('',#1862);
#621=VERTEX_POINT('',#1865);
#622=VERTEX_POINT('',#1866);
#623=VERTEX_POINT('',#1868);
#624=VERTEX_POINT('',#1870);
#625=VERTEX_POINT('',#1873);
#626=VERTEX_POINT('',#1874);
#627=VERTEX_POINT('',#1876);
#628=VERTEX_POINT('',#1878);
#629=VERTEX_POINT('',#1881);
#630=VERTEX_POINT('',#1882);
#631=VERTEX_POINT('',#1884);
#632=VERTEX_POINT('',#1886);
#633=VERTEX_POINT('',#1889);
#634=VERTEX_POINT('',#1890);
#635=VERTEX_POINT('',#1892);
#636=VERTEX_POINT('',#1894);
#637=VERTEX_POINT('',#1897);
#638=VERTEX_POINT('',#1899);
#639=VERTEX_POINT('',#1900);
#640=VERTEX_POINT('',#1902);
#641=VERTEX_POINT('',#1904);
#642=VERTEX_POINT('',#1911);
#643=VERTEX_POINT('',#1913);
#644=VERTEX_POINT('',#1917);
#645=VERTEX_POINT('',#1921);
#646=VERTEX_POINT('',#1927);
#647=VERTEX_POINT('',#1930);
#648=VERTEX_POINT('',#1932);
#649=VERTEX_POINT('',#1936);
#650=VERTEX_POINT('',#1940);
#651=VERTEX_POINT('',#1946);
#652=EDGE_CURVE('',#538,#539,#216,.T.);
#653=EDGE_CURVE('',#540,#538,#217,.T.);
#654=EDGE_CURVE('',#540,#541,#218,.T.);
#655=EDGE_CURVE('',#539,#541,#219,.T.);
#656=EDGE_CURVE('',#542,#543,#220,.T.);
#657=EDGE_CURVE('',#544,#542,#221,.T.);
#658=EDGE_CURVE('',#544,#545,#222,.T.);
#659=EDGE_CURVE('',#543,#545,#223,.T.);
#660=EDGE_CURVE('',#541,#544,#224,.T.);
#661=EDGE_CURVE('',#545,#540,#225,.T.);
#662=EDGE_CURVE('',#546,#547,#226,.T.);
#663=EDGE_CURVE('',#548,#546,#227,.T.);
#664=EDGE_CURVE('',#548,#549,#228,.T.);
#665=EDGE_CURVE('',#547,#549,#229,.T.);
#666=EDGE_CURVE('',#550,#551,#230,.T.);
#667=EDGE_CURVE('',#552,#550,#231,.T.);
#668=EDGE_CURVE('',#552,#553,#232,.T.);
#669=EDGE_CURVE('',#551,#553,#233,.T.);
#670=EDGE_CURVE('',#549,#552,#234,.T.);
#671=EDGE_CURVE('',#553,#548,#235,.T.);
#672=EDGE_CURVE('',#554,#542,#236,.T.);
#673=EDGE_CURVE('',#555,#554,#237,.T.);
#674=EDGE_CURVE('',#556,#555,#238,.T.);
#675=EDGE_CURVE('',#556,#557,#239,.T.);
#676=EDGE_CURVE('',#551,#557,#240,.T.);
#677=EDGE_CURVE('',#539,#546,#241,.T.);
#678=EDGE_CURVE('',#558,#558,#56,.T.);
#679=EDGE_CURVE('',#559,#559,#57,.T.);
#680=EDGE_CURVE('',#560,#561,#242,.T.);
#681=EDGE_CURVE('',#561,#562,#243,.T.);
#682=EDGE_CURVE('',#562,#563,#244,.T.);
#683=EDGE_CURVE('',#563,#560,#245,.T.);
#684=EDGE_CURVE('',#564,#565,#246,.T.);
#685=EDGE_CURVE('',#565,#566,#247,.T.);
#686=EDGE_CURVE('',#566,#567,#248,.T.);
#687=EDGE_CURVE('',#567,#564,#249,.T.);
#688=EDGE_CURVE('',#568,#569,#250,.T.);
#689=EDGE_CURVE('',#569,#570,#251,.T.);
#690=EDGE_CURVE('',#570,#571,#252,.T.);
#691=EDGE_CURVE('',#571,#568,#253,.T.);
#692=EDGE_CURVE('',#572,#573,#254,.T.);
#693=EDGE_CURVE('',#573,#574,#255,.T.);
#694=EDGE_CURVE('',#574,#575,#256,.T.);
#695=EDGE_CURVE('',#575,#572,#257,.T.);
#696=EDGE_CURVE('',#576,#577,#258,.T.);
#697=EDGE_CURVE('',#577,#578,#259,.T.);
#698=EDGE_CURVE('',#578,#579,#260,.T.);
#699=EDGE_CURVE('',#579,#576,#261,.T.);
#700=EDGE_CURVE('',#580,#581,#262,.T.);
#701=EDGE_CURVE('',#581,#582,#263,.T.);
#702=EDGE_CURVE('',#582,#583,#264,.T.);
#703=EDGE_CURVE('',#583,#580,#265,.T.);
#704=EDGE_CURVE('',#584,#585,#266,.T.);
#705=EDGE_CURVE('',#585,#586,#267,.T.);
#706=EDGE_CURVE('',#586,#587,#268,.T.);
#707=EDGE_CURVE('',#587,#584,#269,.T.);
#708=EDGE_CURVE('',#588,#589,#270,.T.);
#709=EDGE_CURVE('',#589,#590,#271,.T.);
#710=EDGE_CURVE('',#590,#591,#272,.T.);
#711=EDGE_CURVE('',#591,#588,#273,.T.);
#712=EDGE_CURVE('',#592,#592,#58,.T.);
#713=EDGE_CURVE('',#593,#593,#59,.T.);
#714=EDGE_CURVE('',#594,#594,#60,.T.);
#715=EDGE_CURVE('',#538,#547,#274,.T.);
#716=EDGE_CURVE('',#550,#595,#275,.T.);
#717=EDGE_CURVE('',#596,#595,#276,.T.);
#718=EDGE_CURVE('',#596,#597,#277,.T.);
#719=EDGE_CURVE('',#597,#598,#278,.T.);
#720=EDGE_CURVE('',#598,#543,#279,.T.);
#721=EDGE_CURVE('',#599,#600,#280,.T.);
#722=EDGE_CURVE('',#600,#601,#281,.T.);
#723=EDGE_CURVE('',#601,#602,#282,.T.);
#724=EDGE_CURVE('',#602,#599,#283,.T.);
#725=EDGE_CURVE('',#603,#603,#61,.T.);
#726=EDGE_CURVE('',#604,#605,#284,.T.);
#727=EDGE_CURVE('',#605,#606,#285,.T.);
#728=EDGE_CURVE('',#606,#607,#286,.T.);
#729=EDGE_CURVE('',#607,#604,#287,.T.);
#730=EDGE_CURVE('',#608,#609,#288,.T.);
#731=EDGE_CURVE('',#609,#610,#289,.T.);
#732=EDGE_CURVE('',#610,#611,#290,.T.);
#733=EDGE_CURVE('',#611,#608,#291,.T.);
#734=EDGE_CURVE('',#612,#612,#62,.T.);
#735=EDGE_CURVE('',#613,#614,#292,.T.);
#736=EDGE_CURVE('',#615,#613,#293,.T.);
#737=EDGE_CURVE('',#616,#615,#294,.T.);
#738=EDGE_CURVE('',#614,#616,#295,.T.);
#739=EDGE_CURVE('',#617,#618,#296,.T.);
#740=EDGE_CURVE('',#619,#617,#297,.T.);
#741=EDGE_CURVE('',#620,#619,#298,.T.);
#742=EDGE_CURVE('',#618,#620,#299,.T.);
#743=EDGE_CURVE('',#621,#622,#300,.T.);
#744=EDGE_CURVE('',#623,#621,#301,.T.);
#745=EDGE_CURVE('',#624,#623,#302,.T.);
#746=EDGE_CURVE('',#622,#624,#303,.T.);
#747=EDGE_CURVE('',#625,#626,#304,.T.);
#748=EDGE_CURVE('',#627,#625,#305,.T.);
#749=EDGE_CURVE('',#628,#627,#306,.T.);
#750=EDGE_CURVE('',#626,#628,#307,.T.);
#751=EDGE_CURVE('',#629,#630,#308,.T.);
#752=EDGE_CURVE('',#630,#631,#309,.T.);
#753=EDGE_CURVE('',#631,#632,#310,.T.);
#754=EDGE_CURVE('',#632,#629,#311,.T.);
#755=EDGE_CURVE('',#633,#634,#312,.T.);
#756=EDGE_CURVE('',#634,#635,#313,.T.);
#757=EDGE_CURVE('',#635,#636,#314,.T.);
#758=EDGE_CURVE('',#636,#633,#315,.T.);
#759=EDGE_CURVE('',#637,#637,#63,.T.);
#760=EDGE_CURVE('',#638,#639,#316,.T.);
#761=EDGE_CURVE('',#639,#640,#317,.T.);
#762=EDGE_CURVE('',#640,#641,#318,.T.);
#763=EDGE_CURVE('',#641,#638,#319,.T.);
#764=EDGE_CURVE('',#557,#595,#320,.T.);
#765=EDGE_CURVE('',#600,#642,#321,.T.);
#766=EDGE_CURVE('',#643,#642,#322,.T.);
#767=EDGE_CURVE('',#601,#643,#323,.T.);
#768=EDGE_CURVE('',#599,#644,#324,.T.);
#769=EDGE_CURVE('',#642,#644,#325,.T.);
#770=EDGE_CURVE('',#645,#643,#326,.T.);
#771=EDGE_CURVE('',#602,#645,#327,.T.);
#772=EDGE_CURVE('',#644,#645,#328,.T.);
#773=EDGE_CURVE('',#646,#646,#64,.T.);
#774=EDGE_CURVE('',#639,#647,#329,.T.);
#775=EDGE_CURVE('',#648,#647,#330,.T.);
#776=EDGE_CURVE('',#640,#648,#331,.T.);
#777=EDGE_CURVE('',#638,#649,#332,.T.);
#778=EDGE_CURVE('',#647,#649,#333,.T.);
#779=EDGE_CURVE('',#650,#648,#334,.T.);
#780=EDGE_CURVE('',#641,#650,#335,.T.);
#781=EDGE_CURVE('',#649,#650,#336,.T.);
#782=EDGE_CURVE('',#651,#651,#65,.T.);
#783=EDGE_CURVE('',#556,#596,#337,.T.);
#784=EDGE_CURVE('',#555,#597,#338,.T.);
#785=EDGE_CURVE('',#579,#628,#339,.T.);
#786=EDGE_CURVE('',#578,#626,#340,.T.);
#787=EDGE_CURVE('',#563,#621,#341,.T.);
#788=EDGE_CURVE('',#562,#623,#342,.T.);
#789=EDGE_CURVE('',#598,#554,#343,.T.);
#790=EDGE_CURVE('',#561,#624,#344,.T.);
#791=EDGE_CURVE('',#560,#622,#345,.T.);
#792=EDGE_CURVE('',#591,#615,#346,.T.);
#793=EDGE_CURVE('',#590,#616,#347,.T.);
#794=EDGE_CURVE('',#574,#620,#348,.T.);
#795=EDGE_CURVE('',#573,#618,#349,.T.);
#796=EDGE_CURVE('',#572,#617,#350,.T.);
#797=EDGE_CURVE('',#575,#619,#351,.T.);
#798=EDGE_CURVE('',#559,#603,#352,.T.);
#799=EDGE_CURVE('',#567,#631,#353,.T.);
#800=EDGE_CURVE('',#566,#632,#354,.T.);
#801=EDGE_CURVE('',#565,#629,#355,.T.);
#802=EDGE_CURVE('',#564,#630,#356,.T.);
#803=EDGE_CURVE('',#571,#606,#357,.T.);
#804=EDGE_CURVE('',#570,#607,#358,.T.);
#805=EDGE_CURVE('',#569,#604,#359,.T.);
#806=EDGE_CURVE('',#568,#605,#360,.T.);
#807=EDGE_CURVE('',#594,#646,#361,.T.);
#808=EDGE_CURVE('',#577,#625,#362,.T.);
#809=EDGE_CURVE('',#576,#627,#363,.T.);
#810=EDGE_CURVE('',#583,#635,#364,.T.);
#811=EDGE_CURVE('',#582,#636,#365,.T.);
#812=EDGE_CURVE('',#581,#633,#366,.T.);
#813=EDGE_CURVE('',#580,#634,#367,.T.);
#814=EDGE_CURVE('',#587,#610,#368,.T.);
#815=EDGE_CURVE('',#586,#611,#369,.T.);
#816=EDGE_CURVE('',#585,#608,#370,.T.);
#817=EDGE_CURVE('',#584,#609,#371,.T.);
#818=EDGE_CURVE('',#589,#614,#372,.T.);
#819=EDGE_CURVE('',#588,#613,#373,.T.);
#820=EDGE_CURVE('',#558,#651,#374,.T.);
#821=EDGE_CURVE('',#592,#637,#375,.T.);
#822=EDGE_CURVE('',#593,#612,#376,.T.);
#823=ORIENTED_EDGE('',*,*,#652,.F.);
#824=ORIENTED_EDGE('',*,*,#653,.F.);
#825=ORIENTED_EDGE('',*,*,#654,.T.);
#826=ORIENTED_EDGE('',*,*,#655,.F.);
#827=ORIENTED_EDGE('',*,*,#656,.F.);
#828=ORIENTED_EDGE('',*,*,#657,.F.);
#829=ORIENTED_EDGE('',*,*,#658,.T.);
#830=ORIENTED_EDGE('',*,*,#659,.F.);
#831=ORIENTED_EDGE('',*,*,#658,.F.);
#832=ORIENTED_EDGE('',*,*,#660,.F.);
#833=ORIENTED_EDGE('',*,*,#654,.F.);
#834=ORIENTED_EDGE('',*,*,#661,.F.);
#835=ORIENTED_EDGE('',*,*,#662,.F.);
#836=ORIENTED_EDGE('',*,*,#663,.F.);
#837=ORIENTED_EDGE('',*,*,#664,.T.);
#838=ORIENTED_EDGE('',*,*,#665,.F.);
#839=ORIENTED_EDGE('',*,*,#666,.F.);
#840=ORIENTED_EDGE('',*,*,#667,.F.);
#841=ORIENTED_EDGE('',*,*,#668,.T.);
#842=ORIENTED_EDGE('',*,*,#669,.F.);
#843=ORIENTED_EDGE('',*,*,#670,.F.);
#844=ORIENTED_EDGE('',*,*,#664,.F.);
#845=ORIENTED_EDGE('',*,*,#671,.F.);
#846=ORIENTED_EDGE('',*,*,#668,.F.);
#847=ORIENTED_EDGE('',*,*,#657,.T.);
#848=ORIENTED_EDGE('',*,*,#672,.F.);
#849=ORIENTED_EDGE('',*,*,#673,.F.);
#850=ORIENTED_EDGE('',*,*,#674,.F.);
#851=ORIENTED_EDGE('',*,*,#675,.T.);
#852=ORIENTED_EDGE('',*,*,#676,.F.);
#853=ORIENTED_EDGE('',*,*,#669,.T.);
#854=ORIENTED_EDGE('',*,*,#671,.T.);
#855=ORIENTED_EDGE('',*,*,#663,.T.);
#856=ORIENTED_EDGE('',*,*,#677,.F.);
#857=ORIENTED_EDGE('',*,*,#655,.T.);
#858=ORIENTED_EDGE('',*,*,#660,.T.);
#859=ORIENTED_EDGE('',*,*,#678,.T.);
#860=ORIENTED_EDGE('',*,*,#679,.T.);
#861=ORIENTED_EDGE('',*,*,#680,.T.);
#862=ORIENTED_EDGE('',*,*,#681,.T.);
#863=ORIENTED_EDGE('',*,*,#682,.T.);
#864=ORIENTED_EDGE('',*,*,#683,.T.);
#865=ORIENTED_EDGE('',*,*,#684,.T.);
#866=ORIENTED_EDGE('',*,*,#685,.T.);
#867=ORIENTED_EDGE('',*,*,#686,.T.);
#868=ORIENTED_EDGE('',*,*,#687,.T.);
#869=ORIENTED_EDGE('',*,*,#688,.T.);
#870=ORIENTED_EDGE('',*,*,#689,.T.);
#871=ORIENTED_EDGE('',*,*,#690,.T.);
#872=ORIENTED_EDGE('',*,*,#691,.T.);
#873=ORIENTED_EDGE('',*,*,#692,.T.);
#874=ORIENTED_EDGE('',*,*,#693,.T.);
#875=ORIENTED_EDGE('',*,*,#694,.T.);
#876=ORIENTED_EDGE('',*,*,#695,.T.);
#877=ORIENTED_EDGE('',*,*,#696,.T.);
#878=ORIENTED_EDGE('',*,*,#697,.T.);
#879=ORIENTED_EDGE('',*,*,#698,.T.);
#880=ORIENTED_EDGE('',*,*,#699,.T.);
#881=ORIENTED_EDGE('',*,*,#700,.T.);
#882=ORIENTED_EDGE('',*,*,#701,.T.);
#883=ORIENTED_EDGE('',*,*,#702,.T.);
#884=ORIENTED_EDGE('',*,*,#703,.T.);
#885=ORIENTED_EDGE('',*,*,#704,.T.);
#886=ORIENTED_EDGE('',*,*,#705,.T.);
#887=ORIENTED_EDGE('',*,*,#706,.T.);
#888=ORIENTED_EDGE('',*,*,#707,.T.);
#889=ORIENTED_EDGE('',*,*,#708,.T.);
#890=ORIENTED_EDGE('',*,*,#709,.T.);
#891=ORIENTED_EDGE('',*,*,#710,.T.);
#892=ORIENTED_EDGE('',*,*,#711,.T.);
#893=ORIENTED_EDGE('',*,*,#712,.T.);
#894=ORIENTED_EDGE('',*,*,#713,.T.);
#895=ORIENTED_EDGE('',*,*,#714,.T.);
#896=ORIENTED_EDGE('',*,*,#659,.T.);
#897=ORIENTED_EDGE('',*,*,#661,.T.);
#898=ORIENTED_EDGE('',*,*,#653,.T.);
#899=ORIENTED_EDGE('',*,*,#715,.T.);
#900=ORIENTED_EDGE('',*,*,#665,.T.);
#901=ORIENTED_EDGE('',*,*,#670,.T.);
#902=ORIENTED_EDGE('',*,*,#667,.T.);
#903=ORIENTED_EDGE('',*,*,#716,.T.);
#904=ORIENTED_EDGE('',*,*,#717,.F.);
#905=ORIENTED_EDGE('',*,*,#718,.T.);
#906=ORIENTED_EDGE('',*,*,#719,.T.);
#907=ORIENTED_EDGE('',*,*,#720,.T.);
#908=ORIENTED_EDGE('',*,*,#721,.T.);
#909=ORIENTED_EDGE('',*,*,#722,.T.);
#910=ORIENTED_EDGE('',*,*,#723,.T.);
#911=ORIENTED_EDGE('',*,*,#724,.T.);
#912=ORIENTED_EDGE('',*,*,#725,.T.);
#913=ORIENTED_EDGE('',*,*,#726,.T.);
#914=ORIENTED_EDGE('',*,*,#727,.T.);
#915=ORIENTED_EDGE('',*,*,#728,.T.);
#916=ORIENTED_EDGE('',*,*,#729,.T.);
#917=ORIENTED_EDGE('',*,*,#730,.T.);
#918=ORIENTED_EDGE('',*,*,#731,.T.);
#919=ORIENTED_EDGE('',*,*,#732,.T.);
#920=ORIENTED_EDGE('',*,*,#733,.T.);
#921=ORIENTED_EDGE('',*,*,#734,.T.);
#922=ORIENTED_EDGE('',*,*,#735,.F.);
#923=ORIENTED_EDGE('',*,*,#736,.F.);
#924=ORIENTED_EDGE('',*,*,#737,.F.);
#925=ORIENTED_EDGE('',*,*,#738,.F.);
#926=ORIENTED_EDGE('',*,*,#739,.F.);
#927=ORIENTED_EDGE('',*,*,#740,.F.);
#928=ORIENTED_EDGE('',*,*,#741,.F.);
#929=ORIENTED_EDGE('',*,*,#742,.F.);
#930=ORIENTED_EDGE('',*,*,#743,.F.);
#931=ORIENTED_EDGE('',*,*,#744,.F.);
#932=ORIENTED_EDGE('',*,*,#745,.F.);
#933=ORIENTED_EDGE('',*,*,#746,.F.);
#934=ORIENTED_EDGE('',*,*,#747,.F.);
#935=ORIENTED_EDGE('',*,*,#748,.F.);
#936=ORIENTED_EDGE('',*,*,#749,.F.);
#937=ORIENTED_EDGE('',*,*,#750,.F.);
#938=ORIENTED_EDGE('',*,*,#751,.T.);
#939=ORIENTED_EDGE('',*,*,#752,.T.);
#940=ORIENTED_EDGE('',*,*,#753,.T.);
#941=ORIENTED_EDGE('',*,*,#754,.T.);
#942=ORIENTED_EDGE('',*,*,#755,.T.);
#943=ORIENTED_EDGE('',*,*,#756,.T.);
#944=ORIENTED_EDGE('',*,*,#757,.T.);
#945=ORIENTED_EDGE('',*,*,#758,.T.);
#946=ORIENTED_EDGE('',*,*,#759,.T.);
#947=ORIENTED_EDGE('',*,*,#760,.T.);
#948=ORIENTED_EDGE('',*,*,#761,.T.);
#949=ORIENTED_EDGE('',*,*,#762,.T.);
#950=ORIENTED_EDGE('',*,*,#763,.T.);
#951=ORIENTED_EDGE('',*,*,#652,.T.);
#952=ORIENTED_EDGE('',*,*,#677,.T.);
#953=ORIENTED_EDGE('',*,*,#662,.T.);
#954=ORIENTED_EDGE('',*,*,#715,.F.);
#955=ORIENTED_EDGE('',*,*,#666,.T.);
#956=ORIENTED_EDGE('',*,*,#676,.T.);
#957=ORIENTED_EDGE('',*,*,#764,.T.);
#958=ORIENTED_EDGE('',*,*,#716,.F.);
#959=ORIENTED_EDGE('',*,*,#722,.F.);
#960=ORIENTED_EDGE('',*,*,#765,.T.);
#961=ORIENTED_EDGE('',*,*,#766,.F.);
#962=ORIENTED_EDGE('',*,*,#767,.F.);
#963=ORIENTED_EDGE('',*,*,#721,.F.);
#964=ORIENTED_EDGE('',*,*,#768,.T.);
#965=ORIENTED_EDGE('',*,*,#769,.F.);
#966=ORIENTED_EDGE('',*,*,#765,.F.);
#967=ORIENTED_EDGE('',*,*,#723,.F.);
#968=ORIENTED_EDGE('',*,*,#767,.T.);
#969=ORIENTED_EDGE('',*,*,#770,.F.);
#970=ORIENTED_EDGE('',*,*,#771,.F.);
#971=ORIENTED_EDGE('',*,*,#724,.F.);
#972=ORIENTED_EDGE('',*,*,#771,.T.);
#973=ORIENTED_EDGE('',*,*,#772,.F.);
#974=ORIENTED_EDGE('',*,*,#768,.F.);
#975=ORIENTED_EDGE('',*,*,#772,.T.);
#976=ORIENTED_EDGE('',*,*,#770,.T.);
#977=ORIENTED_EDGE('',*,*,#766,.T.);
#978=ORIENTED_EDGE('',*,*,#769,.T.);
#979=ORIENTED_EDGE('',*,*,#773,.T.);
#980=ORIENTED_EDGE('',*,*,#761,.F.);
#981=ORIENTED_EDGE('',*,*,#774,.T.);
#982=ORIENTED_EDGE('',*,*,#775,.F.);
#983=ORIENTED_EDGE('',*,*,#776,.F.);
#984=ORIENTED_EDGE('',*,*,#760,.F.);
#985=ORIENTED_EDGE('',*,*,#777,.T.);
#986=ORIENTED_EDGE('',*,*,#778,.F.);
#987=ORIENTED_EDGE('',*,*,#774,.F.);
#988=ORIENTED_EDGE('',*,*,#762,.F.);
#989=ORIENTED_EDGE('',*,*,#776,.T.);
#990=ORIENTED_EDGE('',*,*,#779,.F.);
#991=ORIENTED_EDGE('',*,*,#780,.F.);
#992=ORIENTED_EDGE('',*,*,#763,.F.);
#993=ORIENTED_EDGE('',*,*,#780,.T.);
#994=ORIENTED_EDGE('',*,*,#781,.F.);
#995=ORIENTED_EDGE('',*,*,#777,.F.);
#996=ORIENTED_EDGE('',*,*,#781,.T.);
#997=ORIENTED_EDGE('',*,*,#779,.T.);
#998=ORIENTED_EDGE('',*,*,#775,.T.);
#999=ORIENTED_EDGE('',*,*,#778,.T.);
#1000=ORIENTED_EDGE('',*,*,#782,.T.);
#1001=ORIENTED_EDGE('',*,*,#718,.F.);
#1002=ORIENTED_EDGE('',*,*,#783,.F.);
#1003=ORIENTED_EDGE('',*,*,#674,.T.);
#1004=ORIENTED_EDGE('',*,*,#784,.T.);
#1005=ORIENTED_EDGE('',*,*,#750,.T.);
#1006=ORIENTED_EDGE('',*,*,#785,.F.);
#1007=ORIENTED_EDGE('',*,*,#698,.F.);
#1008=ORIENTED_EDGE('',*,*,#786,.T.);
#1009=ORIENTED_EDGE('',*,*,#744,.T.);
#1010=ORIENTED_EDGE('',*,*,#787,.F.);
#1011=ORIENTED_EDGE('',*,*,#682,.F.);
#1012=ORIENTED_EDGE('',*,*,#788,.T.);
#1013=ORIENTED_EDGE('',*,*,#656,.T.);
#1014=ORIENTED_EDGE('',*,*,#720,.F.);
#1015=ORIENTED_EDGE('',*,*,#789,.T.);
#1016=ORIENTED_EDGE('',*,*,#672,.T.);
#1017=ORIENTED_EDGE('',*,*,#746,.T.);
#1018=ORIENTED_EDGE('',*,*,#790,.F.);
#1019=ORIENTED_EDGE('',*,*,#680,.F.);
#1020=ORIENTED_EDGE('',*,*,#791,.T.);
#1021=ORIENTED_EDGE('',*,*,#737,.T.);
#1022=ORIENTED_EDGE('',*,*,#792,.F.);
#1023=ORIENTED_EDGE('',*,*,#710,.F.);
#1024=ORIENTED_EDGE('',*,*,#793,.T.);
#1025=ORIENTED_EDGE('',*,*,#742,.T.);
#1026=ORIENTED_EDGE('',*,*,#794,.F.);
#1027=ORIENTED_EDGE('',*,*,#693,.F.);
#1028=ORIENTED_EDGE('',*,*,#795,.T.);
#1029=ORIENTED_EDGE('',*,*,#740,.T.);
#1030=ORIENTED_EDGE('',*,*,#796,.F.);
#1031=ORIENTED_EDGE('',*,*,#695,.F.);
#1032=ORIENTED_EDGE('',*,*,#797,.T.);
#1033=ORIENTED_EDGE('',*,*,#679,.F.);
#1034=ORIENTED_EDGE('',*,*,#798,.T.);
#1035=ORIENTED_EDGE('',*,*,#725,.F.);
#1036=ORIENTED_EDGE('',*,*,#798,.F.);
#1037=ORIENTED_EDGE('',*,*,#745,.T.);
#1038=ORIENTED_EDGE('',*,*,#788,.F.);
#1039=ORIENTED_EDGE('',*,*,#681,.F.);
#1040=ORIENTED_EDGE('',*,*,#790,.T.);
#1041=ORIENTED_EDGE('',*,*,#743,.T.);
#1042=ORIENTED_EDGE('',*,*,#791,.F.);
#1043=ORIENTED_EDGE('',*,*,#683,.F.);
#1044=ORIENTED_EDGE('',*,*,#787,.T.);
#1045=ORIENTED_EDGE('',*,*,#753,.F.);
#1046=ORIENTED_EDGE('',*,*,#799,.F.);
#1047=ORIENTED_EDGE('',*,*,#686,.F.);
#1048=ORIENTED_EDGE('',*,*,#800,.T.);
#1049=ORIENTED_EDGE('',*,*,#754,.F.);
#1050=ORIENTED_EDGE('',*,*,#800,.F.);
#1051=ORIENTED_EDGE('',*,*,#685,.F.);
#1052=ORIENTED_EDGE('',*,*,#801,.T.);
#1053=ORIENTED_EDGE('',*,*,#751,.F.);
#1054=ORIENTED_EDGE('',*,*,#801,.F.);
#1055=ORIENTED_EDGE('',*,*,#684,.F.);
#1056=ORIENTED_EDGE('',*,*,#802,.T.);
#1057=ORIENTED_EDGE('',*,*,#752,.F.);
#1058=ORIENTED_EDGE('',*,*,#802,.F.);
#1059=ORIENTED_EDGE('',*,*,#687,.F.);
#1060=ORIENTED_EDGE('',*,*,#799,.T.);
#1061=ORIENTED_EDGE('',*,*,#728,.F.);
#1062=ORIENTED_EDGE('',*,*,#803,.F.);
#1063=ORIENTED_EDGE('',*,*,#690,.F.);
#1064=ORIENTED_EDGE('',*,*,#804,.T.);
#1065=ORIENTED_EDGE('',*,*,#729,.F.);
#1066=ORIENTED_EDGE('',*,*,#804,.F.);
#1067=ORIENTED_EDGE('',*,*,#689,.F.);
#1068=ORIENTED_EDGE('',*,*,#805,.T.);
#1069=ORIENTED_EDGE('',*,*,#726,.F.);
#1070=ORIENTED_EDGE('',*,*,#805,.F.);
#1071=ORIENTED_EDGE('',*,*,#688,.F.);
#1072=ORIENTED_EDGE('',*,*,#806,.T.);
#1073=ORIENTED_EDGE('',*,*,#727,.F.);
#1074=ORIENTED_EDGE('',*,*,#806,.F.);
#1075=ORIENTED_EDGE('',*,*,#691,.F.);
#1076=ORIENTED_EDGE('',*,*,#803,.T.);
#1077=ORIENTED_EDGE('',*,*,#741,.T.);
#1078=ORIENTED_EDGE('',*,*,#797,.F.);
#1079=ORIENTED_EDGE('',*,*,#694,.F.);
#1080=ORIENTED_EDGE('',*,*,#794,.T.);
#1081=ORIENTED_EDGE('',*,*,#739,.T.);
#1082=ORIENTED_EDGE('',*,*,#795,.F.);
#1083=ORIENTED_EDGE('',*,*,#692,.F.);
#1084=ORIENTED_EDGE('',*,*,#796,.T.);
#1085=ORIENTED_EDGE('',*,*,#714,.F.);
#1086=ORIENTED_EDGE('',*,*,#807,.T.);
#1087=ORIENTED_EDGE('',*,*,#773,.F.);
#1088=ORIENTED_EDGE('',*,*,#807,.F.);
#1089=ORIENTED_EDGE('',*,*,#747,.T.);
#1090=ORIENTED_EDGE('',*,*,#786,.F.);
#1091=ORIENTED_EDGE('',*,*,#697,.F.);
#1092=ORIENTED_EDGE('',*,*,#808,.T.);
#1093=ORIENTED_EDGE('',*,*,#748,.T.);
#1094=ORIENTED_EDGE('',*,*,#808,.F.);
#1095=ORIENTED_EDGE('',*,*,#696,.F.);
#1096=ORIENTED_EDGE('',*,*,#809,.T.);
#1097=ORIENTED_EDGE('',*,*,#749,.T.);
#1098=ORIENTED_EDGE('',*,*,#809,.F.);
#1099=ORIENTED_EDGE('',*,*,#699,.F.);
#1100=ORIENTED_EDGE('',*,*,#785,.T.);
#1101=ORIENTED_EDGE('',*,*,#757,.F.);
#1102=ORIENTED_EDGE('',*,*,#810,.F.);
#1103=ORIENTED_EDGE('',*,*,#702,.F.);
#1104=ORIENTED_EDGE('',*,*,#811,.T.);
#1105=ORIENTED_EDGE('',*,*,#758,.F.);
#1106=ORIENTED_EDGE('',*,*,#811,.F.);
#1107=ORIENTED_EDGE('',*,*,#701,.F.);
#1108=ORIENTED_EDGE('',*,*,#812,.T.);
#1109=ORIENTED_EDGE('',*,*,#755,.F.);
#1110=ORIENTED_EDGE('',*,*,#812,.F.);
#1111=ORIENTED_EDGE('',*,*,#700,.F.);
#1112=ORIENTED_EDGE('',*,*,#813,.T.);
#1113=ORIENTED_EDGE('',*,*,#756,.F.);
#1114=ORIENTED_EDGE('',*,*,#813,.F.);
#1115=ORIENTED_EDGE('',*,*,#703,.F.);
#1116=ORIENTED_EDGE('',*,*,#810,.T.);
#1117=ORIENTED_EDGE('',*,*,#732,.F.);
#1118=ORIENTED_EDGE('',*,*,#814,.F.);
#1119=ORIENTED_EDGE('',*,*,#706,.F.);
#1120=ORIENTED_EDGE('',*,*,#815,.T.);
#1121=ORIENTED_EDGE('',*,*,#733,.F.);
#1122=ORIENTED_EDGE('',*,*,#815,.F.);
#1123=ORIENTED_EDGE('',*,*,#705,.F.);
#1124=ORIENTED_EDGE('',*,*,#816,.T.);
#1125=ORIENTED_EDGE('',*,*,#730,.F.);
#1126=ORIENTED_EDGE('',*,*,#816,.F.);
#1127=ORIENTED_EDGE('',*,*,#704,.F.);
#1128=ORIENTED_EDGE('',*,*,#817,.T.);
#1129=ORIENTED_EDGE('',*,*,#731,.F.);
#1130=ORIENTED_EDGE('',*,*,#817,.F.);
#1131=ORIENTED_EDGE('',*,*,#707,.F.);
#1132=ORIENTED_EDGE('',*,*,#814,.T.);
#1133=ORIENTED_EDGE('',*,*,#738,.T.);
#1134=ORIENTED_EDGE('',*,*,#793,.F.);
#1135=ORIENTED_EDGE('',*,*,#709,.F.);
#1136=ORIENTED_EDGE('',*,*,#818,.T.);
#1137=ORIENTED_EDGE('',*,*,#735,.T.);
#1138=ORIENTED_EDGE('',*,*,#818,.F.);
#1139=ORIENTED_EDGE('',*,*,#708,.F.);
#1140=ORIENTED_EDGE('',*,*,#819,.T.);
#1141=ORIENTED_EDGE('',*,*,#736,.T.);
#1142=ORIENTED_EDGE('',*,*,#819,.F.);
#1143=ORIENTED_EDGE('',*,*,#711,.F.);
#1144=ORIENTED_EDGE('',*,*,#792,.T.);
#1145=ORIENTED_EDGE('',*,*,#678,.F.);
#1146=ORIENTED_EDGE('',*,*,#820,.T.);
#1147=ORIENTED_EDGE('',*,*,#782,.F.);
#1148=ORIENTED_EDGE('',*,*,#820,.F.);
#1149=ORIENTED_EDGE('',*,*,#712,.F.);
#1150=ORIENTED_EDGE('',*,*,#821,.T.);
#1151=ORIENTED_EDGE('',*,*,#759,.F.);
#1152=ORIENTED_EDGE('',*,*,#821,.F.);
#1153=ORIENTED_EDGE('',*,*,#713,.F.);
#1154=ORIENTED_EDGE('',*,*,#822,.T.);
#1155=ORIENTED_EDGE('',*,*,#734,.F.);
#1156=ORIENTED_EDGE('',*,*,#822,.F.);
#1157=ORIENTED_EDGE('',*,*,#783,.T.);
#1158=ORIENTED_EDGE('',*,*,#717,.T.);
#1159=ORIENTED_EDGE('',*,*,#764,.F.);
#1160=ORIENTED_EDGE('',*,*,#675,.F.);
#1161=ORIENTED_EDGE('',*,*,#784,.F.);
#1162=ORIENTED_EDGE('',*,*,#673,.T.);
#1163=ORIENTED_EDGE('',*,*,#789,.F.);
#1164=ORIENTED_EDGE('',*,*,#719,.F.);
#1165=PLANE('',#1297);
#1166=PLANE('',#1298);
#1167=PLANE('',#1299);
#1168=PLANE('',#1300);
#1169=PLANE('',#1301);
#1170=PLANE('',#1302);
#1171=PLANE('',#1303);
#1172=PLANE('',#1309);
#1173=PLANE('',#1313);
#1174=PLANE('',#1314);
#1175=PLANE('',#1315);
#1176=PLANE('',#1316);
#1177=PLANE('',#1317);
#1178=PLANE('',#1318);
#1179=PLANE('',#1319);
#1180=PLANE('',#1321);
#1181=PLANE('',#1322);
#1182=PLANE('',#1323);
#1183=PLANE('',#1324);
#1184=PLANE('',#1325);
#1185=PLANE('',#1327);
#1186=PLANE('',#1328);
#1187=PLANE('',#1329);
#1188=PLANE('',#1330);
#1189=PLANE('',#1331);
#1190=PLANE('',#1332);
#1191=PLANE('',#1333);
#1192=PLANE('',#1334);
#1193=PLANE('',#1336);
#1194=PLANE('',#1337);
#1195=PLANE('',#1338);
#1196=PLANE('',#1339);
#1197=PLANE('',#1340);
#1198=PLANE('',#1341);
#1199=PLANE('',#1342);
#1200=PLANE('',#1343);
#1201=PLANE('',#1344);
#1202=PLANE('',#1345);
#1203=PLANE('',#1346);
#1204=PLANE('',#1347);
#1205=PLANE('',#1349);
#1206=PLANE('',#1350);
#1207=PLANE('',#1351);
#1208=PLANE('',#1352);
#1209=PLANE('',#1353);
#1210=PLANE('',#1354);
#1211=PLANE('',#1355);
#1212=PLANE('',#1356);
#1213=PLANE('',#1357);
#1214=PLANE('',#1358);
#1215=PLANE('',#1359);
#1216=PLANE('',#1360);
#1217=PLANE('',#1361);
#1218=PLANE('',#1362);
#1219=PLANE('',#1366);
#1220=PLANE('',#1367);
#1221=ADVANCED_FACE('',(#66),#1165,.F.);
#1222=ADVANCED_FACE('',(#67),#1166,.F.);
#1223=ADVANCED_FACE('',(#68),#1167,.F.);
#1224=ADVANCED_FACE('',(#69),#1168,.F.);
#1225=ADVANCED_FACE('',(#70),#1169,.F.);
#1226=ADVANCED_FACE('',(#71),#1170,.F.);
#1227=ADVANCED_FACE('',(#72,#28,#29,#30,#31,#32,#33,#34,#35,#36,#37,#38,
#39,#40),#1171,.T.);
#1228=ADVANCED_FACE('',(#73,#41,#42,#43,#44,#45,#46,#47,#48,#49,#50,#51,
#52,#53),#1172,.T.);
#1229=ADVANCED_FACE('',(#74),#1173,.T.);
#1230=ADVANCED_FACE('',(#75),#1174,.T.);
#1231=ADVANCED_FACE('',(#76),#1175,.T.);
#1232=ADVANCED_FACE('',(#77),#1176,.T.);
#1233=ADVANCED_FACE('',(#78),#1177,.T.);
#1234=ADVANCED_FACE('',(#79),#1178,.T.);
#1235=ADVANCED_FACE('',(#80,#54),#1179,.F.);
#1236=ADVANCED_FACE('',(#81),#1180,.T.);
#1237=ADVANCED_FACE('',(#82),#1181,.T.);
#1238=ADVANCED_FACE('',(#83),#1182,.T.);
#1239=ADVANCED_FACE('',(#84),#1183,.T.);
#1240=ADVANCED_FACE('',(#85,#55),#1184,.F.);
#1241=ADVANCED_FACE('',(#86),#1185,.F.);
#1242=ADVANCED_FACE('',(#87),#1186,.F.);
#1243=ADVANCED_FACE('',(#88),#1187,.F.);
#1244=ADVANCED_FACE('',(#89),#1188,.T.);
#1245=ADVANCED_FACE('',(#90),#1189,.F.);
#1246=ADVANCED_FACE('',(#91),#1190,.F.);
#1247=ADVANCED_FACE('',(#92),#1191,.F.);
#1248=ADVANCED_FACE('',(#93),#1192,.F.);
#1249=ADVANCED_FACE('',(#94),#23,.F.);
#1250=ADVANCED_FACE('',(#95),#1193,.F.);
#1251=ADVANCED_FACE('',(#96),#1194,.F.);
#1252=ADVANCED_FACE('',(#97),#1195,.F.);
#1253=ADVANCED_FACE('',(#98),#1196,.F.);
#1254=ADVANCED_FACE('',(#99),#1197,.F.);
#1255=ADVANCED_FACE('',(#100),#1198,.F.);
#1256=ADVANCED_FACE('',(#101),#1199,.F.);
#1257=ADVANCED_FACE('',(#102),#1200,.F.);
#1258=ADVANCED_FACE('',(#103),#1201,.F.);
#1259=ADVANCED_FACE('',(#104),#1202,.F.);
#1260=ADVANCED_FACE('',(#105),#1203,.F.);
#1261=ADVANCED_FACE('',(#106),#1204,.F.);
#1262=ADVANCED_FACE('',(#107),#24,.F.);
#1263=ADVANCED_FACE('',(#108),#1205,.F.);
#1264=ADVANCED_FACE('',(#109),#1206,.F.);
#1265=ADVANCED_FACE('',(#110),#1207,.F.);
#1266=ADVANCED_FACE('',(#111),#1208,.F.);
#1267=ADVANCED_FACE('',(#112),#1209,.F.);
#1268=ADVANCED_FACE('',(#113),#1210,.F.);
#1269=ADVANCED_FACE('',(#114),#1211,.F.);
#1270=ADVANCED_FACE('',(#115),#1212,.F.);
#1271=ADVANCED_FACE('',(#116),#1213,.F.);
#1272=ADVANCED_FACE('',(#117),#1214,.F.);
#1273=ADVANCED_FACE('',(#118),#1215,.F.);
#1274=ADVANCED_FACE('',(#119),#1216,.F.);
#1275=ADVANCED_FACE('',(#120),#1217,.F.);
#1276=ADVANCED_FACE('',(#121),#1218,.F.);
#1277=ADVANCED_FACE('',(#122),#25,.F.);
#1278=ADVANCED_FACE('',(#123),#26,.F.);
#1279=ADVANCED_FACE('',(#124),#27,.F.);
#1280=ADVANCED_FACE('',(#125),#1219,.T.);
#1281=ADVANCED_FACE('',(#126),#1220,.T.);
#1282=CLOSED_SHELL('',(#1221,#1222,#1223,#1224,#1225,#1226,#1227,#1228,
#1229,#1230,#1231,#1232,#1233,#1234,#1235,#1236,#1237,#1238,#1239,#1240,
#1241,#1242,#1243,#1244,#1245,#1246,#1247,#1248,#1249,#1250,#1251,#1252,
#1253,#1254,#1255,#1256,#1257,#1258,#1259,#1260,#1261,#1262,#1263,#1264,
#1265,#1266,#1267,#1268,#1269,#1270,#1271,#1272,#1273,#1274,#1275,#1276,
#1277,#1278,#1279,#1280,#1281));
#1283=DERIVED_UNIT_ELEMENT(#1285,1.);
#1284=DERIVED_UNIT_ELEMENT(#2038,-3.);
#1285=(
MASS_UNIT()
NAMED_UNIT(*)
SI_UNIT(.KILO.,.GRAM.)
);
#1286=DERIVED_UNIT((#1283,#1284));
#1287=MEASURE_REPRESENTATION_ITEM('density measure',
POSITIVE_RATIO_MEASURE(7850.),#1286);
#1288=PROPERTY_DEFINITION_REPRESENTATION(#1293,#1290);
#1289=PROPERTY_DEFINITION_REPRESENTATION(#1294,#1291);
#1290=REPRESENTATION('material name',(#1292),#2035);
#1291=REPRESENTATION('density',(#1287),#2035);
#1292=DESCRIPTIVE_REPRESENTATION_ITEM('Steel','Steel');
#1293=PROPERTY_DEFINITION('material property','material name',#2051);
#1294=PROPERTY_DEFINITION('material property','density of part',#2051);
#1295=AXIS2_PLACEMENT_3D('',#1681,#1370,#1371);
#1296=AXIS2_PLACEMENT_3D('',#1682,#1372,#1373);
#1297=AXIS2_PLACEMENT_3D('',#1683,#1374,#1375);
#1298=AXIS2_PLACEMENT_3D('',#1692,#1380,#1381);
#1299=AXIS2_PLACEMENT_3D('',#1701,#1386,#1387);
#1300=AXIS2_PLACEMENT_3D('',#1704,#1390,#1391);
#1301=AXIS2_PLACEMENT_3D('',#1713,#1396,#1397);
#1302=AXIS2_PLACEMENT_3D('',#1722,#1402,#1403);
#1303=AXIS2_PLACEMENT_3D('',#1725,#1406,#1407);
#1304=AXIS2_PLACEMENT_3D('',#1737,#1414,#1415);
#1305=AXIS2_PLACEMENT_3D('',#1739,#1416,#1417);
#1306=AXIS2_PLACEMENT_3D('',#1805,#1450,#1451);
#1307=AXIS2_PLACEMENT_3D('',#1807,#1452,#1453);
#1308=AXIS2_PLACEMENT_3D('',#1809,#1454,#1455);
#1309=AXIS2_PLACEMENT_3D('',#1810,#1456,#1457);
#1310=AXIS2_PLACEMENT_3D('',#1830,#1468,#1469);
#1311=AXIS2_PLACEMENT_3D('',#1848,#1478,#1479);
#1312=AXIS2_PLACEMENT_3D('',#1898,#1504,#1505);
#1313=AXIS2_PLACEMENT_3D('',#1907,#1510,#1511);
#1314=AXIS2_PLACEMENT_3D('',#1908,#1512,#1513);
#1315=AXIS2_PLACEMENT_3D('',#1910,#1515,#1516);
#1316=AXIS2_PLACEMENT_3D('',#1916,#1520,#1521);
#1317=AXIS2_PLACEMENT_3D('',#1920,#1524,#1525);
#1318=AXIS2_PLACEMENT_3D('',#1924,#1528,#1529);
#1319=AXIS2_PLACEMENT_3D('',#1926,#1531,#1532);
#1320=AXIS2_PLACEMENT_3D('',#1928,#1533,#1534);
#1321=AXIS2_PLACEMENT_3D('',#1929,#1535,#1536);
#1322=AXIS2_PLACEMENT_3D('',#1935,#1540,#1541);
#1323=AXIS2_PLACEMENT_3D('',#1939,#1544,#1545);
#1324=AXIS2_PLACEMENT_3D('',#1943,#1548,#1549);
#1325=AXIS2_PLACEMENT_3D('',#1945,#1551,#1552);
#1326=AXIS2_PLACEMENT_3D('',#1947,#1553,#1554);
#1327=AXIS2_PLACEMENT_3D('',#1948,#1555,#1556);
#1328=AXIS2_PLACEMENT_3D('',#1951,#1559,#1560);
#1329=AXIS2_PLACEMENT_3D('',#1954,#1563,#1564);
#1330=AXIS2_PLACEMENT_3D('',#1957,#1567,#1568);
#1331=AXIS2_PLACEMENT_3D('',#1959,#1570,#1571);
#1332=AXIS2_PLACEMENT_3D('',#1962,#1574,#1575);
#1333=AXIS2_PLACEMENT_3D('',#1965,#1578,#1579);
#1334=AXIS2_PLACEMENT_3D('',#1968,#1582,#1583);
#1335=AXIS2_PLACEMENT_3D('',#1971,#1586,#1587);
#1336=AXIS2_PLACEMENT_3D('',#1973,#1589,#1590);
#1337=AXIS2_PLACEMENT_3D('',#1974,#1591,#1592);
#1338=AXIS2_PLACEMENT_3D('',#1975,#1593,#1594);
#1339=AXIS2_PLACEMENT_3D('',#1978,#1597,#1598);
#1340=AXIS2_PLACEMENT_3D('',#1980,#1600,#1601);
#1341=AXIS2_PLACEMENT_3D('',#1982,#1603,#1604);
#1342=AXIS2_PLACEMENT_3D('',#1983,#1605,#1606);
#1343=AXIS2_PLACEMENT_3D('',#1986,#1609,#1610);
#1344=AXIS2_PLACEMENT_3D('',#1988,#1612,#1613);
#1345=AXIS2_PLACEMENT_3D('',#1990,#1615,#1616);
#1346=AXIS2_PLACEMENT_3D('',#1991,#1617,#1618);
#1347=AXIS2_PLACEMENT_3D('',#1992,#1619,#1620);
#1348=AXIS2_PLACEMENT_3D('',#1993,#1621,#1622);
#1349=AXIS2_PLACEMENT_3D('',#1995,#1624,#1625);
#1350=AXIS2_PLACEMENT_3D('',#1997,#1627,#1628);
#1351=AXIS2_PLACEMENT_3D('',#1999,#1630,#1631);
#1352=AXIS2_PLACEMENT_3D('',#2000,#1632,#1633);
#1353=AXIS2_PLACEMENT_3D('',#2003,#1636,#1637);
#1354=AXIS2_PLACEMENT_3D('',#2005,#1639,#1640);
#1355=AXIS2_PLACEMENT_3D('',#2007,#1642,#1643);
#1356=AXIS2_PLACEMENT_3D('',#2008,#1644,#1645);
#1357=AXIS2_PLACEMENT_3D('',#2011,#1648,#1649);
#1358=AXIS2_PLACEMENT_3D('',#2013,#1651,#1652);
#1359=AXIS2_PLACEMENT_3D('',#2015,#1654,#1655);
#1360=AXIS2_PLACEMENT_3D('',#2016,#1656,#1657);
#1361=AXIS2_PLACEMENT_3D('',#2018,#1659,#1660);
#1362=AXIS2_PLACEMENT_3D('',#2020,#1662,#1663);
#1363=AXIS2_PLACEMENT_3D('',#2021,#1664,#1665);
#1364=AXIS2_PLACEMENT_3D('',#2023,#1667,#1668);
#1365=AXIS2_PLACEMENT_3D('',#2025,#1670,#1671);
#1366=AXIS2_PLACEMENT_3D('',#2027,#1673,#1674);
#1367=AXIS2_PLACEMENT_3D('',#2028,#1675,#1676);
#1368=AXIS2_PLACEMENT_3D('',#2029,#1677,#1678);
#1369=AXIS2_PLACEMENT_3D('',#2030,#1679,#1680);
#1370=DIRECTION('axis',(0.,0.,1.));
#1371=DIRECTION('refdir',(1.,0.,0.));
#1372=DIRECTION('axis',(0.,0.,1.));
#1373=DIRECTION('refdir',(1.,0.,0.));
#1374=DIRECTION('center_axis',(1.,0.,0.));
#1375=DIRECTION('ref_axis',(0.,-1.,0.));
#1376=DIRECTION('',(0.,-1.,0.));
#1377=DIRECTION('',(0.,0.,1.));
#1378=DIRECTION('',(0.,-1.,0.));
#1379=DIRECTION('',(0.,0.,-1.));
#1380=DIRECTION('center_axis',(-1.,0.,0.));
#1381=DIRECTION('ref_axis',(0.,1.,0.));
#1382=DIRECTION('',(0.,1.,0.));
#1383=DIRECTION('',(0.,0.,1.));
#1384=DIRECTION('',(0.,1.,0.));
#1385=DIRECTION('',(0.,0.,-1.));
#1386=DIRECTION('center_axis',(0.,0.,-1.));
#1387=DIRECTION('ref_axis',(-1.,0.,0.));
#1388=DIRECTION('',(-1.,0.,0.));
#1389=DIRECTION('',(1.,0.,0.));
#1390=DIRECTION('center_axis',(-1.,0.,0.));
#1391=DIRECTION('ref_axis',(0.,1.,0.));
#1392=DIRECTION('',(0.,1.,0.));
#1393=DIRECTION('',(0.,0.,1.));
#1394=DIRECTION('',(0.,1.,0.));
#1395=DIRECTION('',(0.,0.,-1.));
#1396=DIRECTION('center_axis',(1.,0.,0.));
#1397=DIRECTION('ref_axis',(0.,-1.,0.));
#1398=DIRECTION('',(0.,-1.,0.));
#1399=DIRECTION('',(0.,0.,1.));
#1400=DIRECTION('',(0.,-1.,0.));
#1401=DIRECTION('',(0.,0.,-1.));
#1402=DIRECTION('center_axis',(0.,0.,-1.));
#1403=DIRECTION('ref_axis',(-1.,0.,0.));
#1404=DIRECTION('',(1.,0.,0.));
#1405=DIRECTION('',(-1.,0.,0.));
#1406=DIRECTION('center_axis',(0.,-1.,0.));
#1407=DIRECTION('ref_axis',(1.,0.,0.));
#1408=DIRECTION('',(1.,0.,0.));
#1409=DIRECTION('',(0.,0.,1.));
#1410=DIRECTION('',(-1.,0.,0.));
#1411=DIRECTION('',(0.,0.,1.));
#1412=DIRECTION('',(1.,0.,0.));
#1413=DIRECTION('',(1.,0.,0.));
#1414=DIRECTION('center_axis',(0.,1.,0.));
#1415=DIRECTION('ref_axis',(1.,0.,0.));
#1416=DIRECTION('center_axis',(0.,1.,0.));
#1417=DIRECTION('ref_axis',(1.,0.,0.));
#1418=DIRECTION('',(-1.,0.,0.));
#1419=DIRECTION('',(0.,0.,1.));
#1420=DIRECTION('',(1.,0.,0.));
#1421=DIRECTION('',(0.,0.,-1.));
#1422=DIRECTION('',(-0.965925826289068,0.,0.25881904510252));
#1423=DIRECTION('',(0.258819045102522,0.,0.965925826289068));
#1424=DIRECTION('',(0.965925826289068,0.,-0.25881904510252));
#1425=DIRECTION('',(-0.258819045102521,0.,-0.965925826289068));
#1426=DIRECTION('',(-0.258819017012143,0.,0.965925833815862));
#1427=DIRECTION('',(0.965925833815862,0.,0.258819017012142));
#1428=DIRECTION('',(0.258819017012145,0.,-0.965925833815861));
#1429=DIRECTION('',(-0.965925833815862,0.,-0.258819017012143));
#1430=DIRECTION('',(-2.90812987132376E-8,0.,-1.));
#1431=DIRECTION('',(-1.,0.,2.90812998974755E-8));
#1432=DIRECTION('',(2.90812969368808E-8,0.,1.));
#1433=DIRECTION('',(1.,0.,-2.90812998974754E-8));
#1434=DIRECTION('',(1.,0.,0.));
#1435=DIRECTION('',(0.,0.,-1.));
#1436=DIRECTION('',(-1.,0.,0.));
#1437=DIRECTION('',(0.,0.,1.));
#1438=DIRECTION('',(-0.258819045102522,0.,-0.965925826289068));
#1439=DIRECTION('',(-0.965925826289068,0.,0.258819045102522));
#1440=DIRECTION('',(0.258819045102522,0.,0.965925826289068));
#1441=DIRECTION('',(0.965925826289068,0.,-0.258819045102522));
#1442=DIRECTION('',(-0.258819017012145,0.,0.965925833815861));
#1443=DIRECTION('',(0.965925833815861,0.,0.258819017012145));
#1444=DIRECTION('',(0.258819017012145,0.,-0.965925833815862));
#1445=DIRECTION('',(-0.965925833815862,0.,-0.258819017012143));
#1446=DIRECTION('',(1.,0.,-2.90812969368807E-8));
#1447=DIRECTION('',(-2.90812987132376E-8,0.,-1.));
#1448=DIRECTION('',(-1.,0.,2.90812969368807E-8));
#1449=DIRECTION('',(2.90812987132376E-8,0.,1.));
#1450=DIRECTION('center_axis',(0.,1.,0.));
#1451=DIRECTION('ref_axis',(1.,0.,0.));
#1452=DIRECTION('center_axis',(0.,1.,0.));
#1453=DIRECTION('ref_axis',(1.,0.,0.));
#1454=DIRECTION('center_axis',(0.,1.,0.));
#1455=DIRECTION('ref_axis',(1.,0.,0.));
#1456=DIRECTION('center_axis',(0.,1.,0.));
#1457=DIRECTION('ref_axis',(-1.,0.,0.));
#1458=DIRECTION('',(1.,0.,0.));
#1459=DIRECTION('',(1.,0.,0.));
#1460=DIRECTION('',(0.,0.,1.));
#1461=DIRECTION('',(-1.,0.,0.));
#1462=DIRECTION('',(0.,0.,1.));
#1463=DIRECTION('',(1.,0.,0.));
#1464=DIRECTION('',(-1.,0.,0.));
#1465=DIRECTION('',(0.,0.,-1.));
#1466=DIRECTION('',(1.,0.,0.));
#1467=DIRECTION('',(0.,0.,1.));
#1468=DIRECTION('center_axis',(0.,-1.,0.));
#1469=DIRECTION('ref_axis',(1.,0.,0.));
#1470=DIRECTION('',(0.258819017012143,0.,-0.965925833815862));
#1471=DIRECTION('',(0.965925833815862,0.,0.258819017012143));
#1472=DIRECTION('',(-0.258819017012145,0.,0.965925833815861));
#1473=DIRECTION('',(-0.965925833815862,0.,-0.258819017012142));
#1474=DIRECTION('',(0.258819017012145,0.,-0.965925833815861));
#1475=DIRECTION('',(0.965925833815862,0.,0.258819017012143));
#1476=DIRECTION('',(-0.258819017012145,0.,0.965925833815862));
#1477=DIRECTION('',(-0.965925833815861,0.,-0.258819017012145));
#1478=DIRECTION('center_axis',(0.,-1.,0.));
#1479=DIRECTION('ref_axis',(1.,0.,0.));
#1480=DIRECTION('',(1.,0.,-2.90812969368807E-8));
#1481=DIRECTION('',(2.90812969368808E-8,0.,1.));
#1482=DIRECTION('',(-1.,0.,2.90812969368807E-8));
#1483=DIRECTION('',(-2.90812987132376E-8,0.,-1.));
#1484=DIRECTION('',(-2.90812987132376E-8,0.,-1.));
#1485=DIRECTION('',(1.,0.,-2.90812998974754E-8));
#1486=DIRECTION('',(2.90812969368808E-8,0.,1.));
#1487=DIRECTION('',(-1.,0.,2.90812998974755E-8));
#1488=DIRECTION('',(0.,0.,-1.));
#1489=DIRECTION('',(1.,0.,0.));
#1490=DIRECTION('',(0.,0.,1.));
#1491=DIRECTION('',(-1.,0.,0.));
#1492=DIRECTION('',(0.,0.,-1.));
#1493=DIRECTION('',(1.,0.,0.));
#1494=DIRECTION('',(0.,0.,1.));
#1495=DIRECTION('',(-1.,0.,0.));
#1496=DIRECTION('',(0.965925826289068,0.,-0.25881904510252));
#1497=DIRECTION('',(0.258819045102521,0.,0.965925826289068));
#1498=DIRECTION('',(-0.965925826289068,0.,0.25881904510252));
#1499=DIRECTION('',(-0.258819045102522,0.,-0.965925826289068));
#1500=DIRECTION('',(0.258819045102522,0.,0.965925826289068));
#1501=DIRECTION('',(-0.965925826289068,0.,0.258819045102522));
#1502=DIRECTION('',(-0.258819045102522,0.,-0.965925826289068));
#1503=DIRECTION('',(0.965925826289068,0.,-0.258819045102522));
#1504=DIRECTION('center_axis',(0.,-1.,0.));
#1505=DIRECTION('ref_axis',(1.,0.,0.));
#1506=DIRECTION('',(-1.,0.,0.));
#1507=DIRECTION('',(0.,0.,-1.));
#1508=DIRECTION('',(1.,0.,0.));
#1509=DIRECTION('',(0.,0.,1.));
#1510=DIRECTION('center_axis',(0.,0.,1.));
#1511=DIRECTION('ref_axis',(1.,0.,0.));
#1512=DIRECTION('center_axis',(0.,0.,1.));
#1513=DIRECTION('ref_axis',(1.,0.,0.));
#1514=DIRECTION('',(0.,1.,0.));
#1515=DIRECTION('center_axis',(-1.,0.,0.));
#1516=DIRECTION('ref_axis',(0.,0.,1.));
#1517=DIRECTION('',(0.,1.,0.));
#1518=DIRECTION('',(0.,0.,1.));
#1519=DIRECTION('',(0.,1.,0.));
#1520=DIRECTION('center_axis',(0.,0.,1.));
#1521=DIRECTION('ref_axis',(1.,0.,0.));
#1522=DIRECTION('',(0.,1.,0.));
#1523=DIRECTION('',(1.,0.,0.));
#1524=DIRECTION('center_axis',(0.,0.,-1.));
#1525=DIRECTION('ref_axis',(-1.,0.,0.));
#1526=DIRECTION('',(-1.,0.,0.));
#1527=DIRECTION('',(0.,1.,0.));
#1528=DIRECTION('center_axis',(1.,0.,0.));
#1529=DIRECTION('ref_axis',(0.,0.,-1.));
#1530=DIRECTION('',(0.,0.,-1.));
#1531=DIRECTION('center_axis',(0.,-1.,0.));
#1532=DIRECTION('ref_axis',(1.,0.,0.));
#1533=DIRECTION('center_axis',(0.,-1.,0.));
#1534=DIRECTION('ref_axis',(1.,0.,0.));
#1535=DIRECTION('center_axis',(-1.,0.,0.));
#1536=DIRECTION('ref_axis',(0.,0.,1.));
#1537=DIRECTION('',(0.,1.,0.));
#1538=DIRECTION('',(0.,0.,1.));
#1539=DIRECTION('',(0.,1.,0.));
#1540=DIRECTION('center_axis',(0.,0.,1.));
#1541=DIRECTION('ref_axis',(1.,0.,0.));
#1542=DIRECTION('',(0.,1.,0.));
#1543=DIRECTION('',(1.,0.,0.));
#1544=DIRECTION('center_axis',(0.,0.,-1.));
#1545=DIRECTION('ref_axis',(-1.,0.,0.));
#1546=DIRECTION('',(-1.,0.,0.));
#1547=DIRECTION('',(0.,1.,0.));
#1548=DIRECTION('center_axis',(1.,0.,0.));
#1549=DIRECTION('ref_axis',(0.,0.,-1.));
#1550=DIRECTION('',(0.,0.,-1.));
#1551=DIRECTION('center_axis',(0.,-1.,0.));
#1552=DIRECTION('ref_axis',(1.,0.,0.));
#1553=DIRECTION('center_axis',(0.,-1.,0.));
#1554=DIRECTION('ref_axis',(1.,0.,0.));
#1555=DIRECTION('center_axis',(0.,0.,1.));
#1556=DIRECTION('ref_axis',(1.,0.,0.));
#1557=DIRECTION('',(0.,1.,0.));
#1558=DIRECTION('',(0.,1.,0.));
#1559=DIRECTION('center_axis',(0.,0.,-1.));
#1560=DIRECTION('ref_axis',(-1.,0.,0.));
#1561=DIRECTION('',(0.,1.,0.));
#1562=DIRECTION('',(0.,1.,0.));
#1563=DIRECTION('center_axis',(0.,0.,1.));
#1564=DIRECTION('ref_axis',(1.,0.,0.));
#1565=DIRECTION('',(0.,1.,0.));
#1566=DIRECTION('',(0.,1.,0.));
#1567=DIRECTION('center_axis',(0.,0.,1.));
#1568=DIRECTION('ref_axis',(1.,0.,0.));
#1569=DIRECTION('',(0.,-1.,0.));
#1570=DIRECTION('center_axis',(0.,0.,-1.));
#1571=DIRECTION('ref_axis',(-1.,0.,0.));
#1572=DIRECTION('',(0.,1.,0.));
#1573=DIRECTION('',(0.,1.,0.));
#1574=DIRECTION('center_axis',(-2.90812969368807E-8,0.,-1.));
#1575=DIRECTION('ref_axis',(-1.,0.,2.90812969368807E-8));
#1576=DIRECTION('',(0.,1.,0.));
#1577=DIRECTION('',(0.,1.,0.));
#1578=DIRECTION('center_axis',(-2.90812998974755E-8,0.,-1.));
#1579=DIRECTION('ref_axis',(-1.,0.,2.90812998974755E-8));
#1580=DIRECTION('',(0.,1.,0.));
#1581=DIRECTION('',(0.,1.,0.));
#1582=DIRECTION('center_axis',(2.90812998974754E-8,0.,1.));
#1583=DIRECTION('ref_axis',(1.,0.,-2.90812998974754E-8));
#1584=DIRECTION('',(0.,1.,0.));
#1585=DIRECTION('',(0.,1.,0.));
#1586=DIRECTION('center_axis',(0.,1.,0.));
#1587=DIRECTION('ref_axis',(1.,0.,0.));
#1588=DIRECTION('',(0.,1.,0.));
#1589=DIRECTION('center_axis',(-1.,0.,0.));
#1590=DIRECTION('ref_axis',(0.,0.,1.));
#1591=DIRECTION('center_axis',(1.,0.,0.));
#1592=DIRECTION('ref_axis',(0.,0.,-1.));
#1593=DIRECTION('center_axis',(0.25881904510252,0.,0.965925826289068));
#1594=DIRECTION('ref_axis',(0.965925826289068,0.,-0.25881904510252));
#1595=DIRECTION('',(0.,1.,0.));
#1596=DIRECTION('',(0.,1.,0.));
#1597=DIRECTION('center_axis',(-0.965925826289068,0.,0.258819045102522));
#1598=DIRECTION('ref_axis',(0.258819045102522,0.,0.965925826289068));
#1599=DIRECTION('',(0.,1.,0.));
#1600=DIRECTION('center_axis',(-0.25881904510252,0.,-0.965925826289068));
#1601=DIRECTION('ref_axis',(-0.965925826289068,0.,0.25881904510252));
#1602=DIRECTION('',(0.,1.,0.));
#1603=DIRECTION('center_axis',(0.965925826289068,0.,-0.258819045102521));
#1604=DIRECTION('ref_axis',(-0.258819045102521,0.,-0.965925826289068));
#1605=DIRECTION('center_axis',(0.965925833815861,0.,0.258819017012145));
#1606=DIRECTION('ref_axis',(0.258819017012145,0.,-0.965925833815861));
#1607=DIRECTION('',(0.,1.,0.));
#1608=DIRECTION('',(0.,1.,0.));
#1609=DIRECTION('center_axis',(-0.258819017012142,0.,0.965925833815862));
#1610=DIRECTION('ref_axis',(0.965925833815862,0.,0.258819017012142));
#1611=DIRECTION('',(0.,1.,0.));
#1612=DIRECTION('center_axis',(-0.965925833815862,0.,-0.258819017012143));
#1613=DIRECTION('ref_axis',(-0.258819017012143,0.,0.965925833815862));
#1614=DIRECTION('',(0.,1.,0.));
#1615=DIRECTION('center_axis',(0.258819017012143,0.,-0.965925833815862));
#1616=DIRECTION('ref_axis',(-0.965925833815862,0.,-0.258819017012143));
#1617=DIRECTION('center_axis',(-1.,0.,2.90812969368808E-8));
#1618=DIRECTION('ref_axis',(2.90812969368808E-8,0.,1.));
#1619=DIRECTION('center_axis',(1.,0.,-2.90812987132376E-8));
#1620=DIRECTION('ref_axis',(-2.90812987132376E-8,0.,-1.));
#1621=DIRECTION('center_axis',(0.,1.,0.));
#1622=DIRECTION('ref_axis',(1.,0.,0.));
#1623=DIRECTION('',(0.,1.,0.));
#1624=DIRECTION('center_axis',(1.,0.,0.));
#1625=DIRECTION('ref_axis',(0.,0.,-1.));
#1626=DIRECTION('',(0.,1.,0.));
#1627=DIRECTION('center_axis',(0.,0.,1.));
#1628=DIRECTION('ref_axis',(1.,0.,0.));
#1629=DIRECTION('',(0.,1.,0.));
#1630=DIRECTION('center_axis',(-1.,0.,0.));
#1631=DIRECTION('ref_axis',(0.,0.,1.));
#1632=DIRECTION('center_axis',(-0.965925826289068,0.,0.258819045102522));
#1633=DIRECTION('ref_axis',(0.258819045102522,0.,0.965925826289068));
#1634=DIRECTION('',(0.,1.,0.));
#1635=DIRECTION('',(0.,1.,0.));
#1636=DIRECTION('center_axis',(-0.258819045102522,0.,-0.965925826289068));
#1637=DIRECTION('ref_axis',(-0.965925826289068,0.,0.258819045102522));
#1638=DIRECTION('',(0.,1.,0.));
#1639=DIRECTION('center_axis',(0.965925826289068,0.,-0.258819045102522));
#1640=DIRECTION('ref_axis',(-0.258819045102522,0.,-0.965925826289068));
#1641=DIRECTION('',(0.,1.,0.));
#1642=DIRECTION('center_axis',(0.258819045102522,0.,0.965925826289068));
#1643=DIRECTION('ref_axis',(0.965925826289068,0.,-0.258819045102522));
#1644=DIRECTION('center_axis',(0.965925833815862,0.,0.258819017012145));
#1645=DIRECTION('ref_axis',(0.258819017012145,0.,-0.965925833815862));
#1646=DIRECTION('',(0.,1.,0.));
#1647=DIRECTION('',(0.,1.,0.));
#1648=DIRECTION('center_axis',(-0.258819017012145,0.,0.965925833815862));
#1649=DIRECTION('ref_axis',(0.965925833815861,0.,0.258819017012145));
#1650=DIRECTION('',(0.,1.,0.));
#1651=DIRECTION('center_axis',(-0.965925833815861,0.,-0.258819017012145));
#1652=DIRECTION('ref_axis',(-0.258819017012145,0.,0.965925833815861));
#1653=DIRECTION('',(0.,1.,0.));
#1654=DIRECTION('center_axis',(0.258819017012143,0.,-0.965925833815862));
#1655=DIRECTION('ref_axis',(-0.965925833815862,0.,-0.258819017012143));
#1656=DIRECTION('center_axis',(1.,0.,-2.90812987132376E-8));
#1657=DIRECTION('ref_axis',(-2.90812987132376E-8,0.,-1.));
#1658=DIRECTION('',(0.,1.,0.));
#1659=DIRECTION('center_axis',(2.90812969368807E-8,0.,1.));
#1660=DIRECTION('ref_axis',(1.,0.,-2.90812969368807E-8));
#1661=DIRECTION('',(0.,1.,0.));
#1662=DIRECTION('center_axis',(-1.,0.,2.90812969368808E-8));
#1663=DIRECTION('ref_axis',(2.90812969368808E-8,0.,1.));
#1664=DIRECTION('center_axis',(0.,1.,0.));
#1665=DIRECTION('ref_axis',(1.,0.,0.));
#1666=DIRECTION('',(0.,1.,0.));
#1667=DIRECTION('center_axis',(0.,1.,0.));
#1668=DIRECTION('ref_axis',(1.,0.,0.));
#1669=DIRECTION('',(0.,1.,0.));
#1670=DIRECTION('center_axis',(0.,1.,0.));
#1671=DIRECTION('ref_axis',(1.,0.,0.));
#1672=DIRECTION('',(0.,1.,0.));
#1673=DIRECTION('center_axis',(1.,0.,0.));
#1674=DIRECTION('ref_axis',(0.,1.,0.));
#1675=DIRECTION('center_axis',(-1.,0.,0.));
#1676=DIRECTION('ref_axis',(0.,-1.,0.));
#1677=DIRECTION('',(0.,-1.,3.20576898360514E-15));
#1678=DIRECTION('',(1.,0.,1.23259516440783E-32));
#1679=DIRECTION('',(0.,-1.,-8.40993941153556E-15));
#1680=DIRECTION('',(1.,0.,0.));
#1681=CARTESIAN_POINT('',(0.,0.,0.));
#1682=CARTESIAN_POINT('',(0.,0.,0.));
#1683=CARTESIAN_POINT('Origin',(5.00000007450581,5.00000007450581,62.));
#1684=CARTESIAN_POINT('',(5.00000007450581,5.00000007450581,62.));
#1685=CARTESIAN_POINT('',(5.00000007450581,0.,62.));
#1686=CARTESIAN_POINT('',(5.00000007450581,3.75000005587935,62.));
#1687=CARTESIAN_POINT('',(5.00000007450581,5.00000007450581,52.));
#1688=CARTESIAN_POINT('',(5.00000007450581,5.00000007450581,31.));
#1689=CARTESIAN_POINT('',(5.00000007450581,0.,52.));
#1690=CARTESIAN_POINT('',(5.00000007450581,0.,52.));
#1691=CARTESIAN_POINT('',(5.00000007450581,0.,31.));
#1692=CARTESIAN_POINT('Origin',(0.,0.,62.));
#1693=CARTESIAN_POINT('',(0.,0.,62.));
#1694=CARTESIAN_POINT('',(0.,5.00000007450581,62.));
#1695=CARTESIAN_POINT('',(0.,1.25000001862645,62.));
#1696=CARTESIAN_POINT('',(0.,0.,52.));
#1697=CARTESIAN_POINT('',(0.,0.,31.));
#1698=CARTESIAN_POINT('',(0.,5.00000007450581,52.));
#1699=CARTESIAN_POINT('',(0.,5.00000007450581,52.));
#1700=CARTESIAN_POINT('',(0.,5.00000007450581,31.));
#1701=CARTESIAN_POINT('Origin',(2.5000000372529,2.5000000372529,52.));
#1702=CARTESIAN_POINT('',(-18.7499999813735,0.,52.));
#1703=CARTESIAN_POINT('',(1.25000001862645,5.00000007450581,52.));
#1704=CARTESIAN_POINT('Origin',(76.0000011324883,0.,62.));
#1705=CARTESIAN_POINT('',(76.0000011324883,0.,62.));
#1706=CARTESIAN_POINT('',(76.0000011324883,5.00000007450581,62.));
#1707=CARTESIAN_POINT('',(76.0000011324883,1.25000001862645,62.));
#1708=CARTESIAN_POINT('',(76.0000011324883,0.,52.));
#1709=CARTESIAN_POINT('',(76.0000011324883,0.,31.));
#1710=CARTESIAN_POINT('',(76.0000011324883,5.00000007450581,52.));
#1711=CARTESIAN_POINT('',(76.0000011324883,0.,52.));
#1712=CARTESIAN_POINT('',(76.0000011324883,5.00000007450581,31.));
#1713=CARTESIAN_POINT('Origin',(81.0000012069941,5.00000007450581,62.));
#1714=CARTESIAN_POINT('',(81.0000012069941,5.00000007450581,62.));
#1715=CARTESIAN_POINT('',(81.0000012069941,0.,62.));
#1716=CARTESIAN_POINT('',(81.0000012069941,3.75000005587935,62.));
#1717=CARTESIAN_POINT('',(81.0000012069941,5.00000007450581,52.));
#1718=CARTESIAN_POINT('',(81.0000012069941,5.00000007450581,31.));
#1719=CARTESIAN_POINT('',(81.0000012069941,0.,52.));
#1720=CARTESIAN_POINT('',(81.0000012069941,5.00000007450581,52.));
#1721=CARTESIAN_POINT('',(81.0000012069941,0.,31.));
#1722=CARTESIAN_POINT('Origin',(78.5000011697412,2.5000000372529,52.));
#1723=CARTESIAN_POINT('',(39.2500005848706,5.00000007450581,52.));
#1724=CARTESIAN_POINT('',(19.2500005848706,0.,52.));
#1725=CARTESIAN_POINT('Origin',(-40.,0.,0.));
#1726=CARTESIAN_POINT('',(-40.,0.,62.));
#1727=CARTESIAN_POINT('',(0.,0.,62.));
#1728=CARTESIAN_POINT('',(-40.,0.,0.));
#1729=CARTESIAN_POINT('',(-40.,0.,0.));
#1730=CARTESIAN_POINT('',(121.,0.,0.));
#1731=CARTESIAN_POINT('',(0.,0.,0.));
#1732=CARTESIAN_POINT('',(121.,0.,62.));
#1733=CARTESIAN_POINT('',(121.,0.,0.));
#1734=CARTESIAN_POINT('',(0.,0.,62.));
#1735=CARTESIAN_POINT('',(0.,0.,62.));
#1736=CARTESIAN_POINT('',(104.100001025116,0.,35.25));
#1737=CARTESIAN_POINT('Origin',(106.000001025116,0.,35.25));
#1738=CARTESIAN_POINT('',(104.000000617978,0.,21.25));
#1739=CARTESIAN_POINT('Origin',(111.000000617978,0.,21.25));
#1740=CARTESIAN_POINT('',(4.00000005960464,0.,15.0000002235174));
#1741=CARTESIAN_POINT('',(1.00000001490116,0.,15.0000002235174));
#1742=CARTESIAN_POINT('',(-17.9999999701977,0.,15.0000002235174));
#1743=CARTESIAN_POINT('',(1.00000001490116,0.,20.0000002980232));
#1744=CARTESIAN_POINT('',(1.00000001490116,0.,7.50000011175871));
#1745=CARTESIAN_POINT('',(4.00000005960464,0.,20.0000002980232));
#1746=CARTESIAN_POINT('',(-19.4999999925494,0.,20.0000002980232));
#1747=CARTESIAN_POINT('',(4.00000005960464,0.,10.0000001490116));
#1748=CARTESIAN_POINT('',(-26.4148893106672,0.,47.3117656798761));
#1749=CARTESIAN_POINT('',(-33.1763701954445,0.,49.1234990225907));
#1750=CARTESIAN_POINT('',(-26.8384590155623,0.,47.4252608402411));
#1751=CARTESIAN_POINT('',(-32.399913060137,0.,52.0212765014579));
#1752=CARTESIAN_POINT('',(-39.5453558352159,0.,25.3541210222877));
#1753=CARTESIAN_POINT('',(-25.6384321753596,0.,50.2095431587433));
#1754=CARTESIAN_POINT('',(-29.4427423226434,0.,51.2289049904656));
#1755=CARTESIAN_POINT('',(-32.3956463827847,0.,24.9912764190067));
#1756=CARTESIAN_POINT('',(107.414890686555,0.,47.3117637339043));
#1757=CARTESIAN_POINT('',(106.638433635518,0.,50.2095412353518));
#1758=CARTESIAN_POINT('',(108.391399015297,0.,43.6673846130909));
#1759=CARTESIAN_POINT('',(113.399914572983,0.,52.0212743814338));
#1760=CARTESIAN_POINT('',(31.9544799634987,0.,30.1980384892131));
#1761=CARTESIAN_POINT('',(114.17637162402,0.,49.1234968799862));
#1762=CARTESIAN_POINT('',(114.764651427244,0.,46.9280065098968));
#1763=CARTESIAN_POINT('',(36.1116774832676,0.,28.2061275608064));
#1764=CARTESIAN_POINT('',(80.0000002759118,0.,9.99999900030033));
#1765=CARTESIAN_POINT('',(80.0000001305054,0.,4.99999892579452));
#1766=CARTESIAN_POINT('',(80.0000001305053,0.,4.99999775527224));
#1767=CARTESIAN_POINT('',(77.0000000858019,0.,4.99999901303842));
#1768=CARTESIAN_POINT('',(20.000000137956,0.,5.00000067067251));
#1769=CARTESIAN_POINT('',(77.0000002312083,0.,9.99999908754423));
#1770=CARTESIAN_POINT('',(77.0000000130986,0.,2.49999780526334));
#1771=CARTESIAN_POINT('',(18.5000002610107,0.,10.0000007888003));
#1772=CARTESIAN_POINT('',(1.00000001490116,0.,10.0000001490116));
#1773=CARTESIAN_POINT('',(4.00000005960464,0.,10.0000001490116));
#1774=CARTESIAN_POINT('',(-19.4999999925494,0.,10.0000001490116));
#1775=CARTESIAN_POINT('',(4.00000005960464,0.,5.00000007450581));
#1776=CARTESIAN_POINT('',(4.00000005960464,0.,5.00000007450581));
#1777=CARTESIAN_POINT('',(1.00000001490116,0.,5.00000007450581));
#1778=CARTESIAN_POINT('',(-17.9999999701977,0.,5.00000007450581));
#1779=CARTESIAN_POINT('',(1.00000001490116,0.,2.5000000372529));
#1780=CARTESIAN_POINT('',(-2.45621189822604,0.,43.997885956725));
#1781=CARTESIAN_POINT('',(-3.2326690335336,0.,41.1001084778578));
#1782=CARTESIAN_POINT('',(-9.21342610565114,0.,18.7796192169884));
#1783=CARTESIAN_POINT('',(-9.99414991831099,0.,42.9118418205724));
#1784=CARTESIAN_POINT('',(-15.2473488769955,0.,44.3194322392319));
#1785=CARTESIAN_POINT('',(-9.21769278300342,0.,45.8096192994396));
#1786=CARTESIAN_POINT('',(-16.3631355580823,0.,19.1424638202694));
#1787=CARTESIAN_POINT('',(-17.8516321840766,0.,48.1230763894564));
#1788=CARTESIAN_POINT('',(84.2326702287781,0.,41.100107206055));
#1789=CARTESIAN_POINT('',(83.4562131777417,0.,43.9978847075026));
#1790=CARTESIAN_POINT('',(85.2091785575203,0.,37.4557280852418));
#1791=CARTESIAN_POINT('',(90.2176941152066,0.,45.8096178535845));
#1792=CARTESIAN_POINT('',(20.3633697346104,0.,27.0922102252883));
#1793=CARTESIAN_POINT('',(90.9941511662431,0.,42.9118403521369));
#1794=CARTESIAN_POINT('',(91.5824309694671,0.,40.7163499820475));
#1795=CARTESIAN_POINT('',(24.5205672543793,0.,25.1002992968817));
#1796=CARTESIAN_POINT('',(77.0000005220213,0.,19.9999992365558));
#1797=CARTESIAN_POINT('',(80.0000005667248,0.,19.9999991493119));
#1798=CARTESIAN_POINT('',(18.5000005518237,0.,20.0000009378117));
#1799=CARTESIAN_POINT('',(80.0000004213183,0.,14.9999990748061));
#1800=CARTESIAN_POINT('',(80.0000002759118,0.,9.99999782977805));
#1801=CARTESIAN_POINT('',(77.0000003766148,0.,14.99999916205));
#1802=CARTESIAN_POINT('',(20.0000004287689,0.,15.0000008196839));
#1803=CARTESIAN_POINT('',(77.0000001585051,0.,7.49999787976904));
#1804=CARTESIAN_POINT('',(-16.9999994754791,0.,32.0000005751848));
#1805=CARTESIAN_POINT('Origin',(-9.99999947547912,0.,32.0000005751848));
#1806=CARTESIAN_POINT('',(84.0000013560057,0.,32.0000004768372));
#1807=CARTESIAN_POINT('Origin',(91.0000013560057,0.,32.0000004768372));
#1808=CARTESIAN_POINT('',(114.100001025116,0.,35.25));
#1809=CARTESIAN_POINT('Origin',(116.000001025116,0.,35.25));
#1810=CARTESIAN_POINT('Origin',(0.,5.00000007450581,0.));
#1811=CARTESIAN_POINT('',(58.25,5.,62.));
#1812=CARTESIAN_POINT('',(121.,5.00000007450581,62.));
#1813=CARTESIAN_POINT('',(58.25,5.,62.));
#1814=CARTESIAN_POINT('',(121.,5.00000007450581,0.));
#1815=CARTESIAN_POINT('',(121.,5.00000007450581,0.));
#1816=CARTESIAN_POINT('',(-40.,5.00000007450581,0.));
#1817=CARTESIAN_POINT('',(0.,5.00000007450581,0.));
#1818=CARTESIAN_POINT('',(-40.,5.00000007450581,62.));
#1819=CARTESIAN_POINT('',(-40.,5.00000007450581,0.));
#1820=CARTESIAN_POINT('',(58.25,5.,62.));
#1821=CARTESIAN_POINT('',(119.500001025116,5.00000007450581,38.75));
#1822=CARTESIAN_POINT('',(112.500001025116,5.00000007450581,38.75));
#1823=CARTESIAN_POINT('',(56.2500005125579,5.00000007450581,38.75));
#1824=CARTESIAN_POINT('',(112.500001025116,5.00000007450581,31.75));
#1825=CARTESIAN_POINT('',(112.500001025116,5.00000007450581,15.875));
#1826=CARTESIAN_POINT('',(119.500001025116,5.00000007450581,31.75));
#1827=CARTESIAN_POINT('',(59.7500005125579,5.00000007450581,31.75));
#1828=CARTESIAN_POINT('',(119.500001025116,5.00000007450581,19.375));
#1829=CARTESIAN_POINT('',(104.000000617978,5.00000007450581,21.25));
#1830=CARTESIAN_POINT('Origin',(111.000000617978,5.00000007450581,21.25));
#1831=CARTESIAN_POINT('',(106.638433635518,5.00000007450581,50.2095412353518));
#1832=CARTESIAN_POINT('',(107.414890686555,5.00000007450581,47.3117637339043));
#1833=CARTESIAN_POINT('',(113.783875342451,5.00000007450581,23.542386640495));
#1834=CARTESIAN_POINT('',(114.17637162402,5.00000007450581,49.1234968799862));
#1835=CARTESIAN_POINT('',(111.219201156113,5.00000007450581,48.3311255334023));
#1836=CARTESIAN_POINT('',(113.399914572983,5.00000007450581,52.0212743814338));
#1837=CARTESIAN_POINT('',(120.157127754398,5.00000007450581,26.8030085373008));
#1838=CARTESIAN_POINT('',(107.062003636345,5.00000007450581,50.3230364618089));
#1839=CARTESIAN_POINT('',(83.4562131777417,5.00000007450581,43.9978847075026));
#1840=CARTESIAN_POINT('',(84.2326702287781,5.00000007450581,41.100107206055));
#1841=CARTESIAN_POINT('',(90.6016548846745,5.00000007450581,17.3307301126458));
#1842=CARTESIAN_POINT('',(90.9941511662431,5.00000007450581,42.9118403521369));
#1843=CARTESIAN_POINT('',(99.6280909272252,5.00000007450581,45.2252972694777));
#1844=CARTESIAN_POINT('',(90.2176941152066,5.00000007450581,45.8096178535845));
#1845=CARTESIAN_POINT('',(96.9749072966212,5.00000007450581,20.5913520094515));
#1846=CARTESIAN_POINT('',(95.4708934074562,5.00000007450581,47.2172081978843));
#1847=CARTESIAN_POINT('',(84.0000013560057,5.,32.0000004768372));
#1848=CARTESIAN_POINT('Origin',(91.0000013560057,5.00000007450581,32.0000004768372));
#1849=CARTESIAN_POINT('',(77.0000005220213,5.00000001490117,19.9999992365558));
#1850=CARTESIAN_POINT('',(80.0000005667248,5.00000005960465,19.9999991493119));
#1851=CARTESIAN_POINT('',(76.5000005518236,5.,19.9999992510965));
#1852=CARTESIAN_POINT('',(77.0000003766148,5.00000001490117,14.99999916205));
#1853=CARTESIAN_POINT('',(77.0000000130986,5.,2.49999949197856));
#1854=CARTESIAN_POINT('',(80.0000004213183,5.00000005960465,14.9999990748061));
#1855=CARTESIAN_POINT('',(78.0000004287689,5.,14.9999991329687));
#1856=CARTESIAN_POINT('',(80.0000001305054,5.,4.99999944198757));
#1857=CARTESIAN_POINT('',(80.0000002759118,5.00000005960465,9.99999900030033));
#1858=CARTESIAN_POINT('',(80.0000001305054,5.00000005960465,4.99999892579452));
#1859=CARTESIAN_POINT('',(80.0000001305054,5.,4.99999944198757));
#1860=CARTESIAN_POINT('',(77.0000002312083,5.00000001490116,9.99999908754423));
#1861=CARTESIAN_POINT('',(76.5000002610107,5.,9.99999910208488));
#1862=CARTESIAN_POINT('',(77.0000000858019,5.00000001490116,4.99999901303842));
#1863=CARTESIAN_POINT('',(77.0000000130986,5.,2.49999949197856));
#1864=CARTESIAN_POINT('',(78.0000001379559,5.,4.99999898395712));
#1865=CARTESIAN_POINT('',(4.00000005960464,5.00000001490116,20.0000002980232));
#1866=CARTESIAN_POINT('',(4.00000005960464,5.00000001490116,15.0000002235174));
#1867=CARTESIAN_POINT('',(4.00000005960464,5.00000007450581,10.0000001490116));
#1868=CARTESIAN_POINT('',(1.00000001490116,5.00000005960464,20.0000002980232));
#1869=CARTESIAN_POINT('',(0.500000007450581,5.00000007450581,20.0000002980232));
#1870=CARTESIAN_POINT('',(1.00000001490116,5.00000005960464,15.0000002235174));
#1871=CARTESIAN_POINT('',(1.00000001490116,5.00000007450581,7.50000011175871));
#1872=CARTESIAN_POINT('',(2.00000002980232,5.00000007450581,15.0000002235174));
#1873=CARTESIAN_POINT('',(4.00000005960464,5.00000001490116,10.0000001490116));
#1874=CARTESIAN_POINT('',(4.00000005960464,5.00000001490116,5.00000007450581));
#1875=CARTESIAN_POINT('',(4.00000005960464,5.00000007450581,10.0000001490116));
#1876=CARTESIAN_POINT('',(1.00000001490116,5.00000005960464,10.0000001490116));
#1877=CARTESIAN_POINT('',(0.500000007450581,5.00000007450581,10.0000001490116));
#1878=CARTESIAN_POINT('',(1.00000001490116,5.00000005960464,5.00000007450581));
#1879=CARTESIAN_POINT('',(1.00000001490116,5.00000007450581,7.50000011175871));
#1880=CARTESIAN_POINT('',(2.00000002980232,5.00000007450581,5.00000007450581));
#1881=CARTESIAN_POINT('',(-33.1763701954445,5.00000007450581,49.1234990225907));
#1882=CARTESIAN_POINT('',(-26.4148893106672,5.00000007450581,47.3117656798761));
#1883=CARTESIAN_POINT('',(-8.17820497771791,5.00000007450581,42.4252608402411));
#1884=CARTESIAN_POINT('',(-25.6384321753596,5.00000007450581,50.2095431587433));
#1885=CARTESIAN_POINT('',(-31.055900420629,5.00000007450581,29.9912764190067));
#1886=CARTESIAN_POINT('',(-32.399913060137,5.00000007450581,52.0212765014579));
#1887=CARTESIAN_POINT('',(-10.782488284799,5.00000007450581,46.2289049904656));
#1888=CARTESIAN_POINT('',(-38.2056098730602,5.00000007450581,30.3541210222877));
#1889=CARTESIAN_POINT('',(-3.2326690335336,5.00000007450581,41.1001084778578));
#1890=CARTESIAN_POINT('',(-2.45621189822604,5.00000007450581,43.997885956725));
#1891=CARTESIAN_POINT('',(-7.87368014349552,5.00000007450581,23.7796192169884));
#1892=CARTESIAN_POINT('',(-9.21769278300342,5.00000007450581,45.8096192994396));
#1893=CARTESIAN_POINT('',(0.808621853767755,5.00000007450581,43.1230763894564));
#1894=CARTESIAN_POINT('',(-9.99414991831099,5.00000007450581,42.9118418205724));
#1895=CARTESIAN_POINT('',(-15.0233895959267,5.00000007450581,24.1424638202694));
#1896=CARTESIAN_POINT('',(3.41290516084888,5.00000007450581,39.3194322392319));
#1897=CARTESIAN_POINT('',(-16.9999994754791,5.,32.0000005751848));
#1898=CARTESIAN_POINT('Origin',(-9.99999947547912,5.00000007450581,32.0000005751848));
#1899=CARTESIAN_POINT('',(109.500001025116,5.00000007450581,38.75));
#1900=CARTESIAN_POINT('',(102.500001025116,5.00000007450581,38.75));
#1901=CARTESIAN_POINT('',(51.2500005125579,5.00000007450581,38.75));
#1902=CARTESIAN_POINT('',(102.500001025116,5.00000007450581,31.75));
#1903=CARTESIAN_POINT('',(102.500001025116,5.00000007450581,15.875));
#1904=CARTESIAN_POINT('',(109.500001025116,5.00000007450581,31.75));
#1905=CARTESIAN_POINT('',(54.7500005125579,5.00000007450581,31.75));
#1906=CARTESIAN_POINT('',(109.500001025116,5.00000007450581,19.375));
#1907=CARTESIAN_POINT('Origin',(40.5,2.5000000372529,62.));
#1908=CARTESIAN_POINT('Origin',(40.5,2.5000000372529,62.));
#1909=CARTESIAN_POINT('',(121.,0.,62.));
#1910=CARTESIAN_POINT('Origin',(112.500001025116,0.,31.75));
#1911=CARTESIAN_POINT('',(112.500001025116,13.5,38.75));
#1912=CARTESIAN_POINT('',(112.500001025116,0.,38.75));
#1913=CARTESIAN_POINT('',(112.500001025116,13.5,31.75));
#1914=CARTESIAN_POINT('',(112.500001025116,13.5,38.75));
#1915=CARTESIAN_POINT('',(112.500001025116,0.,31.75));
#1916=CARTESIAN_POINT('Origin',(112.500001025116,0.,38.75));
#1917=CARTESIAN_POINT('',(119.500001025116,13.5,38.75));
#1918=CARTESIAN_POINT('',(119.500001025116,0.,38.75));
#1919=CARTESIAN_POINT('',(119.500001025116,13.5,38.75));
#1920=CARTESIAN_POINT('Origin',(119.500001025116,0.,31.75));
#1921=CARTESIAN_POINT('',(119.500001025116,13.5,31.75));
#1922=CARTESIAN_POINT('',(112.500001025116,13.5,31.75));
#1923=CARTESIAN_POINT('',(119.500001025116,0.,31.75));
#1924=CARTESIAN_POINT('Origin',(119.500001025116,0.,38.75));
#1925=CARTESIAN_POINT('',(119.500001025116,13.5,31.75));
#1926=CARTESIAN_POINT('Origin',(116.000001025116,13.5,35.25));
#1927=CARTESIAN_POINT('',(114.100001025116,13.5,35.25));
#1928=CARTESIAN_POINT('Origin',(116.000001025116,13.5,35.25));
#1929=CARTESIAN_POINT('Origin',(102.500001025116,0.,31.75));
#1930=CARTESIAN_POINT('',(102.500001025116,13.5,38.75));
#1931=CARTESIAN_POINT('',(102.500001025116,0.,38.75));
#1932=CARTESIAN_POINT('',(102.500001025116,13.5,31.75));
#1933=CARTESIAN_POINT('',(102.500001025116,13.5,38.75));
#1934=CARTESIAN_POINT('',(102.500001025116,0.,31.75));
#1935=CARTESIAN_POINT('Origin',(102.500001025116,0.,38.75));
#1936=CARTESIAN_POINT('',(109.500001025116,13.5,38.75));
#1937=CARTESIAN_POINT('',(109.500001025116,0.,38.75));
#1938=CARTESIAN_POINT('',(109.500001025116,13.5,38.75));
#1939=CARTESIAN_POINT('Origin',(109.500001025116,0.,31.75));
#1940=CARTESIAN_POINT('',(109.500001025116,13.5,31.75));
#1941=CARTESIAN_POINT('',(102.500001025116,13.5,31.75));
#1942=CARTESIAN_POINT('',(109.500001025116,0.,31.75));
#1943=CARTESIAN_POINT('Origin',(109.500001025116,0.,38.75));
#1944=CARTESIAN_POINT('',(109.500001025116,13.5,31.75));
#1945=CARTESIAN_POINT('Origin',(106.000001025116,13.5,35.25));
#1946=CARTESIAN_POINT('',(104.100001025116,13.5,35.25));
#1947=CARTESIAN_POINT('Origin',(106.000001025116,13.5,35.25));
#1948=CARTESIAN_POINT('Origin',(40.5,2.5000000372529,0.));
#1949=CARTESIAN_POINT('',(121.,0.,0.));
#1950=CARTESIAN_POINT('',(-40.,0.,0.));
#1951=CARTESIAN_POINT('Origin',(4.00000005960464,0.,5.00000007450581));
#1952=CARTESIAN_POINT('',(1.00000001490116,0.,5.00000007450581));
#1953=CARTESIAN_POINT('',(4.00000005960464,0.,5.00000007450581));
#1954=CARTESIAN_POINT('Origin',(1.00000001490116,0.,20.0000002980232));
#1955=CARTESIAN_POINT('',(4.00000005960464,0.,20.0000002980232));
#1956=CARTESIAN_POINT('',(1.00000001490116,0.,20.0000002980232));
#1957=CARTESIAN_POINT('Origin',(40.5,2.5000000372529,62.));
#1958=CARTESIAN_POINT('',(-40.,0.,62.));
#1959=CARTESIAN_POINT('Origin',(4.00000005960464,0.,15.0000002235174));
#1960=CARTESIAN_POINT('',(1.00000001490116,0.,15.0000002235174));
#1961=CARTESIAN_POINT('',(4.00000005960464,0.,15.0000002235174));
#1962=CARTESIAN_POINT('Origin',(80.0000004213183,0.,14.9999990748061));
#1963=CARTESIAN_POINT('',(77.0000003766148,0.,14.99999916205));
#1964=CARTESIAN_POINT('',(80.0000004213183,0.,14.9999990748061));
#1965=CARTESIAN_POINT('Origin',(80.0000001305054,0.,4.99999892579452));
#1966=CARTESIAN_POINT('',(77.0000000858019,0.,4.99999901303842));
#1967=CARTESIAN_POINT('',(80.0000001305054,0.,4.99999892579452));
#1968=CARTESIAN_POINT('Origin',(77.0000002312083,0.,9.99999908754423));
#1969=CARTESIAN_POINT('',(80.0000002759118,0.,9.99999900030033));
#1970=CARTESIAN_POINT('',(77.0000002312083,0.,9.99999908754423));
#1971=CARTESIAN_POINT('Origin',(111.000000617978,0.,21.25));
#1972=CARTESIAN_POINT('',(104.000000617978,0.,21.25));
#1973=CARTESIAN_POINT('Origin',(1.00000001490116,0.,15.0000002235174));
#1974=CARTESIAN_POINT('Origin',(4.00000005960464,0.,20.0000002980232));
#1975=CARTESIAN_POINT('Origin',(-32.399913060137,0.,52.0212765014579));
#1976=CARTESIAN_POINT('',(-25.6384321753596,0.,50.2095431587433));
#1977=CARTESIAN_POINT('',(-32.399913060137,0.,52.0212765014579));
#1978=CARTESIAN_POINT('Origin',(-33.1763701954445,0.,49.1234990225907));
#1979=CARTESIAN_POINT('',(-33.1763701954445,0.,49.1234990225907));
#1980=CARTESIAN_POINT('Origin',(-26.4148893106672,0.,47.3117656798761));
#1981=CARTESIAN_POINT('',(-26.4148893106672,0.,47.3117656798761));
#1982=CARTESIAN_POINT('Origin',(-25.6384321753596,0.,50.2095431587433));
#1983=CARTESIAN_POINT('Origin',(113.399914572983,0.,52.0212743814338));
#1984=CARTESIAN_POINT('',(114.17637162402,0.,49.1234968799862));
#1985=CARTESIAN_POINT('',(113.399914572983,0.,52.0212743814338));
#1986=CARTESIAN_POINT('Origin',(106.638433635518,0.,50.2095412353518));
#1987=CARTESIAN_POINT('',(106.638433635518,0.,50.2095412353518));
#1988=CARTESIAN_POINT('Origin',(107.414890686555,0.,47.3117637339043));
#1989=CARTESIAN_POINT('',(107.414890686555,0.,47.3117637339043));
#1990=CARTESIAN_POINT('Origin',(114.17637162402,0.,49.1234968799862));
#1991=CARTESIAN_POINT('Origin',(77.0000000858019,0.,4.99999901303842));
#1992=CARTESIAN_POINT('Origin',(80.0000002759118,0.,9.99999900030033));
#1993=CARTESIAN_POINT('Origin',(116.000001025116,0.,35.25));
#1994=CARTESIAN_POINT('',(114.100001025116,0.,35.25));
#1995=CARTESIAN_POINT('Origin',(4.00000005960464,0.,20.0000002980232));
#1996=CARTESIAN_POINT('',(4.00000005960464,0.,10.0000001490116));
#1997=CARTESIAN_POINT('Origin',(1.00000001490116,0.,10.0000001490116));
#1998=CARTESIAN_POINT('',(1.00000001490116,0.,10.0000001490116));
#1999=CARTESIAN_POINT('Origin',(1.00000001490116,0.,15.0000002235174));
#2000=CARTESIAN_POINT('Origin',(-9.99414991831099,0.,42.9118418205724));
#2001=CARTESIAN_POINT('',(-9.21769278300342,0.,45.8096192994396));
#2002=CARTESIAN_POINT('',(-9.99414991831099,0.,42.9118418205724));
#2003=CARTESIAN_POINT('Origin',(-3.2326690335336,0.,41.1001084778578));
#2004=CARTESIAN_POINT('',(-3.2326690335336,0.,41.1001084778578));
#2005=CARTESIAN_POINT('Origin',(-2.45621189822604,0.,43.997885956725));
#2006=CARTESIAN_POINT('',(-2.45621189822604,0.,43.997885956725));
#2007=CARTESIAN_POINT('Origin',(-9.21769278300342,0.,45.8096192994396));
#2008=CARTESIAN_POINT('Origin',(90.2176941152066,0.,45.8096178535845));
#2009=CARTESIAN_POINT('',(90.9941511662431,0.,42.9118403521369));
#2010=CARTESIAN_POINT('',(90.2176941152066,0.,45.8096178535845));
#2011=CARTESIAN_POINT('Origin',(83.4562131777417,0.,43.9978847075026));
#2012=CARTESIAN_POINT('',(83.4562131777417,0.,43.9978847075026));
#2013=CARTESIAN_POINT('Origin',(84.2326702287781,0.,41.100107206055));
#2014=CARTESIAN_POINT('',(84.2326702287781,0.,41.100107206055));
#2015=CARTESIAN_POINT('Origin',(90.9941511662431,0.,42.9118403521369));
#2016=CARTESIAN_POINT('Origin',(80.0000002759118,0.,9.99999900030033));
#2017=CARTESIAN_POINT('',(80.0000005667248,0.,19.9999991493119));
#2018=CARTESIAN_POINT('Origin',(77.0000005220213,0.,19.9999992365558));
#2019=CARTESIAN_POINT('',(77.0000005220213,0.,19.9999992365558));
#2020=CARTESIAN_POINT('Origin',(77.0000000858019,0.,4.99999901303842));
#2021=CARTESIAN_POINT('Origin',(106.000001025116,0.,35.25));
#2022=CARTESIAN_POINT('',(104.100001025116,0.,35.25));
#2023=CARTESIAN_POINT('Origin',(-9.99999947547912,0.,32.0000005751848));
#2024=CARTESIAN_POINT('',(-16.9999994754791,0.,32.0000005751848));
#2025=CARTESIAN_POINT('Origin',(91.0000013560057,0.,32.0000004768372));
#2026=CARTESIAN_POINT('',(84.0000013560057,0.,32.0000004768372));
#2027=CARTESIAN_POINT('Origin',(121.,0.,0.));
#2028=CARTESIAN_POINT('Origin',(-40.,5.00000007450581,0.));
#2029=CARTESIAN_POINT('',(0.,34.0061470296545,0.0547474927568281));
#2030=CARTESIAN_POINT('',(0.,114.006147029655,0.0547474927573344));
#2031=UNCERTAINTY_MEASURE_WITH_UNIT(LENGTH_MEASURE(0.01),#2037,
'DISTANCE_ACCURACY_VALUE',
'Maximum model space distance between geometric entities at asserted c
onnectivities');
#2032=UNCERTAINTY_MEASURE_WITH_UNIT(LENGTH_MEASURE(0.01),#2037,
'DISTANCE_ACCURACY_VALUE',
'Maximum model space distance between geometric entities at asserted c
onnectivities');
#2033=UNCERTAINTY_MEASURE_WITH_UNIT(LENGTH_MEASURE(0.01),#2037,
'DISTANCE_ACCURACY_VALUE',
'Maximum model space distance between geometric entities at asserted c
onnectivities');
#2034=(
GEOMETRIC_REPRESENTATION_CONTEXT(3)
GLOBAL_UNCERTAINTY_ASSIGNED_CONTEXT((#2031))
GLOBAL_UNIT_ASSIGNED_CONTEXT((#2037,#2039,#2040))
REPRESENTATION_CONTEXT('','3D')
);
#2035=(
GEOMETRIC_REPRESENTATION_CONTEXT(3)
GLOBAL_UNCERTAINTY_ASSIGNED_CONTEXT((#2032))
GLOBAL_UNIT_ASSIGNED_CONTEXT((#2037,#2039,#2040))
REPRESENTATION_CONTEXT('','3D')
);
#2036=(
GEOMETRIC_REPRESENTATION_CONTEXT(3)
GLOBAL_UNCERTAINTY_ASSIGNED_CONTEXT((#2033))
GLOBAL_UNIT_ASSIGNED_CONTEXT((#2037,#2039,#2040))
REPRESENTATION_CONTEXT('','3D')
);
#2037=(
LENGTH_UNIT()
NAMED_UNIT(*)
SI_UNIT(.MILLI.,.METRE.)
);
#2038=(
LENGTH_UNIT()
NAMED_UNIT(*)
SI_UNIT($,.METRE.)
);
#2039=(
NAMED_UNIT(*)
PLANE_ANGLE_UNIT()
SI_UNIT($,.RADIAN.)
);
#2040=(
NAMED_UNIT(*)
SI_UNIT($,.STERADIAN.)
SOLID_ANGLE_UNIT()
);
#2041=SHAPE_DEFINITION_REPRESENTATION(#2043,#2047);
#2042=SHAPE_DEFINITION_REPRESENTATION(#2044,#2048);
#2043=PRODUCT_DEFINITION_SHAPE('',$,#2050);
#2044=PRODUCT_DEFINITION_SHAPE('',$,#2051);
#2045=PRODUCT_DEFINITION_SHAPE($,$,#17);
#2046=PRODUCT_DEFINITION_SHAPE($,$,#18);
#2047=SHAPE_REPRESENTATION('',(#1295,#1368,#1369),#2034);
#2048=SHAPE_REPRESENTATION('',(#1296),#2035);
#2049=PRODUCT_DEFINITION_CONTEXT('part definition',#2057,'design');
#2050=PRODUCT_DEFINITION('2026-07-14-13-37-18-342',
'card-shuffler-side-plates',#2052,#2049);
#2051=PRODUCT_DEFINITION('2026-07-29-15-30-40-937','Component2',#2053,#2049);
#2052=PRODUCT_DEFINITION_FORMATION('',$,#2059);
#2053=PRODUCT_DEFINITION_FORMATION('',$,#2060);
#2054=PRODUCT_RELATED_PRODUCT_CATEGORY('card-shuffler-side-plates',
'card-shuffler-side-plates',(#2059));
#2055=PRODUCT_RELATED_PRODUCT_CATEGORY('Component2','Component2',(#2060));
#2056=APPLICATION_PROTOCOL_DEFINITION('international standard',
'automotive_design',2009,#2057);
#2057=APPLICATION_CONTEXT(
'Core Data for Automotive Mechanical Design Process');
#2058=PRODUCT_CONTEXT('part definition',#2057,'mechanical');
#2059=PRODUCT('2026-07-14-13-37-18-342','card-shuffler-side-plates',$,(#2058));
#2060=PRODUCT('2026-07-29-15-30-40-937','Component2',$,(#2058));
#2061=PRESENTATION_STYLE_ASSIGNMENT((#2062));
#2062=SURFACE_STYLE_USAGE(.BOTH.,#2063);
#2063=SURFACE_SIDE_STYLE('',(#2064));
#2064=SURFACE_STYLE_FILL_AREA(#2065);
#2065=FILL_AREA_STYLE('Steel - Satin',(#2066));
#2066=FILL_AREA_STYLE_COLOUR('Steel - Satin',#2067);
#2067=COLOUR_RGB('Steel - Satin',0.627450980392157,0.627450980392157,0.627450980392157);
ENDSEC;
END-ISO-10303-21;
