ISO-10303-21;
HEADER;
/* Generated by software containing ST-Developer
 * from STEP Tools, Inc. (www.steptools.com) 
 */

FILE_DESCRIPTION(
/* description */ (''),
/* implementation_level */ '2;1');

FILE_NAME(
/* name */ 'card-shuffler-hex-shaft-and-connectors.step',
/* time_stamp */ '2026-07-30T17:55:58-07:00',
/* author */ (''),
/* organization */ (''),
/* preprocessor_version */ 'ST-DEVELOPER v20.1',
/* originating_system */ 'Autodesk Translation Framework v15.8.0.0',
/* authorisation */ '');

FILE_SCHEMA (('AUTOMOTIVE_DESIGN { 1 0 10303 214 3 1 1 }'));
ENDSEC;

DATA;
#10=MECHANICAL_DESIGN_GEOMETRIC_PRESENTATION_REPRESENTATION('',(#41,#42,
#43),#955);
#11=ITEM_DEFINED_TRANSFORMATION($,$,#587,#630);
#12=ITEM_DEFINED_TRANSFORMATION($,$,#604,#631);
#13=ITEM_DEFINED_TRANSFORMATION($,$,#621,#632);
#14=ITEM_DEFINED_TRANSFORMATION($,$,#587,#633);
#15=ITEM_DEFINED_TRANSFORMATION($,$,#604,#634);
#16=ITEM_DEFINED_TRANSFORMATION($,$,#621,#635);
#17=(
REPRESENTATION_RELATIONSHIP($,$,#975,#974)
REPRESENTATION_RELATIONSHIP_WITH_TRANSFORMATION(#11)
SHAPE_REPRESENTATION_RELATIONSHIP()
);
#18=(
REPRESENTATION_RELATIONSHIP($,$,#976,#974)
REPRESENTATION_RELATIONSHIP_WITH_TRANSFORMATION(#12)
SHAPE_REPRESENTATION_RELATIONSHIP()
);
#19=(
REPRESENTATION_RELATIONSHIP($,$,#977,#974)
REPRESENTATION_RELATIONSHIP_WITH_TRANSFORMATION(#13)
SHAPE_REPRESENTATION_RELATIONSHIP()
);
#20=(
REPRESENTATION_RELATIONSHIP($,$,#975,#974)
REPRESENTATION_RELATIONSHIP_WITH_TRANSFORMATION(#14)
SHAPE_REPRESENTATION_RELATIONSHIP()
);
#21=(
REPRESENTATION_RELATIONSHIP($,$,#976,#974)
REPRESENTATION_RELATIONSHIP_WITH_TRANSFORMATION(#15)
SHAPE_REPRESENTATION_RELATIONSHIP()
);
#22=(
REPRESENTATION_RELATIONSHIP($,$,#977,#974)
REPRESENTATION_RELATIONSHIP_WITH_TRANSFORMATION(#16)
SHAPE_REPRESENTATION_RELATIONSHIP()
);
#23=CONTEXT_DEPENDENT_SHAPE_REPRESENTATION(#17,#968);
#24=CONTEXT_DEPENDENT_SHAPE_REPRESENTATION(#18,#969);
#25=CONTEXT_DEPENDENT_SHAPE_REPRESENTATION(#19,#970);
#26=CONTEXT_DEPENDENT_SHAPE_REPRESENTATION(#20,#971);
#27=CONTEXT_DEPENDENT_SHAPE_REPRESENTATION(#21,#972);
#28=CONTEXT_DEPENDENT_SHAPE_REPRESENTATION(#22,#973);
#29=NEXT_ASSEMBLY_USAGE_OCCURRENCE('Component1:1','Component1:1',
'Component1:1',#979,#980,'Component1:1');
#30=NEXT_ASSEMBLY_USAGE_OCCURRENCE('Component2:1','Component2:1',
'Component2:1',#979,#981,'Component2:1');
#31=NEXT_ASSEMBLY_USAGE_OCCURRENCE('Component3:1','Component3:1',
'Component3:1',#979,#982,'Component3:1');
#32=NEXT_ASSEMBLY_USAGE_OCCURRENCE('Component1:2','Component1:2',
'Component1:2',#979,#980,'Component1:2');
#33=NEXT_ASSEMBLY_USAGE_OCCURRENCE('Component2:2','Component2:2',
'Component2:2',#979,#981,'Component2:2');
#34=NEXT_ASSEMBLY_USAGE_OCCURRENCE('Component3:2','Component3:2',
'Component3:2',#979,#982,'Component3:2');
#35=SHAPE_REPRESENTATION_RELATIONSHIP('SRR','None',#975,#38);
#36=SHAPE_REPRESENTATION_RELATIONSHIP('SRR','None',#976,#39);
#37=SHAPE_REPRESENTATION_RELATIONSHIP('SRR','None',#977,#40);
#38=ADVANCED_BREP_SHAPE_REPRESENTATION('',(#44),#952);
#39=ADVANCED_BREP_SHAPE_REPRESENTATION('',(#45),#953);
#40=ADVANCED_BREP_SHAPE_REPRESENTATION('',(#46),#954);
#41=STYLED_ITEM('',(#998),#44);
#42=STYLED_ITEM('',(#998),#45);
#43=STYLED_ITEM('',(#998),#46);
#44=MANIFOLD_SOLID_BREP('Body1',#549);
#45=MANIFOLD_SOLID_BREP('Body1',#550);
#46=MANIFOLD_SOLID_BREP('Body1',#551);
#47=FACE_BOUND('',#122,.T.);
#48=FACE_BOUND('',#124,.T.);
#49=FACE_BOUND('',#136,.T.);
#50=FACE_BOUND('',#138,.T.);
#51=PLANE('',#591);
#52=PLANE('',#592);
#53=PLANE('',#593);
#54=PLANE('',#594);
#55=PLANE('',#595);
#56=PLANE('',#596);
#57=PLANE('',#597);
#58=PLANE('',#598);
#59=PLANE('',#602);
#60=PLANE('',#603);
#61=PLANE('',#608);
#62=PLANE('',#609);
#63=PLANE('',#610);
#64=PLANE('',#611);
#65=PLANE('',#612);
#66=PLANE('',#613);
#67=PLANE('',#614);
#68=PLANE('',#615);
#69=PLANE('',#619);
#70=PLANE('',#620);
#71=PLANE('',#622);
#72=PLANE('',#623);
#73=PLANE('',#624);
#74=PLANE('',#625);
#75=PLANE('',#626);
#76=PLANE('',#627);
#77=PLANE('',#628);
#78=PLANE('',#629);
#79=FACE_OUTER_BOUND('',#111,.T.);
#80=FACE_OUTER_BOUND('',#112,.T.);
#81=FACE_OUTER_BOUND('',#113,.T.);
#82=FACE_OUTER_BOUND('',#114,.T.);
#83=FACE_OUTER_BOUND('',#115,.T.);
#84=FACE_OUTER_BOUND('',#116,.T.);
#85=FACE_OUTER_BOUND('',#117,.T.);
#86=FACE_OUTER_BOUND('',#118,.T.);
#87=FACE_OUTER_BOUND('',#119,.T.);
#88=FACE_OUTER_BOUND('',#120,.T.);
#89=FACE_OUTER_BOUND('',#121,.T.);
#90=FACE_OUTER_BOUND('',#123,.T.);
#91=FACE_OUTER_BOUND('',#125,.T.);
#92=FACE_OUTER_BOUND('',#126,.T.);
#93=FACE_OUTER_BOUND('',#127,.T.);
#94=FACE_OUTER_BOUND('',#128,.T.);
#95=FACE_OUTER_BOUND('',#129,.T.);
#96=FACE_OUTER_BOUND('',#130,.T.);
#97=FACE_OUTER_BOUND('',#131,.T.);
#98=FACE_OUTER_BOUND('',#132,.T.);
#99=FACE_OUTER_BOUND('',#133,.T.);
#100=FACE_OUTER_BOUND('',#134,.T.);
#101=FACE_OUTER_BOUND('',#135,.T.);
#102=FACE_OUTER_BOUND('',#137,.T.);
#103=FACE_OUTER_BOUND('',#139,.T.);
#104=FACE_OUTER_BOUND('',#140,.T.);
#105=FACE_OUTER_BOUND('',#141,.T.);
#106=FACE_OUTER_BOUND('',#142,.T.);
#107=FACE_OUTER_BOUND('',#143,.T.);
#108=FACE_OUTER_BOUND('',#144,.T.);
#109=FACE_OUTER_BOUND('',#145,.T.);
#110=FACE_OUTER_BOUND('',#146,.T.);
#111=EDGE_LOOP('',(#381,#382,#383,#384));
#112=EDGE_LOOP('',(#385));
#113=EDGE_LOOP('',(#386,#387,#388,#389,#390,#391));
#114=EDGE_LOOP('',(#392,#393,#394,#395));
#115=EDGE_LOOP('',(#396,#397,#398,#399));
#116=EDGE_LOOP('',(#400,#401,#402,#403));
#117=EDGE_LOOP('',(#404,#405,#406,#407));
#118=EDGE_LOOP('',(#408,#409,#410,#411));
#119=EDGE_LOOP('',(#412,#413,#414,#415));
#120=EDGE_LOOP('',(#416,#417,#418,#419));
#121=EDGE_LOOP('',(#420));
#122=EDGE_LOOP('',(#421,#422,#423,#424,#425,#426));
#123=EDGE_LOOP('',(#427));
#124=EDGE_LOOP('',(#428));
#125=EDGE_LOOP('',(#429,#430,#431,#432));
#126=EDGE_LOOP('',(#433));
#127=EDGE_LOOP('',(#434,#435,#436,#437,#438,#439));
#128=EDGE_LOOP('',(#440,#441,#442,#443));
#129=EDGE_LOOP('',(#444,#445,#446,#447));
#130=EDGE_LOOP('',(#448,#449,#450,#451));
#131=EDGE_LOOP('',(#452,#453,#454,#455));
#132=EDGE_LOOP('',(#456,#457,#458,#459));
#133=EDGE_LOOP('',(#460,#461,#462,#463));
#134=EDGE_LOOP('',(#464,#465,#466,#467));
#135=EDGE_LOOP('',(#468));
#136=EDGE_LOOP('',(#469,#470,#471,#472,#473,#474));
#137=EDGE_LOOP('',(#475));
#138=EDGE_LOOP('',(#476));
#139=EDGE_LOOP('',(#477,#478,#479,#480));
#140=EDGE_LOOP('',(#481,#482,#483,#484));
#141=EDGE_LOOP('',(#485,#486,#487,#488));
#142=EDGE_LOOP('',(#489,#490,#491,#492));
#143=EDGE_LOOP('',(#493,#494,#495,#496));
#144=EDGE_LOOP('',(#497,#498,#499,#500));
#145=EDGE_LOOP('',(#501,#502,#503,#504,#505,#506));
#146=EDGE_LOOP('',(#507,#508,#509,#510,#511,#512));
#147=LINE('',#800,#205);
#148=LINE('',#806,#206);
#149=LINE('',#808,#207);
#150=LINE('',#810,#208);
#151=LINE('',#812,#209);
#152=LINE('',#814,#210);
#153=LINE('',#815,#211);
#154=LINE('',#818,#212);
#155=LINE('',#820,#213);
#156=LINE('',#821,#214);
#157=LINE('',#824,#215);
#158=LINE('',#825,#216);
#159=LINE('',#828,#217);
#160=LINE('',#829,#218);
#161=LINE('',#832,#219);
#162=LINE('',#833,#220);
#163=LINE('',#836,#221);
#164=LINE('',#837,#222);
#165=LINE('',#839,#223);
#166=LINE('',#844,#224);
#167=LINE('',#853,#225);
#168=LINE('',#859,#226);
#169=LINE('',#861,#227);
#170=LINE('',#863,#228);
#171=LINE('',#865,#229);
#172=LINE('',#867,#230);
#173=LINE('',#868,#231);
#174=LINE('',#871,#232);
#175=LINE('',#873,#233);
#176=LINE('',#874,#234);
#177=LINE('',#877,#235);
#178=LINE('',#878,#236);
#179=LINE('',#881,#237);
#180=LINE('',#882,#238);
#181=LINE('',#885,#239);
#182=LINE('',#886,#240);
#183=LINE('',#889,#241);
#184=LINE('',#890,#242);
#185=LINE('',#892,#243);
#186=LINE('',#897,#244);
#187=LINE('',#905,#245);
#188=LINE('',#907,#246);
#189=LINE('',#909,#247);
#190=LINE('',#910,#248);
#191=LINE('',#913,#249);
#192=LINE('',#915,#250);
#193=LINE('',#916,#251);
#194=LINE('',#919,#252);
#195=LINE('',#921,#253);
#196=LINE('',#922,#254);
#197=LINE('',#925,#255);
#198=LINE('',#927,#256);
#199=LINE('',#928,#257);
#200=LINE('',#931,#258);
#201=LINE('',#933,#259);
#202=LINE('',#934,#260);
#203=LINE('',#936,#261);
#204=LINE('',#937,#262);
#205=VECTOR('',#644,2.9);
#206=VECTOR('',#651,10.);
#207=VECTOR('',#652,10.);
#208=VECTOR('',#653,10.);
#209=VECTOR('',#654,10.);
#210=VECTOR('',#655,10.);
#211=VECTOR('',#656,10.);
#212=VECTOR('',#659,10.);
#213=VECTOR('',#660,10.);
#214=VECTOR('',#661,10.);
#215=VECTOR('',#664,10.);
#216=VECTOR('',#665,10.);
#217=VECTOR('',#668,10.);
#218=VECTOR('',#669,10.);
#219=VECTOR('',#672,10.);
#220=VECTOR('',#673,10.);
#221=VECTOR('',#676,10.);
#222=VECTOR('',#677,10.);
#223=VECTOR('',#680,10.);
#224=VECTOR('',#685,3.5);
#225=VECTOR('',#698,2.9);
#226=VECTOR('',#705,10.);
#227=VECTOR('',#706,10.);
#228=VECTOR('',#707,10.);
#229=VECTOR('',#708,10.);
#230=VECTOR('',#709,10.);
#231=VECTOR('',#710,10.);
#232=VECTOR('',#713,10.);
#233=VECTOR('',#714,10.);
#234=VECTOR('',#715,10.);
#235=VECTOR('',#718,10.);
#236=VECTOR('',#719,10.);
#237=VECTOR('',#722,10.);
#238=VECTOR('',#723,10.);
#239=VECTOR('',#726,10.);
#240=VECTOR('',#727,10.);
#241=VECTOR('',#730,10.);
#242=VECTOR('',#731,10.);
#243=VECTOR('',#734,10.);
#244=VECTOR('',#739,3.5);
#245=VECTOR('',#750,10.);
#246=VECTOR('',#751,10.);
#247=VECTOR('',#752,10.);
#248=VECTOR('',#753,10.);
#249=VECTOR('',#756,10.);
#250=VECTOR('',#757,10.);
#251=VECTOR('',#758,10.);
#252=VECTOR('',#761,10.);
#253=VECTOR('',#762,10.);
#254=VECTOR('',#763,10.);
#255=VECTOR('',#766,10.);
#256=VECTOR('',#767,10.);
#257=VECTOR('',#768,10.);
#258=VECTOR('',#771,10.);
#259=VECTOR('',#772,10.);
#260=VECTOR('',#773,10.);
#261=VECTOR('',#776,10.);
#262=VECTOR('',#777,10.);
#263=CIRCLE('',#589,2.9);
#264=CIRCLE('',#590,2.9);
#265=CIRCLE('',#600,3.5);
#266=CIRCLE('',#601,3.5);
#267=CIRCLE('',#606,2.9);
#268=CIRCLE('',#607,2.9);
#269=CIRCLE('',#617,3.5);
#270=CIRCLE('',#618,3.5);
#271=VERTEX_POINT('',#797);
#272=VERTEX_POINT('',#799);
#273=VERTEX_POINT('',#804);
#274=VERTEX_POINT('',#805);
#275=VERTEX_POINT('',#807);
#276=VERTEX_POINT('',#809);
#277=VERTEX_POINT('',#811);
#278=VERTEX_POINT('',#813);
#279=VERTEX_POINT('',#817);
#280=VERTEX_POINT('',#819);
#281=VERTEX_POINT('',#823);
#282=VERTEX_POINT('',#827);
#283=VERTEX_POINT('',#831);
#284=VERTEX_POINT('',#835);
#285=VERTEX_POINT('',#841);
#286=VERTEX_POINT('',#843);
#287=VERTEX_POINT('',#850);
#288=VERTEX_POINT('',#852);
#289=VERTEX_POINT('',#857);
#290=VERTEX_POINT('',#858);
#291=VERTEX_POINT('',#860);
#292=VERTEX_POINT('',#862);
#293=VERTEX_POINT('',#864);
#294=VERTEX_POINT('',#866);
#295=VERTEX_POINT('',#870);
#296=VERTEX_POINT('',#872);
#297=VERTEX_POINT('',#876);
#298=VERTEX_POINT('',#880);
#299=VERTEX_POINT('',#884);
#300=VERTEX_POINT('',#888);
#301=VERTEX_POINT('',#894);
#302=VERTEX_POINT('',#896);
#303=VERTEX_POINT('',#903);
#304=VERTEX_POINT('',#904);
#305=VERTEX_POINT('',#906);
#306=VERTEX_POINT('',#908);
#307=VERTEX_POINT('',#912);
#308=VERTEX_POINT('',#914);
#309=VERTEX_POINT('',#918);
#310=VERTEX_POINT('',#920);
#311=VERTEX_POINT('',#924);
#312=VERTEX_POINT('',#926);
#313=VERTEX_POINT('',#930);
#314=VERTEX_POINT('',#932);
#315=EDGE_CURVE('',#271,#271,#263,.T.);
#316=EDGE_CURVE('',#271,#272,#147,.T.);
#317=EDGE_CURVE('',#272,#272,#264,.T.);
#318=EDGE_CURVE('',#273,#274,#148,.T.);
#319=EDGE_CURVE('',#275,#273,#149,.T.);
#320=EDGE_CURVE('',#276,#275,#150,.T.);
#321=EDGE_CURVE('',#277,#276,#151,.T.);
#322=EDGE_CURVE('',#278,#277,#152,.T.);
#323=EDGE_CURVE('',#274,#278,#153,.T.);
#324=EDGE_CURVE('',#276,#279,#154,.T.);
#325=EDGE_CURVE('',#280,#279,#155,.T.);
#326=EDGE_CURVE('',#277,#280,#156,.T.);
#327=EDGE_CURVE('',#275,#281,#157,.T.);
#328=EDGE_CURVE('',#279,#281,#158,.T.);
#329=EDGE_CURVE('',#273,#282,#159,.T.);
#330=EDGE_CURVE('',#281,#282,#160,.T.);
#331=EDGE_CURVE('',#283,#280,#161,.T.);
#332=EDGE_CURVE('',#278,#283,#162,.T.);
#333=EDGE_CURVE('',#284,#283,#163,.T.);
#334=EDGE_CURVE('',#274,#284,#164,.T.);
#335=EDGE_CURVE('',#282,#284,#165,.T.);
#336=EDGE_CURVE('',#285,#285,#265,.T.);
#337=EDGE_CURVE('',#285,#286,#166,.T.);
#338=EDGE_CURVE('',#286,#286,#266,.T.);
#339=EDGE_CURVE('',#287,#287,#267,.T.);
#340=EDGE_CURVE('',#287,#288,#167,.T.);
#341=EDGE_CURVE('',#288,#288,#268,.T.);
#342=EDGE_CURVE('',#289,#290,#168,.T.);
#343=EDGE_CURVE('',#291,#289,#169,.T.);
#344=EDGE_CURVE('',#292,#291,#170,.T.);
#345=EDGE_CURVE('',#293,#292,#171,.T.);
#346=EDGE_CURVE('',#294,#293,#172,.T.);
#347=EDGE_CURVE('',#290,#294,#173,.T.);
#348=EDGE_CURVE('',#292,#295,#174,.T.);
#349=EDGE_CURVE('',#296,#295,#175,.T.);
#350=EDGE_CURVE('',#293,#296,#176,.T.);
#351=EDGE_CURVE('',#291,#297,#177,.T.);
#352=EDGE_CURVE('',#295,#297,#178,.T.);
#353=EDGE_CURVE('',#289,#298,#179,.T.);
#354=EDGE_CURVE('',#297,#298,#180,.T.);
#355=EDGE_CURVE('',#299,#296,#181,.T.);
#356=EDGE_CURVE('',#294,#299,#182,.T.);
#357=EDGE_CURVE('',#300,#299,#183,.T.);
#358=EDGE_CURVE('',#290,#300,#184,.T.);
#359=EDGE_CURVE('',#298,#300,#185,.T.);
#360=EDGE_CURVE('',#301,#301,#269,.T.);
#361=EDGE_CURVE('',#301,#302,#186,.T.);
#362=EDGE_CURVE('',#302,#302,#270,.T.);
#363=EDGE_CURVE('',#303,#304,#187,.T.);
#364=EDGE_CURVE('',#304,#305,#188,.T.);
#365=EDGE_CURVE('',#306,#305,#189,.T.);
#366=EDGE_CURVE('',#303,#306,#190,.T.);
#367=EDGE_CURVE('',#307,#303,#191,.T.);
#368=EDGE_CURVE('',#308,#306,#192,.T.);
#369=EDGE_CURVE('',#307,#308,#193,.T.);
#370=EDGE_CURVE('',#309,#307,#194,.T.);
#371=EDGE_CURVE('',#310,#308,#195,.T.);
#372=EDGE_CURVE('',#309,#310,#196,.T.);
#373=EDGE_CURVE('',#311,#309,#197,.T.);
#374=EDGE_CURVE('',#312,#310,#198,.T.);
#375=EDGE_CURVE('',#311,#312,#199,.T.);
#376=EDGE_CURVE('',#313,#311,#200,.T.);
#377=EDGE_CURVE('',#314,#312,#201,.T.);
#378=EDGE_CURVE('',#313,#314,#202,.T.);
#379=EDGE_CURVE('',#304,#313,#203,.T.);
#380=EDGE_CURVE('',#305,#314,#204,.T.);
#381=ORIENTED_EDGE('',*,*,#315,.F.);
#382=ORIENTED_EDGE('',*,*,#316,.T.);
#383=ORIENTED_EDGE('',*,*,#317,.F.);
#384=ORIENTED_EDGE('',*,*,#316,.F.);
#385=ORIENTED_EDGE('',*,*,#315,.T.);
#386=ORIENTED_EDGE('',*,*,#318,.F.);
#387=ORIENTED_EDGE('',*,*,#319,.F.);
#388=ORIENTED_EDGE('',*,*,#320,.F.);
#389=ORIENTED_EDGE('',*,*,#321,.F.);
#390=ORIENTED_EDGE('',*,*,#322,.F.);
#391=ORIENTED_EDGE('',*,*,#323,.F.);
#392=ORIENTED_EDGE('',*,*,#321,.T.);
#393=ORIENTED_EDGE('',*,*,#324,.T.);
#394=ORIENTED_EDGE('',*,*,#325,.F.);
#395=ORIENTED_EDGE('',*,*,#326,.F.);
#396=ORIENTED_EDGE('',*,*,#320,.T.);
#397=ORIENTED_EDGE('',*,*,#327,.T.);
#398=ORIENTED_EDGE('',*,*,#328,.F.);
#399=ORIENTED_EDGE('',*,*,#324,.F.);
#400=ORIENTED_EDGE('',*,*,#319,.T.);
#401=ORIENTED_EDGE('',*,*,#329,.T.);
#402=ORIENTED_EDGE('',*,*,#330,.F.);
#403=ORIENTED_EDGE('',*,*,#327,.F.);
#404=ORIENTED_EDGE('',*,*,#322,.T.);
#405=ORIENTED_EDGE('',*,*,#326,.T.);
#406=ORIENTED_EDGE('',*,*,#331,.F.);
#407=ORIENTED_EDGE('',*,*,#332,.F.);
#408=ORIENTED_EDGE('',*,*,#323,.T.);
#409=ORIENTED_EDGE('',*,*,#332,.T.);
#410=ORIENTED_EDGE('',*,*,#333,.F.);
#411=ORIENTED_EDGE('',*,*,#334,.F.);
#412=ORIENTED_EDGE('',*,*,#318,.T.);
#413=ORIENTED_EDGE('',*,*,#334,.T.);
#414=ORIENTED_EDGE('',*,*,#335,.F.);
#415=ORIENTED_EDGE('',*,*,#329,.F.);
#416=ORIENTED_EDGE('',*,*,#336,.F.);
#417=ORIENTED_EDGE('',*,*,#337,.T.);
#418=ORIENTED_EDGE('',*,*,#338,.T.);
#419=ORIENTED_EDGE('',*,*,#337,.F.);
#420=ORIENTED_EDGE('',*,*,#336,.T.);
#421=ORIENTED_EDGE('',*,*,#335,.T.);
#422=ORIENTED_EDGE('',*,*,#333,.T.);
#423=ORIENTED_EDGE('',*,*,#331,.T.);
#424=ORIENTED_EDGE('',*,*,#325,.T.);
#425=ORIENTED_EDGE('',*,*,#328,.T.);
#426=ORIENTED_EDGE('',*,*,#330,.T.);
#427=ORIENTED_EDGE('',*,*,#338,.F.);
#428=ORIENTED_EDGE('',*,*,#317,.T.);
#429=ORIENTED_EDGE('',*,*,#339,.F.);
#430=ORIENTED_EDGE('',*,*,#340,.T.);
#431=ORIENTED_EDGE('',*,*,#341,.F.);
#432=ORIENTED_EDGE('',*,*,#340,.F.);
#433=ORIENTED_EDGE('',*,*,#339,.T.);
#434=ORIENTED_EDGE('',*,*,#342,.F.);
#435=ORIENTED_EDGE('',*,*,#343,.F.);
#436=ORIENTED_EDGE('',*,*,#344,.F.);
#437=ORIENTED_EDGE('',*,*,#345,.F.);
#438=ORIENTED_EDGE('',*,*,#346,.F.);
#439=ORIENTED_EDGE('',*,*,#347,.F.);
#440=ORIENTED_EDGE('',*,*,#345,.T.);
#441=ORIENTED_EDGE('',*,*,#348,.T.);
#442=ORIENTED_EDGE('',*,*,#349,.F.);
#443=ORIENTED_EDGE('',*,*,#350,.F.);
#444=ORIENTED_EDGE('',*,*,#344,.T.);
#445=ORIENTED_EDGE('',*,*,#351,.T.);
#446=ORIENTED_EDGE('',*,*,#352,.F.);
#447=ORIENTED_EDGE('',*,*,#348,.F.);
#448=ORIENTED_EDGE('',*,*,#343,.T.);
#449=ORIENTED_EDGE('',*,*,#353,.T.);
#450=ORIENTED_EDGE('',*,*,#354,.F.);
#451=ORIENTED_EDGE('',*,*,#351,.F.);
#452=ORIENTED_EDGE('',*,*,#346,.T.);
#453=ORIENTED_EDGE('',*,*,#350,.T.);
#454=ORIENTED_EDGE('',*,*,#355,.F.);
#455=ORIENTED_EDGE('',*,*,#356,.F.);
#456=ORIENTED_EDGE('',*,*,#347,.T.);
#457=ORIENTED_EDGE('',*,*,#356,.T.);
#458=ORIENTED_EDGE('',*,*,#357,.F.);
#459=ORIENTED_EDGE('',*,*,#358,.F.);
#460=ORIENTED_EDGE('',*,*,#342,.T.);
#461=ORIENTED_EDGE('',*,*,#358,.T.);
#462=ORIENTED_EDGE('',*,*,#359,.F.);
#463=ORIENTED_EDGE('',*,*,#353,.F.);
#464=ORIENTED_EDGE('',*,*,#360,.F.);
#465=ORIENTED_EDGE('',*,*,#361,.T.);
#466=ORIENTED_EDGE('',*,*,#362,.T.);
#467=ORIENTED_EDGE('',*,*,#361,.F.);
#468=ORIENTED_EDGE('',*,*,#360,.T.);
#469=ORIENTED_EDGE('',*,*,#359,.T.);
#470=ORIENTED_EDGE('',*,*,#357,.T.);
#471=ORIENTED_EDGE('',*,*,#355,.T.);
#472=ORIENTED_EDGE('',*,*,#349,.T.);
#473=ORIENTED_EDGE('',*,*,#352,.T.);
#474=ORIENTED_EDGE('',*,*,#354,.T.);
#475=ORIENTED_EDGE('',*,*,#362,.F.);
#476=ORIENTED_EDGE('',*,*,#341,.T.);
#477=ORIENTED_EDGE('',*,*,#363,.T.);
#478=ORIENTED_EDGE('',*,*,#364,.T.);
#479=ORIENTED_EDGE('',*,*,#365,.F.);
#480=ORIENTED_EDGE('',*,*,#366,.F.);
#481=ORIENTED_EDGE('',*,*,#367,.T.);
#482=ORIENTED_EDGE('',*,*,#366,.T.);
#483=ORIENTED_EDGE('',*,*,#368,.F.);
#484=ORIENTED_EDGE('',*,*,#369,.F.);
#485=ORIENTED_EDGE('',*,*,#370,.T.);
#486=ORIENTED_EDGE('',*,*,#369,.T.);
#487=ORIENTED_EDGE('',*,*,#371,.F.);
#488=ORIENTED_EDGE('',*,*,#372,.F.);
#489=ORIENTED_EDGE('',*,*,#373,.T.);
#490=ORIENTED_EDGE('',*,*,#372,.T.);
#491=ORIENTED_EDGE('',*,*,#374,.F.);
#492=ORIENTED_EDGE('',*,*,#375,.F.);
#493=ORIENTED_EDGE('',*,*,#376,.T.);
#494=ORIENTED_EDGE('',*,*,#375,.T.);
#495=ORIENTED_EDGE('',*,*,#377,.F.);
#496=ORIENTED_EDGE('',*,*,#378,.F.);
#497=ORIENTED_EDGE('',*,*,#379,.T.);
#498=ORIENTED_EDGE('',*,*,#378,.T.);
#499=ORIENTED_EDGE('',*,*,#380,.F.);
#500=ORIENTED_EDGE('',*,*,#364,.F.);
#501=ORIENTED_EDGE('',*,*,#380,.T.);
#502=ORIENTED_EDGE('',*,*,#377,.T.);
#503=ORIENTED_EDGE('',*,*,#374,.T.);
#504=ORIENTED_EDGE('',*,*,#371,.T.);
#505=ORIENTED_EDGE('',*,*,#368,.T.);
#506=ORIENTED_EDGE('',*,*,#365,.T.);
#507=ORIENTED_EDGE('',*,*,#379,.F.);
#508=ORIENTED_EDGE('',*,*,#363,.F.);
#509=ORIENTED_EDGE('',*,*,#367,.F.);
#510=ORIENTED_EDGE('',*,*,#370,.F.);
#511=ORIENTED_EDGE('',*,*,#373,.F.);
#512=ORIENTED_EDGE('',*,*,#376,.F.);
#513=CYLINDRICAL_SURFACE('',#588,2.9);
#514=CYLINDRICAL_SURFACE('',#599,3.5);
#515=CYLINDRICAL_SURFACE('',#605,2.9);
#516=CYLINDRICAL_SURFACE('',#616,3.5);
#517=ADVANCED_FACE('',(#79),#513,.T.);
#518=ADVANCED_FACE('',(#80),#51,.F.);
#519=ADVANCED_FACE('',(#81),#52,.T.);
#520=ADVANCED_FACE('',(#82),#53,.T.);
#521=ADVANCED_FACE('',(#83),#54,.T.);
#522=ADVANCED_FACE('',(#84),#55,.T.);
#523=ADVANCED_FACE('',(#85),#56,.T.);
#524=ADVANCED_FACE('',(#86),#57,.T.);
#525=ADVANCED_FACE('',(#87),#58,.T.);
#526=ADVANCED_FACE('',(#88),#514,.T.);
#527=ADVANCED_FACE('',(#89,#47),#59,.T.);
#528=ADVANCED_FACE('',(#90,#48),#60,.F.);
#529=ADVANCED_FACE('',(#91),#515,.T.);
#530=ADVANCED_FACE('',(#92),#61,.F.);
#531=ADVANCED_FACE('',(#93),#62,.T.);
#532=ADVANCED_FACE('',(#94),#63,.T.);
#533=ADVANCED_FACE('',(#95),#64,.T.);
#534=ADVANCED_FACE('',(#96),#65,.T.);
#535=ADVANCED_FACE('',(#97),#66,.T.);
#536=ADVANCED_FACE('',(#98),#67,.T.);
#537=ADVANCED_FACE('',(#99),#68,.T.);
#538=ADVANCED_FACE('',(#100),#516,.T.);
#539=ADVANCED_FACE('',(#101,#49),#69,.T.);
#540=ADVANCED_FACE('',(#102,#50),#70,.F.);
#541=ADVANCED_FACE('',(#103),#71,.T.);
#542=ADVANCED_FACE('',(#104),#72,.T.);
#543=ADVANCED_FACE('',(#105),#73,.T.);
#544=ADVANCED_FACE('',(#106),#74,.T.);
#545=ADVANCED_FACE('',(#107),#75,.T.);
#546=ADVANCED_FACE('',(#108),#76,.T.);
#547=ADVANCED_FACE('',(#109),#77,.T.);
#548=ADVANCED_FACE('',(#110),#78,.F.);
#549=CLOSED_SHELL('',(#517,#518,#519,#520,#521,#522,#523,#524,#525,#526,
#527,#528));
#550=CLOSED_SHELL('',(#529,#530,#531,#532,#533,#534,#535,#536,#537,#538,
#539,#540));
#551=CLOSED_SHELL('',(#541,#542,#543,#544,#545,#546,#547,#548));
#552=DERIVED_UNIT_ELEMENT(#558,1.);
#553=DERIVED_UNIT_ELEMENT(#957,-3.);
#554=DERIVED_UNIT_ELEMENT(#558,1.);
#555=DERIVED_UNIT_ELEMENT(#957,-3.);
#556=DERIVED_UNIT_ELEMENT(#558,1.);
#557=DERIVED_UNIT_ELEMENT(#957,-3.);
#558=(
MASS_UNIT()
NAMED_UNIT(*)
SI_UNIT(.KILO.,.GRAM.)
);
#559=DERIVED_UNIT((#552,#553));
#560=DERIVED_UNIT((#554,#555));
#561=DERIVED_UNIT((#556,#557));
#562=MEASURE_REPRESENTATION_ITEM('density measure',
POSITIVE_RATIO_MEASURE(7850.),#559);
#563=MEASURE_REPRESENTATION_ITEM('density measure',
POSITIVE_RATIO_MEASURE(7850.),#560);
#564=MEASURE_REPRESENTATION_ITEM('density measure',
POSITIVE_RATIO_MEASURE(7850.),#561);
#565=PROPERTY_DEFINITION_REPRESENTATION(#580,#571);
#566=PROPERTY_DEFINITION_REPRESENTATION(#581,#572);
#567=PROPERTY_DEFINITION_REPRESENTATION(#582,#573);
#568=PROPERTY_DEFINITION_REPRESENTATION(#583,#574);
#569=PROPERTY_DEFINITION_REPRESENTATION(#584,#575);
#570=PROPERTY_DEFINITION_REPRESENTATION(#585,#576);
#571=REPRESENTATION('material name',(#577),#952);
#572=REPRESENTATION('density',(#562),#952);
#573=REPRESENTATION('material name',(#578),#953);
#574=REPRESENTATION('density',(#563),#953);
#575=REPRESENTATION('material name',(#579),#954);
#576=REPRESENTATION('density',(#564),#954);
#577=DESCRIPTIVE_REPRESENTATION_ITEM('Steel','Steel');
#578=DESCRIPTIVE_REPRESENTATION_ITEM('Steel','Steel');
#579=DESCRIPTIVE_REPRESENTATION_ITEM('Steel','Steel');
#580=PROPERTY_DEFINITION('material property','material name',#980);
#581=PROPERTY_DEFINITION('material property','density of part',#980);
#582=PROPERTY_DEFINITION('material property','material name',#981);
#583=PROPERTY_DEFINITION('material property','density of part',#981);
#584=PROPERTY_DEFINITION('material property','material name',#982);
#585=PROPERTY_DEFINITION('material property','density of part',#982);
#586=AXIS2_PLACEMENT_3D('',#794,#636,#637);
#587=AXIS2_PLACEMENT_3D('',#795,#638,#639);
#588=AXIS2_PLACEMENT_3D('',#796,#640,#641);
#589=AXIS2_PLACEMENT_3D('',#798,#642,#643);
#590=AXIS2_PLACEMENT_3D('',#801,#645,#646);
#591=AXIS2_PLACEMENT_3D('',#802,#647,#648);
#592=AXIS2_PLACEMENT_3D('',#803,#649,#650);
#593=AXIS2_PLACEMENT_3D('',#816,#657,#658);
#594=AXIS2_PLACEMENT_3D('',#822,#662,#663);
#595=AXIS2_PLACEMENT_3D('',#826,#666,#667);
#596=AXIS2_PLACEMENT_3D('',#830,#670,#671);
#597=AXIS2_PLACEMENT_3D('',#834,#674,#675);
#598=AXIS2_PLACEMENT_3D('',#838,#678,#679);
#599=AXIS2_PLACEMENT_3D('',#840,#681,#682);
#600=AXIS2_PLACEMENT_3D('',#842,#683,#684);
#601=AXIS2_PLACEMENT_3D('',#845,#686,#687);
#602=AXIS2_PLACEMENT_3D('',#846,#688,#689);
#603=AXIS2_PLACEMENT_3D('',#847,#690,#691);
#604=AXIS2_PLACEMENT_3D('',#848,#692,#693);
#605=AXIS2_PLACEMENT_3D('',#849,#694,#695);
#606=AXIS2_PLACEMENT_3D('',#851,#696,#697);
#607=AXIS2_PLACEMENT_3D('',#854,#699,#700);
#608=AXIS2_PLACEMENT_3D('',#855,#701,#702);
#609=AXIS2_PLACEMENT_3D('',#856,#703,#704);
#610=AXIS2_PLACEMENT_3D('',#869,#711,#712);
#611=AXIS2_PLACEMENT_3D('',#875,#716,#717);
#612=AXIS2_PLACEMENT_3D('',#879,#720,#721);
#613=AXIS2_PLACEMENT_3D('',#883,#724,#725);
#614=AXIS2_PLACEMENT_3D('',#887,#728,#729);
#615=AXIS2_PLACEMENT_3D('',#891,#732,#733);
#616=AXIS2_PLACEMENT_3D('',#893,#735,#736);
#617=AXIS2_PLACEMENT_3D('',#895,#737,#738);
#618=AXIS2_PLACEMENT_3D('',#898,#740,#741);
#619=AXIS2_PLACEMENT_3D('',#899,#742,#743);
#620=AXIS2_PLACEMENT_3D('',#900,#744,#745);
#621=AXIS2_PLACEMENT_3D('',#901,#746,#747);
#622=AXIS2_PLACEMENT_3D('',#902,#748,#749);
#623=AXIS2_PLACEMENT_3D('',#911,#754,#755);
#624=AXIS2_PLACEMENT_3D('',#917,#759,#760);
#625=AXIS2_PLACEMENT_3D('',#923,#764,#765);
#626=AXIS2_PLACEMENT_3D('',#929,#769,#770);
#627=AXIS2_PLACEMENT_3D('',#935,#774,#775);
#628=AXIS2_PLACEMENT_3D('',#938,#778,#779);
#629=AXIS2_PLACEMENT_3D('',#939,#780,#781);
#630=AXIS2_PLACEMENT_3D('',#940,#782,#783);
#631=AXIS2_PLACEMENT_3D('',#941,#784,#785);
#632=AXIS2_PLACEMENT_3D('',#942,#786,#787);
#633=AXIS2_PLACEMENT_3D('',#943,#788,#789);
#634=AXIS2_PLACEMENT_3D('',#944,#790,#791);
#635=AXIS2_PLACEMENT_3D('',#945,#792,#793);
#636=DIRECTION('axis',(0.,0.,1.));
#637=DIRECTION('refdir',(1.,0.,0.));
#638=DIRECTION('axis',(0.,0.,1.));
#639=DIRECTION('refdir',(1.,0.,0.));
#640=DIRECTION('center_axis',(0.,0.,-1.));
#641=DIRECTION('ref_axis',(1.,0.,0.));
#642=DIRECTION('center_axis',(0.,0.,-1.));
#643=DIRECTION('ref_axis',(1.,0.,0.));
#644=DIRECTION('',(0.,0.,1.));
#645=DIRECTION('center_axis',(0.,0.,1.));
#646=DIRECTION('ref_axis',(1.,0.,0.));
#647=DIRECTION('center_axis',(0.,0.,1.));
#648=DIRECTION('ref_axis',(1.,0.,0.));
#649=DIRECTION('center_axis',(0.,0.,1.));
#650=DIRECTION('ref_axis',(1.,0.,0.));
#651=DIRECTION('',(0.,1.,0.));
#652=DIRECTION('',(-0.866025475424629,0.49999987591553,0.));
#653=DIRECTION('',(-0.86602533214423,-0.50000012408446,0.));
#654=DIRECTION('',(1.43280398876666E-7,-0.99999999999999,0.));
#655=DIRECTION('',(0.866025475424629,-0.49999987591553,0.));
#656=DIRECTION('',(0.866025296324107,0.500000186126709,0.));
#657=DIRECTION('center_axis',(-0.99999999999999,-1.43280398876666E-7,0.));
#658=DIRECTION('ref_axis',(1.43280398876666E-7,-0.99999999999999,0.));
#659=DIRECTION('',(0.,0.,1.));
#660=DIRECTION('',(1.43280398876666E-7,-0.99999999999999,0.));
#661=DIRECTION('',(0.,0.,1.));
#662=DIRECTION('center_axis',(-0.50000012408446,0.86602533214423,0.));
#663=DIRECTION('ref_axis',(-0.86602533214423,-0.50000012408446,0.));
#664=DIRECTION('',(0.,0.,1.));
#665=DIRECTION('',(-0.86602533214423,-0.50000012408446,0.));
#666=DIRECTION('center_axis',(0.49999987591553,0.866025475424629,0.));
#667=DIRECTION('ref_axis',(-0.866025475424629,0.49999987591553,0.));
#668=DIRECTION('',(0.,0.,1.));
#669=DIRECTION('',(-0.866025475424629,0.49999987591553,0.));
#670=DIRECTION('center_axis',(-0.49999987591553,-0.866025475424629,0.));
#671=DIRECTION('ref_axis',(0.866025475424629,-0.49999987591553,0.));
#672=DIRECTION('',(0.866025475424629,-0.49999987591553,0.));
#673=DIRECTION('',(0.,0.,1.));
#674=DIRECTION('center_axis',(0.500000186126709,-0.866025296324107,0.));
#675=DIRECTION('ref_axis',(0.866025296324107,0.500000186126709,0.));
#676=DIRECTION('',(0.866025296324107,0.500000186126709,0.));
#677=DIRECTION('',(0.,0.,1.));
#678=DIRECTION('center_axis',(1.,0.,0.));
#679=DIRECTION('ref_axis',(0.,1.,0.));
#680=DIRECTION('',(0.,1.,0.));
#681=DIRECTION('center_axis',(0.,0.,1.));
#682=DIRECTION('ref_axis',(1.,0.,0.));
#683=DIRECTION('center_axis',(0.,0.,1.));
#684=DIRECTION('ref_axis',(1.,0.,0.));
#685=DIRECTION('',(0.,0.,-1.));
#686=DIRECTION('center_axis',(0.,0.,1.));
#687=DIRECTION('ref_axis',(1.,0.,0.));
#688=DIRECTION('center_axis',(0.,0.,1.));
#689=DIRECTION('ref_axis',(1.,0.,0.));
#690=DIRECTION('center_axis',(0.,0.,1.));
#691=DIRECTION('ref_axis',(1.,0.,0.));
#692=DIRECTION('axis',(0.,0.,1.));
#693=DIRECTION('refdir',(1.,0.,0.));
#694=DIRECTION('center_axis',(0.,0.,-1.));
#695=DIRECTION('ref_axis',(1.,0.,0.));
#696=DIRECTION('center_axis',(0.,0.,-1.));
#697=DIRECTION('ref_axis',(1.,0.,0.));
#698=DIRECTION('',(0.,0.,1.));
#699=DIRECTION('center_axis',(0.,0.,1.));
#700=DIRECTION('ref_axis',(1.,0.,0.));
#701=DIRECTION('center_axis',(0.,0.,1.));
#702=DIRECTION('ref_axis',(1.,0.,0.));
#703=DIRECTION('center_axis',(0.,0.,1.));
#704=DIRECTION('ref_axis',(1.,0.,0.));
#705=DIRECTION('',(0.,1.,0.));
#706=DIRECTION('',(-0.866025475424629,0.49999987591553,0.));
#707=DIRECTION('',(-0.86602533214423,-0.50000012408446,0.));
#708=DIRECTION('',(1.43280398876666E-7,-0.99999999999999,0.));
#709=DIRECTION('',(0.866025475424629,-0.49999987591553,0.));
#710=DIRECTION('',(0.866025296324107,0.500000186126709,0.));
#711=DIRECTION('center_axis',(-0.99999999999999,-1.43280398876666E-7,0.));
#712=DIRECTION('ref_axis',(1.43280398876666E-7,-0.99999999999999,0.));
#713=DIRECTION('',(0.,0.,1.));
#714=DIRECTION('',(1.43280398876666E-7,-0.99999999999999,0.));
#715=DIRECTION('',(0.,0.,1.));
#716=DIRECTION('center_axis',(-0.50000012408446,0.86602533214423,0.));
#717=DIRECTION('ref_axis',(-0.86602533214423,-0.50000012408446,0.));
#718=DIRECTION('',(0.,0.,1.));
#719=DIRECTION('',(-0.86602533214423,-0.50000012408446,0.));
#720=DIRECTION('center_axis',(0.49999987591553,0.866025475424629,0.));
#721=DIRECTION('ref_axis',(-0.866025475424629,0.49999987591553,0.));
#722=DIRECTION('',(0.,0.,1.));
#723=DIRECTION('',(-0.866025475424629,0.49999987591553,0.));
#724=DIRECTION('center_axis',(-0.49999987591553,-0.866025475424629,0.));
#725=DIRECTION('ref_axis',(0.866025475424629,-0.49999987591553,0.));
#726=DIRECTION('',(0.866025475424629,-0.49999987591553,0.));
#727=DIRECTION('',(0.,0.,1.));
#728=DIRECTION('center_axis',(0.500000186126709,-0.866025296324107,0.));
#729=DIRECTION('ref_axis',(0.866025296324107,0.500000186126709,0.));
#730=DIRECTION('',(0.866025296324107,0.500000186126709,0.));
#731=DIRECTION('',(0.,0.,1.));
#732=DIRECTION('center_axis',(1.,0.,0.));
#733=DIRECTION('ref_axis',(0.,1.,0.));
#734=DIRECTION('',(0.,1.,0.));
#735=DIRECTION('center_axis',(0.,0.,1.));
#736=DIRECTION('ref_axis',(1.,0.,0.));
#737=DIRECTION('center_axis',(0.,0.,1.));
#738=DIRECTION('ref_axis',(1.,0.,0.));
#739=DIRECTION('',(0.,0.,-1.));
#740=DIRECTION('center_axis',(0.,0.,1.));
#741=DIRECTION('ref_axis',(1.,0.,0.));
#742=DIRECTION('center_axis',(0.,0.,1.));
#743=DIRECTION('ref_axis',(1.,0.,0.));
#744=DIRECTION('center_axis',(0.,0.,1.));
#745=DIRECTION('ref_axis',(1.,0.,0.));
#746=DIRECTION('axis',(0.,0.,1.));
#747=DIRECTION('refdir',(1.,0.,0.));
#748=DIRECTION('center_axis',(-0.499999999999999,0.866025403784439,0.));
#749=DIRECTION('ref_axis',(-0.866025403784439,-0.499999999999999,0.));
#750=DIRECTION('',(-0.866025403784439,-0.499999999999999,0.));
#751=DIRECTION('',(0.,0.,1.));
#752=DIRECTION('',(-0.866025403784439,-0.499999999999999,0.));
#753=DIRECTION('',(0.,0.,1.));
#754=DIRECTION('center_axis',(0.5,0.866025403784438,0.));
#755=DIRECTION('ref_axis',(-0.866025403784438,0.5,0.));
#756=DIRECTION('',(-0.866025403784438,0.5,0.));
#757=DIRECTION('',(-0.866025403784438,0.5,0.));
#758=DIRECTION('',(0.,0.,1.));
#759=DIRECTION('center_axis',(1.,-6.73036940234247E-16,0.));
#760=DIRECTION('ref_axis',(6.73036940234247E-16,1.,0.));
#761=DIRECTION('',(6.73036940234247E-16,1.,0.));
#762=DIRECTION('',(6.73036940234247E-16,1.,0.));
#763=DIRECTION('',(0.,0.,1.));
#764=DIRECTION('center_axis',(0.5,-0.866025403784439,0.));
#765=DIRECTION('ref_axis',(0.866025403784439,0.5,0.));
#766=DIRECTION('',(0.866025403784439,0.5,0.));
#767=DIRECTION('',(0.866025403784439,0.5,0.));
#768=DIRECTION('',(0.,0.,1.));
#769=DIRECTION('center_axis',(-0.5,-0.866025403784439,0.));
#770=DIRECTION('ref_axis',(0.866025403784438,-0.5,0.));
#771=DIRECTION('',(0.866025403784439,-0.5,0.));
#772=DIRECTION('',(0.866025403784439,-0.5,0.));
#773=DIRECTION('',(0.,0.,1.));
#774=DIRECTION('center_axis',(-1.,7.69185074553425E-16,0.));
#775=DIRECTION('ref_axis',(-7.69185074553425E-16,-1.,0.));
#776=DIRECTION('',(-7.69185074553425E-16,-1.,0.));
#777=DIRECTION('',(-7.69185074553425E-16,-1.,0.));
#778=DIRECTION('center_axis',(0.,0.,1.));
#779=DIRECTION('ref_axis',(1.,0.,0.));
#780=DIRECTION('center_axis',(0.,0.,1.));
#781=DIRECTION('ref_axis',(1.,0.,0.));
#782=DIRECTION('',(0.,0.,1.));
#783=DIRECTION('',(1.,0.,0.));
#784=DIRECTION('',(0.,0.,1.));
#785=DIRECTION('',(1.,0.,0.));
#786=DIRECTION('',(0.,0.,1.));
#787=DIRECTION('',(1.,0.,0.));
#788=DIRECTION('',(0.,5.55111512312577E-16,0.999999999999999));
#789=DIRECTION('',(1.,0.,0.));
#790=DIRECTION('',(0.,5.55111512312577E-16,0.999999999999999));
#791=DIRECTION('',(1.,0.,0.));
#792=DIRECTION('',(0.,5.55111512312577E-16,0.999999999999999));
#793=DIRECTION('',(1.,0.,0.));
#794=CARTESIAN_POINT('',(0.,0.,0.));
#795=CARTESIAN_POINT('',(0.,0.,0.));
#796=CARTESIAN_POINT('Origin',(5.55111512312578E-15,21.0000001490116,13.));
#797=CARTESIAN_POINT('',(-2.89999999999999,21.0000001490116,-0.999999999999994));
#798=CARTESIAN_POINT('Origin',(5.55111512312578E-15,21.0000001490116,-0.999999999999994));
#799=CARTESIAN_POINT('',(-2.89999999999999,21.0000001490116,13.));
#800=CARTESIAN_POINT('',(-2.89999999999999,21.0000001490116,13.));
#801=CARTESIAN_POINT('Origin',(5.55111512312578E-15,21.0000001490116,13.));
#802=CARTESIAN_POINT('Origin',(5.55111512312578E-15,21.0000001490116,-0.999999999999994));
#803=CARTESIAN_POINT('Origin',(4.5648146485E-7,21.0000001636152,14.));
#804=CARTESIAN_POINT('',(-2.64999976273444,19.4700214440052,14.));
#805=CARTESIAN_POINT('',(-2.64999976273444,22.529978123839,14.));
#806=CARTESIAN_POINT('',(-2.64999976273444,20.2350108038102,14.));
#807=CARTESIAN_POINT('',(6.75697371943507E-7,17.9400434837815,14.));
#808=CARTESIAN_POINT('',(-0.662499351704603,18.3225379263758,14.));
#809=CARTESIAN_POINT('',(2.65000067569737,19.4700222033914,14.));
#810=CARTESIAN_POINT('',(1.98750075790332,19.0875275709506,14.));
#811=CARTESIAN_POINT('',(2.65000023726556,22.5299788832252,14.));
#812=CARTESIAN_POINT('',(2.65000034687351,21.7649897132667,14.));
#813=CARTESIAN_POINT('',(-2.01166254210072E-7,24.0599568434489,14.));
#814=CARTESIAN_POINT('',(0.662499990647678,23.6774623059314,14.));
#815=CARTESIAN_POINT('',(-1.98749995454838,22.9124727562798,14.));
#816=CARTESIAN_POINT('Origin',(2.65000023726556,22.5299788832252,13.));
#817=CARTESIAN_POINT('',(2.65000067569737,19.4700222033914,18.));
#818=CARTESIAN_POINT('',(2.65000067569737,19.4700222033914,13.));
#819=CARTESIAN_POINT('',(2.65000023726556,22.5299788832252,18.));
#820=CARTESIAN_POINT('',(2.65000067569737,19.4700222033914,18.));
#821=CARTESIAN_POINT('',(2.65000023726556,22.5299788832252,13.));
#822=CARTESIAN_POINT('Origin',(2.65000067569737,19.4700222033914,13.));
#823=CARTESIAN_POINT('',(6.75697371943507E-7,17.9400434837815,18.));
#824=CARTESIAN_POINT('',(6.75697372130521E-7,17.9400434837815,13.));
#825=CARTESIAN_POINT('',(6.75697372130521E-7,17.9400434837815,18.));
#826=CARTESIAN_POINT('Origin',(6.75697371943507E-7,17.9400434837815,13.));
#827=CARTESIAN_POINT('',(-2.64999976273444,19.4700214440052,18.));
#828=CARTESIAN_POINT('',(-2.64999976273444,19.4700214440052,13.));
#829=CARTESIAN_POINT('',(-2.64999976273444,19.4700214440052,18.));
#830=CARTESIAN_POINT('Origin',(-2.01166254210072E-7,24.0599568434489,13.));
#831=CARTESIAN_POINT('',(-2.01166254210072E-7,24.0599568434489,18.));
#832=CARTESIAN_POINT('',(2.65000023726556,22.5299788832252,18.));
#833=CARTESIAN_POINT('',(-2.01166254310314E-7,24.0599568434489,13.));
#834=CARTESIAN_POINT('Origin',(-2.64999976273444,22.529978123839,13.));
#835=CARTESIAN_POINT('',(-2.64999976273444,22.529978123839,18.));
#836=CARTESIAN_POINT('',(-2.01166254310314E-7,24.0599568434489,18.));
#837=CARTESIAN_POINT('',(-2.64999976273444,22.529978123839,13.));
#838=CARTESIAN_POINT('Origin',(-2.64999976273444,19.4700214440052,13.));
#839=CARTESIAN_POINT('',(-2.64999976273444,22.529978123839,18.));
#840=CARTESIAN_POINT('Origin',(2.37265558315914E-7,21.0000001636152,13.));
#841=CARTESIAN_POINT('',(-3.49999976273444,21.0000001636152,18.));
#842=CARTESIAN_POINT('Origin',(2.37265558315914E-7,21.0000001636152,18.));
#843=CARTESIAN_POINT('',(-3.49999976273444,21.0000001636152,13.));
#844=CARTESIAN_POINT('',(-3.49999976273444,21.0000001636152,13.));
#845=CARTESIAN_POINT('Origin',(2.37265558315914E-7,21.0000001636152,13.));
#846=CARTESIAN_POINT('Origin',(2.37265558311606E-7,21.0000001636152,18.));
#847=CARTESIAN_POINT('Origin',(2.37265558311606E-7,21.0000001636152,13.));
#848=CARTESIAN_POINT('',(0.,0.,0.));
#849=CARTESIAN_POINT('Origin',(5.55111512312578E-15,10.0000001490116,13.));
#850=CARTESIAN_POINT('',(-2.89999999999999,10.0000001490116,-0.999999999999994));
#851=CARTESIAN_POINT('Origin',(5.55111512312578E-15,10.0000001490116,-0.999999999999994));
#852=CARTESIAN_POINT('',(-2.89999999999999,10.0000001490116,13.));
#853=CARTESIAN_POINT('',(-2.89999999999999,10.0000001490116,13.));
#854=CARTESIAN_POINT('Origin',(5.55111512312578E-15,10.0000001490116,13.));
#855=CARTESIAN_POINT('Origin',(5.55111512312578E-15,10.0000001490116,-0.999999999999994));
#856=CARTESIAN_POINT('Origin',(4.5648146485E-7,10.0000001636152,14.));
#857=CARTESIAN_POINT('',(-2.64999976273444,8.47002144400524,14.));
#858=CARTESIAN_POINT('',(-2.64999976273444,11.529978123839,14.));
#859=CARTESIAN_POINT('',(-2.64999976273444,9.23501080381022,14.));
#860=CARTESIAN_POINT('',(6.75697371943507E-7,6.94004348378146,14.));
#861=CARTESIAN_POINT('',(-0.662499351704603,7.32253792637577,14.));
#862=CARTESIAN_POINT('',(2.65000067569737,8.47002220339142,14.));
#863=CARTESIAN_POINT('',(1.98750075790332,8.08752757095057,14.));
#864=CARTESIAN_POINT('',(2.65000023726556,11.5299788832252,14.));
#865=CARTESIAN_POINT('',(2.65000034687351,10.7649897132667,14.));
#866=CARTESIAN_POINT('',(-2.01166254210072E-7,13.0599568434489,14.));
#867=CARTESIAN_POINT('',(0.662499990647678,12.6774623059314,14.));
#868=CARTESIAN_POINT('',(-1.98749995454838,11.9124727562798,14.));
#869=CARTESIAN_POINT('Origin',(2.65000023726556,11.5299788832252,13.));
#870=CARTESIAN_POINT('',(2.65000067569737,8.47002220339142,18.));
#871=CARTESIAN_POINT('',(2.65000067569737,8.47002220339142,13.));
#872=CARTESIAN_POINT('',(2.65000023726556,11.5299788832252,18.));
#873=CARTESIAN_POINT('',(2.65000067569737,8.47002220339142,18.));
#874=CARTESIAN_POINT('',(2.65000023726556,11.5299788832252,13.));
#875=CARTESIAN_POINT('Origin',(2.65000067569737,8.47002220339142,13.));
#876=CARTESIAN_POINT('',(6.75697371943507E-7,6.94004348378146,18.));
#877=CARTESIAN_POINT('',(6.75697372130521E-7,6.94004348378146,13.));
#878=CARTESIAN_POINT('',(6.75697372130521E-7,6.94004348378146,18.));
#879=CARTESIAN_POINT('Origin',(6.75697371943507E-7,6.94004348378146,13.));
#880=CARTESIAN_POINT('',(-2.64999976273444,8.47002144400524,18.));
#881=CARTESIAN_POINT('',(-2.64999976273444,8.47002144400524,13.));
#882=CARTESIAN_POINT('',(-2.64999976273444,8.47002144400524,18.));
#883=CARTESIAN_POINT('Origin',(-2.01166254210072E-7,13.0599568434489,13.));
#884=CARTESIAN_POINT('',(-2.01166254210072E-7,13.0599568434489,18.));
#885=CARTESIAN_POINT('',(2.65000023726556,11.5299788832252,18.));
#886=CARTESIAN_POINT('',(-2.01166254310314E-7,13.0599568434489,13.));
#887=CARTESIAN_POINT('Origin',(-2.64999976273444,11.529978123839,13.));
#888=CARTESIAN_POINT('',(-2.64999976273444,11.529978123839,18.));
#889=CARTESIAN_POINT('',(-2.01166254310314E-7,13.0599568434489,18.));
#890=CARTESIAN_POINT('',(-2.64999976273444,11.529978123839,13.));
#891=CARTESIAN_POINT('Origin',(-2.64999976273444,8.47002144400524,13.));
#892=CARTESIAN_POINT('',(-2.64999976273444,11.529978123839,18.));
#893=CARTESIAN_POINT('Origin',(2.37265558315914E-7,10.0000001636152,13.));
#894=CARTESIAN_POINT('',(-3.49999976273444,10.0000001636152,18.));
#895=CARTESIAN_POINT('Origin',(2.37265558315914E-7,10.0000001636152,18.));
#896=CARTESIAN_POINT('',(-3.49999976273444,10.0000001636152,13.));
#897=CARTESIAN_POINT('',(-3.49999976273444,10.0000001636152,13.));
#898=CARTESIAN_POINT('Origin',(2.37265558315914E-7,10.0000001636152,13.));
#899=CARTESIAN_POINT('Origin',(2.37265558311606E-7,10.0000001636152,18.));
#900=CARTESIAN_POINT('Origin',(2.37265558311606E-7,10.0000001636152,13.));
#901=CARTESIAN_POINT('',(0.,0.,0.));
#902=CARTESIAN_POINT('Origin',(2.41126563160776E-15,2.88675134594813,0.));
#903=CARTESIAN_POINT('',(2.41126563160776E-15,2.88675134594813,0.));
#904=CARTESIAN_POINT('',(-2.5,1.44337567297407,0.));
#905=CARTESIAN_POINT('',(2.41126563160776E-15,2.88675134594813,0.));
#906=CARTESIAN_POINT('',(-2.5,1.44337567297407,91.));
#907=CARTESIAN_POINT('',(-2.5,1.44337567297407,0.));
#908=CARTESIAN_POINT('',(2.22044604925031E-15,2.88675134594813,91.));
#909=CARTESIAN_POINT('',(2.41126563160776E-15,2.88675134594813,91.));
#910=CARTESIAN_POINT('',(2.41126563160776E-15,2.88675134594813,0.));
#911=CARTESIAN_POINT('Origin',(2.5,1.44337567297406,0.));
#912=CARTESIAN_POINT('',(2.5,1.44337567297406,0.));
#913=CARTESIAN_POINT('',(2.5,1.44337567297406,0.));
#914=CARTESIAN_POINT('',(2.5,1.44337567297406,91.));
#915=CARTESIAN_POINT('',(2.5,1.44337567297406,91.));
#916=CARTESIAN_POINT('',(2.5,1.44337567297406,0.));
#917=CARTESIAN_POINT('Origin',(2.5,-1.44337567297407,0.));
#918=CARTESIAN_POINT('',(2.5,-1.44337567297407,0.));
#919=CARTESIAN_POINT('',(2.5,-1.44337567297407,0.));
#920=CARTESIAN_POINT('',(2.5,-1.44337567297407,91.));
#921=CARTESIAN_POINT('',(2.5,-1.44337567297407,91.));
#922=CARTESIAN_POINT('',(2.5,-1.44337567297407,0.));
#923=CARTESIAN_POINT('Origin',(-1.28197512425571E-15,-2.88675134594813,
0.));
#924=CARTESIAN_POINT('',(-1.28197512425571E-15,-2.88675134594813,0.));
#925=CARTESIAN_POINT('',(-1.28197512425571E-15,-2.88675134594813,0.));
#926=CARTESIAN_POINT('',(-1.38777878078145E-15,-2.88675134594813,91.));
#927=CARTESIAN_POINT('',(-1.28197512425571E-15,-2.88675134594813,91.));
#928=CARTESIAN_POINT('',(-1.28197512425571E-15,-2.88675134594813,0.));
#929=CARTESIAN_POINT('Origin',(-2.5,-1.44337567297406,0.));
#930=CARTESIAN_POINT('',(-2.5,-1.44337567297406,0.));
#931=CARTESIAN_POINT('',(-2.5,-1.44337567297406,0.));
#932=CARTESIAN_POINT('',(-2.5,-1.44337567297406,91.));
#933=CARTESIAN_POINT('',(-2.5,-1.44337567297406,91.));
#934=CARTESIAN_POINT('',(-2.5,-1.44337567297406,0.));
#935=CARTESIAN_POINT('Origin',(-2.5,1.44337567297407,0.));
#936=CARTESIAN_POINT('',(-2.5,1.44337567297407,0.));
#937=CARTESIAN_POINT('',(-2.5,1.44337567297407,91.));
#938=CARTESIAN_POINT('Origin',(0.,0.,91.));
#939=CARTESIAN_POINT('Origin',(0.,0.,0.));
#940=CARTESIAN_POINT('',(0.,0.,0.));
#941=CARTESIAN_POINT('',(0.,0.,0.));
#942=CARTESIAN_POINT('',(0.,0.,0.));
#943=CARTESIAN_POINT('',(-11.,0.,0.));
#944=CARTESIAN_POINT('',(-11.,0.,0.));
#945=CARTESIAN_POINT('',(-11.,0.,0.));
#946=UNCERTAINTY_MEASURE_WITH_UNIT(LENGTH_MEASURE(0.01),#956,
'DISTANCE_ACCURACY_VALUE',
'Maximum model space distance between geometric entities at asserted c
onnectivities');
#947=UNCERTAINTY_MEASURE_WITH_UNIT(LENGTH_MEASURE(0.01),#956,
'DISTANCE_ACCURACY_VALUE',
'Maximum model space distance between geometric entities at asserted c
onnectivities');
#948=UNCERTAINTY_MEASURE_WITH_UNIT(LENGTH_MEASURE(0.01),#956,
'DISTANCE_ACCURACY_VALUE',
'Maximum model space distance between geometric entities at asserted c
onnectivities');
#949=UNCERTAINTY_MEASURE_WITH_UNIT(LENGTH_MEASURE(0.01),#956,
'DISTANCE_ACCURACY_VALUE',
'Maximum model space distance between geometric entities at asserted c
onnectivities');
#950=UNCERTAINTY_MEASURE_WITH_UNIT(LENGTH_MEASURE(0.01),#956,
'DISTANCE_ACCURACY_VALUE',
'Maximum model space distance between geometric entities at asserted c
onnectivities');
#951=(
GEOMETRIC_REPRESENTATION_CONTEXT(3)
GLOBAL_UNCERTAINTY_ASSIGNED_CONTEXT((#946))
GLOBAL_UNIT_ASSIGNED_CONTEXT((#956,#958,#959))
REPRESENTATION_CONTEXT('','3D')
);
#952=(
GEOMETRIC_REPRESENTATION_CONTEXT(3)
GLOBAL_UNCERTAINTY_ASSIGNED_CONTEXT((#947))
GLOBAL_UNIT_ASSIGNED_CONTEXT((#956,#958,#959))
REPRESENTATION_CONTEXT('','3D')
);
#953=(
GEOMETRIC_REPRESENTATION_CONTEXT(3)
GLOBAL_UNCERTAINTY_ASSIGNED_CONTEXT((#948))
GLOBAL_UNIT_ASSIGNED_CONTEXT((#956,#958,#959))
REPRESENTATION_CONTEXT('','3D')
);
#954=(
GEOMETRIC_REPRESENTATION_CONTEXT(3)
GLOBAL_UNCERTAINTY_ASSIGNED_CONTEXT((#949))
GLOBAL_UNIT_ASSIGNED_CONTEXT((#956,#958,#959))
REPRESENTATION_CONTEXT('','3D')
);
#955=(
GEOMETRIC_REPRESENTATION_CONTEXT(3)
GLOBAL_UNCERTAINTY_ASSIGNED_CONTEXT((#950))
GLOBAL_UNIT_ASSIGNED_CONTEXT((#956,#958,#959))
REPRESENTATION_CONTEXT('','3D')
);
#956=(
LENGTH_UNIT()
NAMED_UNIT(*)
SI_UNIT(.MILLI.,.METRE.)
);
#957=(
LENGTH_UNIT()
NAMED_UNIT(*)
SI_UNIT($,.METRE.)
);
#958=(
NAMED_UNIT(*)
PLANE_ANGLE_UNIT()
SI_UNIT($,.RADIAN.)
);
#959=(
NAMED_UNIT(*)
SI_UNIT($,.STERADIAN.)
SOLID_ANGLE_UNIT()
);
#960=SHAPE_DEFINITION_REPRESENTATION(#964,#974);
#961=SHAPE_DEFINITION_REPRESENTATION(#965,#975);
#962=SHAPE_DEFINITION_REPRESENTATION(#966,#976);
#963=SHAPE_DEFINITION_REPRESENTATION(#967,#977);
#964=PRODUCT_DEFINITION_SHAPE('',$,#979);
#965=PRODUCT_DEFINITION_SHAPE('',$,#980);
#966=PRODUCT_DEFINITION_SHAPE('',$,#981);
#967=PRODUCT_DEFINITION_SHAPE('',$,#982);
#968=PRODUCT_DEFINITION_SHAPE($,$,#29);
#969=PRODUCT_DEFINITION_SHAPE($,$,#30);
#970=PRODUCT_DEFINITION_SHAPE($,$,#31);
#971=PRODUCT_DEFINITION_SHAPE($,$,#32);
#972=PRODUCT_DEFINITION_SHAPE($,$,#33);
#973=PRODUCT_DEFINITION_SHAPE($,$,#34);
#974=SHAPE_REPRESENTATION('',(#586,#630,#631,#632,#633,#634,#635),#951);
#975=SHAPE_REPRESENTATION('',(#587),#952);
#976=SHAPE_REPRESENTATION('',(#604),#953);
#977=SHAPE_REPRESENTATION('',(#621),#954);
#978=PRODUCT_DEFINITION_CONTEXT('part definition',#992,'design');
#979=PRODUCT_DEFINITION('2026-07-29-21-30-18-226',
'card-shuffler-hex-shaft-and-connectors',#983,#978);
#980=PRODUCT_DEFINITION('2026-07-29-22-06-59-016','Component1',#984,#978);
#981=PRODUCT_DEFINITION('2026-07-29-22-06-59-022','Component2',#985,#978);
#982=PRODUCT_DEFINITION('2026-07-29-22-06-59-026','Component3',#986,#978);
#983=PRODUCT_DEFINITION_FORMATION('',$,#994);
#984=PRODUCT_DEFINITION_FORMATION('',$,#995);
#985=PRODUCT_DEFINITION_FORMATION('',$,#996);
#986=PRODUCT_DEFINITION_FORMATION('',$,#997);
#987=PRODUCT_RELATED_PRODUCT_CATEGORY(
'card-shuffler-hex-shaft-and-connectors',
'card-shuffler-hex-shaft-and-connectors',(#994));
#988=PRODUCT_RELATED_PRODUCT_CATEGORY('Component1','Component1',(#995));
#989=PRODUCT_RELATED_PRODUCT_CATEGORY('Component2','Component2',(#996));
#990=PRODUCT_RELATED_PRODUCT_CATEGORY('Component3','Component3',(#997));
#991=APPLICATION_PROTOCOL_DEFINITION('international standard',
'automotive_design',2009,#992);
#992=APPLICATION_CONTEXT(
'Core Data for Automotive Mechanical Design Process');
#993=PRODUCT_CONTEXT('part definition',#992,'mechanical');
#994=PRODUCT('2026-07-29-21-30-18-226',
'card-shuffler-hex-shaft-and-connectors',$,(#993));
#995=PRODUCT('2026-07-29-22-06-59-016','Component1',$,(#993));
#996=PRODUCT('2026-07-29-22-06-59-022','Component2',$,(#993));
#997=PRODUCT('2026-07-29-22-06-59-026','Component3',$,(#993));
#998=PRESENTATION_STYLE_ASSIGNMENT((#999));
#999=SURFACE_STYLE_USAGE(.BOTH.,#1000);
#1000=SURFACE_SIDE_STYLE('',(#1001));
#1001=SURFACE_STYLE_FILL_AREA(#1002);
#1002=FILL_AREA_STYLE('Steel - Satin',(#1003));
#1003=FILL_AREA_STYLE_COLOUR('Steel - Satin',#1004);
#1004=COLOUR_RGB('Steel - Satin',0.627450980392157,0.627450980392157,0.627450980392157);
ENDSEC;
END-ISO-10303-21;
